<svg width="414" height="414" viewBox="0 0 414 414" fill="none" xmlns="http://www.w3.org/2000/svg">
<rect x="414" y="91.9999" width="46" height="46" transform="rotate(90 414 91.9999)" fill="#E599BB"/>
<rect x="138" y="138" width="46" height="46" rx="23" transform="rotate(-90 138 138)" fill="#C4C4C4"/>
<rect x="414" width="46" height="46" rx="23" transform="rotate(90 414 0)" fill="#F5B84A"/>
<rect x="138" y="368" width="46" height="46" transform="rotate(-180 138 368)" fill="#F6C060"/>
<rect x="92" y="230" width="46" height="46" fill="#9D7AFF"/>
<path d="M92 322L46 322C46 296.595 66.5949 276 92 276L92 322Z" fill="#50C79C"/>
<path d="M46 368L0 368C2.23689e-06 342.595 20.5949 322 46 322L46 368Z" fill="#5975E1"/>
<rect x="46" y="414" width="46" height="46" transform="rotate(-180 46 414)" fill="#E599BB"/>
<rect x="46" y="322" width="46" height="46" rx="23" transform="rotate(-180 46 322)" fill="#4ACADB"/>
<rect x="138" y="414" width="46" height="46" rx="23" transform="rotate(-180 138 414)" fill="#9D7AFF"/>
<path d="M0 276L-2.02513e-06 230C25.4051 230 46 250.595 46 276L0 276Z" fill="#5975E1"/>
<path fill-rule="evenodd" clip-rule="evenodd" d="M46 414C71.3569 413.943 91.9999 393.37 91.9999 368C91.9999 342.63 71.3569 322.057 46 322L46 345.376C58.4472 345.433 68.5714 355.54 68.5714 368C68.5714 380.46 58.4472 390.568 46 390.624L46 414Z" fill="#1AE2C5"/>
<rect x="368" y="138" width="46" height="46" transform="rotate(90 368 138)" fill="#9D7AFF"/>
<rect x="184" y="414" width="46" height="46" transform="rotate(-90 184 414)" fill="#F6C060"/>
<rect x="322" y="368" width="46" height="46" transform="rotate(90 322 368)" fill="#9D7AFF"/>
<path d="M414 322L414 368C388.595 368 368 347.405 368 322L414 322Z" fill="#5975E1"/>
<path d="M230 368L230 322C255.405 322 276 342.595 276 368L230 368Z" fill="#50C79C"/>
<path d="M184 322L184 276C209.405 276 230 296.595 230 322L184 322Z" fill="#5975E1"/>
<rect x="368" y="184" width="46" height="46" transform="rotate(90 368 184)" fill="#C4C4C4"/>
<rect x="138" y="230" width="46" height="46" transform="rotate(-90 138 230)" fill="#9D7AFF"/>
<rect x="322" y="322" width="46" height="46" transform="rotate(90 322 322)" fill="#C4C4C4"/>
<rect x="230" y="230" width="46" height="46" transform="rotate(-90 230 230)" fill="#C4C4C4"/>
<rect x="414" y="230" width="46" height="46" transform="rotate(90 414 230)" fill="#E599BB"/>
<rect x="138" y="322" width="46" height="46" transform="rotate(-90 138 322)" fill="#E599BB"/>
<rect x="414" y="368" width="46" height="46" transform="rotate(90 414 368)" fill="#E599BB"/>
<rect x="368" y="230" width="46" height="46" rx="23" transform="rotate(90 368 230)" fill="#50C79C"/>
<rect x="230" y="322" width="46" height="46" rx="23" transform="rotate(-90 230 322)" fill="#4ACADB"/>
<rect x="276" y="368" width="46" height="46" rx="23" transform="rotate(90 276 368)" fill="#E599BB"/>
<rect x="414" y="138" width="46" height="46.0111" rx="23" transform="rotate(90 414 138)" fill="#4ACADB"/>
<rect x="138" y="414" width="46" height="46" rx="23" transform="rotate(-90 138 414)" fill="#C4C4C4"/>
<rect x="414" y="276" width="46" height="46" rx="23" transform="rotate(90 414 276)" fill="#C4C4C4"/>
<rect x="138" y="276" width="46" height="46" rx="23" transform="rotate(-90 138 276)" fill="#C4C4C4"/>
<path d="M368 322L322 322C322 296.595 342.595 276 368 276L368 322Z" fill="#F6C060"/>
<path d="M276 184L322 184C322 209.405 301.405 230 276 230L276 184Z" fill="#5975E1"/>
<path d="M276 276L230 276C230 250.595 250.595 230 276 230L276 276Z" fill="#F6C060"/>
<path fill-rule="evenodd" clip-rule="evenodd" d="M230 138C204.643 138.057 184 158.63 184 184C184 209.37 204.643 229.943 230 230L230 206.624C217.553 206.567 207.43 196.459 207.43 184C207.43 171.54 217.553 161.433 230 161.376L230 138Z" fill="#1AE2C5"/>
<path fill-rule="evenodd" clip-rule="evenodd" d="M322 230C296.643 230.057 276 250.63 276 276C276 301.37 296.643 321.943 322 322L322 298.624C309.553 298.567 299.43 288.459 299.43 276C299.43 263.54 309.553 253.433 322 253.376L322 230Z" fill="#1AE2C5"/>
<path fill-rule="evenodd" clip-rule="evenodd" d="M138 322C138.057 347.357 158.63 367.999 184 367.999C209.37 367.999 229.943 347.357 230 322L206.623 322C206.566 334.446 196.459 344.57 183.999 344.57C171.54 344.57 161.432 334.446 161.375 322L138 322Z" fill="#1AE2C5"/>
<mask id="path-39-inside-1" fill="white">
<path fill-rule="evenodd" clip-rule="evenodd" d="M368 45.9999C342.643 46.0568 322 66.6299 322 91.9999C322 117.37 342.643 137.943 368 138L368 114.624C355.553 114.567 345.43 104.459 345.43 91.9996C345.43 79.5398 355.553 69.4325 368 69.3754L368 45.9999Z"/>
</mask>
<path d="M368 45.9999L370.5 45.9999L370.5 43.4943L367.994 43.4999L368 45.9999ZM368 138L367.994 140.5L370.5 140.505L370.5 138L368 138ZM368 114.624L370.5 114.624L370.5 112.135L368.011 112.124L368 114.624ZM368 69.3754L368.011 71.8754L370.5 71.864L370.5 69.3754L368 69.3754ZM367.994 43.4999C341.267 43.5599 319.5 65.2436 319.5 91.9999L324.5 91.9999C324.5 68.0161 344.019 48.5537 368.006 48.4999L367.994 43.4999ZM319.5 91.9999C319.5 118.756 341.267 140.44 367.994 140.5L368.006 135.5C344.019 135.446 324.5 115.984 324.5 91.9999L319.5 91.9999ZM370.5 138L370.5 114.624L365.5 114.624L365.5 138L370.5 138ZM342.93 91.9996C342.93 105.844 354.174 117.06 367.989 117.124L368.011 112.124C356.933 112.073 347.93 103.075 347.93 91.9996L342.93 91.9996ZM367.989 66.8755C354.174 66.9388 342.93 78.1555 342.93 91.9996L347.93 91.9996C347.93 80.9241 356.933 71.9262 368.011 71.8754L367.989 66.8755ZM370.5 69.3754L370.5 45.9999L365.5 45.9999L365.5 69.3754L370.5 69.3754Z" fill="#1AE2C5" mask="url(#path-39-inside-1)"/>
<rect x="93.25" y="277.25" width="43.5" height="43.5" rx="21.75" stroke="#31C3D7" stroke-width="2.5"/>
<mask id="path-42-inside-2" fill="white">
<path fill-rule="evenodd" clip-rule="evenodd" d="M46 184C46.0568 209.357 66.6299 230 92 230C117.37 230 137.943 209.357 138 184L114.623 184C114.567 196.447 104.459 206.571 91.9993 206.571C79.5394 206.571 69.432 196.447 69.3752 184L46 184Z"/>
</mask>
<path d="M46 184L46 181.5H43.4944L43.5 184.006L46 184ZM138 184L140.5 184.006L140.506 181.5H138V184ZM114.623 184L114.623 181.5L112.135 181.5L112.123 183.989L114.623 184ZM69.3752 184L71.8752 183.989L71.8638 181.5H69.3752V184ZM43.5 184.006C43.5599 210.733 65.2437 232.5 92 232.5L92 227.5C68.0162 227.5 48.5537 207.981 48.5 183.994L43.5 184.006ZM92 232.5C118.756 232.5 140.44 210.733 140.5 184.006L135.5 183.994C135.446 207.981 115.984 227.5 92 227.5L92 232.5ZM138 181.5L114.623 181.5L114.623 186.5L138 186.5V181.5ZM91.9993 209.071C105.844 209.071 117.06 197.826 117.123 184.011L112.123 183.989C112.073 195.067 103.075 204.071 91.9993 204.071L91.9993 209.071ZM66.8752 184.011C66.9383 197.826 78.1551 209.071 91.9993 209.071L91.9993 204.071C80.9238 204.071 71.9258 195.067 71.8752 183.989L66.8752 184.011ZM69.3752 181.5L46 181.5L46 186.5L69.3752 186.5V181.5Z" fill="#1AE2C5" mask="url(#path-42-inside-2)"/>
<rect x="185.25" y="274.75" width="43.5" height="43.5" transform="rotate(-90 185.25 274.75)" stroke="#50C79C" stroke-width="2.5"/>
<path d="M412.75 185.25L412.75 228.733C389.029 228.082 369.918 208.971 369.267 185.25L412.75 185.25Z" stroke="#5975E1" stroke-width="2.5"/>
<path d="M277.25 139.25L320.733 139.25C320.082 162.971 300.971 182.082 277.25 182.733L277.25 139.25Z" stroke="#F6C060" stroke-width="2.5"/>
<mask id="path-47-inside-3" fill="white">
<path fill-rule="evenodd" clip-rule="evenodd" d="M368 322C342.643 322.057 322 342.63 322 368C322 393.37 342.643 413.943 368 414L368 390.624C355.553 390.567 345.43 380.46 345.43 368C345.43 355.54 355.553 345.433 368 345.376L368 322Z"/>
</mask>
<path d="M368 322L370.5 322L370.5 319.494L367.994 319.5L368 322ZM368 414L367.994 416.5L370.5 416.506L370.5 414L368 414ZM368 390.624L370.5 390.624L370.5 388.135L368.011 388.124L368 390.624ZM368 345.376L368.011 347.876L370.5 347.864L370.5 345.376L368 345.376ZM367.994 319.5C341.267 319.56 319.5 341.244 319.5 368L324.5 368C324.5 344.016 344.019 324.554 368.006 324.5L367.994 319.5ZM319.5 368C319.5 394.756 341.267 416.44 367.994 416.5L368.006 411.5C344.019 411.446 324.5 391.984 324.5 368L319.5 368ZM370.5 414L370.5 390.624L365.5 390.624L365.5 414L370.5 414ZM342.93 368C342.93 381.844 354.174 393.061 367.989 393.124L368.011 388.124C356.933 388.073 347.93 379.075 347.93 368L342.93 368ZM367.989 342.876C354.174 342.939 342.93 354.156 342.93 368L347.93 368C347.93 356.924 356.933 347.926 368.011 347.876L367.989 342.876ZM370.5 345.376L370.5 322L365.5 322L365.5 345.376L370.5 345.376Z" fill="#1AE2C5" mask="url(#path-47-inside-3)"/>
</svg>
