<svg width="18" height="18" viewBox="0 0 18 18" fill="none" xmlns="http://www.w3.org/2000/svg">
<path d="M5.82717 11.9456C4.81171 11.8216 3.85106 11.4164 3.05344 10.7759C2.25583 10.1353 1.65294 9.2847 1.3127 8.31994C0.972467 7.35517 0.908404 6.31457 1.12773 5.31535C1.34706 4.31614 1.84106 3.39803 2.55408 2.66445C3.2671 1.93088 4.1708 1.41099 5.16338 1.16336C6.15596 0.915729 7.19797 0.950199 8.17201 1.26289C9.14605 1.57557 10.0134 2.15405 10.6764 2.93314C11.3394 3.71224 11.7716 4.66099 11.9244 5.67252" stroke="#F5B84A" stroke-miterlimit="10" stroke-linecap="square"/>
<path d="M11.452 17.0321C14.5161 17.0321 17 14.5482 17 11.4841C17 8.42006 14.5161 5.93616 11.452 5.93616C8.38796 5.93616 5.90405 8.42006 5.90405 11.4841C5.90405 14.5482 8.38796 17.0321 11.452 17.0321Z" stroke="#F5B84A" stroke-miterlimit="10" stroke-linecap="square"/>
<path d="M10 14.3295C10.3875 14.6957 10.9005 14.8998 11.4337 14.8998C11.9669 14.8998 12.4798 14.6957 12.8674 14.3295" stroke="#F5B84A" stroke-miterlimit="10" stroke-linecap="square"/>
<path d="M9.7 12.4C10.0866 12.4 10.4 12.0866 10.4 11.7C10.4 11.3134 10.0866 11 9.7 11C9.3134 11 9 11.3134 9 11.7C9 12.0866 9.3134 12.4 9.7 12.4Z" fill="#F5B84A"/>
<path d="M14.0944 12.4C14.481 12.4 14.7944 12.0866 14.7944 11.7C14.7944 11.3134 14.481 11 14.0944 11C13.7078 11 13.3944 11.3134 13.3944 11.7C13.3944 12.0866 13.7078 12.4 14.0944 12.4Z" fill="#F5B84A"/>
<path d="M6.77193 8.33117H6.54123C6.27675 8.32361 6.01354 8.37041 5.76788 8.46868C5.52222 8.56694 5.29934 8.71458 5.11304 8.90245" stroke="#F5B84A" stroke-miterlimit="10" stroke-linecap="square"/>
<path d="M4.7 6.4C5.0866 6.4 5.4 6.0866 5.4 5.7C5.4 5.3134 5.0866 5 4.7 5C4.3134 5 4 5.3134 4 5.7C4 6.0866 4.3134 6.4 4.7 6.4Z" fill="#F5B84A"/>
<path d="M9.10539 6.4C9.49199 6.4 9.8054 6.0866 9.8054 5.7C9.8054 5.3134 9.49199 5 9.10539 5C8.7188 5 8.4054 5.3134 8.4054 5.7C8.4054 6.0866 8.7188 6.4 9.10539 6.4Z" fill="#F5B84A"/>
</svg>
