<svg width="19" height="26" viewBox="0 0 19 26" fill="none" xmlns="http://www.w3.org/2000/svg">
<path d="M1 20.4994H5.50065L7.34278 16.9721" stroke="#4262DE" stroke-width="1.5" stroke-miterlimit="10" stroke-linecap="square"/>
<path d="M2.14087 11.498C2.14087 11.498 3.041 8.11731 7.73005 8.11731L5.78326 13.1936C5.63145 13.5854 5.59514 14.0126 5.67861 14.4244C5.76209 14.8362 5.96186 15.2155 6.25426 15.5172L9.66638 19.0026V25" stroke="#4262DE" stroke-width="1.5" stroke-miterlimit="10" stroke-linecap="square"/>
<path d="M17.9141 9.61404C17.5347 10.0732 17.0531 10.4372 16.5079 10.6771C15.9627 10.917 15.369 11.0261 14.7741 10.9956C11.8749 10.9956 11.3411 8.11731 7.68823 8.11731" stroke="#4262DE" stroke-width="1.5" stroke-miterlimit="10" stroke-linecap="square"/>
<path d="M12.6598 6.98692C14.3131 6.98692 15.6533 5.6467 15.6533 3.99346C15.6533 2.34022 14.3131 1 12.6598 1C11.0066 1 9.66638 2.34022 9.66638 3.99346C9.66638 5.6467 11.0066 6.98692 12.6598 6.98692Z" stroke="#4262DE" stroke-width="1.5" stroke-miterlimit="10" stroke-linecap="square"/>
<path d="M11.6027 9.80243L9.66638 14.8159" stroke="#4262DE" stroke-width="1.5" stroke-miterlimit="10" stroke-linecap="square"/>
</svg>
