<svg width="25" height="34" viewBox="0 0 25 34" fill="none" xmlns="http://www.w3.org/2000/svg">
<path d="M1 26.9994H7.00057L9.45369 22.2938" stroke="#4262DE" stroke-width="2" stroke-miterlimit="10" stroke-linecap="square"/>
<path d="M2.52295 14.9892C2.52295 14.9892 3.71759 10.4933 9.97351 10.4933L7.37447 17.2508C7.17168 17.7758 7.12403 18.348 7.2372 18.8993C7.35038 19.4506 7.6196 19.9578 8.01283 20.3605L12.5725 25.0023V33" stroke="#4262DE" stroke-width="2" stroke-miterlimit="10" stroke-linecap="square"/>
<path d="M23.5432 12.4904C23.041 13.0913 22.407 13.5685 21.6906 13.8848C20.9742 14.2011 20.1945 14.3481 19.4121 14.3143C15.5546 14.3143 14.8524 10.4933 9.97351 10.4933" stroke="#4262DE" stroke-width="2" stroke-miterlimit="10" stroke-linecap="square"/>
<path d="M16.5395 8.9886C18.7455 8.9886 20.5338 7.20029 20.5338 4.9943C20.5338 2.78831 18.7455 1 16.5395 1C14.3335 1 12.5452 2.78831 12.5452 4.9943C12.5452 7.20029 14.3335 8.9886 16.5395 8.9886Z" stroke="#4262DE" stroke-width="2" stroke-miterlimit="10" stroke-linecap="square"/>
<path d="M15.1351 12.7275L12.5543 19.4121" stroke="#4262DE" stroke-width="2" stroke-miterlimit="10" stroke-linecap="square"/>
</svg>
