<svg width="20" height="27" viewBox="0 0 20 27" fill="none" xmlns="http://www.w3.org/2000/svg">
<path d="M10.0025 24.9988C9.60503 25.0103 9.20943 24.9406 8.83992 24.7938C8.47041 24.647 8.13479 24.4263 7.85365 24.1451C7.57251 23.864 7.35177 23.5283 7.20498 23.1588C7.05818 22.7893 6.98843 22.3937 7 21.9963V13.0308C7.83338 13.0251 8.63546 12.7126 9.253 12.1529C9.87054 11.5933 9.93045 10.8257 10.0179 9.99692V1H1.00004V9.99692C1.10403 10.8302 1.09676 11.5972 1.72415 12.1553C2.35153 12.7134 3.16034 13.0245 4.00002 13.0308V22.0277C4.00432 22.4217 3.92936 22.8126 3.77959 23.177C3.62983 23.5415 3.40832 23.8722 3.12823 24.1493C2.84814 24.4265 2.51519 24.6445 2.14916 24.7904C1.78314 24.9364 1.39151 25.0072 0.997559 24.9988" stroke="#62C797" stroke-width="1.5" stroke-miterlimit="10" stroke-linecap="square"/>
<path d="M13.0099 1V9.99692" stroke="#62C797" stroke-width="1.5" stroke-miterlimit="10" stroke-linecap="square"/>
<path d="M16.0123 1V9.99692" stroke="#62C797" stroke-width="1.5" stroke-miterlimit="10" stroke-linecap="square"/>
<path d="M16.0123 24.9988V13.0308C16.4117 13.0395 16.8086 12.9668 17.1789 12.817C17.5492 12.6672 17.8851 12.4436 18.1661 12.1597C18.4471 11.8757 18.6672 11.5375 18.8131 11.1657C18.9591 10.7939 19.0277 10.3962 19.0148 9.99696V1.0105" stroke="#62C797" stroke-width="1.5" stroke-miterlimit="10" stroke-linecap="square"/>
</svg>
