<svg width="29" height="34" viewBox="0 0 29 34" fill="none" xmlns="http://www.w3.org/2000/svg">
<path d="M12.0231 4.7439L12.8764 5.2653L11.7861 3.77239L12.0231 4.7439ZM10.0214 12.2497L11.0214 12.2478L11.0214 12.2347L11.021 12.2216L10.0214 12.2497ZM24.5153 26.5593L24.5153 27.5593H24.5297L24.544 27.5589L24.5153 26.5593ZM27.9181 26.0463L28.7728 26.5654L27.6508 25.0827L27.9181 26.0463ZM11.1698 4.22249C9.68805 6.64741 8.94206 9.4437 9.02182 12.2778L11.021 12.2216C10.9522 9.7756 11.5959 7.36094 12.8764 5.2653L11.1698 4.22249ZM9.02143 12.2516C9.02917 16.3176 10.6676 20.2123 13.5736 23.0814L14.9788 21.6581C12.4501 19.1616 11.0281 15.777 11.0214 12.2478L9.02143 12.2516ZM13.5736 23.0814C16.4793 25.9501 20.4146 27.5593 24.5153 27.5593L24.5153 25.5593C20.9374 25.5593 17.5078 24.155 14.9788 21.6581L13.5736 23.0814ZM24.544 27.5589C25.7758 27.5235 26.9987 27.3391 28.1854 27.0099L27.6508 25.0827C26.6198 25.3687 25.5571 25.5289 24.4865 25.5597L24.544 27.5589ZM27.0634 25.5272C25.921 27.4082 24.3263 28.9824 22.4197 30.1093L23.4374 31.831C25.6257 30.5376 27.4587 28.7292 28.7728 26.5654L27.0634 25.5272ZM22.4197 30.1093C20.5131 31.2362 18.354 31.8808 16.1341 31.985L16.2278 33.9828C18.7727 33.8633 21.2491 33.1245 23.4374 31.831L22.4197 30.1093ZM16.1341 31.985C13.914 32.0892 11.7027 31.6498 9.69641 30.7064L8.84532 32.5162C11.1472 33.5987 13.6829 34.1022 16.2278 33.9828L16.1341 31.985ZM9.69641 30.7064C7.69014 29.7629 5.95144 28.3449 4.63379 26.579L3.03084 27.775C4.54594 29.8055 6.5434 31.4338 8.84532 32.5162L9.69641 30.7064ZM4.63379 26.579C3.31618 24.8131 2.46013 22.7538 2.14064 20.5838L0.161971 20.8752C0.529948 23.3744 1.51569 25.7444 3.03084 27.775L4.63379 26.579ZM2.14064 20.5838C1.82115 18.4139 2.04793 16.1994 2.80116 14.1364L0.92247 13.4505C0.0553131 15.8255 -0.206009 18.3759 0.161971 20.8752L2.14064 20.5838ZM2.80116 14.1364C3.5544 12.0734 4.81113 10.225 6.4609 8.75576L5.13075 7.2622C3.23546 8.95014 1.78961 11.0755 0.92247 13.4505L2.80116 14.1364ZM6.4609 8.75576C8.11074 7.28643 10.1026 6.24176 12.2601 5.7154L11.7861 3.77239C9.31213 4.37595 7.02599 5.57432 5.13075 7.2622L6.4609 8.75576Z" fill="#706BE5"/>
<path d="M17.9917 1H22.0041L18.0008 4.95989H22.0041" stroke="#706BE5" stroke-width="2" stroke-linejoin="bevel"/>
<path d="M23.9875 12.2227H28L23.9966 16.1826H28" stroke="#706BE5" stroke-width="2" stroke-linejoin="bevel"/>
</svg>
