<svg width="22" height="26" viewBox="0 0 22 26" fill="none" xmlns="http://www.w3.org/2000/svg">
<path d="M9.15974 3.80939L9.80389 4.19353L8.97948 3.08137L9.15974 3.80939ZM7.70549 9.41799L8.45549 9.418L8.45515 9.39533L7.70549 9.41799ZM18.4112 20.1704L18.4091 20.9204L18.4344 20.9201L18.4112 20.1704ZM20.9381 19.7882L21.5811 20.1743L20.7386 19.0653L20.9381 19.7882ZM8.51559 3.42524C7.43315 5.24035 6.89196 7.32763 6.95583 9.44065L8.45515 9.39533C8.39991 7.56796 8.86795 5.76298 9.80389 4.19353L8.51559 3.42524ZM6.95549 9.41799C6.95548 12.4625 8.16087 15.3831 10.3078 17.5393L11.3707 16.481C9.50396 14.6061 8.45548 12.0662 8.45549 9.418L6.95549 9.41799ZM10.3078 17.5393C12.4547 19.6956 15.368 20.9116 18.4091 20.9204L18.4134 19.4204C15.7701 19.4128 13.2375 18.3559 11.3707 16.481L10.3078 17.5393ZM18.4344 20.9201C19.3485 20.8918 20.256 20.7546 21.1377 20.5112L20.7386 19.0653C19.9719 19.2769 19.1829 19.3962 18.3881 19.4208L18.4344 20.9201ZM20.2951 19.4022C19.4483 20.8125 18.2673 21.9917 16.8567 22.8354L17.6266 24.1227C19.2491 23.1523 20.6074 21.7961 21.5811 20.1743L20.2951 19.4022ZM16.8567 22.8354C15.4461 23.679 13.8496 24.161 12.2086 24.2387L12.2796 25.7371C14.1674 25.6476 16.0041 25.0931 17.6266 24.1227L16.8567 22.8354ZM12.2086 24.2387C10.5676 24.3165 8.93275 23.9876 7.44898 23.2811L6.80414 24.6354C8.51095 25.4481 10.3917 25.8265 12.2796 25.7371L12.2086 24.2387ZM7.44898 23.2811C5.96521 22.5746 4.67829 21.5124 3.70238 20.1884L2.49496 21.0785C3.61723 22.601 5.09734 23.8228 6.80414 24.6354L7.44898 23.2811ZM3.70238 20.1884C2.72647 18.8645 2.09175 17.3198 1.85458 15.6912L0.370235 15.9074C0.642921 17.7798 1.3727 19.556 2.49496 21.0785L3.70238 20.1884ZM1.85458 15.6912C1.6174 14.0627 1.78512 12.4007 2.34283 10.8526L0.931612 10.3442C0.290364 12.1241 0.0975491 14.035 0.370235 15.9074L1.85458 15.6912ZM2.34283 10.8526C2.90053 9.30452 3.83098 7.91829 5.05156 6.81672L4.04658 5.70316C2.64277 6.97009 1.57286 8.56422 0.931612 10.3442L2.34283 10.8526ZM5.05156 6.81672C6.27214 5.71516 7.74516 4.93229 9.34 4.5374L8.97948 3.08137C7.14476 3.53565 5.4504 4.43623 4.04658 5.70316L5.05156 6.81672Z" fill="#706BE5"/>
<path d="M13.574 1H16.5547L13.5843 3.9644H16.5547" stroke="#706BE5" stroke-width="1.5" stroke-linejoin="bevel"/>
<path d="M18.0193 9.41809H21L18.0296 12.3825H21" stroke="#706BE5" stroke-width="1.5" stroke-linejoin="bevel"/>
</svg>
