<svg width="227" height="653" viewBox="0 0 227 653" fill="none" xmlns="http://www.w3.org/2000/svg">
<path d="M108.364 56.5999C108.364 56.5999 109.164 62.0999 109.064 63.9999C108.964 65.8999 108.364 68.7999 108.364 68.7999" stroke="#979797" stroke-miterlimit="10"/>
<path d="M96.9639 96.3999C96.9639 96.3999 96.9639 106 96.9639 108.8C96.9639 111.6 97.1639 114.1 96.4639 114.9C95.7639 115.7 88.1639 121.5 77.8639 123.5C67.5639 125.5 61.9639 126.3 55.1639 136C48.3639 145.7 46.4639 156.4 44.5639 184.1C42.6639 211.8 42.2639 219.6 41.3639 224.1C40.4639 228.6 33.1639 248 30.9639 261.9C28.6639 275.8 25.6639 291.1 25.6639 295.3C25.6639 299.5 23.6639 301.9 23.1639 302.5C23.1639 302.5 13.7639 309.4 11.8639 312C9.96387 314.6 3.16387 327.8 2.36387 329.1C1.66387 330.4 -0.636122 334.1 1.96388 336.2C4.46388 338.3 7.76387 335.4 9.26387 332.9C10.7639 330.5 12.8639 327.7 13.8639 326.1C13.8639 326.1 9.36388 333.9 7.56388 341.1C5.76388 348.3 5.66389 353.6 5.66389 354.9C5.66389 356.2 5.96387 357.2 6.86387 357.6C6.86387 357.6 8.36387 358.3 9.36387 357.3C9.36387 357.3 9.16387 360.2 10.2639 361C11.1639 361.8 13.0639 362.1 14.3639 361.2C15.0639 360.7 15.3639 359.2 15.3639 359.2C15.3639 359.2 15.4639 361.8 17.1639 362.4C18.0639 362.7 20.1639 362.9 21.2639 361.4C21.9639 360.6 23.3639 357 23.9639 354.1C23.9639 354.1 23.1639 356.8 25.5639 357C27.8639 357.2 28.9639 356.2 29.8639 354.4C30.7639 352.6 37.9639 336.6 38.8639 333.3C39.7639 329.9 42.3639 317.8 42.6639 311.8C42.6639 311.8 42.5639 307.8 43.3639 304.7C44.1639 301.6 52.6639 281.2 54.6639 274.9C56.6639 268.6 61.2639 254.6 62.1639 248.7C63.0639 242.7 64.7639 232.5 65.4639 224.8C66.1639 217.1 69.8639 191.7 70.5639 188.5" stroke="#979797" stroke-miterlimit="10"/>
<path d="M22.2639 341.1C22.2639 341.1 16.5639 355.3 15.2639 359.7" stroke="#979797" stroke-miterlimit="10"/>
<path d="M29.2639 339.4C29.2639 339.4 24.764 351.7 24.064 354.2" stroke="#979797" stroke-miterlimit="10"/>
<path d="M15.3638 338.9C15.3638 338.9 9.76377 355.4 9.36377 357.5" stroke="#979797" stroke-miterlimit="10"/>
<path d="M72.8638 125.8C72.8638 125.8 71.9638 153.8 70.6638 159.4C69.3638 165 66.9638 176 68.6638 182.5C70.3638 189 72.4638 194.2 76.8638 196.8C81.2638 199.5 92.5638 198.9 96.1638 198.1" stroke="#979797" stroke-miterlimit="10"/>
<path d="M74.6638 195.1C74.6638 195.1 77.5638 234.6 77.3638 239.5C77.1638 244.4 76.8638 249.1 74.8638 252.6C72.8638 256.1 59.7638 281.4 56.9638 305.5C54.1638 329.6 53.5638 341.5 59.1638 376.3C64.7638 411.1 70.1638 430.5 71.2638 440.1C72.3638 449.7 73.7638 462.6 73.2638 470.2C72.6638 477.8 71.0638 504.2 72.1638 516.3C73.2638 528.4 81.4638 562.4 83.9638 572.5C86.4638 582.6 89.8638 597.8 89.5638 604.8C89.2638 611.8 88.1638 618 82.8638 627C77.5638 636 72.7638 641.7 76.3638 644C78.8638 645.5 81.1638 642.7 81.1638 642.7C81.1638 642.7 79.8638 646.8 82.6638 647.5C85.9638 648.3 86.8638 644.7 86.8638 644.7C86.8638 644.7 85.4638 649.3 88.9638 649.4C92.4638 649.5 93.2638 645.9 93.2638 645.9C93.2638 645.9 92.0638 649.9 93.6638 651C94.3638 651.5 97.0638 651.8 97.7638 651.1C100.164 648.5 102.064 641.7 102.064 641.7C102.064 641.7 99.2638 652.4 105.064 652.4C112.064 652.4 113.164 648 113.164 644.3C113.164 642.4 111.264 620 110.864 615.5C110.464 610.9 113.264 565.1 113.264 549.4C113.264 533.7 108.064 507.3 108.064 497.8C108.064 488.3 113.264 392 113.264 385.4C113.264 378.8 110.864 325.9 110.864 325.9" stroke="#979797" stroke-miterlimit="10"/>
<path d="M84.6638 470.2C84.6638 470.2 88.9638 475.1 91.8638 475.2C94.7638 475.3 97.5638 473.5 98.3638 472.7" stroke="#979797" stroke-miterlimit="10"/>
<path d="M108.364 131.4C104.764 130 96.1639 127.8 90.4639 128.1" stroke="#979797" stroke-miterlimit="10"/>
<path d="M111.064 133.4C111.064 133.4 112.564 133.6 113.364 134.5" stroke="#979797" stroke-miterlimit="10"/>
<path d="M82.8639 75.6999C82.8639 75.6999 78.9639 77.3999 76.2639 69.5999C74.8639 65.5999 73.3639 58.7999 75.3639 55.7999C76.1639 54.6999 78.6639 53.9999 79.7639 54.9999" stroke="#979797" stroke-miterlimit="10"/>
<path d="M103.964 51.6998C103.964 51.6998 100.164 48.6998 95.5639 48.6998C90.9639 48.6998 87.7639 51.2998 87.7639 51.2998" stroke="#979797" stroke-miterlimit="10"/>
<path d="M104.364 58.0999C104.364 58.0999 102.264 54.5999 97.1639 54.5999C92.0639 54.5999 89.9639 57.7999 89.9639 57.7999" stroke="#979797" stroke-miterlimit="10"/>
<path d="M100.264 57.5999C100.264 59.2567 98.9208 60.5999 97.2639 60.5999C95.6071 60.5999 94.2639 59.2567 94.2639 57.5999C94.2639 55.943 95.6071 54.5999 97.2639 54.5999C98.9208 54.5999 100.264 55.943 100.264 57.5999Z" fill="#979797" stroke="#979797"/>
<path d="M113.364 103.2C115.764 103.2 118.464 103 120.764 102.5C123.064 102 127.164 98.9999 129.764 96.3999C132.464 93.7999 138.764 88.0999 140.664 84.6999C142.564 81.2999 143.164 80.1999 145.564 66.4999C148.064 52.8999 146.864 46.2999 146.664 36.9999C146.464 27.6999 140.864 19.4999 130.964 14.2999C122.764 9.99985 115.664 9.59985 113.364 9.59985H113.264C110.964 9.59985 103.864 9.99985 95.564 14.2999C85.664 19.4999 80.064 27.6999 79.864 36.9999C79.664 46.2999 78.564 52.8999 80.964 66.4999C83.464 80.0999 83.964 81.2999 85.864 84.6999C87.764 88.0999 94.164 93.7999 96.764 96.3999C99.364 98.9999 103.464 102 105.764 102.5C108.264 103 110.964 103.2 113.364 103.2Z" stroke="#979797" stroke-miterlimit="10"/>
<path d="M120.264 76.2999C120.264 76.2999 119.564 75.5999 118.564 75.7999C117.564 75.9999 116.664 76.4999 115.964 77.4999C115.264 78.4999 114.064 78.3999 113.464 78.3999H113.364C112.764 78.3999 111.464 78.4999 110.764 77.4999C110.064 76.4999 109.164 75.9999 108.164 75.7999C107.164 75.5999 106.464 76.2999 106.464 76.2999" stroke="#979797" stroke-miterlimit="10"/>
<path d="M122.764 85.2998C122.364 84.9998 121.364 85.1998 120.264 85.2998C119.164 85.3998 114.664 85.6998 113.764 85.6998H113.364C112.464 85.6998 107.564 85.4998 106.464 85.2998C105.364 85.0998 104.364 84.9998 103.964 85.2998" stroke="#979797" stroke-miterlimit="10"/>
<path d="M117.964 89.3999C117.264 89.5999 116.064 91.9999 113.464 91.8999H113.364C110.664 92.0999 109.364 89.5999 108.764 89.3999" stroke="#979797" stroke-miterlimit="10"/>
<path d="M129.764 96.3999C129.764 96.3999 129.764 106 129.764 108.8C129.764 111.6 129.564 114.1 130.264 114.9C130.964 115.7 138.564 121.5 148.864 123.5C159.164 125.5 164.764 126.3 171.564 136C178.364 145.7 180.264 156.4 182.164 184.1C184.064 211.8 184.464 219.6 185.364 224.1C186.264 228.7 193.564 248 195.764 261.9C198.064 275.8 201.064 291.1 201.064 295.3C201.064 299.5 203.064 301.9 203.564 302.5C203.564 302.5 212.964 309.4 214.864 312C216.764 314.6 223.564 327.8 224.364 329.1C225.064 330.4 227.364 334.1 224.764 336.2C222.264 338.3 218.964 335.4 217.464 332.9C215.964 330.5 213.864 327.7 212.864 326.1C212.864 326.1 217.364 333.9 219.164 341.1C220.964 348.3 221.064 353.6 221.064 354.9C221.064 356.2 220.764 357.2 219.864 357.6C219.864 357.6 218.364 358.3 217.364 357.3C217.364 357.3 217.564 360.2 216.464 361C215.564 361.8 213.664 362.1 212.364 361.2C211.664 360.7 211.364 359.2 211.364 359.2C211.364 359.2 211.264 361.8 209.564 362.4C208.664 362.7 206.564 362.9 205.464 361.4C204.764 360.6 203.364 357 202.764 354.1C202.764 354.1 203.564 356.8 201.164 357C198.864 357.2 197.764 356.2 196.864 354.4C195.964 352.6 188.764 336.6 187.864 333.3C186.964 329.9 184.364 317.8 184.064 311.8C184.064 311.8 184.164 307.8 183.364 304.7C182.564 301.6 174.064 281.2 172.064 274.9C170.064 268.6 165.464 254.6 164.564 248.7C163.664 242.7 161.964 232.5 161.264 224.8C160.564 217.1 156.864 191.7 156.164 188.5" stroke="#979797" stroke-miterlimit="10"/>
<path d="M204.464 341.1C204.464 341.1 210.164 355.3 211.464 359.7" stroke="#979797" stroke-miterlimit="10"/>
<path d="M197.464 339.4C197.464 339.4 201.964 351.7 202.664 354.2" stroke="#979797" stroke-miterlimit="10"/>
<path d="M211.464 338.9C211.464 338.9 217.064 355.4 217.464 357.5" stroke="#979797" stroke-miterlimit="10"/>
<path d="M153.864 125.8C153.864 125.8 154.764 153.8 156.064 159.4C157.364 165 159.764 176 158.064 182.5C156.364 189 154.264 194.2 149.864 196.8C145.464 199.5 134.164 198.9 130.564 198.1" stroke="#979797" stroke-miterlimit="10"/>
<path d="M152.064 195.1C152.064 195.1 149.164 234.6 149.364 239.5C149.564 244.4 149.864 249.1 151.864 252.6C153.864 256.1 166.964 281.4 169.764 305.5C172.564 329.6 173.164 341.5 167.564 376.3C161.964 411.1 156.564 430.5 155.464 440.1C154.364 449.7 152.964 462.6 153.464 470.2C154.064 477.8 155.664 504.2 154.564 516.3C153.464 528.4 145.264 562.4 142.764 572.5C140.264 582.6 136.864 597.8 137.164 604.8C137.464 611.8 138.564 618 143.864 627C149.164 636 153.964 641.7 150.364 644C147.864 645.5 145.564 642.7 145.564 642.7C145.564 642.7 146.864 646.8 144.064 647.5C140.764 648.3 139.864 644.7 139.864 644.7C139.864 644.7 141.264 649.3 137.764 649.4C134.264 649.5 133.464 645.9 133.464 645.9C133.464 645.9 134.664 649.9 133.064 651C132.364 651.5 129.664 651.8 128.964 651.1C126.564 648.5 124.664 641.7 124.664 641.7C124.664 641.7 127.464 652.4 121.664 652.4C114.664 652.4 113.564 648 113.564 644.3C113.564 642.4 115.464 620 115.864 615.5C116.264 610.9 113.464 565.1 113.464 549.4C113.464 533.7 118.664 507.3 118.664 497.8C118.664 488.2 113.464 392 113.464 385.4C113.464 378.8 115.864 325.9 115.864 325.9" stroke="#979797" stroke-miterlimit="10"/>
<path d="M142.064 470.2C142.064 470.2 137.764 475.1 134.864 475.2C131.964 475.3 129.164 473.5 128.364 472.7" stroke="#979797" stroke-miterlimit="10"/>
<path d="M144.564 125.8C144.564 125.8 146.464 148.1 136.064 157.6C125.664 167 118.064 168.2 113.564 168.2H113.264C108.764 168.2 100.864 167 90.4639 157.6C80.0639 148.2 81.9639 125.8 81.9639 125.8" stroke="#979797" stroke-miterlimit="10"/>
<path d="M118.364 131.4C121.964 130 130.564 127.8 136.264 128.1" stroke="#979797" stroke-miterlimit="10"/>
<path d="M146.364 61.4999C147.064 54.3999 143.464 39.3999 141.264 34.1999C139.064 28.9999 134.064 25.4999 127.464 25.4999C121.064 25.4999 115.364 26.4999 113.564 26.4999H113.364C111.564 26.4999 105.664 25.4999 99.2638 25.4999C92.6638 25.4999 87.7639 29.0999 85.4639 34.1999C83.1639 39.2999 79.6639 54.3999 80.3639 61.4999" stroke="#979797" stroke-miterlimit="10"/>
<path d="M134.764 16.6999C136.964 14.4999 135.764 9.19985 131.264 5.49985C125.764 1.09985 118.464 0.599854 113.464 0.599854H113.364C108.364 0.599854 100.864 1.09985 95.4639 5.49985C90.9639 9.19985 89.7639 14.5999 91.9639 16.6999" stroke="#979797" stroke-miterlimit="10"/>
<path d="M143.764 75.6999C143.764 75.6999 147.664 77.3999 150.364 69.5999C151.764 65.5999 153.264 58.7999 151.264 55.7999C150.464 54.6999 147.964 53.9999 146.864 54.9999" stroke="#979797" stroke-miterlimit="10"/>
<path d="M122.764 51.6998C122.764 51.6998 126.564 48.6998 131.164 48.6998C135.764 48.6998 138.964 51.2998 138.964 51.2998" stroke="#979797" stroke-miterlimit="10"/>
<path d="M122.364 58.0999C122.364 58.0999 124.464 54.5999 129.564 54.5999C134.664 54.5999 136.764 57.7999 136.764 57.7999" stroke="#979797" stroke-miterlimit="10"/>
<path d="M132.464 57.5999C132.464 59.2567 131.121 60.5999 129.464 60.5999C127.807 60.5999 126.464 59.2567 126.464 57.5999C126.464 55.943 127.807 54.5999 129.464 54.5999C131.121 54.5999 132.464 55.943 132.464 57.5999Z" fill="#979797" stroke="#979797"/>
<path d="M151.264 206.8C140.064 207.7 117.664 205.7 113.464 205.7H113.364C109.264 205.7 86.6639 207.7 75.4639 206.8" stroke="#979797" stroke-miterlimit="10"/>
<path d="M164.964 283.8C159.064 283.8 144.964 286.1 139.564 287.5C134.164 288.9 118.164 289.5 113.564 289.5H113.364C108.764 289.5 92.5639 288.9 87.1639 287.5C81.7639 286.1 67.6639 283.8 61.7639 283.8" stroke="#979797" stroke-miterlimit="10"/>
<path d="M169.764 305.5C157.964 304.7 151.364 306 142.564 309.9C133.464 313.9 121.964 322.3 118.564 324.2C115.164 326.1 114.764 325.4 113.364 325.4H113.264C111.864 325.4 111.364 326 107.964 324.2C104.564 322.4 93.0639 313.9 83.9639 309.9C75.1639 306.1 68.5639 304.7 56.7639 305.5" stroke="#979797" stroke-miterlimit="10"/>
<path d="M115.764 259C115.764 259.341 115.564 259.704 115.131 260.002C114.699 260.3 114.076 260.5 113.364 260.5C112.651 260.5 112.028 260.3 111.597 260.002C111.164 259.704 110.964 259.341 110.964 259C110.964 258.659 111.164 258.296 111.597 257.997C112.028 257.7 112.651 257.5 113.364 257.5C114.076 257.5 114.699 257.7 115.131 257.997C115.564 258.296 115.764 258.659 115.764 259Z" fill="#979797" stroke="#979797"/>
</svg>
