<?xml version="1.0" encoding="utf-8"?><svg xmlns="http://www.w3.org/2000/svg" xmlns:xlink="http://www.w3.org/1999/xlink"><symbol fill="none" viewBox="0 0 17 10" id="16-arrow-down" xmlns="http://www.w3.org/2000/svg"><path d="M1 1.01l7.52 7.56 7.51-7.51" stroke="currentColor" stroke-miterlimit="10" stroke-linecap="square"/></symbol><symbol fill="none" viewBox="0 0 9 16" id="16-arrow-left" xmlns="http://www.w3.org/2000/svg"><path d="M7.5 1L1 7.52 7.5 14" stroke="currentColor" stroke-miterlimit="10" stroke-linecap="square"/></symbol><symbol fill="none" viewBox="0 0 10 17" id="16-arrow-right" xmlns="http://www.w3.org/2000/svg"><path d="M1.01 15.99l7.56-7.52L1.06.96" stroke="currentColor" stroke-miterlimit="10" stroke-linecap="square"/></symbol><symbol fill="none" viewBox="0 0 17 10" id="16-arrow-up" xmlns="http://www.w3.org/2000/svg"><path d="M15.99 8.56L8.47 1 .96 8.51" stroke="currentColor" stroke-miterlimit="10" stroke-linecap="square"/></symbol><symbol fill="none" viewBox="0 0 12 16" id="16-calendar" xmlns="http://www.w3.org/2000/svg"><g clip-path="url(#aeclip0)" stroke="currentColor" stroke-miterlimit="10" stroke-linecap="square"><path d="M.383 2.377l11.242.01v3.725l-11.242.01V2.377zM11.617 6.122H.375v9.379h11.242V6.122zM2.251.5l.008 1.887M9.741.5l.015 1.887"/></g><defs><clipPath id="aeclip0"><path fill="#fff" d="M0 0h12v16H0z"/></clipPath></defs></symbol><symbol fill="none" viewBox="0 0 18 16" id="16-camera" xmlns="http://www.w3.org/2000/svg"><path d="M1 15.045h16V3.349h-3.979c-.33-.692-.886-1.282-1.6-1.697a4.794 4.794 0 00-2.405-.637c-.856 0-1.693.222-2.406.637-.713.415-1.27 1.005-1.6 1.697H1v11.696z" stroke="currentColor" stroke-miterlimit="10" stroke-linecap="square"/><circle cx="9" cy="9.015" r="3.5" stroke="currentColor"/></symbol><symbol fill="none" viewBox="0 0 16 16" id="16-check" xmlns="http://www.w3.org/2000/svg"><g clip-path="url(#agclip0)" stroke="currentColor" stroke-miterlimit="10" stroke-linecap="square"><path d="M8 15.501a7.5 7.5 0 100-15 7.5 7.5 0 000 15z" fill="currentColor" fill-opacity=".2"/><path d="M4.235 8.02l2.497 2.507 5.013-5.014"/></g><defs><clipPath id="agclip0"><path fill="#fff" d="M0 0h16v16H0z"/></clipPath></defs></symbol><symbol fill="none" viewBox="0 0 16 16" id="16-check-full" xmlns="http://www.w3.org/2000/svg"><g clip-path="url(#ahclip0)"><path d="M8 15.501a7.5 7.5 0 100-15 7.5 7.5 0 000 15z" fill="currentColor" stroke="currentColor" stroke-miterlimit="10" stroke-linecap="square"/><path d="M4.235 8.02l2.497 2.507 5.013-5.014" fill="currentColor"/><path d="M4.235 8.02l2.497 2.507 5.013-5.014" stroke="#fff" stroke-miterlimit="10" stroke-linecap="square"/></g><defs><clipPath id="ahclip0"><path fill="#fff" d="M0 0h16v16H0z"/></clipPath></defs></symbol><symbol fill="none" viewBox="0 0 16 16" id="16-check-outline" xmlns="http://www.w3.org/2000/svg"><g clip-path="url(#aiclip0)" stroke="currentColor" stroke-miterlimit="10" stroke-linecap="square"><path d="M8 15.501a7.5 7.5 0 100-15 7.5 7.5 0 000 15z"/><path d="M4.235 8.02l2.497 2.507 5.013-5.014"/></g><defs><clipPath id="aiclip0"><path fill="#fff" d="M0 0h16v16H0z"/></clipPath></defs></symbol><symbol fill="none" viewBox="0 0 18 18" id="16-close-full" xmlns="http://www.w3.org/2000/svg"><path d="M9 17A8 8 0 109 1a8 8 0 000 16z" fill="currentColor" stroke="currentColor" stroke-miterlimit="10" stroke-linecap="square"/><path d="M5.996 6.017l6.008 6.008M5.985 12.015l6.02-5.998" stroke="#fff" stroke-miterlimit="10" stroke-linecap="square"/></symbol><symbol fill="none" viewBox="0 0 18 18" id="16-close-outline" xmlns="http://www.w3.org/2000/svg"><path d="M9 17A8 8 0 109 1a8 8 0 000 16zM5.996 6.017l6.008 6.008M5.985 12.015l6.02-5.998" stroke="currentColor" stroke-miterlimit="10" stroke-linecap="square"/></symbol><symbol fill="none" viewBox="0 0 19 19" id="16-countermeasures" xmlns="http://www.w3.org/2000/svg"><path d="M11.706 2.097a3.743 3.743 0 016.393 2.65c0 .994-.395 1.947-1.097 2.65L7.392 17A3.743 3.743 0 011 14.351c0-.993.395-1.946 1.097-2.649l9.61-9.605zM3.82 10.24l5.147 5.15M10.2 3.605l5.147 5.162" stroke="currentColor" stroke-miterlimit="10" stroke-linecap="square"/><circle cx="15.5" cy="5.5" r=".5" transform="rotate(-180 15.5 5.5)" fill="currentColor"/><circle cx="15.5" cy="3.5" r=".5" transform="rotate(-180 15.5 3.5)" fill="currentColor"/><circle cx="13.5" cy="3.5" r=".5" transform="rotate(-180 13.5 3.5)" fill="currentColor"/><circle cx="3.5" cy="13.5" r=".5" fill="currentColor"/><circle cx="3.5" cy="15.5" r=".5" fill="currentColor"/><circle cx="5.5" cy="15.5" r=".5" fill="currentColor"/></symbol><symbol fill="none" viewBox="0 0 18 18" id="16-emotions" xmlns="http://www.w3.org/2000/svg"><path d="M5.827 11.946a5.494 5.494 0 116.097-6.273M11.452 17.032a5.548 5.548 0 100-11.096 5.548 5.548 0 000 11.096zM10 14.33a2.087 2.087 0 002.867 0" stroke="currentColor" stroke-miterlimit="10" stroke-linecap="square"/><path d="M9.7 12.4a.7.7 0 100-1.4.7.7 0 000 1.4zM14.094 12.4a.7.7 0 100-1.4.7.7 0 000 1.4z" fill="currentColor"/><path d="M6.772 8.331h-.23a1.933 1.933 0 00-1.429.571" stroke="currentColor" stroke-miterlimit="10" stroke-linecap="square"/><path d="M4.7 6.4a.7.7 0 100-1.4.7.7 0 000 1.4zM9.105 6.4a.7.7 0 100-1.4.7.7 0 000 1.4z" fill="currentColor"/></symbol><symbol fill="none" viewBox="0 0 18 10" id="16-eyes" xmlns="http://www.w3.org/2000/svg"><path d="M9 1C5 1 2 4 1 5c1 1 4 4 8 4s7-3 8-4c-1-1-4-4-8-4z" stroke="currentColor"/><circle cx="9" cy="5" r="3.5" stroke="currentColor"/></symbol><symbol fill="none" viewBox="0 0 16 16" id="16-home" xmlns="http://www.w3.org/2000/svg"><g clip-path="url(#aoclip0)" stroke="currentColor" stroke-miterlimit="10" stroke-linecap="square"><path d="M2.537 5.267v10.236H13.56V5.267"/><path d="M.683 6.161L8 .596l7.317 5.565"/></g><defs><clipPath id="aoclip0"><path fill="#fff" d="M0 0h16v16H0z"/></clipPath></defs></symbol><symbol fill="none" viewBox="0 0 18 18" id="16-lens" xmlns="http://www.w3.org/2000/svg"><path d="M6.763 12.47A5.73 5.73 0 011.04 6.735 5.73 5.73 0 016.763 1a5.73 5.73 0 015.724 5.735 5.73 5.73 0 01-5.724 5.735zM17.04 17l-6.351-6.097" stroke="currentColor" stroke-miterlimit="10" stroke-linecap="square"/></symbol><symbol fill="none" viewBox="0 0 12 18" id="16-microphone" xmlns="http://www.w3.org/2000/svg"><path d="M3.476 8V3.383a2.56 2.56 0 01.791-1.694A2.503 2.503 0 015.99 1c.64 0 1.256.246 1.722.689a2.56 2.56 0 01.792 1.694V8M8.503 8.242a2.56 2.56 0 01-.792 1.694 2.503 2.503 0 01-1.722.689c-.64 0-1.255-.246-1.722-.689a2.56 2.56 0 01-.791-1.694" stroke="currentColor" stroke-miterlimit="10" stroke-linecap="square"/><path d="M10.979 8.264a5.08 5.08 0 01-1.54 3.421 4.964 4.964 0 01-3.45 1.399c-1.284 0-2.52-.5-3.449-1.399A5.08 5.08 0 011 8.264M1 16.99L11 17M5.984 13.285V17" stroke="currentColor" stroke-miterlimit="10" stroke-linecap="square"/></symbol><symbol fill="none" viewBox="0 0 13 18" id="16-movement" xmlns="http://www.w3.org/2000/svg"><path d="M1 14h3l1.227-2.348" stroke="currentColor" stroke-miterlimit="10" stroke-linecap="square"/><path d="M1.758 7.991s.598-2.188 3.736-2.188L4.18 9.123a1.494 1.494 0 00.32 1.558l2.273 2.316V17M12.271 6.743a2.54 2.54 0 01-2.06.917c-1.931 0-2.273-1.857-4.717-1.857M8.77 4.992A1.996 1.996 0 108.77 1a1.996 1.996 0 000 3.992zM8.066 6.87l-1.291 3.341" stroke="currentColor" stroke-miterlimit="10" stroke-linecap="square"/></symbol><symbol fill="none" viewBox="0 0 14 18" id="16-nutrition" xmlns="http://www.w3.org/2000/svg"><path d="M6.988 17a1.942 1.942 0 01-1.996-1.997V9.005A1.985 1.985 0 007.01 6.998V1H1v5.998a1.964 1.964 0 001.996 2.007v5.998A1.954 1.954 0 011 17M9.016 1v5.998M11.012 1v5.998M11.012 17V9.004a1.964 1.964 0 001.996-2.007V1" stroke="currentColor" stroke-miterlimit="10" stroke-linecap="square"/></symbol><symbol fill="none" viewBox="0 0 18 18" id="16-pencil" xmlns="http://www.w3.org/2000/svg"><path d="M3.119 12.098l2.961 2.967M12.015 2.251l3.75 3.75-9.35 9.4L1 17l1.675-5.358 9.34-9.39zM15.766 6l.789-.793a1.548 1.548 0 000-2.173l-.79-.794-.788-.793a1.53 1.53 0 00-2.162 0l-.746.804" stroke="currentColor" stroke-miterlimit="10" stroke-linecap="square"/></symbol><symbol fill="none" viewBox="0 0 10 20" id="16-play" xmlns="http://www.w3.org/2000/svg"><path d="M1 18V2l8 8-8 8z" stroke="currentColor"/></symbol><symbol fill="none" viewBox="0 0 16 16" id="16-plus" xmlns="http://www.w3.org/2000/svg"><path d="M7.995 15.49a7.495 7.495 0 100-14.99 7.495 7.495 0 000 14.99z" fill="currentColor" fill-opacity=".2" stroke="currentColor" stroke-miterlimit="10" stroke-linecap="square"/><path d="M8.005 11.743V4.237M11.753 7.995H4.247" stroke="currentColor" stroke-miterlimit="10" stroke-linecap="square"/></symbol><symbol fill="none" viewBox="0 0 16 16" id="16-plus-full" xmlns="http://www.w3.org/2000/svg"><path d="M7.995 15.49a7.495 7.495 0 100-14.99 7.495 7.495 0 000 14.99z" fill="currentColor" stroke="currentColor" stroke-miterlimit="10" stroke-linecap="square"/><path d="M8.005 11.743V4.237M11.753 7.995H4.247" stroke="#fff" stroke-miterlimit="10" stroke-linecap="square"/></symbol><symbol fill="none" viewBox="0 0 16 16" id="16-plus-outline" xmlns="http://www.w3.org/2000/svg"><path d="M8.005 11.743V4.237M11.753 7.995H4.247M7.995 15.49a7.495 7.495 0 100-14.99 7.495 7.495 0 000 14.99z" stroke="currentColor" stroke-miterlimit="10" stroke-linecap="square"/></symbol><symbol fill="none" viewBox="0 0 15 18" id="16-sleep" xmlns="http://www.w3.org/2000/svg"><path d="M6.404 3.09l.425.264-.546-.748.121.485zm5.914 10.773v.5h.021l-.021-.5zm1.639-.274l.429.256-.572-.735.143.48zM1 9.977L.5 9.97v.007l.5-.001zm4.98-7.15a7.584 7.584 0 00-1.135 3.797l1 .026c.03-1.168.37-2.306.984-3.296l-.85-.527zM4.844 6.624a7.589 7.589 0 00.932 3.851l.877-.481a6.589 6.589 0 01-.81-3.344l-1-.026zm.932 3.851a7.511 7.511 0 002.744 2.843l.511-.86a6.51 6.51 0 01-2.378-2.464l-.877.481zm2.744 2.843a7.431 7.431 0 003.797 1.045v-1a6.43 6.43 0 01-3.286-.905l-.511.86zm3.818 1.044a7.236 7.236 0 001.76-.294l-.285-.958a6.234 6.234 0 01-1.517.253l.042 1zm1.188-1.029a6.494 6.494 0 01-3.15 2.702l.374.927a7.493 7.493 0 003.635-3.117l-.859-.512zm-3.15 2.702a6.42 6.42 0 01-4.124.229l-.269.963a7.42 7.42 0 004.767-.265l-.373-.927zm-4.124.229a6.475 6.475 0 01-3.424-2.335l-.798.603a7.475 7.475 0 003.953 2.695l.269-.963zm-3.424-2.335A6.58 6.58 0 011.5 9.976l-1 .002a7.58 7.58 0 001.531 4.554l.798-.603zM1.5 9.982a6.72 6.72 0 011.43-4.07l-.786-.617A7.721 7.721 0 00.5 9.97l1 .011zm1.43-4.07a6.613 6.613 0 013.595-2.336l-.242-.97a7.613 7.613 0 00-4.14 2.689l.787.617z" fill="currentColor"/><path d="M9.182 1h1.932L9.182 2.949h1.932M12.069 6.813H14l-1.931 1.949H14" stroke="currentColor" stroke-linejoin="bevel"/></symbol><symbol fill="none" viewBox="0 0 16 16" id="16-statistics" xmlns="http://www.w3.org/2000/svg"><g clip-path="url(#azclip0)" stroke="currentColor" stroke-miterlimit="10" stroke-linecap="square"><path d="M4.252 15.5V8M11.748 15.5V9.869M.5 15.5V9.869M7.995 15.5V4.246M.5.5v15.001h15.002"/></g><defs><clipPath id="azclip0"><path fill="#fff" d="M0 0h16v16H0z"/></clipPath></defs></symbol><symbol fill="none" viewBox="0 0 13 18" id="16-symptoms" xmlns="http://www.w3.org/2000/svg"><path d="M8.28 1L1 11.823l4.291-1.64L4.977 17l7.29-10.823-4.302 1.64L8.279 1z" stroke="currentColor" stroke-linecap="square" stroke-linejoin="bevel"/></symbol><symbol fill="none" viewBox="0 0 15 18" id="16-text" xmlns="http://www.w3.org/2000/svg"><path d="M14 17V4.93L10 1l-8.991.032L1 17h13zM7 5.913H4M11 9.844H4M11 13.774H4" stroke="currentColor" stroke-miterlimit="10" stroke-linecap="square"/><path d="M13.5 5.43h.5v-1h-.5v1zm-3.5-.5h-.5v.5h.5v-.5zm.5-3.439v-.5h-1v.5h1zm3 2.94H10v1h3.5v-1zm-3 .5V1.49h-1v3.44h1z" fill="currentColor"/></symbol><symbol fill="none" viewBox="0 0 16 16" id="16-turn" xmlns="http://www.w3.org/2000/svg"><circle cx="8" cy="8" r="8" transform="rotate(-180 8 8)" fill="currentColor"/><path d="M5.5 10V7a3 3 0 016 0v5" stroke="#fff"/><path d="M3.5 8l2 2 2-2" stroke="#fff"/></symbol><symbol fill="none" viewBox="0 0 25 14" id="24-arrow-down" xmlns="http://www.w3.org/2000/svg"><path d="M1 1l11.5 11.57L23.99 1.08" stroke="currentColor" stroke-miterlimit="10" stroke-linecap="square"/></symbol><symbol fill="none" viewBox="0 0 13 23" id="24-arrow-left" xmlns="http://www.w3.org/2000/svg"><path d="M11.5 1.5L1 11.5 11.5 22" stroke="currentColor" stroke-miterlimit="10" stroke-linecap="square"/></symbol><symbol fill="none" viewBox="0 0 14 25" id="24-arrow-right" xmlns="http://www.w3.org/2000/svg"><path d="M1 23.99l11.57-11.5L1.08 1" stroke="currentColor" stroke-miterlimit="10" stroke-linecap="square"/></symbol><symbol fill="none" viewBox="0 0 25 14" id="24-arrow-up" xmlns="http://www.w3.org/2000/svg"><path d="M23.99 12.57L12.49 1 1 12.49" stroke="currentColor" stroke-miterlimit="10" stroke-linecap="square"/></symbol><symbol fill="none" viewBox="0 0 18 24" id="24-calendar" xmlns="http://www.w3.org/2000/svg"><g clip-path="url(#bhclip0)" stroke="currentColor" stroke-width="1.5" stroke-miterlimit="10" stroke-linecap="square"><path d="M.383 3.383l17.24.01v5.715l-17.24.02V3.383zM17.609 9.128H.376V23.5H17.61V9.128zM3.25.5l.014 2.893M14.743.5l.014 2.893"/></g><defs><clipPath id="bhclip0"><path fill="#fff" d="M0 0h18v24H0z"/></clipPath></defs></symbol><symbol fill="none" viewBox="0 0 26 23" id="24-camera" xmlns="http://www.w3.org/2000/svg"><path d="M1 22.045h24V4.501h-5.968c-.495-1.037-1.33-1.923-2.4-2.546A7.191 7.191 0 0013.025 1a7.19 7.19 0 00-3.609.955c-1.069.623-1.904 1.509-2.399 2.546H1v17.544z" stroke="currentColor" stroke-miterlimit="10" stroke-linecap="square"/><circle cx="13" cy="13" r="5.5" stroke="currentColor"/></symbol><symbol fill="none" viewBox="0 0 24 24" id="24-check" xmlns="http://www.w3.org/2000/svg"><path d="M11.995 23.49c6.348 0 11.495-5.147 11.495-11.495C23.49 5.646 18.343.5 11.995.5 5.647.5.5 5.646.5 11.995c0 6.348 5.147 11.495 11.495 11.495z" fill="currentColor" fill-opacity=".2" stroke="currentColor" stroke-miterlimit="10" stroke-linecap="square"/><path d="M6.223 12.025l3.831 3.832 7.673-7.674" stroke="currentColor" stroke-miterlimit="10" stroke-linecap="square"/></symbol><symbol fill="none" viewBox="0 0 24 24" id="24-check-full" xmlns="http://www.w3.org/2000/svg"><g clip-path="url(#bkclip0)"><path d="M11.99 23.48c6.346 0 11.49-5.144 11.49-11.49S18.336.5 11.99.5.5 5.644.5 11.99s5.144 11.49 11.49 11.49z" fill="currentColor" stroke="currentColor" stroke-miterlimit="10" stroke-linecap="square"/><path d="M6.22 12.02l3.83 3.83 7.67-7.67" fill="currentColor"/><path d="M6.22 12.02l3.83 3.83 7.67-7.67" stroke="#fff" stroke-miterlimit="10" stroke-linecap="square"/></g><defs><clipPath id="bkclip0"><path fill="#fff" d="M0 0h23.99v23.99H0z"/></clipPath></defs></symbol><symbol fill="none" viewBox="0 0 24 24" id="24-check-outline" xmlns="http://www.w3.org/2000/svg"><path d="M11.995 23.49c6.348 0 11.495-5.147 11.495-11.495C23.49 5.646 18.343.5 11.995.5 5.646.5.5 5.646.5 11.995c0 6.348 5.146 11.495 11.495 11.495z" stroke="currentColor" stroke-miterlimit="10" stroke-linecap="square"/><path d="M6.223 12.025l3.831 3.832 7.673-7.674" stroke="currentColor" stroke-miterlimit="10" stroke-linecap="square"/></symbol><symbol fill="none" viewBox="0 0 26 26" id="24-close-full" xmlns="http://www.w3.org/2000/svg"><path d="M13 25c6.627 0 12-5.373 12-12S19.627 1 13 1 1 6.373 1 13s5.373 12 12 12z" fill="currentColor" stroke="currentColor" stroke-miterlimit="10" stroke-linecap="square"/><path d="M8.494 8.526l9.012 9.012M8.478 17.522l9.028-8.996" stroke="#fff" stroke-miterlimit="10" stroke-linecap="square"/></symbol><symbol fill="none" viewBox="0 0 26 26" id="24-close-outline" xmlns="http://www.w3.org/2000/svg"><path d="M13 25c6.627 0 12-5.373 12-12S19.627 1 13 1 1 6.373 1 13s5.373 12 12 12zM8.499 8.53l9.013 9.013M8.488 17.522l9.013-9.002" stroke="currentColor" stroke-miterlimit="10" stroke-linecap="square"/></symbol><symbol fill="none" viewBox="0 0 26 26" id="24-countermeasures" xmlns="http://www.w3.org/2000/svg"><path d="M16.005 2.559a5.259 5.259 0 117.473 7.4L9.944 23.43a5.244 5.244 0 11-7.4-7.432l13.46-13.44zM4.92 13.936l7.233 7.233M13.88 4.642l7.232 7.232" stroke="currentColor" stroke-width="1.5" stroke-miterlimit="10" stroke-linecap="square"/><circle cx="21.167" cy="8.167" r=".833" transform="rotate(-180 21.167 8.167)" fill="currentColor"/><circle cx="21.167" cy="4.833" r=".833" transform="rotate(-180 21.167 4.833)" fill="currentColor"/><circle cx="17.833" cy="4.833" r=".833" transform="rotate(-180 17.833 4.833)" fill="currentColor"/><circle cx="4.833" cy="17.833" r=".833" fill="currentColor"/><circle cx="4.833" cy="21.167" r=".833" fill="currentColor"/><circle cx="8.167" cy="21.167" r=".833" fill="currentColor"/></symbol><symbol fill="none" viewBox="0 0 24 24" id="24-down-full" xmlns="http://www.w3.org/2000/svg"><circle cx="12" cy="12" r="12" transform="rotate(-90 12 12)" fill="currentColor"/><path d="M7 10l5.003 5L17 10.033" stroke="#fff" stroke-miterlimit="10" stroke-linecap="square"/></symbol><symbol fill="none" viewBox="0 0 26 26" id="24-emotions" xmlns="http://www.w3.org/2000/svg"><path d="M8.31 17.427a8.24 8.24 0 119.088-9.348M16.729 25.009a8.271 8.271 0 100-16.543 8.271 8.271 0 000 16.543zM15 20.555a3.075 3.075 0 004.256 0" stroke="currentColor" stroke-width="1.5" stroke-miterlimit="10" stroke-linecap="square"/><path d="M14.1 18.2a1.1 1.1 0 100-2.2 1.1 1.1 0 000 2.2zM20.667 18.2a1.1 1.1 0 100-2.2 1.1 1.1 0 000 2.2z" fill="currentColor"/><path d="M9.753 12.042h-.345a2.863 2.863 0 00-2.09.857" stroke="currentColor" stroke-width="1.5" stroke-miterlimit="10" stroke-linecap="square"/><path d="M6.88 9.2a1.1 1.1 0 100-2.2 1.1 1.1 0 000 2.2zM13.1 9.2a1.1 1.1 0 100-2.2 1.1 1.1 0 000 2.2z" fill="currentColor"/></symbol><symbol fill="none" viewBox="0 0 26 14" id="24-eyes" xmlns="http://www.w3.org/2000/svg"><path d="M13 1C7 1 2.5 5.5 1 7c1.5 1.5 6 6 12 6s10.5-4.5 12-6c-1.5-1.5-6-6-12-6z" stroke="currentColor"/><circle cx="13" cy="7" r="5.5" stroke="currentColor"/></symbol><symbol fill="none" viewBox="0 0 24 24" id="24-home" xmlns="http://www.w3.org/2000/svg"><g clip-path="url(#bsclip0)" stroke="currentColor" stroke-width="1.5" stroke-miterlimit="10" stroke-linecap="square"><path d="M3.541 7.469v16.033h16.918V7.47"/><path d="M.689 9.162L12 .598l11.311 8.564"/></g><defs><clipPath id="bsclip0"><path fill="#fff" d="M0 0h24v24H0z"/></clipPath></defs></symbol><symbol fill="none" viewBox="0 0 24 24" id="24-left-full" xmlns="http://www.w3.org/2000/svg"><circle cx="12" cy="12" r="12" fill="currentColor"/><path d="M14 7l-5 5.003L13.967 17" stroke="#fff" stroke-miterlimit="10" stroke-linecap="square"/></symbol><symbol fill="none" viewBox="0 0 26 26" id="24-lens" xmlns="http://www.w3.org/2000/svg"><path d="M9.594 18.206c-4.74 0-8.584-3.852-8.584-8.603C1.01 4.852 4.853 1 9.594 1s8.584 3.852 8.584 8.603c0 4.751-3.843 8.603-8.584 8.603zM25.01 25l-9.523-9.136" stroke="currentColor" stroke-miterlimit="10" stroke-linecap="square"/></symbol><symbol fill="none" viewBox="0 0 18 26" id="24-microphone" xmlns="http://www.w3.org/2000/svg"><path d="M4.961 11.5V4.614a3.732 3.732 0 011.25-2.567A4.151 4.151 0 018.983 1c1.032 0 2.024.375 2.773 1.047a3.732 3.732 0 011.25 2.567V11.5M13.006 11.906a3.732 3.732 0 01-1.25 2.567 4.151 4.151 0 01-2.773 1.048 4.151 4.151 0 01-2.772-1.048 3.732 3.732 0 01-1.25-2.567" stroke="currentColor" stroke-miterlimit="10" stroke-linecap="square"/><path d="M17 12a8.456 8.456 0 01-2.446 5.675A7.853 7.853 0 019 20a7.853 7.853 0 01-5.554-2.325A8.457 8.457 0 011 12M1 24.979L17 25M9 20l-.022 5" stroke="currentColor" stroke-miterlimit="10" stroke-linecap="square"/></symbol><symbol fill="none" viewBox="0 0 19 26" id="24-movement" xmlns="http://www.w3.org/2000/svg"><path d="M1 20.5h4.5l1.843-3.528" stroke="currentColor" stroke-width="1.5" stroke-miterlimit="10" stroke-linecap="square"/><path d="M2.14 11.498s.901-3.38 5.59-3.38l-1.947 5.076a2.198 2.198 0 00.471 2.323l3.412 3.486V25" stroke="currentColor" stroke-width="1.5" stroke-miterlimit="10" stroke-linecap="square"/><path d="M17.914 9.614a3.82 3.82 0 01-3.14 1.382c-2.9 0-3.433-2.879-7.086-2.879M12.66 6.987a2.993 2.993 0 100-5.987 2.993 2.993 0 000 5.987zM11.603 9.802l-1.937 5.014" stroke="currentColor" stroke-width="1.5" stroke-miterlimit="10" stroke-linecap="square"/></symbol><symbol fill="none" viewBox="0 0 20 27" id="24-nutrition" xmlns="http://www.w3.org/2000/svg"><path d="M10.002 24.999A2.92 2.92 0 017 21.996v-8.965a3.39 3.39 0 002.253-.878c.618-.56.677-1.327.765-2.156V1H1v8.997c.104.833.097 1.6.724 2.158.628.558 1.436.87 2.276.876v8.997a2.94 2.94 0 01-3.002 2.97M13.01 1v8.997M16.012 1v8.997M16.012 24.999V13.03a2.94 2.94 0 003.003-3.034V1.011" stroke="currentColor" stroke-width="1.5" stroke-miterlimit="10" stroke-linecap="square"/></symbol><symbol fill="none" viewBox="0 0 26 26" id="24-pencil" xmlns="http://www.w3.org/2000/svg"><path d="M4.19 17.647L8.617 22.1M17.529 2.877l5.616 5.627L9.116 22.602 1 25l2.511-8.035L17.53 2.877z" stroke="currentColor" stroke-miterlimit="10" stroke-linecap="square"/><path d="M23.145 8.504L24.33 7.32a2.319 2.319 0 000-3.261l-1.186-1.194-1.177-1.193a2.292 2.292 0 00-3.242 0L17.53 2.877" stroke="currentColor" stroke-miterlimit="10" stroke-linecap="square"/></symbol><symbol fill="none" viewBox="0 0 14 28" id="24-play" xmlns="http://www.w3.org/2000/svg"><path d="M1 26V2l12 12L1 26z" stroke="currentColor"/></symbol><symbol fill="none" viewBox="0 0 24 24" id="24-plus" xmlns="http://www.w3.org/2000/svg"><path d="M12 23.498c6.35 0 11.498-5.148 11.498-11.499C23.498 5.65 18.35.5 12 .5 5.65.5.5 5.648.5 12c0 6.35 5.148 11.498 11.5 11.498z" fill="currentColor" fill-opacity=".2" stroke="currentColor" stroke-miterlimit="10" stroke-linecap="square"/><path d="M12.01 17.75V6.24M17.76 11.99H6.25" stroke="currentColor" stroke-miterlimit="10" stroke-linecap="square"/></symbol><symbol fill="none" viewBox="0 0 24 24" id="24-plus-full" xmlns="http://www.w3.org/2000/svg"><path d="M12 23.498c6.35 0 11.498-5.148 11.498-11.499C23.498 5.65 18.35.5 12 .5 5.65.5.5 5.648.5 12c0 6.35 5.148 11.498 11.5 11.498z" fill="currentColor" stroke="currentColor" stroke-miterlimit="10" stroke-linecap="square"/><path d="M12.01 17.75V6.24M17.76 11.99H6.25" stroke="#fff" stroke-miterlimit="10" stroke-linecap="square"/></symbol><symbol fill="none" viewBox="0 0 24 24" id="24-plus-outline" xmlns="http://www.w3.org/2000/svg"><path d="M12.01 17.75V6.24M17.76 11.99H6.25M12 23.498c6.35 0 11.498-5.148 11.498-11.499C23.498 5.65 18.35.5 12 .5 5.65.5.5 5.648.5 12c0 6.35 5.148 11.498 11.5 11.498z" stroke="currentColor" stroke-miterlimit="10" stroke-linecap="square"/></symbol><symbol fill="none" viewBox="0 0 24 24" id="24-right-full" xmlns="http://www.w3.org/2000/svg"><circle cx="12" cy="12" r="12" transform="rotate(-180 12 12)" fill="currentColor"/><path d="M10 17l5-5.003L10.033 7" stroke="#fff" stroke-miterlimit="10" stroke-linecap="square"/></symbol><symbol fill="none" viewBox="0 0 22 26" id="24-sleep" xmlns="http://www.w3.org/2000/svg"><path d="M9.16 3.81l.644.384-.825-1.113.18.728zM7.705 9.417h.75v-.023l-.75.023zM18.411 20.17l-.002.75h.025l-.023-.75zm2.527-.382l.643.386-.842-1.109.2.723zM8.516 3.425a11.09 11.09 0 00-1.56 6.016l1.5-.046a9.59 9.59 0 011.348-5.201l-1.288-.769zm-1.56 5.993a11.51 11.51 0 003.352 8.121l1.063-1.058a10.01 10.01 0 01-2.916-7.063h-1.5zm3.352 8.121a11.479 11.479 0 008.101 3.381l.004-1.5a9.979 9.979 0 01-7.042-2.939l-1.063 1.058zm8.126 3.381a11.495 11.495 0 002.704-.409l-.4-1.446a9.997 9.997 0 01-2.35.356l.046 1.5zm1.861-1.518a9.996 9.996 0 01-3.438 3.433l.77 1.288a11.494 11.494 0 003.954-3.949l-1.286-.772zm-3.438 3.433a9.975 9.975 0 01-4.648 1.404l.07 1.498a11.476 11.476 0 005.348-1.614l-.77-1.288zm-4.648 1.404a9.972 9.972 0 01-4.76-.958l-.645 1.354a11.474 11.474 0 005.476 1.102l-.071-1.498zm-4.76-.958a9.99 9.99 0 01-3.747-3.093l-1.207.89a11.49 11.49 0 004.31 3.557l.644-1.354zm-3.747-3.093a10.01 10.01 0 01-1.847-4.497l-1.485.216a11.511 11.511 0 002.125 5.171l1.207-.89zm-1.847-4.497c-.238-1.628-.07-3.29.488-4.838l-1.411-.509a11.517 11.517 0 00-.562 5.563l1.485-.216zm.488-4.838a10.003 10.003 0 012.709-4.036L4.047 5.703a11.503 11.503 0 00-3.115 4.641l1.41.509zm2.709-4.036a9.982 9.982 0 014.288-2.28l-.36-1.456a11.482 11.482 0 00-4.933 2.622l1.005 1.114z" fill="currentColor"/><path d="M13.574 1h2.98l-2.97 2.964h2.97M18.02 9.418H21l-2.97 2.965H21" stroke="currentColor" stroke-width="1.5" stroke-linejoin="bevel"/></symbol><symbol fill="none" viewBox="0 0 24 24" id="24-statistics" xmlns="http://www.w3.org/2000/svg"><g clip-path="url(#cfclip0)" stroke="currentColor" stroke-width="1.5" stroke-miterlimit="10" stroke-linecap="square"><path d="M6.253 23.5V12.004M17.747 23.5v-8.621M.5 23.5v-8.621M12.005 23.5V6.247M.5.5v23.009h23"/></g><defs><clipPath id="cfclip0"><path fill="#fff" d="M0 0h24v24H0z"/></clipPath></defs></symbol><symbol fill="none" viewBox="0 0 19 26" id="24-symptoms" xmlns="http://www.w3.org/2000/svg"><path d="M11.926 1L1 17.24l6.443-2.464L6.97 25 17.895 8.76l-6.443 2.465L11.926 1z" stroke="currentColor" stroke-width="1.5" stroke-linecap="square" stroke-linejoin="bevel"/></symbol><symbol fill="none" viewBox="0 0 22 26" id="24-text" xmlns="http://www.w3.org/2000/svg"><path d="M21 25V6.896L14.846 1l-13.833.048L1 25h20zM10.23 8.37H5.616M16.385 14.266H5.615M16.385 20.162H5.615" stroke="currentColor" stroke-miterlimit="10" stroke-linecap="square"/><path d="M20 7.5h.5v-1H20v1zM15 7h-.5v.5h.5V7zm.5-5v-.5h-1V2h1zM20 6.5h-5v1h5v-1zm-4.5.5V2h-1v5h1z" fill="currentColor"/></symbol><symbol fill="none" viewBox="0 0 24 26" id="24-trash" xmlns="http://www.w3.org/2000/svg"><path d="M0 3.824h24M3 6.647L4.5 25h15L21 6.647H3zM7.5 3.824V1h9v2.824" stroke="currentColor"/></symbol><symbol fill="none" viewBox="0 0 24 24" id="24-turn" xmlns="http://www.w3.org/2000/svg"><circle cx="12" cy="12" r="12" transform="rotate(-180 12 12)" fill="currentColor"/><path d="M8.25 15v-4.5a4.5 4.5 0 119 0V18" stroke="#fff"/><path d="M5.25 12l3 3 3-3" stroke="#fff"/></symbol><symbol fill="none" viewBox="0 0 24 24" id="24-up-full" xmlns="http://www.w3.org/2000/svg"><circle cx="12" cy="12" r="12" transform="rotate(90 12 12)" fill="currentColor"/><path d="M17 14l-5.003-5L7 13.967" stroke="#fff" stroke-miterlimit="10" stroke-linecap="square"/></symbol><symbol fill="none" viewBox="0 0 32 32" id="32-check" xmlns="http://www.w3.org/2000/svg"><path d="M15.993 31.32c8.465 0 15.327-6.862 15.327-15.327C31.32 7.53 24.458.667 15.993.667 7.53.667.667 7.529.667 15.993c0 8.465 6.862 15.327 15.326 15.327z" fill="currentColor" fill-opacity=".2" stroke="currentColor" stroke-miterlimit="10" stroke-linecap="square"/><path d="M8.297 16.033l5.108 5.11L23.637 10.91" stroke="currentColor" stroke-miterlimit="10" stroke-linecap="square"/></symbol><symbol fill="none" viewBox="0 0 32 32" id="32-check-full" xmlns="http://www.w3.org/2000/svg"><path d="M15.993 31.32c8.465 0 15.327-6.862 15.327-15.327C31.32 7.53 24.458.667 15.993.667 7.53.667.667 7.529.667 15.993c0 8.465 6.862 15.327 15.326 15.327z" fill="currentColor" stroke="currentColor" stroke-miterlimit="10" stroke-linecap="square"/><path d="M8.297 16.033l5.108 5.11L23.637 10.91" fill="currentColor"/><path d="M8.297 16.033l5.108 5.11L23.637 10.91" stroke="#fff" stroke-miterlimit="10" stroke-linecap="square"/></symbol><symbol fill="none" viewBox="0 0 32 32" id="32-check-outline" xmlns="http://www.w3.org/2000/svg"><path d="M15.993 31.32c8.465 0 15.327-6.862 15.327-15.327C31.32 7.53 24.458.667 15.993.667 7.53.667.667 7.529.667 15.993c0 8.465 6.862 15.327 15.326 15.327z" stroke="currentColor" stroke-miterlimit="10" stroke-linecap="square"/><path d="M8.297 16.033l5.108 5.11L23.637 10.91" stroke="currentColor" stroke-miterlimit="10" stroke-linecap="square"/></symbol><symbol fill="none" viewBox="0 0 34 34" id="32-close-full" xmlns="http://www.w3.org/2000/svg"><path d="M17 33c8.837 0 16-7.163 16-16S25.837 1 17 1 1 8.163 1 17s7.163 16 16 16z" fill="currentColor" stroke="currentColor" stroke-miterlimit="10" stroke-linecap="square"/><path d="M11.957 12L22 22.043M12 22l10-10.5" stroke="#fff" stroke-miterlimit="10" stroke-linecap="square"/></symbol><symbol fill="none" viewBox="0 0 34 34" id="32-close-outline" xmlns="http://www.w3.org/2000/svg"><path d="M17 33c8.837 0 16-7.163 16-16S25.837 1 17 1 1 8.163 1 17s7.163 16 16 16zM10.998 11.04l12.018 12.017M10.984 23.03l12.018-12.004" stroke="currentColor" stroke-miterlimit="10" stroke-linecap="square"/></symbol><symbol fill="none" viewBox="0 0 34 34" id="32-countermeasures" xmlns="http://www.w3.org/2000/svg"><path d="M21.006 3.06a7.024 7.024 0 119.939 9.93l-18.03 18.002a7.023 7.023 0 01-9.93-9.93L21.006 3.06zM6.203 18.31l9.665 9.665M18.172 5.894l9.664 9.665" stroke="currentColor" stroke-width="2" stroke-miterlimit="10" stroke-linecap="square"/><circle cx="28" cy="10" r="1" transform="rotate(-180 28 10)" fill="currentColor"/><circle cx="28" cy="6" r="1" transform="rotate(-180 28 6)" fill="currentColor"/><circle cx="24" cy="6" r="1" transform="rotate(-180 24 6)" fill="currentColor"/><circle cx="6" cy="24" r="1" fill="currentColor"/><circle cx="6" cy="28" r="1" fill="currentColor"/><circle cx="10" cy="28" r="1" fill="currentColor"/></symbol><symbol fill="none" viewBox="0 0 32 32" id="32-down-full" xmlns="http://www.w3.org/2000/svg"><circle cx="16" cy="16" r="16" transform="rotate(-90 16 16)" fill="currentColor"/><path d="M9.333 13.333L16.004 20l6.663-6.623" stroke="#fff" stroke-miterlimit="10" stroke-linecap="square"/></symbol><symbol fill="none" viewBox="0 0 34 34" id="32-emotions" xmlns="http://www.w3.org/2000/svg"><path d="M10.76 22.905a10.987 10.987 0 1112.106-12.452M21.983 33c6.083 0 11.015-4.931 11.015-11.014 0-6.083-4.932-11.014-11.015-11.014S10.97 15.902 10.97 21.986C10.969 28.069 15.9 33 21.983 33zM19.089 27.639a4.142 4.142 0 005.68 0" stroke="currentColor" stroke-width="2" stroke-miterlimit="10" stroke-linecap="square"/><path d="M17.595 23.905a.5.5 0 100-1 .5.5 0 000 1zM26.334 23.905a.5.5 0 100-1 .5.5 0 000 1z" fill="currentColor" stroke="currentColor" stroke-width="2" stroke-miterlimit="10" stroke-linecap="square"/><path d="M12.68 15.723h-.446a3.86 3.86 0 00-2.84 1.129" stroke="currentColor" stroke-width="2" stroke-miterlimit="10" stroke-linecap="square"/><path d="M7.9 11.972a.5.5 0 100-1 .5.5 0 000 1zM16.64 11.972a.5.5 0 100-1 .5.5 0 000 1z" fill="currentColor" stroke="currentColor" stroke-width="2" stroke-miterlimit="10" stroke-linecap="square"/></symbol><symbol fill="none" viewBox="0 0 32 32" id="32-left-full" xmlns="http://www.w3.org/2000/svg"><circle cx="16" cy="16" r="16" fill="currentColor"/><path d="M18.667 9.333L12 16.004l6.623 6.663" stroke="#fff" stroke-miterlimit="10" stroke-linecap="square"/></symbol><symbol fill="none" viewBox="0 0 25 34" id="32-movement" xmlns="http://www.w3.org/2000/svg"><path d="M1 27h6l2.454-4.706" stroke="currentColor" stroke-width="2" stroke-miterlimit="10" stroke-linecap="square"/><path d="M2.523 14.99s1.195-4.497 7.45-4.497l-2.599 6.758a2.936 2.936 0 00.639 3.11l4.56 4.641V33" stroke="currentColor" stroke-width="2" stroke-miterlimit="10" stroke-linecap="square"/><path d="M23.543 12.49a5.098 5.098 0 01-4.13 1.824c-3.858 0-4.56-3.82-9.44-3.82M16.54 8.989a3.994 3.994 0 100-7.989 3.994 3.994 0 000 7.989zM15.135 12.727l-2.58 6.685" stroke="currentColor" stroke-width="2" stroke-miterlimit="10" stroke-linecap="square"/></symbol><symbol fill="none" viewBox="0 0 27 34" id="32-nutrition" xmlns="http://www.w3.org/2000/svg"><path d="M13.016 33C8.986 33 9 28.998 9 28.998V17c3.993 0 4.016-4.002 4.016-4.002V1H1v11.998S.982 17 4.993 17v11.998S4.993 33 1 33M17.018 1v11.998M21.02 1v11.998M21.02 33V17c3.994 0 3.994-4.002 3.994-4.002V1.009" stroke="currentColor" stroke-width="2" stroke-miterlimit="10" stroke-linecap="square"/></symbol><symbol fill="none" viewBox="0 0 32 32" id="32-plus" xmlns="http://www.w3.org/2000/svg"><path d="M15.999 31.331c8.468 0 15.332-6.864 15.332-15.332S24.467.667 16 .667.667 7.53.667 15.999 7.53 31.33 15.999 31.33z" fill="currentColor" fill-opacity=".2" stroke="currentColor" stroke-miterlimit="10" stroke-linecap="square"/><path d="M16.013 23.666V8.32M23.68 15.987H8.334" stroke="currentColor" stroke-miterlimit="10" stroke-linecap="square"/></symbol><symbol fill="none" viewBox="0 0 32 32" id="32-plus-full" xmlns="http://www.w3.org/2000/svg"><path d="M15.999 31.331c8.468 0 15.332-6.864 15.332-15.332S24.467.667 16 .667.667 7.53.667 15.999 7.53 31.33 15.999 31.33z" fill="currentColor" stroke="currentColor" stroke-miterlimit="10" stroke-linecap="square"/><path d="M16.013 23.666V8.32M23.68 15.987H8.334" stroke="#fff" stroke-miterlimit="10" stroke-linecap="square"/></symbol><symbol fill="none" viewBox="0 0 32 32" id="32-plus-outline" xmlns="http://www.w3.org/2000/svg"><path d="M16.013 23.666V8.321M23.68 15.987H8.334M15.999 31.331c8.468 0 15.332-6.864 15.332-15.332S24.467.667 16 .667.667 7.53.667 15.999 7.53 31.33 15.999 31.33z" stroke="currentColor" stroke-miterlimit="10" stroke-linecap="square"/></symbol><symbol fill="none" viewBox="0 0 32 32" id="32-right-full" xmlns="http://www.w3.org/2000/svg"><circle cx="16" cy="16" r="16" transform="rotate(-180 16 16)" fill="currentColor"/><path d="M13.333 22.667L20 15.996l-6.623-6.663" stroke="#fff" stroke-miterlimit="10" stroke-linecap="square"/></symbol><symbol fill="none" viewBox="0 0 29 34" id="32-sleep" xmlns="http://www.w3.org/2000/svg"><path d="M12.023 4.744l.853.521-1.09-1.493.237.972zm-2.002 7.506l1-.002v-.026l-1 .028zm14.494 14.31v1h.015l.014-.001-.029-1zm3.403-.514l.855.52-1.122-1.483.267.963zM11.17 4.222a14.655 14.655 0 00-2.148 8.056l1.999-.056a12.655 12.655 0 011.855-6.957L11.17 4.222zm-2.149 8.03a15.259 15.259 0 004.553 10.83l1.405-1.424a13.258 13.258 0 01-3.958-9.41l-2 .004zm4.553 10.83a15.575 15.575 0 0010.941 4.477v-2a13.575 13.575 0 01-9.536-3.9l-1.405 1.422zm10.97 4.477a15.264 15.264 0 003.641-.55l-.534-1.926a13.266 13.266 0 01-3.165.477l.058 1.999zm2.52-2.032a13.416 13.416 0 01-4.644 4.582l1.017 1.722a15.416 15.416 0 005.336-5.266l-1.71-1.038zM22.42 30.11a13.61 13.61 0 01-6.286 1.876l.094 1.998a15.61 15.61 0 007.21-2.152l-1.018-1.722zm-6.286 1.876a13.63 13.63 0 01-6.438-1.279l-.85 1.81a15.63 15.63 0 007.382 1.467l-.094-1.998zm-6.438-1.279a13.461 13.461 0 01-5.062-4.127L3.03 27.775a15.46 15.46 0 005.814 4.741l.851-1.81zM4.634 26.58a13.253 13.253 0 01-2.493-5.995l-1.979.291c.368 2.5 1.354 4.87 2.869 6.9l1.603-1.196zM2.14 20.584a13.19 13.19 0 01.66-6.448l-1.879-.685a15.19 15.19 0 00-.76 7.424l1.979-.291zm.66-6.448a13.329 13.329 0 013.66-5.38L5.13 7.262a15.329 15.329 0 00-4.209 6.189l1.88.685zm3.66-5.38a13.546 13.546 0 015.8-3.04l-.475-1.944a15.546 15.546 0 00-6.655 3.49l1.33 1.494z" fill="currentColor"/><path d="M17.992 1h4.012l-4.003 3.96h4.003M23.988 12.223H28l-4.003 3.96H28" stroke="currentColor" stroke-width="2" stroke-linejoin="bevel"/></symbol><symbol fill="none" viewBox="0 0 26 34" id="32-symptoms" xmlns="http://www.w3.org/2000/svg"><path d="M16.353 1L.83 22.646l9.153-3.285L9.308 33 24.83 11.345l-9.152 3.285L16.353 1z" stroke="currentColor" stroke-width="2" stroke-linecap="square" stroke-linejoin="bevel"/></symbol><symbol fill="none" viewBox="0 0 32 32" id="32-turn" xmlns="http://www.w3.org/2000/svg"><circle cx="16" cy="16" r="16" transform="rotate(-180 16 16)" fill="currentColor"/><path d="M11 20v-6a6 6 0 0112 0v10" stroke="#fff"/><path d="M7 16l4 4 4-4" stroke="#fff"/></symbol><symbol fill="none" viewBox="0 0 32 32" id="32-up-full" xmlns="http://www.w3.org/2000/svg"><circle cx="16" cy="16" r="16" transform="rotate(90 16 16)" fill="currentColor"/><path d="M22.667 18.667L15.996 12l-6.663 6.623" stroke="#fff" stroke-miterlimit="10" stroke-linecap="square"/></symbol><symbol fill="none" viewBox="0 0 50 51" id="50-plus-full" xmlns="http://www.w3.org/2000/svg"><path d="M25 50.358c13.232 0 23.958-10.965 23.958-24.491S38.232 1.376 25 1.376c-13.232 0-23.958 10.965-23.958 24.49 0 13.527 10.726 24.492 23.958 24.492z" fill="#4D4D4D" stroke="#4D4D4D" stroke-miterlimit="10" stroke-linecap="square"/><path d="M25.02 38.112V13.6M37 25.845H13.02" stroke="#fff" stroke-width="1.5" stroke-miterlimit="10" stroke-linecap="square"/></symbol><symbol fill="none" viewBox="0 0 10 6" id="8-eyes" xmlns="http://www.w3.org/2000/svg"><path d="M5 1C3 1 1.5 2.5 1 3c.5.5 2 2 4 2s3.5-1.5 4-2c-.5-.5-2-2-4-2z" stroke="currentColor" stroke-width=".5"/><circle cx="5" cy="3" r="1.75" stroke="currentColor" stroke-width=".5"/></symbol><symbol fill="none" viewBox="0 0 8 10" id="8-trash" xmlns="http://www.w3.org/2000/svg"><path d="M0 1.941h8m-7 .941L1.5 9h5L7 2.882H1zM2.5 1.941V1h3v.941" stroke="currentColor" stroke-width=".5"/></symbol></svg>