<?xml version="1.0" encoding="utf-8"?><!DOCTYPE svg PUBLIC "-//W3C//DTD SVG 1.1//EN" "http://www.w3.org/Graphics/SVG/1.1/DTD/svg11.dtd"><svg xmlns="http://www.w3.org/2000/svg" xmlns:xlink="http://www.w3.org/1999/xlink"><symbol fill="none" viewBox="0 0 17 10" id="16-arrow-down" xmlns="http://www.w3.org/2000/svg"><path d="M1 1.01l7.52 7.56 7.51-7.51" stroke="currentColor" stroke-miterlimit="10" stroke-linecap="square"/></symbol><symbol fill="none" viewBox="0 0 9 16" id="16-arrow-left" xmlns="http://www.w3.org/2000/svg"><path d="M7.5 1L1 7.52 7.5 14" stroke="currentColor" stroke-miterlimit="10" stroke-linecap="square"/></symbol><symbol fill="none" viewBox="0 0 10 17" id="16-arrow-right" xmlns="http://www.w3.org/2000/svg"><path d="M1.01 15.99l7.56-7.52L1.06.96" stroke="currentColor" stroke-miterlimit="10" stroke-linecap="square"/></symbol><symbol fill="none" viewBox="0 0 17 10" id="16-arrow-up" xmlns="http://www.w3.org/2000/svg"><path d="M15.99 8.56L8.47 1 .96 8.51" stroke="currentColor" stroke-miterlimit="10" stroke-linecap="square"/></symbol><symbol fill="none" viewBox="0 0 12 16" id="16-calendar" xmlns="http://www.w3.org/2000/svg"><g clip-path="url(#aeclip0)" stroke="currentColor" stroke-miterlimit="10" stroke-linecap="square"><path d="M.383 2.377l11.242.01v3.725l-11.242.01V2.377zM11.617 6.122H.375v9.379h11.242V6.122zM2.251.5l.008 1.887M9.741.5l.015 1.887"/></g><defs><clipPath id="aeclip0"><path fill="#fff" d="M0 0h12v16H0z"/></clipPath></defs></symbol><symbol fill="none" viewBox="0 0 18 16" id="16-camera" xmlns="http://www.w3.org/2000/svg"><path d="M1 15.045h16V3.349h-3.979c-.33-.692-.886-1.282-1.6-1.697a4.794 4.794 0 00-2.405-.637c-.856 0-1.693.222-2.406.637-.713.415-1.27 1.005-1.6 1.697H1v11.696z" stroke="currentColor" stroke-miterlimit="10" stroke-linecap="square"/><circle cx="9" cy="9.015" r="3.5" stroke="currentColor"/></symbol><symbol fill="none" viewBox="0 0 16 16" id="16-check" xmlns="http://www.w3.org/2000/svg"><g clip-path="url(#agclip0)" stroke="currentColor" stroke-miterlimit="10" stroke-linecap="square"><path d="M8 15.501a7.5 7.5 0 100-15 7.5 7.5 0 000 15z" fill="currentColor" fill-opacity=".2"/><path d="M4.235 8.02l2.497 2.507 5.013-5.014"/></g><defs><clipPath id="agclip0"><path fill="#fff" d="M0 0h16v16H0z"/></clipPath></defs></symbol><symbol fill="none" viewBox="0 0 16 16" id="16-check-full" xmlns="http://www.w3.org/2000/svg"><g clip-path="url(#ahclip0)"><path d="M8 15.501a7.5 7.5 0 100-15 7.5 7.5 0 000 15z" fill="currentColor" stroke="currentColor" stroke-miterlimit="10" stroke-linecap="square"/><path d="M4.235 8.02l2.497 2.507 5.013-5.014" fill="currentColor"/><path d="M4.235 8.02l2.497 2.507 5.013-5.014" stroke="#fff" stroke-miterlimit="10" stroke-linecap="square"/></g><defs><clipPath id="ahclip0"><path fill="#fff" d="M0 0h16v16H0z"/></clipPath></defs></symbol><symbol fill="none" viewBox="0 0 16 16" id="16-check-outline" xmlns="http://www.w3.org/2000/svg"><g clip-path="url(#aiclip0)" stroke="currentColor" stroke-miterlimit="10" stroke-linecap="square"><path d="M8 15.501a7.5 7.5 0 100-15 7.5 7.5 0 000 15z"/><path d="M4.235 8.02l2.497 2.507 5.013-5.014"/></g><defs><clipPath id="aiclip0"><path fill="#fff" d="M0 0h16v16H0z"/></clipPath></defs></symbol><symbol fill="none" viewBox="0 0 18 18" id="16-close-full" xmlns="http://www.w3.org/2000/svg"><path d="M9 17A8 8 0 109 1a8 8 0 000 16z" fill="currentColor" stroke="currentColor" stroke-miterlimit="10" stroke-linecap="square"/><path d="M5.996 6.017l6.008 6.008M5.985 12.015l6.02-5.998" stroke="#fff" stroke-miterlimit="10" stroke-linecap="square"/></symbol><symbol fill="none" viewBox="0 0 18 18" id="16-close-outline" xmlns="http://www.w3.org/2000/svg"><path d="M9 17A8 8 0 109 1a8 8 0 000 16zM5.996 6.017l6.008 6.008M5.985 12.015l6.02-5.998" stroke="currentColor" stroke-miterlimit="10" stroke-linecap="square"/></symbol><symbol fill="none" viewBox="0 0 19 19" id="16-countermeasures" xmlns="http://www.w3.org/2000/svg"><path d="M11.706 2.097a3.743 3.743 0 016.393 2.65c0 .994-.395 1.947-1.097 2.65L7.392 17A3.743 3.743 0 011 14.351c0-.993.395-1.946 1.097-2.649l9.61-9.605zM3.82 10.24l5.147 5.15M10.2 3.605l5.147 5.162" stroke="currentColor" stroke-miterlimit="10" stroke-linecap="square"/><circle cx="15.5" cy="5.5" r=".5" transform="rotate(-180 15.5 5.5)" fill="currentColor"/><circle cx="15.5" cy="3.5" r=".5" transform="rotate(-180 15.5 3.5)" fill="currentColor"/><circle cx="13.5" cy="3.5" r=".5" transform="rotate(-180 13.5 3.5)" fill="currentColor"/><circle cx="3.5" cy="13.5" r=".5" fill="currentColor"/><circle cx="3.5" cy="15.5" r=".5" fill="currentColor"/><circle cx="5.5" cy="15.5" r=".5" fill="currentColor"/></symbol><symbol fill="none" viewBox="0 0 18 18" id="16-emotions" xmlns="http://www.w3.org/2000/svg"><path d="M5.827 11.946a5.494 5.494 0 116.097-6.273M11.452 17.032a5.548 5.548 0 100-11.096 5.548 5.548 0 000 11.096zM10 14.33a2.087 2.087 0 002.867 0" stroke="currentColor" stroke-miterlimit="10" stroke-linecap="square"/><path d="M9.7 12.4a.7.7 0 100-1.4.7.7 0 000 1.4zM14.094 12.4a.7.7 0 100-1.4.7.7 0 000 1.4z" fill="currentColor"/><path d="M6.772 8.331h-.23a1.933 1.933 0 00-1.429.571" stroke="currentColor" stroke-miterlimit="10" stroke-linecap="square"/><path d="M4.7 6.4a.7.7 0 100-1.4.7.7 0 000 1.4zM9.105 6.4a.7.7 0 100-1.4.7.7 0 000 1.4z" fill="currentColor"/></symbol><symbol fill="none" viewBox="0 0 18 10" id="16-eyes" xmlns="http://www.w3.org/2000/svg"><path d="M9 1C5 1 2 4 1 5c1 1 4 4 8 4s7-3 8-4c-1-1-4-4-8-4z" stroke="currentColor"/><circle cx="9" cy="5" r="3.5" stroke="currentColor"/></symbol><symbol fill="none" viewBox="0 0 16 16" id="16-home" xmlns="http://www.w3.org/2000/svg"><g clip-path="url(#aoclip0)" stroke="currentColor" stroke-miterlimit="10" stroke-linecap="square"><path d="M2.537 5.267v10.236H13.56V5.267"/><path d="M.683 6.161L8 .596l7.317 5.565"/></g><defs><clipPath id="aoclip0"><path fill="#fff" d="M0 0h16v16H0z"/></clipPath></defs></symbol><symbol fill="none" viewBox="0 0 18 18" id="16-lens" xmlns="http://www.w3.org/2000/svg"><path d="M6.763 12.47A5.73 5.73 0 011.04 6.735 5.73 5.73 0 016.763 1a5.73 5.73 0 015.724 5.735 5.73 5.73 0 01-5.724 5.735zM17.04 17l-6.351-6.097" stroke="currentColor" stroke-miterlimit="10" stroke-linecap="square"/></symbol><symbol fill="none" viewBox="0 0 12 18" id="16-microphone" xmlns="http://www.w3.org/2000/svg"><path d="M3.476 8V3.383a2.56 2.56 0 01.791-1.694A2.503 2.503 0 015.99 1c.64 0 1.256.246 1.722.689a2.56 2.56 0 01.792 1.694V8M8.503 8.242a2.56 2.56 0 01-.792 1.694 2.503 2.503 0 01-1.722.689c-.64 0-1.255-.246-1.722-.689a2.56 2.56 0 01-.791-1.694" stroke="currentColor" stroke-miterlimit="10" stroke-linecap="square"/><path d="M10.979 8.264a5.08 5.08 0 01-1.54 3.421 4.964 4.964 0 01-3.45 1.399c-1.284 0-2.52-.5-3.449-1.399A5.08 5.08 0 011 8.264M1 16.99L11 17M5.984 13.285V17" stroke="currentColor" stroke-miterlimit="10" stroke-linecap="square"/></symbol><symbol fill="none" viewBox="0 0 13 18" id="16-movement" xmlns="http://www.w3.org/2000/svg"><path d="M1 14h3l1.227-2.348" stroke="currentColor" stroke-miterlimit="10" stroke-linecap="square"/><path d="M1.758 7.991s.598-2.188 3.736-2.188L4.18 9.123a1.494 1.494 0 00.32 1.558l2.273 2.316V17M12.271 6.743a2.54 2.54 0 01-2.06.917c-1.931 0-2.273-1.857-4.717-1.857M8.77 4.992A1.996 1.996 0 108.77 1a1.996 1.996 0 000 3.992zM8.066 6.87l-1.291 3.341" stroke="currentColor" stroke-miterlimit="10" stroke-linecap="square"/></symbol><symbol fill="none" viewBox="0 0 14 18" id="16-nutrition" xmlns="http://www.w3.org/2000/svg"><path d="M6.988 17a1.942 1.942 0 01-1.996-1.997V9.005A1.985 1.985 0 007.01 6.998V1H1v5.998a1.964 1.964 0 001.996 2.007v5.998A1.954 1.954 0 011 17M9.016 1v5.998M11.012 1v5.998M11.012 17V9.004a1.964 1.964 0 001.996-2.007V1" stroke="currentColor" stroke-miterlimit="10" stroke-linecap="square"/></symbol><symbol fill="none" viewBox="0 0 18 18" id="16-pencil" xmlns="http://www.w3.org/2000/svg"><path d="M3.119 12.098l2.961 2.967M12.015 2.251l3.75 3.75-9.35 9.4L1 17l1.675-5.358 9.34-9.39zM15.766 6l.789-.793a1.548 1.548 0 000-2.173l-.79-.794-.788-.793a1.53 1.53 0 00-2.162 0l-.746.804" stroke="currentColor" stroke-miterlimit="10" stroke-linecap="square"/></symbol><symbol fill="none" viewBox="0 0 10 20" id="16-play" xmlns="http://www.w3.org/2000/svg"><path d="M1 18V2l8 8-8 8z" stroke="currentColor"/></symbol><symbol fill="none" viewBox="0 0 16 16" id="16-plus" xmlns="http://www.w3.org/2000/svg"><path d="M7.995 15.49a7.495 7.495 0 100-14.99 7.495 7.495 0 000 14.99z" fill="currentColor" fill-opacity=".2" stroke="currentColor" stroke-miterlimit="10" stroke-linecap="square"/><path d="M8.005 11.743V4.237M11.753 7.995H4.247" stroke="currentColor" stroke-miterlimit="10" stroke-linecap="square"/></symbol><symbol fill="none" viewBox="0 0 16 16" id="16-plus-full" xmlns="http://www.w3.org/2000/svg"><path d="M7.995 15.49a7.495 7.495 0 100-14.99 7.495 7.495 0 000 14.99z" fill="currentColor" stroke="currentColor" stroke-miterlimit="10" stroke-linecap="square"/><path d="M8.005 11.743V4.237M11.753 7.995H4.247" stroke="#fff" stroke-miterlimit="10" stroke-linecap="square"/></symbol><symbol fill="none" viewBox="0 0 16 16" id="16-plus-outline" xmlns="http://www.w3.org/2000/svg"><path d="M8.005 11.743V4.237M11.753 7.995H4.247M7.995 15.49a7.495 7.495 0 100-14.99 7.495 7.495 0 000 14.99z" stroke="currentColor" stroke-miterlimit="10" stroke-linecap="square"/></symbol><symbol fill="none" viewBox="0 0 15 18" id="16-sleep" xmlns="http://www.w3.org/2000/svg"><path d="M6.404 3.09l.425.264-.546-.748.121.485zm5.914 10.773v.5h.021l-.021-.5zm1.639-.274l.429.256-.572-.735.143.48zM1 9.977L.5 9.97v.007l.5-.001zm4.98-7.15a7.584 7.584 0 00-1.135 3.797l1 .026c.03-1.168.37-2.306.984-3.296l-.85-.527zM4.844 6.624a7.589 7.589 0 00.932 3.851l.877-.481a6.589 6.589 0 01-.81-3.344l-1-.026zm.932 3.851a7.511 7.511 0 002.744 2.843l.511-.86a6.51 6.51 0 01-2.378-2.464l-.877.481zm2.744 2.843a7.431 7.431 0 003.797 1.045v-1a6.43 6.43 0 01-3.286-.905l-.511.86zm3.818 1.044a7.236 7.236 0 001.76-.294l-.285-.958a6.234 6.234 0 01-1.517.253l.042 1zm1.188-1.029a6.494 6.494 0 01-3.15 2.702l.374.927a7.493 7.493 0 003.635-3.117l-.859-.512zm-3.15 2.702a6.42 6.42 0 01-4.124.229l-.269.963a7.42 7.42 0 004.767-.265l-.373-.927zm-4.124.229a6.475 6.475 0 01-3.424-2.335l-.798.603a7.475 7.475 0 003.953 2.695l.269-.963zm-3.424-2.335A6.58 6.58 0 011.5 9.976l-1 .002a7.58 7.58 0 001.531 4.554l.798-.603zM1.5 9.982a6.72 6.72 0 011.43-4.07l-.786-.617A7.721 7.721 0 00.5 9.97l1 .011zm1.43-4.07a6.613 6.613 0 013.595-2.336l-.242-.97a7.613 7.613 0 00-4.14 2.689l.787.617z" fill="currentColor"/><path d="M9.182 1h1.932L9.182 2.949h1.932M12.069 6.813H14l-1.931 1.949H14" stroke="currentColor" stroke-linejoin="bevel"/></symbol><symbol fill="none" viewBox="0 0 16 16" id="16-statistics" xmlns="http://www.w3.org/2000/svg"><g clip-path="url(#azclip0)" stroke="currentColor" stroke-miterlimit="10" stroke-linecap="square"><path d="M4.252 15.5V8M11.748 15.5V9.869M.5 15.5V9.869M7.995 15.5V4.246M.5.5v15.001h15.002"/></g><defs><clipPath id="azclip0"><path fill="#fff" d="M0 0h16v16H0z"/></clipPath></defs></symbol><symbol fill="none" viewBox="0 0 13 18" id="16-symptoms" xmlns="http://www.w3.org/2000/svg"><path d="M8.28 1L1 11.823l4.291-1.64L4.977 17l7.29-10.823-4.302 1.64L8.279 1z" stroke="currentColor" stroke-linecap="square" stroke-linejoin="bevel"/></symbol><symbol fill="none" viewBox="0 0 15 18" id="16-text" xmlns="http://www.w3.org/2000/svg"><path d="M14 17V4.93L10 1l-8.991.032L1 17h13zM7 5.913H4M11 9.844H4M11 13.774H4" stroke="currentColor" stroke-miterlimit="10" stroke-linecap="square"/><path d="M13.5 5.43h.5v-1h-.5v1zm-3.5-.5h-.5v.5h.5v-.5zm.5-3.439v-.5h-1v.5h1zm3 2.94H10v1h3.5v-1zm-3 .5V1.49h-1v3.44h1z" fill="currentColor"/></symbol><symbol fill="none" viewBox="0 0 16 16" id="16-turn" xmlns="http://www.w3.org/2000/svg"><circle cx="8" cy="8" r="8" transform="rotate(-180 8 8)" fill="currentColor"/><path d="M5.5 10V7a3 3 0 016 0v5" stroke="#fff"/><path d="M3.5 8l2 2 2-2" stroke="#fff"/></symbol><symbol fill="none" viewBox="0 0 25 14" id="24-arrow-down" xmlns="http://www.w3.org/2000/svg"><path d="M1 1l11.5 11.57L23.99 1.08" stroke="currentColor" stroke-miterlimit="10" stroke-linecap="square"/></symbol><symbol fill="none" viewBox="0 0 13 23" id="24-arrow-left" xmlns="http://www.w3.org/2000/svg"><path d="M11.5 1.5L1 11.5 11.5 22" stroke="currentColor" stroke-miterlimit="10" stroke-linecap="square"/></symbol><symbol fill="none" viewBox="0 0 14 25" id="24-arrow-right" xmlns="http://www.w3.org/2000/svg"><path d="M1 23.99l11.57-11.5L1.08 1" stroke="currentColor" stroke-miterlimit="10" stroke-linecap="square"/></symbol><symbol fill="none" viewBox="0 0 25 14" id="24-arrow-up" xmlns="http://www.w3.org/2000/svg"><path d="M23.99 12.57L12.49 1 1 12.49" stroke="currentColor" stroke-miterlimit="10" stroke-linecap="square"/></symbol><symbol fill="none" viewBox="0 0 18 24" id="24-calendar" xmlns="http://www.w3.org/2000/svg"><g clip-path="url(#bhclip0)" stroke="currentColor" stroke-width="1.5" stroke-miterlimit="10" stroke-linecap="square"><path d="M.383 3.383l17.24.01v5.715l-17.24.02V3.383zM17.609 9.128H.376V23.5H17.61V9.128zM3.25.5l.014 2.893M14.743.5l.014 2.893"/></g><defs><clipPath id="bhclip0"><path fill="#fff" d="M0 0h18v24H0z"/></clipPath></defs></symbol><symbol fill="none" viewBox="0 0 26 23" id="24-camera" xmlns="http://www.w3.org/2000/svg"><path d="M1 22.045h24V4.501h-5.968c-.495-1.037-1.33-1.923-2.4-2.546A7.191 7.191 0 0013.025 1a7.19 7.19 0 00-3.609.955c-1.069.623-1.904 1.509-2.399 2.546H1v17.544z" stroke="currentColor" stroke-miterlimit="10" stroke-linecap="square"/><circle cx="13" cy="13" r="5.5" stroke="currentColor"/></symbol><symbol fill="none" viewBox="0 0 24 24" id="24-check" xmlns="http://www.w3.org/2000/svg"><path d="M11.995 23.49c6.348 0 11.495-5.147 11.495-11.495C23.49 5.646 18.343.5 11.995.5 5.647.5.5 5.646.5 11.995c0 6.348 5.147 11.495 11.495 11.495z" fill="currentColor" fill-opacity=".2" stroke="currentColor" stroke-miterlimit="10" stroke-linecap="square"/><path d="M6.223 12.025l3.831 3.832 7.673-7.674" stroke="currentColor" stroke-miterlimit="10" stroke-linecap="square"/></symbol><symbol fill="none" viewBox="0 0 24 24" id="24-check-full" xmlns="http://www.w3.org/2000/svg"><g clip-path="url(#bkclip0)"><path d="M11.99 23.48c6.346 0 11.49-5.144 11.49-11.49S18.336.5 11.99.5.5 5.644.5 11.99s5.144 11.49 11.49 11.49z" fill="currentColor" stroke="currentColor" stroke-miterlimit="10" stroke-linecap="square"/><path d="M6.22 12.02l3.83 3.83 7.67-7.67" fill="currentColor"/><path d="M6.22 12.02l3.83 3.83 7.67-7.67" stroke="#fff" stroke-miterlimit="10" stroke-linecap="square"/></g><defs><clipPath id="bkclip0"><path fill="#fff" d="M0 0h23.99v23.99H0z"/></clipPath></defs></symbol><symbol fill="none" viewBox="0 0 24 24" id="24-check-outline" xmlns="http://www.w3.org/2000/svg"><path d="M11.995 23.49c6.348 0 11.495-5.147 11.495-11.495C23.49 5.646 18.343.5 11.995.5 5.646.5.5 5.646.5 11.995c0 6.348 5.146 11.495 11.495 11.495z" stroke="currentColor" stroke-miterlimit="10" stroke-linecap="square"/><path d="M6.223 12.025l3.831 3.832 7.673-7.674" stroke="currentColor" stroke-miterlimit="10" stroke-linecap="square"/></symbol><symbol fill="none" viewBox="0 0 26 26" id="24-close-full" xmlns="http://www.w3.org/2000/svg"><path d="M13 25c6.627 0 12-5.373 12-12S19.627 1 13 1 1 6.373 1 13s5.373 12 12 12z" fill="currentColor" stroke="currentColor" stroke-miterlimit="10" stroke-linecap="square"/><path d="M8.494 8.526l9.012 9.012M8.478 17.522l9.028-8.996" stroke="#fff" stroke-miterlimit="10" stroke-linecap="square"/></symbol><symbol fill="none" viewBox="0 0 26 26" id="24-close-outline" xmlns="http://www.w3.org/2000/svg"><path d="M13 25c6.627 0 12-5.373 12-12S19.627 1 13 1 1 6.373 1 13s5.373 12 12 12zM8.499 8.53l9.013 9.013M8.488 17.522l9.013-9.002" stroke="currentColor" stroke-miterlimit="10" stroke-linecap="square"/></symbol><symbol fill="none" viewBox="0 0 26 26" id="24-countermeasures" xmlns="http://www.w3.org/2000/svg"><path d="M16.005 2.559a5.259 5.259 0 117.473 7.4L9.944 23.43a5.244 5.244 0 11-7.4-7.432l13.46-13.44zM4.92 13.936l7.233 7.233M13.88 4.642l7.232 7.232" stroke="currentColor" stroke-width="1.5" stroke-miterlimit="10" stroke-linecap="square"/><circle cx="21.167" cy="8.167" r=".833" transform="rotate(-180 21.167 8.167)" fill="currentColor"/><circle cx="21.167" cy="4.833" r=".833" transform="rotate(-180 21.167 4.833)" fill="currentColor"/><circle cx="17.833" cy="4.833" r=".833" transform="rotate(-180 17.833 4.833)" fill="currentColor"/><circle cx="4.833" cy="17.833" r=".833" fill="currentColor"/><circle cx="4.833" cy="21.167" r=".833" fill="currentColor"/><circle cx="8.167" cy="21.167" r=".833" fill="currentColor"/></symbol><symbol fill="none" viewBox="0 0 24 24" id="24-down-full" xmlns="http://www.w3.org/2000/svg"><circle cx="12" cy="12" r="12" transform="rotate(-90 12 12)" fill="currentColor"/><path d="M7 10l5.003 5L17 10.033" stroke="#fff" stroke-miterlimit="10" stroke-linecap="square"/></symbol><symbol fill="none" viewBox="0 0 26 26" id="24-emotions" xmlns="http://www.w3.org/2000/svg"><path d="M8.31 17.427a8.24 8.24 0 119.088-9.348M16.729 25.009a8.271 8.271 0 100-16.543 8.271 8.271 0 000 16.543zM15 20.555a3.075 3.075 0 004.256 0" stroke="currentColor" stroke-width="1.5" stroke-miterlimit="10" stroke-linecap="square"/><path d="M14.1 18.2a1.1 1.1 0 100-2.2 1.1 1.1 0 000 2.2zM20.667 18.2a1.1 1.1 0 100-2.2 1.1 1.1 0 000 2.2z" fill="currentColor"/><path d="M9.753 12.042h-.345a2.863 2.863 0 00-2.09.857" stroke="currentColor" stroke-width="1.5" stroke-miterlimit="10" stroke-linecap="square"/><path d="M6.88 9.2a1.1 1.1 0 100-2.2 1.1 1.1 0 000 2.2zM13.1 9.2a1.1 1.1 0 100-2.2 1.1 1.1 0 000 2.2z" fill="currentColor"/></symbol><symbol fill="none" viewBox="0 0 26 14" id="24-eyes" xmlns="http://www.w3.org/2000/svg"><path d="M13 1C7 1 2.5 5.5 1 7c1.5 1.5 6 6 12 6s10.5-4.5 12-6c-1.5-1.5-6-6-12-6z" stroke="currentColor"/><circle cx="13" cy="7" r="5.5" stroke="currentColor"/></symbol><symbol fill="none" viewBox="0 0 24 24" id="24-home" xmlns="http://www.w3.org/2000/svg"><g clip-path="url(#bsclip0)" stroke="currentColor" stroke-width="1.5" stroke-miterlimit="10" stroke-linecap="square"><path d="M3.541 7.469v16.033h16.918V7.47"/><path d="M.689 9.162L12 .598l11.311 8.564"/></g><defs><clipPath id="bsclip0"><path fill="#fff" d="M0 0h24v24H0z"/></clipPath></defs></symbol><symbol fill="none" viewBox="0 0 24 24" id="24-left-full" xmlns="http://www.w3.org/2000/svg"><circle cx="12" cy="12" r="12" fill="currentColor"/><path d="M14 7l-5 5.003L13.967 17" stroke="#fff" stroke-miterlimit="10" stroke-linecap="square"/></symbol><symbol fill="none" viewBox="0 0 26 26" id="24-lens" xmlns="http://www.w3.org/2000/svg"><path d="M9.594 18.206c-4.74 0-8.584-3.852-8.584-8.603C1.01 4.852 4.853 1 9.594 1s8.584 3.852 8.584 8.603c0 4.751-3.843 8.603-8.584 8.603zM25.01 25l-9.523-9.136" stroke="currentColor" stroke-miterlimit="10" stroke-linecap="square"/></symbol><symbol fill="none" viewBox="0 0 18 26" id="24-microphone" xmlns="http://www.w3.org/2000/svg"><path d="M4.961 11.5V4.614a3.732 3.732 0 011.25-2.567A4.151 4.151 0 018.983 1c1.032 0 2.024.375 2.773 1.047a3.732 3.732 0 011.25 2.567V11.5M13.006 11.906a3.732 3.732 0 01-1.25 2.567 4.151 4.151 0 01-2.773 1.048 4.151 4.151 0 01-2.772-1.048 3.732 3.732 0 01-1.25-2.567" stroke="currentColor" stroke-miterlimit="10" stroke-linecap="square"/><path d="M17 12a8.456 8.456 0 01-2.446 5.675A7.853 7.853 0 019 20a7.853 7.853 0 01-5.554-2.325A8.457 8.457 0 011 12M1 24.979L17 25M9 20l-.022 5" stroke="currentColor" stroke-miterlimit="10" stroke-linecap="square"/></symbol><symbol fill="none" viewBox="0 0 19 26" id="24-movement" xmlns="http://www.w3.org/2000/svg"><path d="M1 20.5h4.5l1.843-3.528" stroke="currentColor" stroke-width="1.5" stroke-miterlimit="10" stroke-linecap="square"/><path d="M2.14 11.498s.901-3.38 5.59-3.38l-1.947 5.076a2.198 2.198 0 00.471 2.323l3.412 3.486V25" stroke="currentColor" stroke-width="1.5" stroke-miterlimit="10" stroke-linecap="square"/><path d="M17.914 9.614a3.82 3.82 0 01-3.14 1.382c-2.9 0-3.433-2.879-7.086-2.879M12.66 6.987a2.993 2.993 0 100-5.987 2.993 2.993 0 000 5.987zM11.603 9.802l-1.937 5.014" stroke="currentColor" stroke-width="1.5" stroke-miterlimit="10" stroke-linecap="square"/></symbol><symbol fill="none" viewBox="0 0 20 27" id="24-nutrition" xmlns="http://www.w3.org/2000/svg"><path d="M10.002 24.999A2.92 2.92 0 017 21.996v-8.965a3.39 3.39 0 002.253-.878c.618-.56.677-1.327.765-2.156V1H1v8.997c.104.833.097 1.6.724 2.158.628.558 1.436.87 2.276.876v8.997a2.94 2.94 0 01-3.002 2.97M13.01 1v8.997M16.012 1v8.997M16.012 24.999V13.03a2.94 2.94 0 003.003-3.034V1.011" stroke="currentColor" stroke-width="1.5" stroke-miterlimit="10" stroke-linecap="square"/></symbol><symbol fill="none" viewBox="0 0 26 26" id="24-pencil" xmlns="http://www.w3.org/2000/svg"><path d="M4.19 17.647L8.617 22.1M17.529 2.877l5.616 5.627L9.116 22.602 1 25l2.511-8.035L17.53 2.877z" stroke="currentColor" stroke-miterlimit="10" stroke-linecap="square"/><path d="M23.145 8.504L24.33 7.32a2.319 2.319 0 000-3.261l-1.186-1.194-1.177-1.193a2.292 2.292 0 00-3.242 0L17.53 2.877" stroke="currentColor" stroke-miterlimit="10" stroke-linecap="square"/></symbol><symbol fill="none" viewBox="0 0 14 28" id="24-play" xmlns="http://www.w3.org/2000/svg"><path d="M1 26V2l12 12L1 26z" stroke="currentColor"/></symbol><symbol fill="none" viewBox="0 0 24 24" id="24-plus" xmlns="http://www.w3.org/2000/svg"><path d="M12 23.498c6.35 0 11.498-5.148 11.498-11.499C23.498 5.65 18.35.5 12 .5 5.65.5.5 5.648.5 12c0 6.35 5.148 11.498 11.5 11.498z" fill="currentColor" fill-opacity=".2" stroke="currentColor" stroke-miterlimit="10" stroke-linecap="square"/><path d="M12.01 17.75V6.24M17.76 11.99H6.25" stroke="currentColor" stroke-miterlimit="10" stroke-linecap="square"/></symbol><symbol fill="none" viewBox="0 0 24 24" id="24-plus-full" xmlns="http://www.w3.org/2000/svg"><path d="M12 23.498c6.35 0 11.498-5.148 11.498-11.499C23.498 5.65 18.35.5 12 .5 5.65.5.5 5.648.5 12c0 6.35 5.148 11.498 11.5 11.498z" fill="currentColor" stroke="currentColor" stroke-miterlimit="10" stroke-linecap="square"/><path d="M12.01 17.75V6.24M17.76 11.99H6.25" stroke="#fff" stroke-miterlimit="10" stroke-linecap="square"/></symbol><symbol fill="none" viewBox="0 0 24 24" id="24-plus-outline" xmlns="http://www.w3.org/2000/svg"><path d="M12.01 17.75V6.24M17.76 11.99H6.25M12 23.498c6.35 0 11.498-5.148 11.498-11.499C23.498 5.65 18.35.5 12 .5 5.65.5.5 5.648.5 12c0 6.35 5.148 11.498 11.5 11.498z" stroke="currentColor" stroke-miterlimit="10" stroke-linecap="square"/></symbol><symbol fill="none" viewBox="0 0 24 24" id="24-right-full" xmlns="http://www.w3.org/2000/svg"><circle cx="12" cy="12" r="12" transform="rotate(-180 12 12)" fill="currentColor"/><path d="M10 17l5-5.003L10.033 7" stroke="#fff" stroke-miterlimit="10" stroke-linecap="square"/></symbol><symbol fill="none" viewBox="0 0 22 26" id="24-sleep" xmlns="http://www.w3.org/2000/svg"><path d="M9.16 3.81l.644.384-.825-1.113.18.728zM7.705 9.417h.75v-.023l-.75.023zM18.411 20.17l-.002.75h.025l-.023-.75zm2.527-.382l.643.386-.842-1.109.2.723zM8.516 3.425a11.09 11.09 0 00-1.56 6.016l1.5-.046a9.59 9.59 0 011.348-5.201l-1.288-.769zm-1.56 5.993a11.51 11.51 0 003.352 8.121l1.063-1.058a10.01 10.01 0 01-2.916-7.063h-1.5zm3.352 8.121a11.479 11.479 0 008.101 3.381l.004-1.5a9.979 9.979 0 01-7.042-2.939l-1.063 1.058zm8.126 3.381a11.495 11.495 0 002.704-.409l-.4-1.446a9.997 9.997 0 01-2.35.356l.046 1.5zm1.861-1.518a9.996 9.996 0 01-3.438 3.433l.77 1.288a11.494 11.494 0 003.954-3.949l-1.286-.772zm-3.438 3.433a9.975 9.975 0 01-4.648 1.404l.07 1.498a11.476 11.476 0 005.348-1.614l-.77-1.288zm-4.648 1.404a9.972 9.972 0 01-4.76-.958l-.645 1.354a11.474 11.474 0 005.476 1.102l-.071-1.498zm-4.76-.958a9.99 9.99 0 01-3.747-3.093l-1.207.89a11.49 11.49 0 004.31 3.557l.644-1.354zm-3.747-3.093a10.01 10.01 0 01-1.847-4.497l-1.485.216a11.511 11.511 0 002.125 5.171l1.207-.89zm-1.847-4.497c-.238-1.628-.07-3.29.488-4.838l-1.411-.509a11.517 11.517 0 00-.562 5.563l1.485-.216zm.488-4.838a10.003 10.003 0 012.709-4.036L4.047 5.703a11.503 11.503 0 00-3.115 4.641l1.41.509zm2.709-4.036a9.982 9.982 0 014.288-2.28l-.36-1.456a11.482 11.482 0 00-4.933 2.622l1.005 1.114z" fill="currentColor"/><path d="M13.574 1h2.98l-2.97 2.964h2.97M18.02 9.418H21l-2.97 2.965H21" stroke="currentColor" stroke-width="1.5" stroke-linejoin="bevel"/></symbol><symbol fill="none" viewBox="0 0 24 24" id="24-statistics" xmlns="http://www.w3.org/2000/svg"><g clip-path="url(#cfclip0)" stroke="currentColor" stroke-width="1.5" stroke-miterlimit="10" stroke-linecap="square"><path d="M6.253 23.5V12.004M17.747 23.5v-8.621M.5 23.5v-8.621M12.005 23.5V6.247M.5.5v23.009h23"/></g><defs><clipPath id="cfclip0"><path fill="#fff" d="M0 0h24v24H0z"/></clipPath></defs></symbol><symbol fill="none" viewBox="0 0 19 26" id="24-symptoms" xmlns="http://www.w3.org/2000/svg"><path d="M11.926 1L1 17.24l6.443-2.464L6.97 25 17.895 8.76l-6.443 2.465L11.926 1z" stroke="currentColor" stroke-width="1.5" stroke-linecap="square" stroke-linejoin="bevel"/></symbol><symbol fill="none" viewBox="0 0 22 26" id="24-text" xmlns="http://www.w3.org/2000/svg"><path d="M21 25V6.896L14.846 1l-13.833.048L1 25h20zM10.23 8.37H5.616M16.385 14.266H5.615M16.385 20.162H5.615" stroke="currentColor" stroke-miterlimit="10" stroke-linecap="square"/><path d="M20 7.5h.5v-1H20v1zM15 7h-.5v.5h.5V7zm.5-5v-.5h-1V2h1zM20 6.5h-5v1h5v-1zm-4.5.5V2h-1v5h1z" fill="currentColor"/></symbol><symbol fill="none" viewBox="0 0 24 26" id="24-trash" xmlns="http://www.w3.org/2000/svg"><path d="M0 3.824h24M3 6.647L4.5 25h15L21 6.647H3zM7.5 3.824V1h9v2.824" stroke="currentColor"/></symbol><symbol fill="none" viewBox="0 0 24 24" id="24-turn" xmlns="http://www.w3.org/2000/svg"><circle cx="12" cy="12" r="12" transform="rotate(-180 12 12)" fill="currentColor"/><path d="M8.25 15v-4.5a4.5 4.5 0 119 0V18" stroke="#fff"/><path d="M5.25 12l3 3 3-3" stroke="#fff"/></symbol><symbol fill="none" viewBox="0 0 24 24" id="24-up-full" xmlns="http://www.w3.org/2000/svg"><circle cx="12" cy="12" r="12" transform="rotate(90 12 12)" fill="currentColor"/><path d="M17 14l-5.003-5L7 13.967" stroke="#fff" stroke-miterlimit="10" stroke-linecap="square"/></symbol><symbol fill="none" viewBox="0 0 32 32" id="32-check" xmlns="http://www.w3.org/2000/svg"><path d="M15.993 31.32c8.465 0 15.327-6.862 15.327-15.327C31.32 7.53 24.458.667 15.993.667 7.53.667.667 7.529.667 15.993c0 8.465 6.862 15.327 15.326 15.327z" fill="currentColor" fill-opacity=".2" stroke="currentColor" stroke-miterlimit="10" stroke-linecap="square"/><path d="M8.297 16.033l5.108 5.11L23.637 10.91" stroke="currentColor" stroke-miterlimit="10" stroke-linecap="square"/></symbol><symbol fill="none" viewBox="0 0 32 32" id="32-check-full" xmlns="http://www.w3.org/2000/svg"><path d="M15.993 31.32c8.465 0 15.327-6.862 15.327-15.327C31.32 7.53 24.458.667 15.993.667 7.53.667.667 7.529.667 15.993c0 8.465 6.862 15.327 15.326 15.327z" fill="currentColor" stroke="currentColor" stroke-miterlimit="10" stroke-linecap="square"/><path d="M8.297 16.033l5.108 5.11L23.637 10.91" fill="currentColor"/><path d="M8.297 16.033l5.108 5.11L23.637 10.91" stroke="#fff" stroke-miterlimit="10" stroke-linecap="square"/></symbol><symbol fill="none" viewBox="0 0 32 32" id="32-check-outline" xmlns="http://www.w3.org/2000/svg"><path d="M15.993 31.32c8.465 0 15.327-6.862 15.327-15.327C31.32 7.53 24.458.667 15.993.667 7.53.667.667 7.529.667 15.993c0 8.465 6.862 15.327 15.326 15.327z" stroke="currentColor" stroke-miterlimit="10" stroke-linecap="square"/><path d="M8.297 16.033l5.108 5.11L23.637 10.91" stroke="currentColor" stroke-miterlimit="10" stroke-linecap="square"/></symbol><symbol fill="none" viewBox="0 0 34 34" id="32-close-full" xmlns="http://www.w3.org/2000/svg"><path d="M17 33c8.837 0 16-7.163 16-16S25.837 1 17 1 1 8.163 1 17s7.163 16 16 16z" fill="currentColor" stroke="currentColor" stroke-miterlimit="10" stroke-linecap="square"/><path d="M11.957 12L22 22.043M12 22l10-10.5" stroke="#fff" stroke-miterlimit="10" stroke-linecap="square"/></symbol><symbol fill="none" viewBox="0 0 34 34" id="32-close-outline" xmlns="http://www.w3.org/2000/svg"><path d="M17 33c8.837 0 16-7.163 16-16S25.837 1 17 1 1 8.163 1 17s7.163 16 16 16zM10.998 11.04l12.018 12.017M10.984 23.03l12.018-12.004" stroke="currentColor" stroke-miterlimit="10" stroke-linecap="square"/></symbol><symbol fill="none" viewBox="0 0 34 34" id="32-countermeasures" xmlns="http://www.w3.org/2000/svg"><path d="M21.006 3.06a7.024 7.024 0 119.939 9.93l-18.03 18.002a7.023 7.023 0 01-9.93-9.93L21.006 3.06zM6.203 18.31l9.665 9.665M18.172 5.894l9.664 9.665" stroke="currentColor" stroke-width="2" stroke-miterlimit="10" stroke-linecap="square"/><circle cx="28" cy="10" r="1" transform="rotate(-180 28 10)" fill="currentColor"/><circle cx="28" cy="6" r="1" transform="rotate(-180 28 6)" fill="currentColor"/><circle cx="24" cy="6" r="1" transform="rotate(-180 24 6)" fill="currentColor"/><circle cx="6" cy="24" r="1" fill="currentColor"/><circle cx="6" cy="28" r="1" fill="currentColor"/><circle cx="10" cy="28" r="1" fill="currentColor"/></symbol><symbol fill="none" viewBox="0 0 32 32" id="32-down-full" xmlns="http://www.w3.org/2000/svg"><circle cx="16" cy="16" r="16" transform="rotate(-90 16 16)" fill="currentColor"/><path d="M9.333 13.333L16.004 20l6.663-6.623" stroke="#fff" stroke-miterlimit="10" stroke-linecap="square"/></symbol><symbol fill="none" viewBox="0 0 34 34" id="32-emotions" xmlns="http://www.w3.org/2000/svg"><path d="M10.76 22.905a10.987 10.987 0 1112.106-12.452M21.983 33c6.083 0 11.015-4.931 11.015-11.014 0-6.083-4.932-11.014-11.015-11.014S10.97 15.902 10.97 21.986C10.969 28.069 15.9 33 21.983 33zM19.089 27.639a4.142 4.142 0 005.68 0" stroke="currentColor" stroke-width="2" stroke-miterlimit="10" stroke-linecap="square"/><path d="M17.595 23.905a.5.5 0 100-1 .5.5 0 000 1zM26.334 23.905a.5.5 0 100-1 .5.5 0 000 1z" fill="currentColor" stroke="currentColor" stroke-width="2" stroke-miterlimit="10" stroke-linecap="square"/><path d="M12.68 15.723h-.446a3.86 3.86 0 00-2.84 1.129" stroke="currentColor" stroke-width="2" stroke-miterlimit="10" stroke-linecap="square"/><path d="M7.9 11.972a.5.5 0 100-1 .5.5 0 000 1zM16.64 11.972a.5.5 0 100-1 .5.5 0 000 1z" fill="currentColor" stroke="currentColor" stroke-width="2" stroke-miterlimit="10" stroke-linecap="square"/></symbol><symbol fill="none" viewBox="0 0 32 32" id="32-left-full" xmlns="http://www.w3.org/2000/svg"><circle cx="16" cy="16" r="16" fill="currentColor"/><path d="M18.667 9.333L12 16.004l6.623 6.663" stroke="#fff" stroke-miterlimit="10" stroke-linecap="square"/></symbol><symbol fill="none" viewBox="0 0 25 34" id="32-movement" xmlns="http://www.w3.org/2000/svg"><path d="M1 27h6l2.454-4.706" stroke="currentColor" stroke-width="2" stroke-miterlimit="10" stroke-linecap="square"/><path d="M2.523 14.99s1.195-4.497 7.45-4.497l-2.599 6.758a2.936 2.936 0 00.639 3.11l4.56 4.641V33" stroke="currentColor" stroke-width="2" stroke-miterlimit="10" stroke-linecap="square"/><path d="M23.543 12.49a5.098 5.098 0 01-4.13 1.824c-3.858 0-4.56-3.82-9.44-3.82M16.54 8.989a3.994 3.994 0 100-7.989 3.994 3.994 0 000 7.989zM15.135 12.727l-2.58 6.685" stroke="currentColor" stroke-width="2" stroke-miterlimit="10" stroke-linecap="square"/></symbol><symbol fill="none" viewBox="0 0 27 34" id="32-nutrition" xmlns="http://www.w3.org/2000/svg"><path d="M13.016 33C8.986 33 9 28.998 9 28.998V17c3.993 0 4.016-4.002 4.016-4.002V1H1v11.998S.982 17 4.993 17v11.998S4.993 33 1 33M17.018 1v11.998M21.02 1v11.998M21.02 33V17c3.994 0 3.994-4.002 3.994-4.002V1.009" stroke="currentColor" stroke-width="2" stroke-miterlimit="10" stroke-linecap="square"/></symbol><symbol fill="none" viewBox="0 0 32 32" id="32-plus" xmlns="http://www.w3.org/2000/svg"><path d="M15.999 31.331c8.468 0 15.332-6.864 15.332-15.332S24.467.667 16 .667.667 7.53.667 15.999 7.53 31.33 15.999 31.33z" fill="currentColor" fill-opacity=".2" stroke="currentColor" stroke-miterlimit="10" stroke-linecap="square"/><path d="M16.013 23.666V8.32M23.68 15.987H8.334" stroke="currentColor" stroke-miterlimit="10" stroke-linecap="square"/></symbol><symbol fill="none" viewBox="0 0 32 32" id="32-plus-full" xmlns="http://www.w3.org/2000/svg"><path d="M15.999 31.331c8.468 0 15.332-6.864 15.332-15.332S24.467.667 16 .667.667 7.53.667 15.999 7.53 31.33 15.999 31.33z" fill="currentColor" stroke="currentColor" stroke-miterlimit="10" stroke-linecap="square"/><path d="M16.013 23.666V8.32M23.68 15.987H8.334" stroke="#fff" stroke-miterlimit="10" stroke-linecap="square"/></symbol><symbol fill="none" viewBox="0 0 32 32" id="32-plus-outline" xmlns="http://www.w3.org/2000/svg"><path d="M16.013 23.666V8.321M23.68 15.987H8.334M15.999 31.331c8.468 0 15.332-6.864 15.332-15.332S24.467.667 16 .667.667 7.53.667 15.999 7.53 31.33 15.999 31.33z" stroke="currentColor" stroke-miterlimit="10" stroke-linecap="square"/></symbol><symbol fill="none" viewBox="0 0 32 32" id="32-right-full" xmlns="http://www.w3.org/2000/svg"><circle cx="16" cy="16" r="16" transform="rotate(-180 16 16)" fill="currentColor"/><path d="M13.333 22.667L20 15.996l-6.623-6.663" stroke="#fff" stroke-miterlimit="10" stroke-linecap="square"/></symbol><symbol fill="none" viewBox="0 0 29 34" id="32-sleep" xmlns="http://www.w3.org/2000/svg"><path d="M12.023 4.744l.853.521-1.09-1.493.237.972zm-2.002 7.506l1-.002v-.026l-1 .028zm14.494 14.31v1h.015l.014-.001-.029-1zm3.403-.514l.855.52-1.122-1.483.267.963zM11.17 4.222a14.655 14.655 0 00-2.148 8.056l1.999-.056a12.655 12.655 0 011.855-6.957L11.17 4.222zm-2.149 8.03a15.259 15.259 0 004.553 10.83l1.405-1.424a13.258 13.258 0 01-3.958-9.41l-2 .004zm4.553 10.83a15.575 15.575 0 0010.941 4.477v-2a13.575 13.575 0 01-9.536-3.9l-1.405 1.422zm10.97 4.477a15.264 15.264 0 003.641-.55l-.534-1.926a13.266 13.266 0 01-3.165.477l.058 1.999zm2.52-2.032a13.416 13.416 0 01-4.644 4.582l1.017 1.722a15.416 15.416 0 005.336-5.266l-1.71-1.038zM22.42 30.11a13.61 13.61 0 01-6.286 1.876l.094 1.998a15.61 15.61 0 007.21-2.152l-1.018-1.722zm-6.286 1.876a13.63 13.63 0 01-6.438-1.279l-.85 1.81a15.63 15.63 0 007.382 1.467l-.094-1.998zm-6.438-1.279a13.461 13.461 0 01-5.062-4.127L3.03 27.775a15.46 15.46 0 005.814 4.741l.851-1.81zM4.634 26.58a13.253 13.253 0 01-2.493-5.995l-1.979.291c.368 2.5 1.354 4.87 2.869 6.9l1.603-1.196zM2.14 20.584a13.19 13.19 0 01.66-6.448l-1.879-.685a15.19 15.19 0 00-.76 7.424l1.979-.291zm.66-6.448a13.329 13.329 0 013.66-5.38L5.13 7.262a15.329 15.329 0 00-4.209 6.189l1.88.685zm3.66-5.38a13.546 13.546 0 015.8-3.04l-.475-1.944a15.546 15.546 0 00-6.655 3.49l1.33 1.494z" fill="currentColor"/><path d="M17.992 1h4.012l-4.003 3.96h4.003M23.988 12.223H28l-4.003 3.96H28" stroke="currentColor" stroke-width="2" stroke-linejoin="bevel"/></symbol><symbol fill="none" viewBox="0 0 26 34" id="32-symptoms" xmlns="http://www.w3.org/2000/svg"><path d="M16.353 1L.83 22.646l9.153-3.285L9.308 33 24.83 11.345l-9.152 3.285L16.353 1z" stroke="currentColor" stroke-width="2" stroke-linecap="square" stroke-linejoin="bevel"/></symbol><symbol fill="none" viewBox="0 0 32 32" id="32-turn" xmlns="http://www.w3.org/2000/svg"><circle cx="16" cy="16" r="16" transform="rotate(-180 16 16)" fill="currentColor"/><path d="M11 20v-6a6 6 0 0112 0v10" stroke="#fff"/><path d="M7 16l4 4 4-4" stroke="#fff"/></symbol><symbol fill="none" viewBox="0 0 32 32" id="32-up-full" xmlns="http://www.w3.org/2000/svg"><circle cx="16" cy="16" r="16" transform="rotate(90 16 16)" fill="currentColor"/><path d="M22.667 18.667L15.996 12l-6.663 6.623" stroke="#fff" stroke-miterlimit="10" stroke-linecap="square"/></symbol><symbol fill="none" viewBox="0 0 50 51" id="50-plus-full" xmlns="http://www.w3.org/2000/svg"><path d="M25 50.358c13.232 0 23.958-10.965 23.958-24.491S38.232 1.376 25 1.376c-13.232 0-23.958 10.965-23.958 24.49 0 13.527 10.726 24.492 23.958 24.492z" fill="#4D4D4D" stroke="#4D4D4D" stroke-miterlimit="10" stroke-linecap="square"/><path d="M25.02 38.112V13.6M37 25.845H13.02" stroke="#fff" stroke-width="1.5" stroke-miterlimit="10" stroke-linecap="square"/></symbol><symbol viewBox="0 0 227 653" fill-rule="evenodd" clip-rule="evenodd" stroke-linejoin="round" stroke-miterlimit="2" id="653-woman-front" xmlns="http://www.w3.org/2000/svg"><path d="M91.102 16.437c-7.432 5.247-11.565 12.5-11.738 20.552-.128 5.963-.623 10.819-.336 17.109a3.614 3.614 0 00-1.102-.063c-1.182.104-2.418.717-2.966 1.471l-.006.008c-.855 1.282-1.135 3.195-1.04 5.31.137 3.038 1.024 6.501 1.878 8.94 1.424 4.114 3.207 5.692 4.591 6.272a3.87 3.87 0 001.991.294c1.088 4.966 1.744 6.271 3.054 8.614 1.916 3.429 8.36 9.187 10.982 11.809l.054.054V108.8c0 1.665.073 3.222-.02 4.373-.051.637-.126 1.135-.356 1.398-.689.787-8.182 6.47-18.319 8.438-10.449 2.029-16.117 2.864-23.015 12.704-6.836 9.752-8.779 20.503-10.689 48.353-1.897 27.655-2.293 35.443-3.191 39.936-.901 4.502-8.202 23.911-10.404 37.818-2.305 13.933-5.306 29.27-5.306 33.48 0 3.908-1.809 6.186-2.344 6.832-.743.549-9.522 7.058-11.36 9.573-1.904 2.605-8.72 15.83-9.522 17.133l-.014.025c-.439.815-1.466 2.537-1.642 4.254-.128 1.255.175 2.506 1.364 3.469 1.155.968 2.455 1.025 3.713.547 1.729-.658 3.377-2.384 4.331-3.971.131-.211.268-.424.407-.64-1.134 2.56-2.293 5.557-3.018 8.457-1.816 7.263-1.915 12.61-1.915 13.921 0 1.537.433 2.684 1.497 3.157-.009-.004 1.118.504 2.196.135.018.527.078 1.198.246 1.792.168.594.449 1.109.852 1.409 1.037.905 3.206 1.248 4.694.218l.003-.002a2.26 2.26 0 00.578-.656c.034.089.07.178.11.267.317.704.84 1.363 1.657 1.651l.005.002c1.026.342 3.397.53 4.654-1.162.534-.63 1.459-2.779 2.157-5.053.05.066.106.13.166.19.331.333.818.59 1.543.65 1.288.112 2.238-.128 2.994-.632.741-.494 1.301-1.254 1.795-2.242.904-1.808 8.131-17.878 9.035-21.192l.001-.002c.905-3.418 3.515-15.576 3.816-21.605l.001-.037s-.1-3.923.684-6.963c.799-3.097 9.294-23.479 11.292-29.774 2.006-6.318 6.616-20.359 7.518-26.276.901-6.008 2.603-16.22 3.304-23.93.628-6.911 3.677-28.106 4.793-34.635.93 2.005 2.037 3.738 3.425 5.127.222 3.03 2.876 39.453 2.684 44.143-.196 4.813-.47 9.434-2.434 12.872-2.007 3.512-15.153 28.904-17.963 53.09-2.805 24.147-3.408 36.07 2.203 70.937 5.598 34.788 10.997 54.181 12.097 63.778 1.097 9.57 2.496 22.43 1.998 30.007-.601 7.619-2.201 34.061-1.099 46.181 1.101 12.116 9.309 46.162 11.812 56.275 2.49 10.056 5.885 25.189 5.586 32.159-.297 6.926-1.386 13.061-6.631 21.967-3.199 5.433-6.211 9.674-7.332 12.695-.846 2.28-.647 3.932.994 4.98l.006.004c1.445.868 2.828.511 3.85-.08.158-.091.307-.188.446-.286a5.837 5.837 0 00.037 1.534c.185 1.071.757 2.054 2.109 2.392l.001.001c1.677.406 2.813-.178 3.558-.951l.001.015c.062.829.334 1.655.973 2.202.431.37 1.032.624 1.874.648 1.566.045 2.649-.574 3.384-1.33-.002.053-.002.106-.002.16 0 1.102.285 2.155 1.045 2.68.474.334 1.739.62 2.851.601.819-.014 1.544-.212 1.889-.557l.007-.008c1.056-1.143 2.015-3.063 2.769-4.889-.015.721.014 1.454.114 2.148.335 2.313 1.445 4.195 4.057 4.195 2.961 0 4.917-.768 6.207-1.912 1.144-1.015 1.771-2.339 2.093-3.739.322 1.4.949 2.724 2.093 3.739 1.29 1.144 3.246 1.912 6.207 1.912 2.612 0 3.721-1.882 4.056-4.195.101-.695.13-1.428.114-2.149.754 1.826 1.713 3.746 2.763 4.883l.006.007c.353.353 1.078.551 1.897.565 1.111.019 2.377-.267 2.85-.601.76-.525 1.046-1.578 1.046-2.68a8.43 8.43 0 00-.002-.16c.735.756 1.818 1.375 3.384 1.33.842-.024 1.443-.278 1.874-.648.639-.547.911-1.373.973-2.202l.001-.014c.745.772 1.881 1.356 3.556.95h.002c1.352-.339 1.925-1.322 2.11-2.393.09-.518.083-1.056.036-1.534.139.098.288.195.446.286 1.023.591 2.405.948 3.845.084l.006-.004c1.647-1.052 1.845-2.704.999-4.984-1.12-3.021-4.132-7.262-7.331-12.695-5.245-8.906-6.335-15.041-6.631-21.967-.299-6.97 3.096-22.103 5.585-32.159 2.504-10.113 10.711-44.159 11.813-56.275 1.102-12.12-.498-38.562-1.099-46.181-.498-7.577.901-20.437 1.998-30.007 1.099-9.597 6.499-28.99 12.097-63.778 5.61-34.867 5.008-46.79 2.203-70.937-2.81-24.186-15.956-49.578-17.963-53.09-1.965-3.438-2.238-8.059-2.434-12.872-.192-4.69 2.462-41.113 2.684-44.143 1.387-1.389 2.495-3.122 3.424-5.127 1.117 6.529 4.166 27.724 4.794 34.635.701 7.71 2.402 17.922 3.304 23.929v.001c.902 5.917 5.512 19.958 7.517 26.276 1.999 6.295 10.494 26.677 11.293 29.774.784 3.04.684 6.963.684 6.963l.001.037c.301 6.029 2.911 18.187 3.816 21.603v.002c.904 3.316 8.132 19.386 9.036 21.194.494.988 1.054 1.748 1.795 2.242.756.504 1.706.744 2.994.632.725-.06 1.212-.317 1.543-.65.06-.06.115-.124.166-.19.698 2.275 1.624 4.424 2.158 5.054 1.252 1.692 3.626 1.503 4.649 1.162l.004-.001c.822-.29 1.345-.949 1.662-1.653.04-.089.076-.178.11-.267.162.264.355.497.575.654l.003.002c1.491 1.032 3.662.689 4.704-.221.398-.299.678-.813.845-1.404.168-.594.228-1.266.246-1.792 1.078.369 2.204-.139 2.204-.139 1.056-.469 1.489-1.616 1.489-3.153 0-1.311-.099-6.658-1.915-13.921-.725-2.9-1.884-5.896-3.014-8.45.136.21.272.423.403.633.953 1.587 2.602 3.313 4.331 3.971 1.258.478 2.558.421 3.713-.547 1.189-.963 1.492-2.214 1.363-3.469-.175-1.717-1.202-3.439-1.641-4.254l-.014-.025c-.802-1.303-7.618-14.528-9.522-17.133-1.84-2.517-10.629-9.033-11.36-9.572-.531-.642-2.344-2.921-2.344-6.833 0-4.21-3.001-19.547-5.306-33.48-2.202-13.907-9.503-33.214-10.403-37.816l-.001-.001c-.898-4.494-1.294-12.282-3.191-39.937-1.91-27.85-3.853-38.601-10.69-48.353-6.898-9.84-12.565-10.675-23.014-12.704-10.137-1.968-17.63-7.651-18.319-8.438-.23-.263-.305-.761-.356-1.398-.093-1.151-.02-2.708-.02-4.373V96.613c2.803-2.687 8.954-8.301 10.836-11.669 1.314-2.351 2.018-3.61 3.11-8.62.482.068 1.201.062 2.035-.288 1.384-.58 3.167-2.158 4.591-6.272.854-2.439 1.741-5.902 1.878-8.94.095-2.115-.185-4.028-1.034-5.301l-.006-.009c-.554-.762-1.791-1.375-2.972-1.479a3.567 3.567 0 00-1.158.076c.285-6.296-.252-11.155-.38-17.122-.172-8.007-4.26-15.223-11.61-20.462.657-.959.907-2.26.72-3.718-.315-2.457-1.877-5.381-4.692-7.695l-.003-.002C125.978.631 118.553.1 113.464.1h-.1c-5.09 0-12.719.533-18.216 5.012l-.001.001c-2.815 2.315-4.378 5.275-4.693 7.739-.18 1.408.046 2.66.648 3.585zm78.213 289.534c-11.438-.734-17.929.566-26.549 4.386l-.001.001c-9.084 3.993-20.563 12.382-23.957 14.278-1.316.736-2.202 1.1-2.871 1.267l.426.02s-2.399 52.88-2.399 59.477c0 6.6 5.2 102.8 5.2 112.4 0 9.5-5.2 35.9-5.2 51.6 0 15.71 2.798 61.54 2.398 66.144-.399 4.493-2.298 26.859-2.298 28.756 0 2.085.339 4.417 2.057 5.94 1.149 1.02 2.904 1.66 5.543 1.66 2.029 0 2.807-1.542 3.067-3.338.433-2.994-.551-6.735-.551-6.735l.966-.262s1.835 6.639 4.184 9.193c.087.079.224.124.382.163.235.058.513.085.804.09.877.015 1.888-.154 2.261-.42l.004-.003c.518-.356.615-1.108.615-1.858 0-1.043-.257-2.116-.365-2.519-.038-.128-.055-.203-.055-.203l.967-.252s.027.09.067.246c.22.71 1.127 2.973 3.74 2.898.558-.016.965-.162 1.251-.407.436-.374.584-.952.627-1.518.071-.942-.171-1.876-.23-2.086l-.019-.068.963-.267s.013.042.033.116c.152.511 1.023 2.961 3.569 2.345.888-.223 1.243-.888 1.365-1.592.211-1.22-.222-2.572-.222-2.572l-.784-2.474 1.647 2.006s.523.632 1.327 1.097c.751.433 1.766.726 2.829.092 1.228-.793 1.22-2.066.583-3.784-1.107-2.984-4.095-7.167-7.256-12.534-5.355-9.094-6.465-15.359-6.769-22.433-.301-7.03 3.104-22.297 5.615-32.441 2.496-10.087 10.689-44.041 11.787-56.125 1.098-12.078-.502-38.43-1.101-46.019v-.003c-.501-7.623.899-20.561 2.002-30.19 1.101-9.603 6.501-29.01 12.103-63.822 5.59-34.733 4.992-46.61 2.197-70.663l.048.413zm-58.499 19.931c-.708-.148-1.649-.499-3.086-1.26-3.395-1.798-14.878-10.289-23.966-14.284-8.569-3.7-15.035-5.102-26.35-4.399l.046-.401c-2.794 24.053-3.392 35.93 2.197 70.663 5.602 34.812 11.003 54.219 12.104 63.822 1.103 9.629 2.503 22.567 2.002 30.193l-.001.003c-.599 7.586-2.198 33.938-1.1 46.016 1.098 12.084 9.29 46.038 11.787 56.125 2.511 10.144 5.916 25.411 5.614 32.441-.303 7.074-1.413 13.339-6.768 22.433-3.161 5.367-6.149 9.55-7.256 12.534-.638 1.721-.646 2.995.592 3.789 1.057.629 2.07.336 2.82-.097.804-.465 1.326-1.097 1.326-1.097l1.648-2.006-.785 2.474s-.432 1.352-.221 2.572c.122.704.477 1.369 1.364 1.592 2.547.616 3.418-1.834 3.57-2.345l.032-.116.964.267-.019.068c-.059.21-.301 1.144-.23 2.086.042.566.191 1.144.627 1.518.286.245.692.391 1.251.407 2.613.075 3.52-2.188 3.74-2.898.04-.156.067-.246.067-.246l.967.252s-.017.075-.056.203c-.107.403-.364 1.476-.364 2.519 0 .75.097 1.502.619 1.861l.003.002c.37.264 1.38.433 2.257.418.292-.005.569-.032.805-.09.162-.04.302-.086.391-.171 2.341-2.55 4.175-9.185 4.175-9.185l.966.262s-.984 3.741-.551 6.735c.26 1.796 1.038 3.338 3.067 3.338 2.639 0 4.394-.64 5.543-1.66 1.718-1.523 2.057-3.855 2.057-5.94 0-1.897-1.899-24.263-2.298-28.756v-.001c-.4-4.603 2.398-50.433 2.398-66.143 0-15.7-5.2-42.1-5.2-51.6s5.2-105.8 5.2-112.4c0-6.597-2.399-59.477-2.399-59.477l.451-.021zm2.548 238.978c-.759 19.779-2.306 47.081-2.002 50.577.301 3.388 1.45 16.898 2.002 24.211.552-7.313 1.701-20.823 2.002-24.211.304-3.496-1.243-30.798-2.002-50.577zm.4-179.48c0 6.6-5.2 102.9-5.2 112.4s5.2 35.9 5.2 51.6h-.8c0-15.7 5.2-42.1 5.2-51.6 0-7.967-3.581-75.578-4.8-102.122l.4-10.278zm27.924 84.47s-1.516 1.727-3.341 3.13c-1.154.886-2.424 1.663-3.5 1.7-2.734.095-5.375-1.599-6.129-2.354l-.708.708c.846.845 3.805 2.751 6.871 2.646.947-.033 2.037-.518 3.09-1.205 2.312-1.51 4.469-3.965 4.469-3.965l-.752-.66zm-57.4.66s2.157 2.455 4.468 3.965c1.054.687 2.144 1.172 3.091 1.205 3.066.105 6.025-1.801 6.87-2.646l-.707-.708c-.754.755-3.395 2.449-6.129 2.354-1.076-.037-2.347-.814-3.5-1.7-1.826-1.403-3.341-3.13-3.341-3.13l-.752.66zm31.071-144.521c-.767.082-1.243-.109-1.995-.109h-.1c-.702 0-1.188.143-1.896.084.088 1.934 1.337 29.568 1.996 46.681.656-17.043 1.898-44.528 1.995-46.656zm13.905-228.437c-2.648 2.44-6.273 4.956-8.394 5.417-2.333.507-5.072.711-7.506.711-2.431 0-5.166-.203-7.702-.711h-.004c-2.068-.45-5.565-2.852-8.194-5.235V108.8c0 1.695.071 3.282-.023 4.454-.074.912-.271 1.598-.601 1.975-.711.813-8.419 6.73-18.881 8.762-10.151 1.971-15.684 2.736-22.386 12.296-6.763 9.648-8.621 20.297-10.51 47.847-1.903 27.745-2.307 35.557-3.209 40.064-.899 4.498-8.197 23.887-10.397 37.782v.002c-2.294 13.866-5.293 29.128-5.293 33.318 0 4.388-2.094 6.893-2.616 7.52l-.039.047-.049.036s-9.312 6.819-11.192 9.392c-1.89 2.586-8.636 15.685-9.468 17.049-.339.63-1.064 1.829-1.389 3.127-.292 1.168-.258 2.431.871 3.343l.003.003c1.072.9 2.316.691 3.451.026 1.256-.734 2.389-2.016 3.101-3.204l.003-.004c1.5-2.4 3.6-5.2 4.6-6.8l.857.515s-4.463 7.733-6.248 14.871c-1.784 7.137-1.885 12.39-1.885 13.679 0 1.064.166 1.916.903 2.243l.01.005c.054.023.341.142.712.179.361.037.814-.003 1.182-.343.852-3.303 5.919-18.245 5.919-18.245l.947.322s-5.583 16.44-5.982 18.533l-.003-.001a8.766 8.766 0 00.112 1.671c.096.536.243 1.076.594 1.332l.038.03c.764.679 2.376.927 3.483.163.211-.154.361-.437.482-.71.215-.489.313-.977.313-.977l.827-4.139.064 1.659c2.079-5.85 6.035-15.708 6.035-15.708l.928.372s-5.329 13.274-6.847 18.105c.033.299.124.871.371 1.418.21.466.534.926 1.074 1.118.778.258 2.59.466 3.535-.823l.027-.033c.648-.742 1.895-3.978 2.509-6.716a3.72 3.72 0 01.082-.376l.005-.02.48.641.117-.395-.498-.14c.701-2.506 5.211-14.837 5.211-14.837l.939.344s-4.489 12.269-5.188 14.763l-.113-.032-.044.202a3.41 3.41 0 00-.052.558c0 .358.057.784.352 1.08.195.196.491.323.918.359h.001c1.011.088 1.761-.072 2.355-.468.608-.406 1.049-1.046 1.455-1.858.896-1.792 8.066-17.717 8.964-21.006.895-3.383 3.48-15.402 3.783-21.371-.006-.259-.072-4.17.716-7.224.8-3.103 9.306-23.521 11.307-29.826 1.995-6.282 6.585-20.241 7.483-26.124.899-5.993 2.597-16.18 3.296-23.87.691-7.605 4.305-32.447 5.078-36.215-.707-1.805-1.309-3.79-1.864-5.913-1.717-6.567.683-17.682 1.997-23.34 1.296-5.584 2.187-33.503 2.187-33.503l1 .032s-.909 28.081-2.213 33.697c-1.287 5.542-3.686 16.427-2.003 22.86 1.661 6.352 3.671 11.456 7.974 13.999l.003.002c1.708 1.048 4.49 1.566 7.433 1.782 4.494.329 9.364-.07 11.497-.544l.217.976c-2.187.486-7.18.903-11.787.565-3.122-.229-6.066-.814-7.879-1.924a11.942 11.942 0 01-1.354-.933c.133 1.828.399 5.529.714 10.041 11.337.81 33.358-1.137 37.398-1.137l.1.001v-.001c4.138 0 25.967 1.947 37.298 1.137l.019-.267c.225-3.228.454-6.456.688-9.684l.007-.09c-.428.34-.878.651-1.354.933-1.813 1.11-4.757 1.695-7.879 1.924-4.607.338-9.601-.079-11.787-.565l.216-.976c2.134.474 7.004.873 11.498.544 2.943-.216 5.725-.734 7.436-1.784l.004-.002c4.299-2.541 6.309-7.645 7.97-13.997 1.683-6.433-.716-17.318-2.003-22.86-1.304-5.616-2.213-33.697-2.213-33.697l1-.032s.891 27.919 2.187 33.503c1.313 5.658 3.714 16.773 1.997 23.34-.556 2.123-1.157 4.108-1.864 5.913.772 3.762 4.387 28.609 5.078 36.215.699 7.69 2.397 17.877 3.296 23.87.898 5.883 5.488 19.842 7.483 26.124 2.001 6.305 10.506 26.723 11.307 29.826.782 3.03.723 6.903.717 7.229.305 5.98 2.887 17.985 3.782 21.366.898 3.289 8.068 19.214 8.964 21.006.406.812.846 1.452 1.455 1.858.594.396 1.344.556 2.356.468.427-.036.723-.163.918-.359.295-.296.352-.722.352-1.08a3.41 3.41 0 00-.052-.558l-.044-.202-.113.032c-.699-2.494-5.189-14.763-5.189-14.763l.94-.344s4.312 11.79 5.159 14.656c.061-.058.117-.047.156.095.012.043.049.18.082.376.614 2.738 1.86 5.974 2.509 6.716l.027.033c.945 1.289 2.757 1.081 3.535.823.54-.192.864-.652 1.074-1.118a4.88 4.88 0 00.371-1.418c-1.518-4.831-6.847-18.105-6.847-18.105l.928-.372s3.956 9.858 6.035 15.708l.064-1.659.827 4.139s.098.488.313.977c.121.274.272.558.485.712 1.104.762 2.716.514 3.48-.165l.038-.03c.351-.256.498-.796.594-1.332.169-.948.101-1.93.101-1.93l-.018-.268c-.926-3.488-5.856-18.005-5.856-18.005l.946-.322s5.178 15.265 5.946 18.348c.342.245.735.273 1.056.24.371-.037.712-.179.712-.179l.213.952-.203-.957c.736-.327.903-1.179.903-2.243 0-1.289-.101-6.542-1.885-13.679-1.785-7.138-6.248-14.871-6.248-14.871l.857-.515c1 1.6 3.1 4.4 4.602 6.804l.003.004c.71 1.184 1.843 2.466 3.098 3.2 1.136.665 2.38.874 3.455-.029l.004-.003c1.125-.909 1.158-2.172.866-3.34-.323-1.294-1.045-2.491-1.383-3.118-.823-1.346-7.581-14.469-9.473-17.058-1.88-2.573-11.192-9.392-11.192-9.392l-.049-.036-.039-.047c-.522-.627-2.616-3.132-2.616-7.52 0-4.19-2.999-19.452-5.294-33.32v-.002c-2.199-13.893-9.497-33.184-10.396-37.78-.902-4.507-1.306-12.319-3.209-40.064-1.89-27.55-3.747-38.199-10.51-47.847-6.702-9.56-12.235-10.325-22.386-12.296-10.463-2.032-18.17-7.949-18.881-8.762-.33-.377-.527-1.063-.601-1.975-.094-1.172-.023-2.759-.023-4.454V97.572zm73.682 256.549l-.299.084.117.395s.082-.264.182-.479zM62.148 284.303c-2.041 6.592-3.754 13.662-4.615 20.647 11.401-.69 17.955.746 26.631 4.492h.001c9.112 4.005 20.629 12.514 24.033 14.316 3.249 1.72 3.728 1.142 5.066 1.142h.1c1.334 0 1.717.674 4.956-1.136 3.406-1.904 14.927-10.315 24.042-14.321 8.726-3.867 15.306-5.203 26.834-4.481l-.005-.038a87.866 87.866 0 00-.276-2.043 107.267 107.267 0 00-1.515-8.091 138.68 138.68 0 00-2.815-10.469l-.005-.018c-6.078.094-19.631 2.317-24.891 3.681-5.341 1.385-21.004 1.997-25.9 2.016h-.425c-4.622 0-20.9-.609-26.326-2.016-5.259-1.364-18.812-3.587-24.89-3.681zm88.544-76.959c-11.397.784-33.099-1.144-37.228-1.144h-.1c-4.031 0-25.924 1.928-37.328 1.144.836 12.051 1.954 29.068 1.827 32.176-.203 4.987-.53 9.766-2.565 13.328-1.993 3.488-15.048 28.696-17.838 52.71l4.999-22.249c6.276.162 19.606 2.352 24.83 3.707 5.371 1.392 21.474 1.983 26.07 1.984h.205c4.578 0 20.501-.591 25.875-1.984 5.224-1.355 18.554-3.545 24.83-3.707l4.998 22.249c-2.79-24.014-15.844-49.222-17.837-52.71-2.036-3.562-2.362-8.341-2.566-13.328-.126-3.108.992-20.125 1.828-32.176zM116.264 259c0-.474-.247-.999-.849-1.414v-.001c-.503-.345-1.224-.585-2.051-.585-.828 0-1.55.24-2.051.585-.602.416-.849.941-.849 1.415 0 .474.247.999.849 1.414.501.346 1.223.586 2.051.586.827 0 1.549-.24 2.051-.586.602-.415.849-.939.849-1.414zm-3.216-90.301h.732c4.59-.038 12.234-1.341 22.619-10.728l.001-.001c4.237-3.87 6.486-9.817 7.639-15.569 1.714-8.547 1.023-16.643 1.023-16.643l-.996.084s.677 7.96-1.007 16.362c-1.113 5.546-3.248 11.295-7.331 15.026-10.25 9.264-17.729 10.47-22.164 10.47h-.3c-4.436 0-12.213-1.205-22.465-10.471-4.083-3.691-6.218-9.431-7.33-14.982-1.684-8.409-1.007-16.405-1.007-16.405l-.996-.084s-.691 8.132 1.023 16.686c1.154 5.758 3.403 11.698 7.64 15.527 10.383 9.385 18.32 10.69 22.919 10.728zm-2.05-34.803s1.301.159 1.992.936l.748-.664c-.91-1.023-2.608-1.264-2.608-1.264l-.132.992zm7.547-2.03c3.559-1.384 12.059-3.563 17.693-3.267l.052-.998c-5.766-.304-14.466 1.917-18.107 3.333l.362.932zm-10-.932c-3.641-1.416-12.342-3.637-18.107-3.333l.052.998c5.634-.296 14.134 1.883 17.693 3.267l.362-.932zm37.323-69.483h-.002c.694-7.037-2.882-21.902-5.062-27.056-2.126-5.024-6.963-8.395-13.34-8.395-6.3 0-11.922.969-13.813.999h-.374c-1.897-.03-7.713-.999-14.013-.999-6.381 0-11.121 3.475-13.344 8.405-2.279 5.053-5.752 20.012-5.059 27.046l-.169.017c.202 1.545.454 3.185.764 4.943 2.478 13.481 2.961 14.674 4.844 18.045 1.884 3.371 8.24 9.013 10.818 11.59 2.531 2.532 6.507 5.475 8.748 5.965 2.467.492 5.13.689 7.498.689 2.366 0 5.027-.196 7.294-.689 2.24-.487 6.22-3.432 8.756-5.968l.003-.003c2.675-2.576 8.928-8.215 10.811-11.584 1.883-3.37 2.465-4.464 4.844-18.044v-.002c2.492-13.554 1.291-20.131 1.092-29.399l-.296 24.44zm-32.385 29.951l-.156-.001c-1.702.126-2.771-.969-3.454-1.681-.402-.419-.728-.72-.951-.794l-.316.948-.016-.006s.106.081.172.145c.202.193.45.472.754.769.843.822 2.082 1.744 3.869 1.618h.071c1.72.062 2.894-.846 3.719-1.646.247-.241.46-.468.647-.646.113-.107.195-.203.279-.227l-.274-.962c-.262.075-.604.367-1.008.777-.684.694-1.692 1.767-3.336 1.704v.002zm-.216-5.203h.592c1.091-.018 5.377-.304 6.45-.401.644-.059 1.253-.154 1.721-.157.186-.001.341-.011.434.059l.6-.8c-.183-.138-.443-.225-.771-.25-.521-.039-1.272.079-2.074.152-1.093.099-5.561.398-6.455.398l-.4.002V85.2c-.888 0-5.725-.195-6.811-.392-.699-.127-1.361-.213-1.87-.195-.446.016-.796.12-1.019.287l.6.8c.097-.073.259-.081.453-.088.451-.015 1.037.067 1.658.18 1.079.196 5.771.395 6.892.407zm.197-8.299h-.1c-.276 0-.713.027-1.162-.065-.373-.076-.761-.239-1.028-.622-.784-1.12-1.792-1.679-2.912-1.903-1.266-.254-2.152.636-2.152.636l.708.707s.514-.51 1.248-.363c.88.176 1.672.616 2.288 1.497.817 1.166 2.31 1.113 3.01 1.113h.1c.703 0 2.089.059 2.91-1.113a3.524 3.524 0 012.288-1.497c.734-.147 1.248.363 1.248.363l.708-.707s-.886-.89-2.152-.636c-1.12.224-2.128.783-2.912 1.903-.579.828-1.593.687-2.09.687zM79.083 55.154c-.31-.13-.686-.157-1.069-.123-.882.078-1.825.493-2.245 1.063-.742 1.127-.94 2.822-.856 4.685.132 2.942.996 6.295 1.823 8.657 1.276 3.686 2.793 5.158 4.034 5.678a2.93 2.93 0 001.392.232c-.459-2.183-1-5.001-1.69-8.757v-.002c-.785-4.444-1.197-8.144-1.389-11.433zm65.336 20.187c.341.037.849.02 1.439-.227 1.241-.52 2.758-1.992 4.034-5.678v-.001c.826-2.361 1.691-5.714 1.823-8.656.084-1.867-.115-3.566-.867-4.7-.417-.558-1.355-.971-2.234-1.048-.407-.036-.806-.004-1.126.148-.193 3.284-.617 6.976-1.432 11.409-.658 3.756-1.183 6.573-1.637 8.753zm-36.55-18.669s.794 5.427.696 7.302c-.099 1.87-.691 4.725-.691 4.725l.98.202s.608-2.945.709-4.875c.102-1.925-.704-7.498-.704-7.498l-.99.144zM97.228 54.1h-.064c-5.407 0-7.618 3.426-7.618 3.426l.836.548s1.242-1.858 4.13-2.637a3.5 3.5 0 105.599.127c2.67.899 3.824 2.793 3.824 2.793l.858-.514s-2.155-3.64-7.405-3.741a5.128 5.128 0 00-.124-.002h-.036zm32.272 0h-.036l-.124.002c-5.25.101-7.405 3.741-7.405 3.741l.858.514s1.154-1.894 3.824-2.793a3.5 3.5 0 105.599-.127c2.888.779 4.13 2.637 4.13 2.637l.836-.548s-2.211-3.426-7.618-3.426h-.064zm-49.423.556l-.019.021.005.101.008-.07.006-.052zm66.473-.704c.275-6.223-.259-11.036-.386-16.941-.196-9.129-5.714-17.164-15.432-22.268-8.093-4.244-15.098-4.643-17.368-4.643h-.1c-2.27 0-9.277.399-17.469 4.643-9.717 5.105-15.235 13.139-15.431 22.268-.131 6.105-.654 11.043-.311 17.577l.028.025c.837-7.496 3.211-16.814 4.927-20.619C87.385 28.725 92.444 25 99.264 25c6.4 0 12.3 1 14.1 1v.006l.2-.006c1.8 0 7.5-1 13.9-1 6.823 0 11.986 3.629 14.26 9.005 1.591 3.761 3.904 12.602 4.826 19.947zm-42.276-2.645s-3.941-3.107-8.71-3.107c-4.787 0-8.115 2.712-8.115 2.712l.63.776s3.072-2.488 7.485-2.488c4.431 0 8.09 2.892 8.09 2.892l.62-.785zm18.8.785s3.659-2.892 8.09-2.892c4.413 0 7.485 2.488 7.485 2.488l.63-.776s-3.328-2.712-8.115-2.712c-4.769 0-8.71 3.107-8.71 3.107l.62.785zm11.658-36.133c.532-.774.702-1.839.55-3.023-.289-2.255-1.75-4.923-4.333-7.048-5.401-4.319-12.575-4.788-17.485-4.788h-.1c-4.91 0-12.281.467-17.583 4.787-2.585 2.125-4.046 4.829-4.336 7.092-.145 1.134.002 2.152.48 2.893a38.173 38.173 0 013.408-2.015l.001-.001c8.407-4.356 15.6-4.756 17.93-4.756v.008a.257.257 0 01.065-.008c.012 0 .024 0 .035.002V9.1c2.33 0 9.525.401 17.832 4.757h.001a38.188 38.188 0 013.535 2.102z" fill="#979797"/></symbol><symbol fill="none" viewBox="0 0 10 6" id="8-eyes" xmlns="http://www.w3.org/2000/svg"><path d="M5 1C3 1 1.5 2.5 1 3c.5.5 2 2 4 2s3.5-1.5 4-2c-.5-.5-2-2-4-2z" stroke="currentColor" stroke-width=".5"/><circle cx="5" cy="3" r="1.75" stroke="currentColor" stroke-width=".5"/></symbol><symbol fill="none" viewBox="0 0 8 10" id="8-trash" xmlns="http://www.w3.org/2000/svg"><path d="M0 1.941h8m-7 .941L1.5 9h5L7 2.882H1zM2.5 1.941V1h3v.941" stroke="currentColor" stroke-width=".5"/></symbol></svg>