<?xml version="1.0" encoding="utf-8"?><svg xmlns="http://www.w3.org/2000/svg" xmlns:xlink="http://www.w3.org/1999/xlink"><symbol fill="none" viewBox="0 0 13 18" id="16-activity" xmlns="http://www.w3.org/2000/svg"><path d="M1 14h3l1.227-2.348" stroke="currentColor" stroke-miterlimit="10" stroke-linecap="square"/><path d="M1.758 7.991s.598-2.188 3.736-2.188L4.18 9.123a1.494 1.494 0 00.32 1.558l2.273 2.316V17M12.271 6.743a2.54 2.54 0 01-2.06.917c-1.931 0-2.273-1.857-4.717-1.857M8.77 4.992A1.996 1.996 0 108.77 1a1.996 1.996 0 000 3.992zM8.066 6.87l-1.291 3.341" stroke="currentColor" stroke-miterlimit="10" stroke-linecap="square"/></symbol><symbol fill="none" viewBox="0 0 17 10" id="16-arrow-down" xmlns="http://www.w3.org/2000/svg"><path d="M1 1.01l7.52 7.56 7.51-7.51" stroke="currentColor" stroke-miterlimit="10" stroke-linecap="square"/></symbol><symbol fill="none" viewBox="0 0 9 16" id="16-arrow-left" xmlns="http://www.w3.org/2000/svg"><path d="M7.5 1L1 7.52 7.5 14" stroke="currentColor" stroke-miterlimit="10" stroke-linecap="square"/></symbol><symbol fill="none" viewBox="0 0 10 17" id="16-arrow-right" xmlns="http://www.w3.org/2000/svg"><path d="M1.01 15.99l7.56-7.52L1.06.96" stroke="currentColor" stroke-miterlimit="10" stroke-linecap="square"/></symbol><symbol fill="none" viewBox="0 0 17 10" id="16-arrow-up" xmlns="http://www.w3.org/2000/svg"><path d="M15.99 8.56L8.47 1 .96 8.51" stroke="currentColor" stroke-miterlimit="10" stroke-linecap="square"/></symbol><symbol fill="none" viewBox="0 0 12 16" id="16-calendar" xmlns="http://www.w3.org/2000/svg"><g clip-path="url(#afclip0)" stroke="currentColor" stroke-miterlimit="10" stroke-linecap="square"><path d="M.383 2.377l11.242.01v3.725l-11.242.01V2.377zM11.617 6.122H.375v9.379h11.242V6.122zM2.251.5l.008 1.887M9.741.5l.015 1.887"/></g><defs><clipPath id="afclip0"><path fill="#fff" d="M0 0h12v16H0z"/></clipPath></defs></symbol><symbol fill="none" viewBox="0 0 18 16" id="16-camera" xmlns="http://www.w3.org/2000/svg"><path d="M1 15.045h16V3.349h-3.979c-.33-.692-.886-1.282-1.6-1.697a4.794 4.794 0 00-2.405-.637c-.856 0-1.693.222-2.406.637-.713.415-1.27 1.005-1.6 1.697H1v11.696z" stroke="currentColor" stroke-miterlimit="10" stroke-linecap="square"/><circle cx="9" cy="9.015" r="3.5" stroke="currentColor"/></symbol><symbol fill="none" viewBox="0 0 16 16" id="16-check" xmlns="http://www.w3.org/2000/svg"><g clip-path="url(#ahclip0)" stroke="currentColor" stroke-miterlimit="10" stroke-linecap="square"><path d="M8 15.501a7.5 7.5 0 100-15 7.5 7.5 0 000 15z" fill="currentColor" fill-opacity=".2"/><path d="M4.235 8.02l2.497 2.507 5.013-5.014"/></g><defs><clipPath id="ahclip0"><path fill="#fff" d="M0 0h16v16H0z"/></clipPath></defs></symbol><symbol fill="none" viewBox="0 0 16 16" id="16-check-full" xmlns="http://www.w3.org/2000/svg"><g clip-path="url(#aiclip0)"><path d="M8 15.501a7.5 7.5 0 100-15 7.5 7.5 0 000 15z" fill="currentColor" stroke="currentColor" stroke-miterlimit="10" stroke-linecap="square"/><path d="M4.235 8.02l2.497 2.507 5.013-5.014" fill="currentColor"/><path d="M4.235 8.02l2.497 2.507 5.013-5.014" stroke="#fff" stroke-miterlimit="10" stroke-linecap="square"/></g><defs><clipPath id="aiclip0"><path fill="#fff" d="M0 0h16v16H0z"/></clipPath></defs></symbol><symbol fill="none" viewBox="0 0 16 16" id="16-check-outline" xmlns="http://www.w3.org/2000/svg"><g clip-path="url(#ajclip0)" stroke="currentColor" stroke-miterlimit="10" stroke-linecap="square"><path d="M8 15.501a7.5 7.5 0 100-15 7.5 7.5 0 000 15z"/><path d="M4.235 8.02l2.497 2.507 5.013-5.014"/></g><defs><clipPath id="ajclip0"><path fill="#fff" d="M0 0h16v16H0z"/></clipPath></defs></symbol><symbol fill="none" viewBox="0 0 18 18" id="16-close-full" xmlns="http://www.w3.org/2000/svg"><path d="M9 17A8 8 0 109 1a8 8 0 000 16z" fill="currentColor" stroke="currentColor" stroke-miterlimit="10" stroke-linecap="square"/><path d="M5.996 6.017l6.008 6.008M5.985 12.015l6.02-5.998" stroke="#fff" stroke-miterlimit="10" stroke-linecap="square"/></symbol><symbol fill="none" viewBox="0 0 18 18" id="16-close-outline" xmlns="http://www.w3.org/2000/svg"><path d="M9 17A8 8 0 109 1a8 8 0 000 16zM5.996 6.017l6.008 6.008M5.985 12.015l6.02-5.998" stroke="currentColor" stroke-miterlimit="10" stroke-linecap="square"/></symbol><symbol fill="none" viewBox="0 0 19 19" id="16-countermeasures" xmlns="http://www.w3.org/2000/svg"><path d="M11.706 2.097a3.743 3.743 0 016.393 2.65c0 .994-.395 1.947-1.097 2.65L7.392 17A3.743 3.743 0 011 14.351c0-.993.395-1.946 1.097-2.649l9.61-9.605zM3.82 10.24l5.147 5.15M10.2 3.605l5.147 5.162" stroke="currentColor" stroke-miterlimit="10" stroke-linecap="square"/><circle cx="15.5" cy="5.5" r=".5" transform="rotate(-180 15.5 5.5)" fill="currentColor"/><circle cx="15.5" cy="3.5" r=".5" transform="rotate(-180 15.5 3.5)" fill="currentColor"/><circle cx="13.5" cy="3.5" r=".5" transform="rotate(-180 13.5 3.5)" fill="currentColor"/><circle cx="3.5" cy="13.5" r=".5" fill="currentColor"/><circle cx="3.5" cy="15.5" r=".5" fill="currentColor"/><circle cx="5.5" cy="15.5" r=".5" fill="currentColor"/></symbol><symbol fill="none" viewBox="0 0 18 18" id="16-emotions" xmlns="http://www.w3.org/2000/svg"><path d="M5.827 11.946a5.494 5.494 0 116.097-6.273M11.452 17.032a5.548 5.548 0 100-11.096 5.548 5.548 0 000 11.096zM10 14.33a2.087 2.087 0 002.867 0" stroke="currentColor" stroke-miterlimit="10" stroke-linecap="square"/><path d="M9.7 12.4a.7.7 0 100-1.4.7.7 0 000 1.4zM14.094 12.4a.7.7 0 100-1.4.7.7 0 000 1.4z" fill="currentColor"/><path d="M6.772 8.331h-.23a1.933 1.933 0 00-1.429.571" stroke="currentColor" stroke-miterlimit="10" stroke-linecap="square"/><path d="M4.7 6.4a.7.7 0 100-1.4.7.7 0 000 1.4zM9.105 6.4a.7.7 0 100-1.4.7.7 0 000 1.4z" fill="currentColor"/></symbol><symbol fill="none" viewBox="0 0 18 10" id="16-eyes" xmlns="http://www.w3.org/2000/svg"><path d="M9 1C5 1 2 4 1 5c1 1 4 4 8 4s7-3 8-4c-1-1-4-4-8-4z" stroke="currentColor"/><circle cx="9" cy="5" r="3.5" stroke="currentColor"/></symbol><symbol fill="none" viewBox="0 0 16 16" id="16-filter" xmlns="http://www.w3.org/2000/svg"><path d="M6.704 1v16M11.286 1.01V17M2.153 1v16M10.153 11.013h2.297M15.836 1.01V17M14.704 6.997H17M5.582 5.005H7.88M1 13.016h2.296" stroke="currentColor" stroke-miterlimit="10" stroke-linecap="square"/></symbol><symbol fill="none" viewBox="0 0 16 16" id="16-home" xmlns="http://www.w3.org/2000/svg"><g clip-path="url(#aqclip0)" stroke="currentColor" stroke-miterlimit="10" stroke-linecap="square"><path d="M2.537 5.267v10.236H13.56V5.267"/><path d="M.683 6.161L8 .596l7.317 5.565"/></g><defs><clipPath id="aqclip0"><path fill="#fff" d="M0 0h16v16H0z"/></clipPath></defs></symbol><symbol fill="none" viewBox="0 0 18 18" id="16-lens" xmlns="http://www.w3.org/2000/svg"><path d="M6.763 12.47A5.73 5.73 0 011.04 6.735 5.73 5.73 0 016.763 1a5.73 5.73 0 015.724 5.735 5.73 5.73 0 01-5.724 5.735zM17.04 17l-6.351-6.097" stroke="currentColor" stroke-miterlimit="10" stroke-linecap="square"/></symbol><symbol fill="none" viewBox="0 0 12 18" id="16-microphone" xmlns="http://www.w3.org/2000/svg"><path d="M3.476 8V3.383a2.56 2.56 0 01.791-1.694A2.503 2.503 0 015.99 1c.64 0 1.256.246 1.722.689a2.56 2.56 0 01.792 1.694V8M8.503 8.242a2.56 2.56 0 01-.792 1.694 2.503 2.503 0 01-1.722.689c-.64 0-1.255-.246-1.722-.689a2.56 2.56 0 01-.791-1.694" stroke="currentColor" stroke-miterlimit="10" stroke-linecap="square"/><path d="M10.979 8.264a5.08 5.08 0 01-1.54 3.421 4.964 4.964 0 01-3.45 1.399c-1.284 0-2.52-.5-3.449-1.399A5.08 5.08 0 011 8.264M1 16.99L11 17M5.984 13.285V17" stroke="currentColor" stroke-miterlimit="10" stroke-linecap="square"/></symbol><symbol fill="none" viewBox="0 0 14 18" id="16-nutrition" xmlns="http://www.w3.org/2000/svg"><path d="M6.988 17a1.942 1.942 0 01-1.996-1.997V9.005A1.985 1.985 0 007.01 6.998V1H1v5.998a1.964 1.964 0 001.996 2.007v5.998A1.954 1.954 0 011 17M9.016 1v5.998M11.012 1v5.998M11.012 17V9.004a1.964 1.964 0 001.996-2.007V1" stroke="currentColor" stroke-miterlimit="10" stroke-linecap="square"/></symbol><symbol fill="none" viewBox="0 0 18 18" id="16-pencil" xmlns="http://www.w3.org/2000/svg"><path d="M3.119 12.098l2.961 2.967M12.015 2.251l3.75 3.75-9.35 9.4L1 17l1.675-5.358 9.34-9.39zM15.766 6l.789-.793a1.548 1.548 0 000-2.173l-.79-.794-.788-.793a1.53 1.53 0 00-2.162 0l-.746.804" stroke="currentColor" stroke-miterlimit="10" stroke-linecap="square"/></symbol><symbol fill="none" viewBox="0 0 10 20" id="16-play" xmlns="http://www.w3.org/2000/svg"><path d="M1 18V2l8 8-8 8z" stroke="currentColor"/></symbol><symbol fill="none" viewBox="0 0 16 16" id="16-plus" xmlns="http://www.w3.org/2000/svg"><path d="M7.995 15.49a7.495 7.495 0 100-14.99 7.495 7.495 0 000 14.99z" fill="currentColor" fill-opacity=".2" stroke="currentColor" stroke-miterlimit="10" stroke-linecap="square"/><path d="M8.005 11.743V4.237M11.753 7.995H4.247" stroke="currentColor" stroke-miterlimit="10" stroke-linecap="square"/></symbol><symbol fill="none" viewBox="0 0 16 16" id="16-plus-full" xmlns="http://www.w3.org/2000/svg"><path d="M7.995 15.49a7.495 7.495 0 100-14.99 7.495 7.495 0 000 14.99z" fill="currentColor" stroke="currentColor" stroke-miterlimit="10" stroke-linecap="square"/><path d="M8.005 11.743V4.237M11.753 7.995H4.247" stroke="#fff" stroke-miterlimit="10" stroke-linecap="square"/></symbol><symbol fill="none" viewBox="0 0 16 16" id="16-plus-outline" xmlns="http://www.w3.org/2000/svg"><path d="M8.005 11.743V4.237M11.753 7.995H4.247M7.995 15.49a7.495 7.495 0 100-14.99 7.495 7.495 0 000 14.99z" stroke="currentColor" stroke-miterlimit="10" stroke-linecap="square"/></symbol><symbol fill="none" viewBox="0 0 18 18" id="16-settings" xmlns="http://www.w3.org/2000/svg"><path d="M8.979 11.964a2.985 2.985 0 100-5.97 2.985 2.985 0 000 5.97zM5.515 4.113A5.811 5.811 0 017.991 3.05M3.072 7.99a6.003 6.003 0 011.062-2.454M4.092 12.453a6.002 6.002 0 01-1.02-2.433M7.98 14.907a6.087 6.087 0 01-2.486-1.062M12.453 13.887a5.906 5.906 0 01-2.433 1.01M14.886 10.02a5.919 5.919 0 01-.967 2.39M13.855 5.515c.543.731.906 1.579 1.063 2.476M10.02 3.093c.889.16 1.729.524 2.454 1.062M7.99 3.008V1.021L10 1v2.019M9.999 14.992v1.987L7.99 17v-2.019M3.008 9.999H1.021L1 7.99h2.019M14.992 7.99h1.987L17 10h-2.019M4.038 5.462L2.625 4.06l1.413-1.435L5.463 4.05M13.93 12.517l1.402 1.402-1.402 1.445-1.435-1.434M5.452 13.919l-1.403 1.413-1.434-1.402 1.424-1.435M12.506 4.038l1.402-1.413 1.445 1.403-1.434 1.434" stroke="currentColor" stroke-miterlimit="10" stroke-linecap="square"/></symbol><symbol fill="none" viewBox="0 0 15 18" id="16-sleep" xmlns="http://www.w3.org/2000/svg"><path d="M6.404 3.09l.425.264-.546-.748.121.485zm5.914 10.773v.5h.021l-.021-.5zm1.639-.274l.429.256-.572-.735.143.48zM1 9.977L.5 9.97v.007l.5-.001zm4.98-7.15a7.584 7.584 0 00-1.135 3.797l1 .026c.03-1.168.37-2.306.984-3.296l-.85-.527zM4.844 6.624a7.589 7.589 0 00.932 3.851l.877-.481a6.589 6.589 0 01-.81-3.344l-1-.026zm.932 3.851a7.511 7.511 0 002.744 2.843l.511-.86a6.51 6.51 0 01-2.378-2.464l-.877.481zm2.744 2.843a7.431 7.431 0 003.797 1.045v-1a6.43 6.43 0 01-3.286-.905l-.511.86zm3.818 1.044a7.236 7.236 0 001.76-.294l-.285-.958a6.234 6.234 0 01-1.517.253l.042 1zm1.188-1.029a6.494 6.494 0 01-3.15 2.702l.374.927a7.493 7.493 0 003.635-3.117l-.859-.512zm-3.15 2.702a6.42 6.42 0 01-4.124.229l-.269.963a7.42 7.42 0 004.767-.265l-.373-.927zm-4.124.229a6.475 6.475 0 01-3.424-2.335l-.798.603a7.475 7.475 0 003.953 2.695l.269-.963zm-3.424-2.335A6.58 6.58 0 011.5 9.976l-1 .002a7.58 7.58 0 001.531 4.554l.798-.603zM1.5 9.982a6.72 6.72 0 011.43-4.07l-.786-.617A7.721 7.721 0 00.5 9.97l1 .011zm1.43-4.07a6.613 6.613 0 013.595-2.336l-.242-.97a7.613 7.613 0 00-4.14 2.689l.787.617z" fill="currentColor"/><path d="M9.182 1h1.932L9.182 2.949h1.932M12.069 6.813H14l-1.931 1.949H14" stroke="currentColor" stroke-linejoin="bevel"/></symbol><symbol fill="none" viewBox="0 0 17 8" id="16-smile" xmlns="http://www.w3.org/2000/svg"><path d="M3.827 7.244c.426-2.121 2.177-3.71 4.273-3.71 2.096 0 3.845 1.589 4.271 3.71H16.2C15.511 3.001 12.368 0 8.288 0 3.878 0 .7 3.043-.002 7.244h3.829z" fill="currentColor"/></symbol><symbol fill="none" viewBox="0 0 16 16" id="16-statistics" xmlns="http://www.w3.org/2000/svg"><g clip-path="url(#bcclip0)" stroke="currentColor" stroke-miterlimit="10" stroke-linecap="square"><path d="M4.252 15.5V8M11.748 15.5V9.869M.5 15.5V9.869M7.995 15.5V4.246M.5.5v15.001h15.002"/></g><defs><clipPath id="bcclip0"><path fill="#fff" d="M0 0h16v16H0z"/></clipPath></defs></symbol><symbol fill="none" viewBox="0 0 13 18" id="16-symptoms" xmlns="http://www.w3.org/2000/svg"><path d="M8.28 1L1 11.823l4.291-1.64L4.977 17l7.29-10.823-4.302 1.64L8.279 1z" stroke="currentColor" stroke-linecap="square" stroke-linejoin="bevel"/></symbol><symbol fill="none" viewBox="0 0 15 18" id="16-text" xmlns="http://www.w3.org/2000/svg"><path d="M14 17V4.93L10 1l-8.991.032L1 17h13zM7 5.913H4M11 9.844H4M11 13.774H4" stroke="currentColor" stroke-miterlimit="10" stroke-linecap="square"/><path d="M13.5 5.43h.5v-1h-.5v1zm-3.5-.5h-.5v.5h.5v-.5zm.5-3.439v-.5h-1v.5h1zm3 2.94H10v1h3.5v-1zm-3 .5V1.49h-1v3.44h1z" fill="currentColor"/></symbol><symbol fill="none" viewBox="0 0 16 16" id="16-turn" xmlns="http://www.w3.org/2000/svg"><circle cx="8" cy="8" r="8" transform="rotate(-180 8 8)" fill="currentColor"/><path d="M5.5 10V7a3 3 0 016 0v5" stroke="#fff"/><path d="M3.5 8l2 2 2-2" stroke="#fff"/></symbol><symbol fill="none" viewBox="0 0 19 26" id="24-activity" xmlns="http://www.w3.org/2000/svg"><path d="M1 20.5h4.5l1.843-3.528" stroke="currentColor" stroke-width="1.5" stroke-miterlimit="10" stroke-linecap="square"/><path d="M2.14 11.498s.901-3.38 5.59-3.38l-1.947 5.076a2.198 2.198 0 00.471 2.323l3.412 3.486V25" stroke="currentColor" stroke-width="1.5" stroke-miterlimit="10" stroke-linecap="square"/><path d="M17.914 9.614a3.82 3.82 0 01-3.14 1.382c-2.9 0-3.433-2.879-7.086-2.879M12.66 6.987a2.993 2.993 0 100-5.987 2.993 2.993 0 000 5.987zM11.603 9.802l-1.937 5.014" stroke="currentColor" stroke-width="1.5" stroke-miterlimit="10" stroke-linecap="square"/></symbol><symbol fill="none" viewBox="0 0 25 14" id="24-arrow-down" xmlns="http://www.w3.org/2000/svg"><path d="M1 1l11.5 11.57L23.99 1.08" stroke="currentColor" stroke-miterlimit="10" stroke-linecap="square"/></symbol><symbol fill="none" viewBox="0 0 13 23" id="24-arrow-left" xmlns="http://www.w3.org/2000/svg"><path d="M11.5 1.5L1 11.5 11.5 22" stroke="currentColor" stroke-miterlimit="10" stroke-linecap="square"/></symbol><symbol fill="none" viewBox="0 0 14 25" id="24-arrow-right" xmlns="http://www.w3.org/2000/svg"><path d="M1 23.99l11.57-11.5L1.08 1" stroke="currentColor" stroke-miterlimit="10" stroke-linecap="square"/></symbol><symbol fill="none" viewBox="0 0 25 14" id="24-arrow-up" xmlns="http://www.w3.org/2000/svg"><path d="M23.99 12.57L12.49 1 1 12.49" stroke="currentColor" stroke-miterlimit="10" stroke-linecap="square"/></symbol><symbol fill="none" viewBox="0 0 18 24" id="24-calendar" xmlns="http://www.w3.org/2000/svg"><g clip-path="url(#blclip0)" stroke="currentColor" stroke-width="1.5" stroke-miterlimit="10" stroke-linecap="square"><path d="M.383 3.383l17.24.01v5.715l-17.24.02V3.383zM17.609 9.128H.376V23.5H17.61V9.128zM3.25.5l.014 2.893M14.743.5l.014 2.893"/></g><defs><clipPath id="blclip0"><path fill="#fff" d="M0 0h18v24H0z"/></clipPath></defs></symbol><symbol fill="none" viewBox="0 0 26 23" id="24-camera" xmlns="http://www.w3.org/2000/svg"><path d="M1 22.045h24V4.501h-5.968c-.495-1.037-1.33-1.923-2.4-2.546A7.191 7.191 0 0013.025 1a7.19 7.19 0 00-3.609.955c-1.069.623-1.904 1.509-2.399 2.546H1v17.544z" stroke="currentColor" stroke-miterlimit="10" stroke-linecap="square"/><circle cx="13" cy="13" r="5.5" stroke="currentColor"/></symbol><symbol fill="none" viewBox="0 0 24 24" id="24-check" xmlns="http://www.w3.org/2000/svg"><path d="M11.995 23.49c6.348 0 11.495-5.147 11.495-11.495C23.49 5.646 18.343.5 11.995.5 5.647.5.5 5.646.5 11.995c0 6.348 5.147 11.495 11.495 11.495z" fill="currentColor" fill-opacity=".2" stroke="currentColor" stroke-miterlimit="10" stroke-linecap="square"/><path d="M6.223 12.025l3.831 3.832 7.673-7.674" stroke="currentColor" stroke-miterlimit="10" stroke-linecap="square"/></symbol><symbol fill="none" viewBox="0 0 24 24" id="24-check-full" xmlns="http://www.w3.org/2000/svg"><g clip-path="url(#boclip0)"><path d="M11.99 23.48c6.346 0 11.49-5.144 11.49-11.49S18.336.5 11.99.5.5 5.644.5 11.99s5.144 11.49 11.49 11.49z" fill="currentColor" stroke="currentColor" stroke-miterlimit="10" stroke-linecap="square"/><path d="M6.22 12.02l3.83 3.83 7.67-7.67" fill="currentColor"/><path d="M6.22 12.02l3.83 3.83 7.67-7.67" stroke="#fff" stroke-miterlimit="10" stroke-linecap="square"/></g><defs><clipPath id="boclip0"><path fill="#fff" d="M0 0h23.99v23.99H0z"/></clipPath></defs></symbol><symbol fill="none" viewBox="0 0 24 24" id="24-check-outline" xmlns="http://www.w3.org/2000/svg"><path d="M11.995 23.49c6.348 0 11.495-5.147 11.495-11.495C23.49 5.646 18.343.5 11.995.5 5.646.5.5 5.646.5 11.995c0 6.348 5.146 11.495 11.495 11.495z" stroke="currentColor" stroke-miterlimit="10" stroke-linecap="square"/><path d="M6.223 12.025l3.831 3.832 7.673-7.674" stroke="currentColor" stroke-miterlimit="10" stroke-linecap="square"/></symbol><symbol fill="none" viewBox="0 0 26 26" id="24-close-full" xmlns="http://www.w3.org/2000/svg"><path d="M13 25c6.627 0 12-5.373 12-12S19.627 1 13 1 1 6.373 1 13s5.373 12 12 12z" fill="currentColor" stroke="currentColor" stroke-miterlimit="10" stroke-linecap="square"/><path d="M8.494 8.526l9.012 9.012M8.478 17.522l9.028-8.996" stroke="#fff" stroke-miterlimit="10" stroke-linecap="square"/></symbol><symbol fill="none" viewBox="0 0 26 26" id="24-close-outline" xmlns="http://www.w3.org/2000/svg"><path d="M13 25c6.627 0 12-5.373 12-12S19.627 1 13 1 1 6.373 1 13s5.373 12 12 12zM8.499 8.53l9.013 9.013M8.488 17.522l9.013-9.002" stroke="currentColor" stroke-miterlimit="10" stroke-linecap="square"/></symbol><symbol fill="none" viewBox="0 0 26 26" id="24-countermeasures" xmlns="http://www.w3.org/2000/svg"><path d="M16.005 2.559a5.259 5.259 0 117.473 7.4L9.944 23.43a5.244 5.244 0 11-7.4-7.432l13.46-13.44zM4.92 13.936l7.233 7.233M13.88 4.642l7.232 7.232" stroke="currentColor" stroke-width="1.5" stroke-miterlimit="10" stroke-linecap="square"/><circle cx="21.167" cy="8.167" r=".833" transform="rotate(-180 21.167 8.167)" fill="currentColor"/><circle cx="21.167" cy="4.833" r=".833" transform="rotate(-180 21.167 4.833)" fill="currentColor"/><circle cx="17.833" cy="4.833" r=".833" transform="rotate(-180 17.833 4.833)" fill="currentColor"/><circle cx="4.833" cy="17.833" r=".833" fill="currentColor"/><circle cx="4.833" cy="21.167" r=".833" fill="currentColor"/><circle cx="8.167" cy="21.167" r=".833" fill="currentColor"/></symbol><symbol fill="none" viewBox="0 0 24 24" id="24-down-full" xmlns="http://www.w3.org/2000/svg"><circle cx="12" cy="12" r="12" transform="rotate(-90 12 12)" fill="currentColor"/><path d="M7 10l5.003 5L17 10.033" stroke="#fff" stroke-miterlimit="10" stroke-linecap="square"/></symbol><symbol fill="none" viewBox="0 0 26 26" id="24-emotions" xmlns="http://www.w3.org/2000/svg"><path d="M8.31 17.427a8.24 8.24 0 119.088-9.348M16.729 25.009a8.271 8.271 0 100-16.543 8.271 8.271 0 000 16.543zM15 20.555a3.075 3.075 0 004.256 0" stroke="currentColor" stroke-width="1.5" stroke-miterlimit="10" stroke-linecap="square"/><path d="M14.1 18.2a1.1 1.1 0 100-2.2 1.1 1.1 0 000 2.2zM20.667 18.2a1.1 1.1 0 100-2.2 1.1 1.1 0 000 2.2z" fill="currentColor"/><path d="M9.753 12.042h-.345a2.863 2.863 0 00-2.09.857" stroke="currentColor" stroke-width="1.5" stroke-miterlimit="10" stroke-linecap="square"/><path d="M6.88 9.2a1.1 1.1 0 100-2.2 1.1 1.1 0 000 2.2zM13.1 9.2a1.1 1.1 0 100-2.2 1.1 1.1 0 000 2.2z" fill="currentColor"/></symbol><symbol fill="none" viewBox="0 0 26 14" id="24-eyes" xmlns="http://www.w3.org/2000/svg"><path d="M13 1C7 1 2.5 5.5 1 7c1.5 1.5 6 6 12 6s10.5-4.5 12-6c-1.5-1.5-6-6-12-6z" stroke="currentColor"/><circle cx="13" cy="7" r="5.5" stroke="currentColor"/></symbol><symbol fill="none" viewBox="0 0 26 26" id="24-filter" xmlns="http://www.w3.org/2000/svg"><path d="M9.566 1.01V25M16.424 1.01V25M2.728 1v23.99M14.728 16.018h3.445M23.251 1.01V25M21.555 10.003H25M7.87 7.005h3.444M1 19.016h3.445" stroke="currentColor" stroke-miterlimit="10" stroke-linecap="square"/></symbol><symbol fill="none" viewBox="0 0 24 24" id="24-home" xmlns="http://www.w3.org/2000/svg"><g clip-path="url(#bxclip0)" stroke="currentColor" stroke-width="1.5" stroke-miterlimit="10" stroke-linecap="square"><path d="M3.541 7.469v16.033h16.918V7.47"/><path d="M.689 9.162L12 .598l11.311 8.564"/></g><defs><clipPath id="bxclip0"><path fill="#fff" d="M0 0h24v24H0z"/></clipPath></defs></symbol><symbol fill="none" viewBox="0 0 24 24" id="24-left-full" xmlns="http://www.w3.org/2000/svg"><circle cx="12" cy="12" r="12" fill="currentColor"/><path d="M14 7l-5 5.003L13.967 17" stroke="#fff" stroke-miterlimit="10" stroke-linecap="square"/></symbol><symbol fill="none" viewBox="0 0 26 26" id="24-lens" xmlns="http://www.w3.org/2000/svg"><path d="M9.594 18.206c-4.74 0-8.584-3.852-8.584-8.603C1.01 4.852 4.853 1 9.594 1s8.584 3.852 8.584 8.603c0 4.751-3.843 8.603-8.584 8.603zM25.01 25l-9.523-9.136" stroke="currentColor" stroke-miterlimit="10" stroke-linecap="square"/></symbol><symbol fill="none" viewBox="0 0 18 26" id="24-microphone" xmlns="http://www.w3.org/2000/svg"><path d="M4.961 11.5V4.614a3.732 3.732 0 011.25-2.567A4.151 4.151 0 018.983 1c1.032 0 2.024.375 2.773 1.047a3.732 3.732 0 011.25 2.567V11.5M13.006 11.906a3.732 3.732 0 01-1.25 2.567 4.151 4.151 0 01-2.773 1.048 4.151 4.151 0 01-2.772-1.048 3.732 3.732 0 01-1.25-2.567" stroke="currentColor" stroke-miterlimit="10" stroke-linecap="square"/><path d="M17 12a8.456 8.456 0 01-2.446 5.675A7.853 7.853 0 019 20a7.853 7.853 0 01-5.554-2.325A8.457 8.457 0 011 12M1 24.979L17 25M9 20l-.022 5" stroke="currentColor" stroke-miterlimit="10" stroke-linecap="square"/></symbol><symbol fill="none" viewBox="0 0 20 27" id="24-nutrition" xmlns="http://www.w3.org/2000/svg"><path d="M10.002 24.999A2.92 2.92 0 017 21.996v-8.965a3.39 3.39 0 002.253-.878c.618-.56.677-1.327.765-2.156V1H1v8.997c.104.833.097 1.6.724 2.158.628.558 1.436.87 2.276.876v8.997a2.94 2.94 0 01-3.002 2.97M13.01 1v8.997M16.012 1v8.997M16.012 24.999V13.03a2.94 2.94 0 003.003-3.034V1.011" stroke="currentColor" stroke-width="1.5" stroke-miterlimit="10" stroke-linecap="square"/></symbol><symbol fill="none" viewBox="0 0 26 26" id="24-pencil" xmlns="http://www.w3.org/2000/svg"><path d="M4.19 17.647L8.617 22.1M17.529 2.877l5.616 5.627L9.116 22.602 1 25l2.511-8.035L17.53 2.877z" stroke="currentColor" stroke-miterlimit="10" stroke-linecap="square"/><path d="M23.145 8.504L24.33 7.32a2.319 2.319 0 000-3.261l-1.186-1.194-1.177-1.193a2.292 2.292 0 00-3.242 0L17.53 2.877" stroke="currentColor" stroke-miterlimit="10" stroke-linecap="square"/></symbol><symbol fill="none" viewBox="0 0 14 28" id="24-play" xmlns="http://www.w3.org/2000/svg"><path d="M1 26V2l12 12L1 26z" stroke="currentColor"/></symbol><symbol fill="none" viewBox="0 0 24 24" id="24-plus" xmlns="http://www.w3.org/2000/svg"><path d="M12 23.498c6.35 0 11.498-5.148 11.498-11.499C23.498 5.65 18.35.5 12 .5 5.65.5.5 5.648.5 12c0 6.35 5.148 11.498 11.5 11.498z" fill="currentColor" fill-opacity=".2" stroke="currentColor" stroke-miterlimit="10" stroke-linecap="square"/><path d="M12.01 17.75V6.24M17.76 11.99H6.25" stroke="currentColor" stroke-miterlimit="10" stroke-linecap="square"/></symbol><symbol fill="none" viewBox="0 0 24 24" id="24-plus-full" xmlns="http://www.w3.org/2000/svg"><path d="M12 23.498c6.35 0 11.498-5.148 11.498-11.499C23.498 5.65 18.35.5 12 .5 5.65.5.5 5.648.5 12c0 6.35 5.148 11.498 11.5 11.498z" fill="currentColor" stroke="currentColor" stroke-miterlimit="10" stroke-linecap="square"/><path d="M12.01 17.75V6.24M17.76 11.99H6.25" stroke="#fff" stroke-miterlimit="10" stroke-linecap="square"/></symbol><symbol fill="none" viewBox="0 0 24 24" id="24-plus-outline" xmlns="http://www.w3.org/2000/svg"><path d="M12.01 17.75V6.24M17.76 11.99H6.25M12 23.498c6.35 0 11.498-5.148 11.498-11.499C23.498 5.65 18.35.5 12 .5 5.65.5.5 5.648.5 12c0 6.35 5.148 11.498 11.5 11.498z" stroke="currentColor" stroke-miterlimit="10" stroke-linecap="square"/></symbol><symbol fill="none" viewBox="0 0 24 24" id="24-right-full" xmlns="http://www.w3.org/2000/svg"><circle cx="12" cy="12" r="12" transform="rotate(-180 12 12)" fill="currentColor"/><path d="M10 17l5-5.003L10.033 7" stroke="#fff" stroke-miterlimit="10" stroke-linecap="square"/></symbol><symbol fill="none" viewBox="0 0 26 26" id="24-settings" xmlns="http://www.w3.org/2000/svg"><path d="M12.98 17.438a4.469 4.469 0 100-8.938 4.469 4.469 0 000 8.938zM7.76 5.677a8.937 8.937 0 013.709-1.531M4.115 11.49a8.906 8.906 0 011.562-3.73M5.677 18.177a8.99 8.99 0 01-1.562-3.667M11.48 21.865a9.136 9.136 0 01-3.72-1.552M18.177 20.323a8.792 8.792 0 01-3.688 1.531M21.833 14.49a8.938 8.938 0 01-1.458 3.604M20.26 7.76a9 9 0 011.542 3.72M14.49 4.146c1.329.224 2.59.748 3.687 1.531M11.5 4.01l-.01-2.979L14.5 1v3.031M14.5 21.99v2.979L11.49 25v-3.031M4.01 14.5H1.031L1 11.49h3.031M21.99 11.5l2.979-.01L25 14.5h-3.031M5.562 7.698L3.448 5.594l2.104-2.157 2.146 2.146M20.396 18.281l2.104 2.104-2.104 2.157-2.146-2.146M7.687 20.385L5.583 22.5l-2.156-2.104 2.135-2.146M18.27 5.552l2.105-2.104 2.156 2.104-2.146 2.146" stroke="currentColor" stroke-miterlimit="10" stroke-linecap="square"/></symbol><symbol fill="none" viewBox="0 0 22 26" id="24-sleep" xmlns="http://www.w3.org/2000/svg"><path d="M9.16 3.81l.644.384-.825-1.113.18.728zM7.705 9.417h.75v-.023l-.75.023zM18.411 20.17l-.002.75h.025l-.023-.75zm2.527-.382l.643.386-.842-1.109.2.723zM8.516 3.425a11.09 11.09 0 00-1.56 6.016l1.5-.046a9.59 9.59 0 011.348-5.201l-1.288-.769zm-1.56 5.993a11.51 11.51 0 003.352 8.121l1.063-1.058a10.01 10.01 0 01-2.916-7.063h-1.5zm3.352 8.121a11.479 11.479 0 008.101 3.381l.004-1.5a9.979 9.979 0 01-7.042-2.939l-1.063 1.058zm8.126 3.381a11.495 11.495 0 002.704-.409l-.4-1.446a9.997 9.997 0 01-2.35.356l.046 1.5zm1.861-1.518a9.996 9.996 0 01-3.438 3.433l.77 1.288a11.494 11.494 0 003.954-3.949l-1.286-.772zm-3.438 3.433a9.975 9.975 0 01-4.648 1.404l.07 1.498a11.476 11.476 0 005.348-1.614l-.77-1.288zm-4.648 1.404a9.972 9.972 0 01-4.76-.958l-.645 1.354a11.474 11.474 0 005.476 1.102l-.071-1.498zm-4.76-.958a9.99 9.99 0 01-3.747-3.093l-1.207.89a11.49 11.49 0 004.31 3.557l.644-1.354zm-3.747-3.093a10.01 10.01 0 01-1.847-4.497l-1.485.216a11.511 11.511 0 002.125 5.171l1.207-.89zm-1.847-4.497c-.238-1.628-.07-3.29.488-4.838l-1.411-.509a11.517 11.517 0 00-.562 5.563l1.485-.216zm.488-4.838a10.003 10.003 0 012.709-4.036L4.047 5.703a11.503 11.503 0 00-3.115 4.641l1.41.509zm2.709-4.036a9.982 9.982 0 014.288-2.28l-.36-1.456a11.482 11.482 0 00-4.933 2.622l1.005 1.114z" fill="currentColor"/><path d="M13.574 1h2.98l-2.97 2.964h2.97M18.02 9.418H21l-2.97 2.965H21" stroke="currentColor" stroke-width="1.5" stroke-linejoin="bevel"/></symbol><symbol fill="none" viewBox="0 0 24 24" id="24-statistics" xmlns="http://www.w3.org/2000/svg"><g clip-path="url(#ckclip0)" stroke="currentColor" stroke-width="1.5" stroke-miterlimit="10" stroke-linecap="square"><path d="M6.253 23.5V12.004M17.747 23.5v-8.621M.5 23.5v-8.621M12.005 23.5V6.247M.5.5v23.009h23"/></g><defs><clipPath id="ckclip0"><path fill="#fff" d="M0 0h24v24H0z"/></clipPath></defs></symbol><symbol fill="none" viewBox="0 0 19 26" id="24-symptoms" xmlns="http://www.w3.org/2000/svg"><path d="M11.926 1L1 17.24l6.443-2.464L6.97 25 17.895 8.76l-6.443 2.465L11.926 1z" stroke="currentColor" stroke-width="1.5" stroke-linecap="square" stroke-linejoin="bevel"/></symbol><symbol fill="none" viewBox="0 0 22 26" id="24-text" xmlns="http://www.w3.org/2000/svg"><path d="M21 25V6.896L14.846 1l-13.833.048L1 25h20zM10.23 8.37H5.616M16.385 14.266H5.615M16.385 20.162H5.615" stroke="currentColor" stroke-miterlimit="10" stroke-linecap="square"/><path d="M20 7.5h.5v-1H20v1zM15 7h-.5v.5h.5V7zm.5-5v-.5h-1V2h1zM20 6.5h-5v1h5v-1zm-4.5.5V2h-1v5h1z" fill="currentColor"/></symbol><symbol fill="none" viewBox="0 0 24 26" id="24-trash" xmlns="http://www.w3.org/2000/svg"><path d="M0 3.824h24M3 6.647L4.5 25h15L21 6.647H3zM7.5 3.824V1h9v2.824" stroke="currentColor"/></symbol><symbol fill="none" viewBox="0 0 24 24" id="24-turn" xmlns="http://www.w3.org/2000/svg"><circle cx="12" cy="12" r="12" transform="rotate(-180 12 12)" fill="currentColor"/><path d="M8.25 15v-4.5a4.5 4.5 0 119 0V18" stroke="#fff"/><path d="M5.25 12l3 3 3-3" stroke="#fff"/></symbol><symbol fill="none" viewBox="0 0 24 24" id="24-up-full" xmlns="http://www.w3.org/2000/svg"><circle cx="12" cy="12" r="12" transform="rotate(90 12 12)" fill="currentColor"/><path d="M17 14l-5.003-5L7 13.967" stroke="#fff" stroke-miterlimit="10" stroke-linecap="square"/></symbol><symbol fill="none" viewBox="0 0 25 34" id="32-activity" xmlns="http://www.w3.org/2000/svg"><path d="M1 27h6l2.454-4.706" stroke="currentColor" stroke-width="2" stroke-miterlimit="10" stroke-linecap="square"/><path d="M2.523 14.99s1.195-4.497 7.45-4.497l-2.599 6.758a2.936 2.936 0 00.639 3.11l4.56 4.641V33" stroke="currentColor" stroke-width="2" stroke-miterlimit="10" stroke-linecap="square"/><path d="M23.543 12.49a5.098 5.098 0 01-4.13 1.824c-3.858 0-4.56-3.82-9.44-3.82M16.54 8.989a3.994 3.994 0 100-7.989 3.994 3.994 0 000 7.989zM15.135 12.727l-2.58 6.685" stroke="currentColor" stroke-width="2" stroke-miterlimit="10" stroke-linecap="square"/></symbol><symbol fill="none" viewBox="0 0 32 32" id="32-check" xmlns="http://www.w3.org/2000/svg"><path d="M15.993 31.32c8.465 0 15.327-6.862 15.327-15.327C31.32 7.53 24.458.667 15.993.667 7.53.667.667 7.529.667 15.993c0 8.465 6.862 15.327 15.326 15.327z" fill="currentColor" fill-opacity=".2" stroke="currentColor" stroke-miterlimit="10" stroke-linecap="square"/><path d="M8.297 16.033l5.108 5.11L23.637 10.91" stroke="currentColor" stroke-miterlimit="10" stroke-linecap="square"/></symbol><symbol fill="none" viewBox="0 0 32 32" id="32-check-full" xmlns="http://www.w3.org/2000/svg"><path d="M15.993 31.32c8.465 0 15.327-6.862 15.327-15.327C31.32 7.53 24.458.667 15.993.667 7.53.667.667 7.529.667 15.993c0 8.465 6.862 15.327 15.326 15.327z" fill="currentColor" stroke="currentColor" stroke-miterlimit="10" stroke-linecap="square"/><path d="M8.297 16.033l5.108 5.11L23.637 10.91" fill="currentColor"/><path d="M8.297 16.033l5.108 5.11L23.637 10.91" stroke="#fff" stroke-miterlimit="10" stroke-linecap="square"/></symbol><symbol fill="none" viewBox="0 0 32 32" id="32-check-outline" xmlns="http://www.w3.org/2000/svg"><path d="M15.993 31.32c8.465 0 15.327-6.862 15.327-15.327C31.32 7.53 24.458.667 15.993.667 7.53.667.667 7.529.667 15.993c0 8.465 6.862 15.327 15.326 15.327z" stroke="currentColor" stroke-miterlimit="10" stroke-linecap="square"/><path d="M8.297 16.033l5.108 5.11L23.637 10.91" stroke="currentColor" stroke-miterlimit="10" stroke-linecap="square"/></symbol><symbol fill="none" viewBox="0 0 34 34" id="32-close-full" xmlns="http://www.w3.org/2000/svg"><path d="M17 33c8.837 0 16-7.163 16-16S25.837 1 17 1 1 8.163 1 17s7.163 16 16 16z" fill="currentColor" stroke="currentColor" stroke-miterlimit="10" stroke-linecap="square"/><path d="M11.957 12L22 22.043M12 22l10-10.5" stroke="#fff" stroke-miterlimit="10" stroke-linecap="square"/></symbol><symbol fill="none" viewBox="0 0 34 34" id="32-close-outline" xmlns="http://www.w3.org/2000/svg"><path d="M17 33c8.837 0 16-7.163 16-16S25.837 1 17 1 1 8.163 1 17s7.163 16 16 16zM10.998 11.04l12.018 12.017M10.984 23.03l12.018-12.004" stroke="currentColor" stroke-miterlimit="10" stroke-linecap="square"/></symbol><symbol fill="none" viewBox="0 0 34 34" id="32-countermeasures" xmlns="http://www.w3.org/2000/svg"><path d="M21.006 3.06a7.024 7.024 0 119.939 9.93l-18.03 18.002a7.023 7.023 0 01-9.93-9.93L21.006 3.06zM6.203 18.31l9.665 9.665M18.172 5.894l9.664 9.665" stroke="currentColor" stroke-width="2" stroke-miterlimit="10" stroke-linecap="square"/><circle cx="28" cy="10" r="1" transform="rotate(-180 28 10)" fill="currentColor"/><circle cx="28" cy="6" r="1" transform="rotate(-180 28 6)" fill="currentColor"/><circle cx="24" cy="6" r="1" transform="rotate(-180 24 6)" fill="currentColor"/><circle cx="6" cy="24" r="1" fill="currentColor"/><circle cx="6" cy="28" r="1" fill="currentColor"/><circle cx="10" cy="28" r="1" fill="currentColor"/></symbol><symbol fill="none" viewBox="0 0 32 32" id="32-down-full" xmlns="http://www.w3.org/2000/svg"><circle cx="16" cy="16" r="16" transform="rotate(-90 16 16)" fill="currentColor"/><path d="M9.333 13.333L16.004 20l6.663-6.623" stroke="#fff" stroke-miterlimit="10" stroke-linecap="square"/></symbol><symbol fill="none" viewBox="0 0 34 34" id="32-emotions" xmlns="http://www.w3.org/2000/svg"><path d="M10.76 22.905a10.987 10.987 0 1112.106-12.452M21.983 33c6.083 0 11.015-4.931 11.015-11.014 0-6.083-4.932-11.014-11.015-11.014S10.97 15.902 10.97 21.986C10.969 28.069 15.9 33 21.983 33zM19.089 27.639a4.142 4.142 0 005.68 0" stroke="currentColor" stroke-width="2" stroke-miterlimit="10" stroke-linecap="square"/><path d="M17.595 23.905a.5.5 0 100-1 .5.5 0 000 1zM26.334 23.905a.5.5 0 100-1 .5.5 0 000 1z" fill="currentColor" stroke="currentColor" stroke-width="2" stroke-miterlimit="10" stroke-linecap="square"/><path d="M12.68 15.723h-.446a3.86 3.86 0 00-2.84 1.129" stroke="currentColor" stroke-width="2" stroke-miterlimit="10" stroke-linecap="square"/><path d="M7.9 11.972a.5.5 0 100-1 .5.5 0 000 1zM16.64 11.972a.5.5 0 100-1 .5.5 0 000 1z" fill="currentColor" stroke="currentColor" stroke-width="2" stroke-miterlimit="10" stroke-linecap="square"/></symbol><symbol fill="none" viewBox="0 0 32 32" id="32-left-full" xmlns="http://www.w3.org/2000/svg"><circle cx="16" cy="16" r="16" fill="currentColor"/><path d="M18.667 9.333L12 16.004l6.623 6.663" stroke="#fff" stroke-miterlimit="10" stroke-linecap="square"/></symbol><symbol fill="none" viewBox="0 0 27 34" id="32-nutrition" xmlns="http://www.w3.org/2000/svg"><path d="M13.016 33C8.986 33 9 28.998 9 28.998V17c3.993 0 4.016-4.002 4.016-4.002V1H1v11.998S.982 17 4.993 17v11.998S4.993 33 1 33M17.018 1v11.998M21.02 1v11.998M21.02 33V17c3.994 0 3.994-4.002 3.994-4.002V1.009" stroke="currentColor" stroke-width="2" stroke-miterlimit="10" stroke-linecap="square"/></symbol><symbol fill="none" viewBox="0 0 32 32" id="32-plus" xmlns="http://www.w3.org/2000/svg"><path d="M15.999 31.331c8.468 0 15.332-6.864 15.332-15.332S24.467.667 16 .667.667 7.53.667 15.999 7.53 31.33 15.999 31.33z" fill="currentColor" fill-opacity=".2" stroke="currentColor" stroke-miterlimit="10" stroke-linecap="square"/><path d="M16.013 23.666V8.32M23.68 15.987H8.334" stroke="currentColor" stroke-miterlimit="10" stroke-linecap="square"/></symbol><symbol fill="none" viewBox="0 0 32 32" id="32-plus-full" xmlns="http://www.w3.org/2000/svg"><path d="M15.999 31.331c8.468 0 15.332-6.864 15.332-15.332S24.467.667 16 .667.667 7.53.667 15.999 7.53 31.33 15.999 31.33z" fill="currentColor" stroke="currentColor" stroke-miterlimit="10" stroke-linecap="square"/><path d="M16.013 23.666V8.32M23.68 15.987H8.334" stroke="#fff" stroke-miterlimit="10" stroke-linecap="square"/></symbol><symbol fill="none" viewBox="0 0 32 32" id="32-plus-outline" xmlns="http://www.w3.org/2000/svg"><path d="M16.013 23.666V8.321M23.68 15.987H8.334M15.999 31.331c8.468 0 15.332-6.864 15.332-15.332S24.467.667 16 .667.667 7.53.667 15.999 7.53 31.33 15.999 31.33z" stroke="currentColor" stroke-miterlimit="10" stroke-linecap="square"/></symbol><symbol fill="none" viewBox="0 0 32 32" id="32-right-full" xmlns="http://www.w3.org/2000/svg"><circle cx="16" cy="16" r="16" transform="rotate(-180 16 16)" fill="currentColor"/><path d="M13.333 22.667L20 15.996l-6.623-6.663" stroke="#fff" stroke-miterlimit="10" stroke-linecap="square"/></symbol><symbol fill="none" viewBox="0 0 29 34" id="32-sleep" xmlns="http://www.w3.org/2000/svg"><path d="M12.023 4.744l.853.521-1.09-1.493.237.972zm-2.002 7.506l1-.002v-.026l-1 .028zm14.494 14.31v1h.015l.014-.001-.029-1zm3.403-.514l.855.52-1.122-1.483.267.963zM11.17 4.222a14.655 14.655 0 00-2.148 8.056l1.999-.056a12.655 12.655 0 011.855-6.957L11.17 4.222zm-2.149 8.03a15.259 15.259 0 004.553 10.83l1.405-1.424a13.258 13.258 0 01-3.958-9.41l-2 .004zm4.553 10.83a15.575 15.575 0 0010.941 4.477v-2a13.575 13.575 0 01-9.536-3.9l-1.405 1.422zm10.97 4.477a15.264 15.264 0 003.641-.55l-.534-1.926a13.266 13.266 0 01-3.165.477l.058 1.999zm2.52-2.032a13.416 13.416 0 01-4.644 4.582l1.017 1.722a15.416 15.416 0 005.336-5.266l-1.71-1.038zM22.42 30.11a13.61 13.61 0 01-6.286 1.876l.094 1.998a15.61 15.61 0 007.21-2.152l-1.018-1.722zm-6.286 1.876a13.63 13.63 0 01-6.438-1.279l-.85 1.81a15.63 15.63 0 007.382 1.467l-.094-1.998zm-6.438-1.279a13.461 13.461 0 01-5.062-4.127L3.03 27.775a15.46 15.46 0 005.814 4.741l.851-1.81zM4.634 26.58a13.253 13.253 0 01-2.493-5.995l-1.979.291c.368 2.5 1.354 4.87 2.869 6.9l1.603-1.196zM2.14 20.584a13.19 13.19 0 01.66-6.448l-1.879-.685a15.19 15.19 0 00-.76 7.424l1.979-.291zm.66-6.448a13.329 13.329 0 013.66-5.38L5.13 7.262a15.329 15.329 0 00-4.209 6.189l1.88.685zm3.66-5.38a13.546 13.546 0 015.8-3.04l-.475-1.944a15.546 15.546 0 00-6.655 3.49l1.33 1.494z" fill="currentColor"/><path d="M17.992 1h4.012l-4.003 3.96h4.003M23.988 12.223H28l-4.003 3.96H28" stroke="currentColor" stroke-width="2" stroke-linejoin="bevel"/></symbol><symbol fill="none" viewBox="0 0 26 34" id="32-symptoms" xmlns="http://www.w3.org/2000/svg"><path d="M16.353 1L.83 22.646l9.153-3.285L9.308 33 24.83 11.345l-9.152 3.285L16.353 1z" stroke="currentColor" stroke-width="2" stroke-linecap="square" stroke-linejoin="bevel"/></symbol><symbol fill="none" viewBox="0 0 32 32" id="32-turn" xmlns="http://www.w3.org/2000/svg"><circle cx="16" cy="16" r="16" transform="rotate(-180 16 16)" fill="currentColor"/><path d="M11 20v-6a6 6 0 0112 0v10" stroke="#fff"/><path d="M7 16l4 4 4-4" stroke="#fff"/></symbol><symbol fill="none" viewBox="0 0 32 32" id="32-up-full" xmlns="http://www.w3.org/2000/svg"><circle cx="16" cy="16" r="16" transform="rotate(90 16 16)" fill="currentColor"/><path d="M22.667 18.667L15.996 12l-6.663 6.623" stroke="#fff" stroke-miterlimit="10" stroke-linecap="square"/></symbol><symbol fill="none" viewBox="0 0 50 51" id="50-plus-full" xmlns="http://www.w3.org/2000/svg"><path d="M25 50.358c13.232 0 23.958-10.965 23.958-24.491S38.232 1.376 25 1.376c-13.232 0-23.958 10.965-23.958 24.49 0 13.527 10.726 24.492 23.958 24.492z" fill="#4D4D4D" stroke="#4D4D4D" stroke-miterlimit="10" stroke-linecap="square"/><path d="M25.02 38.112V13.6M37 25.845H13.02" stroke="#fff" stroke-width="1.5" stroke-miterlimit="10" stroke-linecap="square"/></symbol><symbol viewBox="0 0 244 647" id="653-female-back" xmlns="http://www.w3.org/2000/svg"><g fill="none" fill-rule="evenodd"><path fill-opacity=".02" fill="#FFF" d="M74 0h97v120H74zM41 120h82v53H41zM67 338h56v136H67zM77 474h46v136H77zM77 646h46v-36H77zM126 338h56v136h-56zM123 474h46v136h-46zM123 646h46v-36h-46zM12.724 300.005l45.155 8.778-12.211 62.824L.513 362.83zM231.472 300.2l-45.155 8.777 12.211 62.824 45.155-8.778zM123 120h82v53h-82zM82 173h82v115H82zM67 338h115v-50H67z"/><path d="M82 173v77h-9.444l-12.44 58.535-32.28-6.861 17.049-80.209 4.114.875L49 173h33zM166 173v77h9.444l12.44 58.535 32.28-6.861-17.049-80.209-4.114.875L199 173h-33z" fill-opacity=".02" fill="#FFF"/><g stroke="#979797"><path d="M31.464 341.3s-5.7 14.2-7 18.6M38.464 339.7s-4.5 12.3-5.2 14.8M24.564 339.2s-5.6 16.5-6 18.6"/><path d="M119.864 336s2.8 42.8 2.8 49.4c0 6.6-5.2 102.9-5.2 112.5 0 9.6 5.2 36 5.2 51.6 0 15.6-2.9 61.5-2.4 66.1.4 4.6 2.6 18.8 2.4 23.1-.1 1.6-3.9 7.3-10.9 7.3-5.8 0-25.5-7-27.3-9.3-2.9-4 1.4-8.5 8.4-12.3 1.1-.6 4.9-3.4 5.5-5.8.9-3.3 1.2-7.6.5-13.6-.9-7-3.1-22.2-5.6-32.3-2.5-10.1-10.7-44.1-11.8-56.2-1.3-12.1.4-38.5 1-46.1.6-7.6-.8-20.5-2-30.1-1.1-9.6-6.5-28.9-12.1-63.8s-5.1-46.6-2.2-70.8c2.8-24.2 16-49.4 17.9-52.9 2-3.5 2.3-8.2 2.5-13.1.2-4.9-1.7-40.6-2.7-44.4-1-3.8-6.6-24.5-6.9-28.6 0 0 3 15.5 2.3 25.2-.2 3.3-3.9 25.4-4.6 33.1-.7 7.7-2.3 18-3.3 23.9-.9 6-5.5 20-7.5 26.2-2 6.3-10.5 26.7-11.3 29.8-.8 3.1-.7 7.1-.7 7.1-.3 6-2.8 18.1-3.8 21.5-1 3.4-8.1 19.3-9 21.1-.9 1.8-2 2.8-4.3 2.6-2.3-.2-1.6-2.9-1.6-2.9-.6 2.9-2.1 6.5-2.7 7.3-1.2 1.5-3.3 1.3-4.1 1-1.7-.6-1.8-3.2-1.8-3.2s-.2 1.5-1 2c-1.4.9-3.2.6-4.1-.2-1-.9-.9-3.7-.9-3.7-1 1-2.5.3-2.5.3-1-.5-1.2-1.4-1.2-2.7 0-1.3.1-6.6 1.9-13.8 1.8-7.2 6.3-15 6.3-15-1 1.6-3.1 4.4-4.6 6.8-1.5 2.4-4.8 5.4-7.3 3.3-2.5-2.1-.3-5.8.4-7.1.7-1.3 7.5-14.4 9.5-17.1 1.9-2.6 11.3-9.5 11.3-9.5.6-.6 2.5-3 2.5-7.2s3-19.6 5.3-33.4c2.3-13.9 9.5-33.2 10.4-37.8.9-4.6 1.3-12.3 3.2-40 1.9-27.7 3.7-38.4 10.6-48.1 6.9-9.7 12.4-10.5 22.7-12.5 10.3-2 17.9-7.8 18.6-8.6.7-.8.5-3.3.5-6.1l-.2-17.8"/><path d="M107.664 475.5s-4.3-4.9-7.2-5c-2.9-.1-5.7 1.7-6.5 2.5M92.164 76s-3.9 1.7-6.6-6.1c-1.4-4-2.9-10.8-.9-13.8.8-1.1 3.3-1.8 4.4-.8M92.164 122.4s4.3 9.8 7 18.8c2.7 8.9 4.5 26.8 1.1 33.3-3.4 6.5-7.7 12.5-18.3 13.7M55.364 239.8s1.5 2.6 4.9 2.3c3.4-.2 5.8-2.3 5.8-2.3"/><path d="M146.064 18.1c5.3 3.4 10.3 10 10.5 19.2.2 9.3 1.3 15.9-1.1 29.5-2.4 13.6-5.4 16.2-8.2 19-3.2 3.2-9 7.2-13.9 8.9-3.1 1.1-7.8 1.6-10.2 1.6h-.6c-2.4 0-7.2-.5-10.2-1.6-4.9-1.8-10.7-5.8-13.9-8.9-2.8-2.7-5.7-5.4-8.2-19-2.5-13.6-1.3-20.2-1.1-29.5.2-9.3 5.3-15.9 10.6-19.3M214.264 341.4s5.7 14.2 7 18.6M207.264 339.8s4.5 12.3 5.2 14.8M221.164 339.2s5.6 16.5 6 18.6"/><path d="M125.964 336s-2.8 42.8-2.8 49.4c0 6.6 5.2 102.9 5.2 112.4 0 9.6-5.2 36-5.2 51.6 0 15.6 2.9 61.5 2.4 66.1-.4 4.6-2.6 18.8-2.4 23.1.1 1.6 3.9 7.3 10.9 7.3 5.8 0 25.5-7 27.3-9.3 2.9-4-1.4-8.5-8.4-12.3-1.1-.6-4.9-3.4-5.5-5.8-.9-3.3-1.2-7.6-.5-13.6.9-7 3.1-22.2 5.6-32.3 2.5-10.1 10.7-44.1 11.8-56.2 1.1-12.1-.6-38.5-1.1-46.1-.6-7.6.8-20.5 2-30.1 1.1-9.6 6.5-28.9 12.1-63.8s5.1-46.6 2.2-70.8c-2.8-24.2-16-49.4-17.9-52.9-1.9-3.5-2.3-8.2-2.5-13.1-.2-4.9 1.7-40.6 2.7-44.4 1-3.8 6.6-24.5 6.9-28.6 0 0-3 15.5-2.3 25.2.2 3.3 3.9 25.4 4.6 33.1.7 7.7 2.3 18 3.3 23.9.9 6 5.5 20 7.5 26.2 2 6.3 10.5 26.7 11.3 29.8.8 3.1.7 7.1.7 7.1.3 6 2.8 18.1 3.8 21.5.9 3.4 8.1 19.3 9 21.1.9 1.8 2 2.8 4.3 2.6 2.3-.2 1.6-2.9 1.6-2.9.6 2.9 2.1 6.5 2.7 7.3 1.2 1.5 3.3 1.3 4.1 1 1.7-.6 1.8-3.2 1.8-3.2s.2 1.5 1 2c1.4.9 3.2.6 4.1-.2 1-.9.9-3.7.9-3.7 1 1 2.5.3 2.5.3 1-.5 1.2-1.4 1.2-2.7 0-1.3-.1-6.6-1.9-13.8-1.8-7.2-6.3-15-6.3-15 1 1.6 3.1 4.4 4.6 6.8 1.5 2.4 4.8 5.4 7.3 3.3 2.5-2.1.3-5.8-.4-7.1-.7-1.3-7.5-14.4-9.5-17.1-1.9-2.6-11.3-9.5-11.3-9.5-.6-.6-2.5-3-2.5-7.2s-3-19.6-5.3-33.4c-2.3-13.9-9.5-33.2-10.4-37.8-.9-4.6-1.3-12.3-3.2-40-1.9-27.7-3.7-38.4-10.6-48.1-6.9-9.7-12.4-10.5-22.7-12.5-10.3-2-17.9-7.8-18.6-8.6-.7-.8-.5-3.3-.5-6.1l.2-17.8"/><path d="M138.164 475.6s4.3-4.9 7.2-5c2.9-.1 5.7 1.7 6.5 2.5M123.164.9c5 0 12.5.5 17.9 4.9 4.5 3.7 5 9.9 5 12.3 0 2.4 0 14.3-7.2 18.6-8.2 5-23.7 4.9-31.9 0-7.2-4.4-7.2-16.3-7.2-18.6 0-2.3.4-8.6 5-12.3 5.4-4.4 12.9-4.9 17.9-4.9h.5zM153.664 76.1s3.9 1.7 6.6-6.1c1.4-4 2.9-10.8.9-13.8-.8-1.1-3.3-1.8-4.4-.8M161.064 207.2c-11.2.9-33.7-1.1-37.9-1.1h-.6c-4.1 0-26.7 2-37.9 1.1M176.464 289.8c-6.6-1-15.7-1-22.3-1-10.3 0-26.4 1-31 1h-.6c-4.6 0-20.7-1-31-1-6.6 0-15.7 0-22.3 1M179.564 305.9c-3.2 6.3-14.7 18.3-23.4 22.1-9.1 4-15 6.6-33 8.3h-.6c-18-1.7-23.9-4.3-33-8.3-8.8-3.8-20.3-15.8-23.4-22.1M146.664 119.5s-6.5 9-10.1 11c-3.6 2-9.5 2.9-13.3 2.9h-.6c-3.8 0-9.7-.9-13.3-2.9-3.6-2-10.1-11-10.1-11M153.664 122.5s-4.3 9.8-7 18.8c-2.7 8.9-4.5 26.8-1.1 33.3 3.4 6.5 7.7 12.5 18.3 13.7M190.364 239.8s-1.5 2.6-4.9 2.3c-3.4-.3-5.8-2.3-5.8-2.3M122.564 206v38.5"/></g></g></symbol><symbol viewBox="0 0 244 655" id="653-female-front" xmlns="http://www.w3.org/2000/svg"><g fill="none" fill-rule="evenodd"><path fill-opacity=".02" fill="#FFF" d="M74 0h97v120H74zM41 120h82v26H41zM67 338h56v136H67zM77 474h46v136H77zM77 646h46v-36H77zM126 338h56v136h-56zM123 474h46v136h-46zM123 646h46v-36h-46zM12.724 300.005l45.155 8.778-12.211 62.824L.513 362.83zM231.472 300.2l-45.155 8.777 12.211 62.824 45.155-8.778zM123 120h82v26h-82zM82 209h82v79H82zM82 146h82v63H82zM67 338h115v-50H67z"/><path d="M82 145v93h-9.379l-12.506 70.535-32.279-8.225 17.049-96.146 4.114 1.048L49 145h33zM166 145v93h9.42l12.465 70.535 32.279-8.252-17.049-96.462-4.114 1.052L199 145h-33z" fill-opacity=".02" fill="#FFF"/><g stroke="#979797"><path d="M117.364 58.6s.8 5.5.7 7.4c-.1 1.9-.7 4.8-.7 4.8M105.964 98.4v12.4c0 2.8.2 5.3-.5 6.1-.7.8-8.3 6.6-18.6 8.6s-15.9 2.8-22.7 12.5c-6.8 9.7-8.7 20.4-10.6 48.1-1.9 27.7-2.3 35.5-3.2 40-.9 4.5-8.2 23.9-10.4 37.8-2.3 13.9-5.3 29.2-5.3 33.4 0 4.2-2 6.6-2.5 7.2 0 0-9.4 6.9-11.3 9.5-1.9 2.6-8.7 15.8-9.5 17.1-.7 1.3-3 5-.4 7.1 2.5 2.1 5.8-.8 7.3-3.3 1.5-2.4 3.6-5.2 4.6-6.8 0 0-4.5 7.8-6.3 15-1.8 7.2-1.9 12.5-1.9 13.8 0 1.3.3 2.3 1.2 2.7 0 0 1.5.7 2.5-.3 0 0-.2 2.9.9 3.7.9.8 2.8 1.1 4.1.2.7-.5 1-2 1-2s.1 2.6 1.8 3.2c.9.3 3 .5 4.1-1 .7-.8 2.1-4.4 2.7-7.3 0 0-.8 2.7 1.6 2.9 2.3.2 3.4-.8 4.3-2.6.9-1.8 8.1-17.8 9-21.1.9-3.4 3.5-15.5 3.8-21.5 0 0-.1-4 .7-7.1.8-3.1 9.3-23.5 11.3-29.8 2-6.3 6.6-20.3 7.5-26.2.9-6 2.6-16.2 3.3-23.9.7-7.7 4.4-33.1 5.1-36.3M31.264 343.1s-5.7 14.2-7 18.6M38.264 341.4s-4.5 12.3-5.2 14.8M24.364 340.9s-5.6 16.5-6 18.6"/><path d="M81.864 127.8s-.9 28-2.2 33.6c-1.3 5.6-3.7 16.6-2 23.1 1.7 6.5 3.8 11.7 8.2 14.3 4.4 2.7 15.7 2.1 19.3 1.3"/><path d="M83.664 197.1s2.9 39.5 2.7 44.4c-.2 4.9-.5 9.6-2.5 13.1s-15.1 28.8-17.9 52.9c-2.8 24.1-3.4 36 2.2 70.8s11 54.2 12.1 63.8c1.1 9.6 2.5 22.5 2 30.1-.6 7.6-2.2 34-1.1 46.1 1.1 12.1 9.3 46.1 11.8 56.2 2.5 10.1 5.9 25.3 5.6 32.3-.3 7-1.4 13.2-6.7 22.2-5.3 9-10.1 14.7-6.5 17 2.5 1.5 4.8-1.3 4.8-1.3s-1.3 4.1 1.5 4.8c3.3.8 4.2-2.8 4.2-2.8s-1.4 4.6 2.1 4.7c3.5.1 4.3-3.5 4.3-3.5s-1.2 4 .4 5.1c.7.5 3.4.8 4.1.1 2.4-2.6 4.3-9.4 4.3-9.4s-2.8 10.7 3 10.7c7 0 8.1-4.4 8.1-8.1 0-1.9-1.9-24.3-2.3-28.8-.4-4.6 2.4-50.4 2.4-66.1 0-15.7-5.2-42.1-5.2-51.6s5.2-105.8 5.2-112.4c0-6.6-2.4-59.5-2.4-59.5"/><path d="M93.664 472.2s4.3 4.9 7.2 5c2.9.1 5.7-1.7 6.5-2.5M117.364 133.4c-3.6-1.4-12.2-3.6-17.9-3.3M120.064 135.4s1.5.2 2.3 1.1M91.864 77.7s-3.9 1.7-6.6-6.1c-1.4-4-2.9-10.8-.9-13.8.8-1.1 3.3-1.8 4.4-.8M112.964 53.7s-3.8-3-8.4-3c-4.6 0-7.8 2.6-7.8 2.6M113.364 60.1s-2.1-3.5-7.2-3.5-7.2 3.2-7.2 3.2"/><path d="M109.264 59.6a3 3 0 11-6 0 3 3 0 016 0z" fill="#979797" fill-rule="nonzero"/><path d="M122.364 105.2c2.4 0 5.1-.2 7.4-.7 2.3-.5 6.4-3.5 9-6.1 2.7-2.6 9-8.3 10.9-11.7 1.9-3.4 2.5-4.5 4.9-18.2 2.5-13.6 1.3-20.2 1.1-29.5-.2-9.3-5.8-17.5-15.7-22.7-8.2-4.3-15.3-4.7-17.6-4.7h-.1c-2.3 0-9.4.4-17.7 4.7-9.9 5.2-15.5 13.4-15.7 22.7-.2 9.3-1.3 15.9 1.1 29.5 2.5 13.6 3 14.8 4.9 18.2 1.9 3.4 8.3 9.1 10.9 11.7 2.6 2.6 6.7 5.6 9 6.1 2.5.5 5.2.7 7.6.7z"/><path d="M129.264 78.3s-.7-.7-1.7-.5c-1 .2-1.9.7-2.6 1.7-.7 1-1.9.9-2.5.9h-.1c-.6 0-1.9.1-2.6-.9-.7-1-1.6-1.5-2.6-1.7-1-.2-1.7.5-1.7.5M131.764 87.3c-.4-.3-1.4-.1-2.5 0s-5.6.4-6.5.4h-.4c-.9 0-5.8-.2-6.9-.4-1.1-.2-2.1-.3-2.5 0M126.964 91.4c-.7.2-1.9 2.6-4.5 2.5h-.1c-2.7.2-4-2.3-4.6-2.5M138.764 98.4v12.4c0 2.8-.2 5.3.5 6.1.7.8 8.3 6.6 18.6 8.6s15.9 2.8 22.7 12.5c6.8 9.7 8.7 20.4 10.6 48.1 1.9 27.7 2.3 35.5 3.2 40 .9 4.6 8.2 23.9 10.4 37.8 2.3 13.9 5.3 29.2 5.3 33.4 0 4.2 2 6.6 2.5 7.2 0 0 9.4 6.9 11.3 9.5 1.9 2.6 8.7 15.8 9.5 17.1.7 1.3 3 5 .4 7.1-2.5 2.1-5.8-.8-7.3-3.3-1.5-2.4-3.6-5.2-4.6-6.8 0 0 4.5 7.8 6.3 15 1.8 7.2 1.9 12.5 1.9 13.8 0 1.3-.3 2.3-1.2 2.7 0 0-1.5.7-2.5-.3 0 0 .2 2.9-.9 3.7-.9.8-2.8 1.1-4.1.2-.7-.5-1-2-1-2s-.1 2.6-1.8 3.2c-.9.3-3 .5-4.1-1-.7-.8-2.1-4.4-2.7-7.3 0 0 .8 2.7-1.6 2.9-2.3.2-3.4-.8-4.3-2.6-.9-1.8-8.1-17.8-9-21.1-.9-3.4-3.5-15.5-3.8-21.5 0 0 .1-4-.7-7.1-.8-3.1-9.3-23.5-11.3-29.8-2-6.3-6.6-20.3-7.5-26.2-.9-6-2.6-16.2-3.3-23.9-.7-7.7-4.4-33.1-5.1-36.3M213.464 343.1s5.7 14.2 7 18.6M206.464 341.4s4.5 12.3 5.2 14.8M220.464 340.9s5.6 16.5 6 18.6"/><path d="M162.864 127.8s.9 28 2.2 33.6c1.3 5.6 3.7 16.6 2 23.1-1.7 6.5-3.8 11.7-8.2 14.3-4.4 2.7-15.7 2.1-19.3 1.3"/><path d="M161.064 197.1s-2.9 39.5-2.7 44.4c.2 4.9.5 9.6 2.5 13.1s15.1 28.8 17.9 52.9c2.8 24.1 3.4 36-2.2 70.8s-11 54.2-12.1 63.8c-1.1 9.6-2.5 22.5-2 30.1.6 7.6 2.2 34 1.1 46.1-1.1 12.1-9.3 46.1-11.8 56.2-2.5 10.1-5.9 25.3-5.6 32.3.3 7 1.4 13.2 6.7 22.2 5.3 9 10.1 14.7 6.5 17-2.5 1.5-4.8-1.3-4.8-1.3s1.3 4.1-1.5 4.8c-3.3.8-4.2-2.8-4.2-2.8s1.4 4.6-2.1 4.7c-3.5.1-4.3-3.5-4.3-3.5s1.2 4-.4 5.1c-.7.5-3.4.8-4.1.1-2.4-2.6-4.3-9.4-4.3-9.4s2.8 10.7-3 10.7c-7 0-8.1-4.4-8.1-8.1 0-1.9 1.9-24.3 2.3-28.8.4-4.6-2.4-50.4-2.4-66.1 0-15.7 5.2-42.1 5.2-51.6 0-9.6-5.2-105.8-5.2-112.4 0-6.6 2.4-59.5 2.4-59.5"/><path d="M151.064 472.2s-4.3 4.9-7.2 5c-2.9.1-5.7-1.7-6.5-2.5M153.564 127.8s1.9 22.3-8.5 31.8c-10.4 9.4-18 10.6-22.5 10.6h-.3c-4.5 0-12.4-1.2-22.8-10.6s-8.5-31.8-8.5-31.8M127.364 133.4c3.6-1.4 12.2-3.6 17.9-3.3M155.364 63.5c.7-7.1-2.9-22.1-5.1-27.3-2.2-5.2-7.2-8.7-13.8-8.7-6.4 0-12.1 1-13.9 1h-.2c-1.8 0-7.7-1-14.1-1-6.6 0-11.5 3.6-13.8 8.7-2.3 5.1-5.8 20.2-5.1 27.3M143.764 18.7c2.2-2.2 1-7.5-3.5-11.2-5.5-4.4-12.8-4.9-17.8-4.9h-.1c-5 0-12.5.5-17.9 4.9-4.5 3.7-5.7 9.1-3.5 11.2"/><path d="M152.764 77.7s3.9 1.7 6.6-6.1c1.4-4 2.9-10.8.9-13.8-.8-1.1-3.3-1.8-4.4-.8M131.764 53.7s3.8-3 8.4-3c4.6 0 7.8 2.6 7.8 2.6M131.364 60.1s2.1-3.5 7.2-3.5 7.2 3.2 7.2 3.2"/><path d="M141.464 59.6a3 3 0 11-6 0 3 3 0 016 0z" fill="#979797" fill-rule="nonzero"/><path d="M160.264 208.8c-11.2.9-33.6-1.1-37.8-1.1h-.1c-4.1 0-26.7 2-37.9 1.1M173.964 285.8c-5.9 0-20 2.3-25.4 3.7-5.4 1.4-21.4 2-26 2h-.2c-4.6 0-20.8-.6-26.2-2-5.4-1.4-19.5-3.7-25.4-3.7M178.764 307.5c-11.8-.8-18.4.5-27.2 4.4-9.1 4-20.6 12.4-24 14.3-3.4 1.9-3.8 1.2-5.2 1.2h-.1c-1.4 0-1.9.6-5.3-1.2-3.4-1.8-14.9-10.3-24-14.3-8.8-3.8-15.4-5.2-27.2-4.4"/><path d="M124.764 261c0 .341-.2.704-.633 1.002-.432.298-1.055.498-1.767.498-.713 0-1.336-.2-1.767-.498-.433-.298-.633-.661-.633-1.002 0-.341.2-.704.633-1.003.431-.297 1.054-.497 1.767-.497.712 0 1.335.2 1.767.497.433.299.633.662.633 1.003z" fill="#979797" fill-rule="nonzero"/></g></g></symbol><symbol viewBox="0 0 302 664" id="653-male-back" xmlns="http://www.w3.org/2000/svg"><g fill="none" fill-rule="evenodd"><path fill-opacity=".02" fill="#FFF" d="M105 0h97v120h-97zM47 120h107v53H47zM86 376h68v98H86zM95 474h59v154H95zM93 664h61v-36H93zM157 376h66v97h-66zM154 474h56v154h-56zM154 664h56v-36h-56zM15.528 316.2L70.5 326.884l-15.455 79.512L.073 395.71zM287.044 323.374l-54.971 10.685 14.883 76.567 54.971-10.685zM154 120h105v53H154zM95 173h120v132H95zM90 375h127v-70H90zM91 176v85h-9.238l-12.483 65L37 318.407l17.049-88.769 3.951.93V176h33z"/><path d="M217 172v90h9.487l12.398 68 32.279-7.998-17.049-93.503-4.114 1.019L250 172h-33z" fill-opacity=".02" fill="#FFF"/><g stroke="#979797"><path d="M138.664 131.2s-24.5-6.4-39.5-4.2M138.664 219.9s-12.7 8.8-17 23.2"/><path d="M150.164 370.4s-1.9 81-3.3 88.2c-1.4 7.2-1.1 27.8-1.1 32.5 0 4.7 2.5 20.8 3.5 31.2.9 10.4-2.5 39.6-3 46.3-.2 3.5-.8 19.6-.1 33.4.6 12.8 2.3 23.3 2.3 25.8 0 5.1 4.7 10.8 4.3 26-.1 1.9-4.8 7-10 7.8-5.7.9-14.7-2.5-20.9-3.8-10.9-2.3-18.5-4.9-17.1-9.8 2.2-8.1 16.1-12.3 17.3-15.4 1.4-3.7.2-19.7-1.7-25.2-1.8-5.5-11-43.6-14.2-67.4-3.2-23.8 3.7-50.9 3.7-56.8 0-6-7.8-20.2-13.8-51.3-6-31.2-2.9-60-1.9-85 .9-25 7.7-48.8 8.2-53.8.5-5-.3-44.6-.3-49.4 0-4.7-.3-5-3.9-14.4-3.7-9.5-6.6-28.4-6.8-21.5-.3 6.8-6 27.6-7.1 33.1-1.1 5.5-.3 28.1-1.6 33.9-1.3 5.8-19.9 54.1-20.7 57.7-.8 3.6-.3 16.5-1 20.1-.7 3.6-4.4 16.9-5.9 21.6-1.5 4.7-6 11.1-8.4 11.3-2.4.2-3.8.4-3.8.4s-2.7 4.1-5.5 4.2c-2.8.1-2.5-2.1-2.5-2.1s-2.1 2.1-5.3 2.1c-3.2 0-3.4-4.7-3.4-4.7s-.3.8-3.1.5c-2.8-.3-2.4-7.5-.5-15.7s5.8-16.9 5.8-16.9-2.2 2.2-2.6 2.9c-.4.7-1 3.1-2.9 5.9-1.9 2.8-6.1 3.1-7 2.6-.9-.4-3.1-2.9-.9-6s6.6-15.5 9.1-18.3c2.6-2.8 15.4-11.3 15.6-12.3.3-1 1-9 1.3-13.3.3-4.4 2.3-37.9 3.8-47.1 1.5-9.2 7.9-19.2 9.2-22.3 1.3-3.1.3-25.9 0-36.1-.3-10.2 4.8-25.4 5.4-31.8.5-6.4-.7-12.1 0-22.2s9.9-17.4 17.2-22.5c7.3-5.1 22.7-5.5 22.7-5.5.1-1.2.7-2.9 5-4.9 4.4-2 25.5-10.3 25.5-10.3V89M32.164 362.7s-5.1 19.3-6 22.4M39.764 366.5s-4 18.7-5 21.2M47.364 366.5s-3.7 15.6-4.6 19.1M134.764 488.2c-2.4-2.2-7.3-8.5-13.9-2.2"/><path d="M63.564 263.7s1.9 1.8 5.5 1.8 5-1.8 5-1.8M85.864 180.5s2.8 3.1 3.5 9c.5 4.1 1.7 11.6 4.3 14.9 2.6 3.2 12.3 6.5 22 6.5s18.8-2.8 21.1-4.1c2.3-1.3 5.3-3.8 6.2-7.8.9-4 1.4-20.9 1-29.2M153.464 289.1v-37.7M91.664 206.3s-1-8.7-1.7-13M185.364 74.7s3.6 1.2 4.6-2c1-3.2 2.5-7.8 2.7-12.1.2-4.3-1.2-8-4.8-6.6V35c0-3-2-10.2-7.6-14.9-5.6-4.7-11.2-10.8-26.5-11h-2c-15.3.2-19.9 6.1-25.5 10.9-5.6 4.8-7.6 11.9-7.6 14.9v19c-3.6-1.4-4.9 2.4-4.8 6.6.1 4.2 1.7 8.8 2.7 12.1 1 3.2 4.6 2 4.6 2M167.864 131.2s24.5-6.4 39.5-4.2M207.864 307.7c-6.7 1.9-13.8 3.7-21.8 4.7-9.2 1.1-23.5.8-31.8.7h-2.9c-8.3.1-21.7.4-30.9-.7-8-.9-15.1-2.8-21.8-4.7"/><path d="M156.464 370.4s1.9 81 3.3 88.2c1.4 7.2 1.1 27.8 1.1 32.5 0 4.7-2.5 20.8-3.5 31.2-.9 10.4 2.5 39.6 3 46.3.2 3.5.8 19.6.1 33.4-.6 12.8-2.3 23.3-2.3 25.8 0 5.1-4.7 10.8-4.3 26 .1 1.9 4.8 7 10 7.8 5.7.9 14.7-2.5 20.9-3.8 10.9-2.3 18.5-4.9 17.1-9.8-2.2-8.1-16.1-12.3-17.3-15.4-1.4-3.7-.2-19.7 1.7-25.2 1.8-5.5 11-43.6 14.2-67.4 3.2-23.8-3.7-50.9-3.7-56.8 0-6 7.8-20.2 13.8-51.3 6-31.1 2.9-60 1.9-85-.9-25-7.7-48.8-8.2-53.8-.5-5 .3-44.6.3-49.4 0-4.7.3-5 3.9-14.4 3.7-9.5 6.6-28.4 6.8-21.5.3 6.8 6 27.6 7.1 33.1 1.1 5.5.3 28.1 1.6 33.9 1.3 5.8 19.9 54.1 20.7 57.7.8 3.6.3 16.5 1 20.1.7 3.6 4.4 16.9 5.9 21.6 1.5 4.7 6 11.1 8.4 11.3 2.4.2 3.8.4 3.8.4s2.7 4.1 5.5 4.2c2.8.1 2.5-2.1 2.5-2.1s2.1 2.1 5.3 2.1c3.2 0 3.4-4.7 3.4-4.7s.3.8 3.1.5c2.8-.3 2.4-7.5.5-15.7s-5.8-16.9-5.8-16.9 2.2 2.2 2.6 2.9c.4.7 1 3.1 2.9 5.9 1.9 2.8 6.1 3.1 7 2.6.9-.4 3.1-2.9.9-6s-6.6-15.5-9.1-18.3c-2.6-2.8-15.4-11.3-15.6-12.3-.3-1-1-9-1.3-13.3-.3-4.4-2.3-37.9-3.8-47.1-1.5-9.2-7.9-19.2-9.2-22.3-1.3-3.1-.3-25.9 0-36.1.3-10.2-4.8-25.4-5.4-31.8-.5-6.4.7-12.1 0-22.2s-9.9-17.4-17.2-22.5c-7.3-5.1-22.7-5.5-22.7-5.5-.1-1.2-.7-2.9-5-4.9-4.4-2-25.5-10.3-25.5-10.3V89"/><path d="M213.464 365.1c-4.7 3-11.6 10.2-27.5 10.8-23.3.9-29.5-5.6-29.5-5.6s-.6-1.3-2.2-1.3h-2c-1.6 0-2.2 1.3-2.2 1.3s-6.2 6.4-29.5 5.6c-15.9-.6-22.8-7.8-27.5-10.8M274.464 362.7s5.1 19.3 6 22.4M266.864 366.5s4 18.7 5 21.2M259.264 366.5s3.7 15.6 4.6 19.1M171.764 488.2c2.4-2.2 7.3-8.5 13.9-2.2M187.964 54c-.3 8.1-1.2 15-2.5 20.7 0 0-3.9 21.5-29.7 21.3h-4.8c-25.8.2-29.7-21.3-29.7-21.3-1.4-5.7-2.2-12.7-2.5-20.7M242.964 263.7s-1.9 1.8-5.5 1.8-5-1.8-5-1.8M169.864 206.7c-2.3-1.3-5.3-3.8-6.2-7.8-.9-4-1.4-20.9-1-29.2M214.964 206.3s1-8.7 1.7-13l.6-3.8c.8-6 3.5-9 3.5-9"/></g></g></symbol><symbol viewBox="0 0 307 667" id="653-male-front" xmlns="http://www.w3.org/2000/svg"><g fill="none" fill-rule="evenodd"><path fill-opacity=".02" fill="#FFF" d="M105 0h97v120h-97zM57 120h97v38H57zM91 368h63v106H91zM108 474h46v156h-46zM98 666h55v-36H98zM157 367h62v107h-62zM154 474h46v156h-46zM153 666h57v-36h-57zM14.529 322.199l57.916 11.258-14.12 72.64L.41 394.84zM292.306 322.482L228.5 334.884l14.502 74.604 63.806-12.402zM154 120h103v38H154zM95 221h117v95H95zM91 158h122v63H91zM96 366h115v-50H96zM88 159v98h-9.228l-12.493 74.535-32.279-8.7 17.049-101.712L55 222.187V159h33z"/><path d="M215 158v99h9.477l12.746 76L270 324.17l-17.312-103.225-4.688 1.263V158h-33z" fill-opacity=".02" fill="#FFF"/><g stroke="#979797"><path d="M151.064 103.9h-5.3c-2.2 0-4.4-1.4-6.3-2.7-1.9-1.4-15.1-13.2-16.1-14.3-1-1.1-2.2-2.9-2.5-12.4 0 0-3.6 1.2-4.6-2-1-3.2-2.5-7.8-2.7-12.1-.2-4.2 1.2-8 4.8-6.6v-19c0-3 2-10.2 7.6-14.9 5.6-4.7 10.2-10.7 25.5-10.9h1.4c15.3.2 19.7 6.1 25.3 10.9 5.6 4.8 7.6 11.9 7.6 14.9v19c3.6-1.4 4.9 2.4 4.8 6.6-.2 4.2-1.7 8.8-2.7 12.1-1 3.2-4.6 2-4.6 2-.3 9.5-1.5 11.4-2.5 12.4s-14.3 12.9-16.1 14.3c-1.9 1.4-4.1 2.7-6.3 2.7h-7.3z"/><path d="M152.064 29.6c-8 0-15.3-.7-17.8-.8-2.5-.2-4.9.5-7 3.1 0 0-7 18.1-7 21.5 0 3.4.5 21.1.5 21.1"/><path d="M142.364 59.5s-3.8-3-7.2-3.1c-3.4-.1-6.5 3.1-6.5 3.1M144.164 52.7s-3.4-2.3-4.8-2.5c-1.4-.3-6.3 0-8 0-1.7 0-3.9 1.4-3.9 1.4M146.364 56.4s2 1.7 2 3.1v8.1M138.364 130.9s-24.5-6.4-39.5-4.2M136.464 206.5c-3.4 1.7-11.4 4.1-21.1 4.1-9.7 0-19.4-3.2-22-6.5-2.6-3.2-4.3-10.8-4.3-14.9M138.364 219.6s-12.7 8.8-17 23.2"/><path d="M149.764 356.9s-1.9 94.3-3.3 101.4c-1.4 7.2-1.1 27.8-1.1 32.5 0 4.7 2.5 20.8 3.5 31.2.9 10.4-2.5 39.6-3 46.3-.5 6.7-.2 57.4-.2 62.5 0 5.1 4.5 7.8 4.1 22.9-.2 7.6 1.1 12.2-6.2 12.2-6.2-.1-4-9.9-4-9.9s-1.1 7.6-3.5 9.2c-1.3.8-4.7.3-5.8-.3-2-1.1-.9-6.1-.9-6.1s-.2 5.2-3.4 5.8c-1 .2-3.3-.4-3.9-.9-2-1.7-.8-5.8-.8-5.8s-1.3 4.7-2.9 5.4c-1.2.5-3.2 0-3.6-.2-2.1-.9-1.1-6.2-1.1-6.2 0 2.3-1.1 4.7-2.9 4.8-1.1.1-3.7-.4-3.9-3.5-.1-.8.3-6.6.7-7.9 2.4-8.1 12.6-24 13.8-27.1 1.4-3.7.5-10.5-1.4-16-1.8-5.5-11-43.6-14.2-67.4-3.2-23.8 3.7-50.9 3.7-56.8 0-5.9-7.8-20.2-13.8-51.3-6-31.1-2.9-60-1.9-85 .9-25 7.7-48.8 8.2-53.8.5-5-.3-44.6-.3-49.4 0-4.8-.3-5-3.9-14.4-3.7-9.5-6.6-28.4-6.8-21.5-.3 6.8-6 27.6-7.1 33.1-1.1 5.5-.3 28.1-1.6 33.9-1.3 5.8-19.9 54.1-20.7 57.7-.8 3.6-.3 16.5-1 20.1-.7 3.6-4.4 16.9-5.9 21.6-1.5 4.7-6 11.1-8.4 11.3-2.4.2-3.8.4-3.8.4s-2.7 4.1-5.5 4.2c-2.8.1-2.5-2.1-2.5-2.1s-2.1 2.1-5.3 2.1c-3.2 0-3.4-4.7-3.4-4.7s-.3.8-3.1.5c-2.8-.3-2.4-7.5-.5-15.7s5.8-16.9 5.8-16.9-2.2 2.2-2.6 2.9c-.4.7-1 3.1-2.9 5.9-1.9 2.8-6.1 3.1-7 2.6-.9-.4-3.1-2.9-.9-6s6.6-15.5 9.1-18.3c2.5-2.8 15.4-11.3 15.6-12.3.3-1 1-9 1.3-13.3.3-4.4 2.3-37.9 3.8-47.1 1.5-9.2 7.9-19.2 9.2-22.3 1.3-3.1.3-25.9 0-36.1-.3-10.2 4.8-25.4 5.4-31.8.6-6.4-.7-12.1 0-22.2s9.9-17.4 17.2-22.5c7.3-5.1 22.7-5.5 22.7-5.5.1-1.2.7-2.9 5-4.9 4.4-2 25.5-10.3 25.5-10.3V92.2"/><path d="M92.264 376c4.8 2.4 11.8 4.4 27.7 5.2 15.4.7 29.3-.9 29.3-.9M31.764 362.5s-5.1 19.3-6 22.4M39.464 366.3s-4 18.7-5 21.2M47.064 366.3s-3.7 15.6-4.6 19.1M34.464 349c2.1-.3 7.3-3.1 9.5-6.1M120.563 483c2.4 2.2 7.301 8.5 13.901 2.2M152.063 29.6c8 0 15.301-.7 17.801-.8 2.5-.2 4.9.5 7 3.1 0 0 7 18.1 7 21.5 0 3.4-.5 21.1-.5 21.1"/><path d="M161.764 59.5s3.8-3 7.2-3.1c3.4-.1 6.5 3.1 6.5 3.1M159.964 52.7s3.4-2.3 4.8-2.5c1.4-.3 6.3 0 8 0 1.7 0 3.9 1.4 3.9 1.4M159.964 77.2s-1.2-.9-2.2 0c-.9.9-2.6 2.5-4.3 2.5h-2.8c-1.7 0-3.4-1.5-4.3-2.5-.9-.9-2.2 0-2.2 0M165.764 130.9s24.5-6.4 39.5-4.2M167.664 206.5c3.4 1.7 11.4 4.1 21.1 4.1 9.7 0 19.4-3.2 22-6.5 2.6-3.2 4.3-10.8 4.3-14.9M165.764 219.6s12.7 8.8 17 23.2M205.764 309.8c-6.7 1.9-13.8 3.7-21.8 4.7-9.2 1.1-30.6 1.8-30.6 1.8h-2.4s-21.6-.7-30.7-1.8c-8-.9-15.1-2.8-21.8-4.7"/><path d="M154.364 356.9s1.899 94.2 3.299 101.4c1.4 7.2 1.101 27.8 1.101 32.5 0 4.7-2.5 20.8-3.5 31.2-.9 10.4 2.5 39.6 3 46.3.5 6.7.2 57.4.2 62.5 0 5.1-4.5 7.8-4.1 22.9.2 7.6-1.101 12.2 6.199 12.2 6.2-.1 4.001-9.9 4.001-9.9s1.1 7.6 3.5 9.2c1.3.8 4.7.3 5.8-.3 2-1.1.9-6.1.9-6.1s.199 5.2 3.399 5.8c1 .2 3.3-.4 3.9-.9 2-1.7.801-5.8.801-5.8s1.3 4.7 2.9 5.4c1.2.5 3.2 0 3.6-.2 2.1-.9 1.1-6.2 1.1-6.2 0 2.3 1.1 4.7 2.9 4.8 1.1.1 3.7-.4 3.9-3.5.1-.8-.301-6.6-.701-7.9-2.4-8.1-12.599-24-13.799-27.1-1.4-3.7-.501-10.5 1.399-16 1.8-5.5 11.001-43.6 14.201-67.4 3.2-23.8-3.701-50.9-3.701-56.8 0-5.9 7.801-20.2 13.801-51.3 6-31.1 2.9-60 1.9-85-.9-25-7.701-48.8-8.201-53.8-.5-5 .301-44.6.301-49.4 0-4.8.3-5 3.9-14.4 3.7-9.5 6.599-28.4 6.799-21.5.3 6.8 6.001 27.6 7.101 33.1 1.1 5.5.3 28.1 1.6 33.9 1.3 5.8 19.899 54.1 20.699 57.7.8 3.6.3 16.5 1 20.1.7 3.6 4.401 16.9 5.901 21.6 1.5 4.7 6 11.1 8.4 11.3 2.4.2 3.799.4 3.799.4s2.7 4.1 5.5 4.2c2.8.1 2.5-2.1 2.5-2.1s2.101 2.1 5.301 2.1 3.4-4.7 3.4-4.7.3.8 3.1.5c2.8-.3 2.4-7.5.5-15.7s-5.801-16.9-5.801-16.9 2.201 2.2 2.601 2.9c.4.7.999 3.1 2.899 5.9 1.9 2.8 6.1 3.1 7 2.6.9-.4 3.101-2.9.901-6s-6.6-15.5-9.1-18.3c-2.5-2.8-15.4-11.3-15.6-12.3-.2-1-1.001-9-1.301-13.3-.3-4.3-2.299-37.9-3.799-47.1-1.5-9.2-7.901-19.2-9.201-22.3-1.3-3.1-.3-25.9 0-36.1.3-10.2-4.8-25.4-5.4-31.8-.6-6.4.7-12.1 0-22.2s-9.899-17.4-17.199-22.5c-7.3-5.1-22.7-5.5-22.7-5.5-.1-1.2-.7-2.9-5-4.9-4.4-2-25.5-10.3-25.5-10.3V92.2"/><path d="M165.564 349.3s.3 7.8-13.1 7.7h-.7c-13.4.2-13.2-7.7-13.2-7.7M211.864 376c-4.8 2.4-11.8 4.4-27.7 5.2-15.4.7-29.3-.9-29.3-.9M272.364 362.5s5.1 19.3 6 22.4M264.764 366.3s4 18.7 5 21.2M257.063 366.3s3.7 15.6 4.6 19.1M269.664 349c-2.1-.3-7.3-3.1-9.5-6.1M183.664 483c-2.4 2.2-7.3 8.5-13.9 2.2"/><path d="M137.964 58.7a2.1 2.1 0 11-4.201-.001 2.1 2.1 0 014.201.001zM170.664 58.7a2.1 2.1 0 11-4.2 0 2.1 2.1 0 014.2 0zM106.564 199.2c0 .341-.2.704-.634 1.003-.43.297-1.054.497-1.766.497-.713 0-1.336-.2-1.767-.497-.433-.299-.633-.662-.633-1.003 0-.341.2-.704.633-1.003.431-.297 1.054-.497 1.767-.497.712 0 1.335.2 1.766.497.434.299.634.662.634 1.003zM202.864 199.2c0 .341-.2.704-.634 1.003-.431.297-1.054.497-1.766.497-.713 0-1.336-.2-1.767-.497-.434-.299-.634-.662-.634-1.003 0-.341.2-.704.634-1.003.431-.297 1.054-.497 1.767-.497.712 0 1.335.2 1.766.497.434.299.634.662.634 1.003zM154.564 288.1c0 .341-.2.704-.634 1.003-.431.297-1.054.497-1.766.497-.713 0-1.336-.2-1.767-.497-.433-.299-.633-.662-.633-1.003 0-.341.2-.704.633-1.003.431-.297 1.054-.497 1.767-.497.712 0 1.335.2 1.766.497.434.299.634.662.634 1.003z" fill="#979797" fill-rule="nonzero"/><path d="M142.664 87.2s6.6.7 10 .7c3.6 0 9-.7 9-.7M149.563 92.6s.9.9 2.5.9c1.9 0 2.5-.9 2.5-.9M152.063 275.2v-37.7M152.063 189.3v-27.8M152.664 135.8s-2.7-1.1-4.3-1.5"/></g></g></symbol><symbol fill="none" viewBox="0 0 10 6" id="8-eyes" xmlns="http://www.w3.org/2000/svg"><path d="M5 1C3 1 1.5 2.5 1 3c.5.5 2 2 4 2s3.5-1.5 4-2c-.5-.5-2-2-4-2z" stroke="currentColor" stroke-width=".5"/><circle cx="5" cy="3" r="1.75" stroke="currentColor" stroke-width=".5"/></symbol><symbol fill="none" viewBox="0 0 8 10" id="8-trash" xmlns="http://www.w3.org/2000/svg"><path d="M0 1.941h8m-7 .941L1.5 9h5L7 2.882H1zM2.5 1.941V1h3v.941" stroke="currentColor" stroke-width=".5"/></symbol></svg>