<svg width="13" height="18" viewBox="0 0 13 18" fill="none" xmlns="http://www.w3.org/2000/svg">
<path d="M1 14.0007H3.99933L5.22682 11.6525" stroke="#434343" stroke-miterlimit="10" stroke-linecap="square"/>
<path d="M1.75781 7.99135C1.75781 7.99135 2.35554 5.80322 5.49364 5.80322L4.18076 9.12277C4.08196 9.38632 4.05959 9.67241 4.11624 9.94811C4.17289 10.2238 4.30626 10.4779 4.50097 10.6811L6.77449 12.9974V17" stroke="#434343" stroke-miterlimit="10" stroke-linecap="square"/>
<path d="M12.2715 6.74252C12.022 7.04381 11.7063 7.2834 11.3489 7.44263C10.9916 7.60185 10.6023 7.6764 10.2115 7.66046C8.27951 7.66046 7.93795 5.80322 5.49365 5.80322" stroke="#434343" stroke-miterlimit="10" stroke-linecap="square"/>
<path d="M8.77053 4.99199C9.87289 4.99199 10.7665 4.09836 10.7665 2.996C10.7665 1.89364 9.87289 1 8.77053 1C7.66817 1 6.77454 1.89364 6.77454 2.996C6.77454 4.09836 7.66817 4.99199 8.77053 4.99199Z" stroke="#434343" stroke-miterlimit="10" stroke-linecap="square"/>
<path d="M8.06606 6.87061L6.77454 10.2115" stroke="#434343" stroke-miterlimit="10" stroke-linecap="square"/>
</svg>
