<svg width="19" height="19" viewBox="0 0 19 19" fill="none" xmlns="http://www.w3.org/2000/svg">
<path d="M11.7063 2.09748C12.4086 1.39477 13.361 1 14.3541 1C15.3472 1 16.2997 1.39477 17.0019 2.09748C17.7041 2.80018 18.0986 3.75325 18.0986 4.74702C18.0986 5.74079 17.7041 6.69386 17.0019 7.39657L7.3923 17.0012C6.69006 17.7039 5.73763 18.0986 4.74452 18.0986C3.75141 18.0986 2.79898 17.7039 2.09674 17.0012C1.39451 16.2985 1 15.3454 1 14.3516C1 13.3578 1.39451 12.4048 2.09674 11.7021L11.7063 2.09748Z" stroke="#434343" stroke-miterlimit="10" stroke-linecap="square"/>
<path d="M3.82007 10.2402L8.96725 15.3909" stroke="#434343" stroke-miterlimit="10" stroke-linecap="square"/>
<path d="M10.2 3.60498L15.3471 8.76702" stroke="#434343" stroke-miterlimit="10" stroke-linecap="square"/>
<circle cx="15.5" cy="5.5" r="0.5" transform="rotate(-180 15.5 5.5)" fill="#434343"/>
<circle cx="15.5" cy="3.5" r="0.5" transform="rotate(-180 15.5 3.5)" fill="#434343"/>
<circle cx="13.4999" cy="3.5" r="0.5" transform="rotate(-180 13.4999 3.5)" fill="#434343"/>
<circle cx="3.5" cy="13.5" r="0.5" fill="#434343"/>
<circle cx="3.5" cy="15.5" r="0.5" fill="#434343"/>
<circle cx="5.50012" cy="15.4999" r="0.5" fill="#434343"/>
</svg>
