<svg width="12" height="18" viewBox="0 0 12 18" fill="none" xmlns="http://www.w3.org/2000/svg">
<path d="M3.47595 8V3.38271C3.51757 2.73688 3.80046 2.13125 4.26723 1.68875C4.734 1.24624 5.34966 1 5.98929 1C6.62892 1 7.24459 1.24624 7.71136 1.68875C8.17812 2.13125 8.46102 2.73688 8.50263 3.38271V8" stroke="#434343" stroke-miterlimit="10" stroke-linecap="square"/>
<path d="M8.50263 8.24219C8.46102 8.88802 8.17812 9.49365 7.71136 9.93615C7.24459 10.3787 6.62892 10.6249 5.98929 10.6249C5.34966 10.6249 4.734 10.3787 4.26723 9.93615C3.80046 9.49365 3.51757 8.88802 3.47595 8.24219" stroke="#434343" stroke-miterlimit="10" stroke-linecap="square"/>
<path d="M10.9787 8.26373C10.9193 9.56227 10.3677 10.7877 9.43852 11.6854C8.50934 12.5831 7.27403 13.084 5.98933 13.084C4.70462 13.084 3.46932 12.5831 2.54014 11.6854C1.61096 10.7877 1.05937 9.56227 1 8.26373" stroke="#434343" stroke-miterlimit="10" stroke-linecap="square"/>
<path d="M1 16.9892L11 17" stroke="#434343" stroke-miterlimit="10" stroke-linecap="square"/>
<path d="M5.98401 13.2852V17" stroke="#434343" stroke-miterlimit="10" stroke-linecap="square"/>
</svg>
