<svg width="14" height="18" viewBox="0 0 14 18" fill="none" xmlns="http://www.w3.org/2000/svg">
<path d="M6.98818 16.9992C6.72407 17.0066 6.46124 16.96 6.21576 16.8623C5.97027 16.7646 5.7473 16.6179 5.56048 16.431C5.37365 16.2442 5.22691 16.0212 5.12921 15.7758C5.03151 15.5303 4.98492 15.2674 4.99228 15.0033V9.00496C5.25747 9.00925 5.52083 8.96036 5.76682 8.86118C6.0128 8.76199 6.23641 8.61452 6.42446 8.42748C6.6125 8.24043 6.76115 8.0176 6.86164 7.77215C6.96213 7.5267 7.01241 7.26359 7.00953 6.99838V1H1.00047V6.99838C0.994689 7.26257 1.04228 7.52521 1.14041 7.77057C1.23853 8.01593 1.38516 8.23896 1.57151 8.42631C1.75787 8.61366 1.98011 8.76148 2.22495 8.86091C2.46978 8.96034 2.73216 9.00933 2.99637 9.00496V15.0033C3.0022 15.267 2.95456 15.5292 2.85632 15.774C2.75808 16.0188 2.61128 16.2411 2.42477 16.4276C2.23826 16.6142 2.0159 16.761 1.77111 16.8592C1.52632 16.9574 1.26417 17.0051 1.00047 16.9992" stroke="#434343" stroke-miterlimit="10" stroke-linecap="square"/>
<path d="M9.01611 1V6.99838" stroke="#434343" stroke-miterlimit="10" stroke-linecap="square"/>
<path d="M11.012 1V6.99838" stroke="#434343" stroke-miterlimit="10" stroke-linecap="square"/>
<path d="M11.012 16.9992V9.00496C11.2762 9.00933 11.5386 8.96034 11.7834 8.86091C12.0282 8.76148 12.2505 8.61366 12.4368 8.42631C12.6232 8.23896 12.7698 8.01593 12.8679 7.77057C12.9661 7.52521 13.0136 7.26257 13.0079 6.99838V1" stroke="#434343" stroke-miterlimit="10" stroke-linecap="square"/>
</svg>
