<svg width="18" height="18" viewBox="0 0 18 18" fill="none" xmlns="http://www.w3.org/2000/svg">
<path d="M8.97868 11.9642C10.6275 11.9642 11.9641 10.6276 11.9641 8.97877C11.9641 7.32998 10.6275 5.99338 8.97868 5.99338C7.32989 5.99338 5.99329 7.32998 5.99329 8.97877C5.99329 10.6276 7.32989 11.9642 8.97868 11.9642Z" stroke="#434343" stroke-miterlimit="10" stroke-linecap="square"/>
<path d="M5.51526 4.11286C6.2458 3.56973 7.09372 3.20582 7.99069 3.05045" stroke="#434343" stroke-miterlimit="10" stroke-linecap="square"/>
<path d="M3.07166 7.99068C3.23674 7.10314 3.59989 6.26426 4.13407 5.5365" stroke="#434343" stroke-miterlimit="10" stroke-linecap="square"/>
<path d="M4.09158 12.4528C3.5754 11.7275 3.22701 10.8965 3.07166 10.0199" stroke="#434343" stroke-miterlimit="10" stroke-linecap="square"/>
<path d="M7.98007 14.907C7.08223 14.7437 6.2326 14.3806 5.49402 13.8446" stroke="#434343" stroke-miterlimit="10" stroke-linecap="square"/>
<path d="M12.4528 13.8871C11.7282 14.4024 10.8965 14.7474 10.0199 14.8964" stroke="#434343" stroke-miterlimit="10" stroke-linecap="square"/>
<path d="M14.8859 10.0199C14.7432 10.8781 14.4131 11.6943 13.9191 12.4103" stroke="#434343" stroke-miterlimit="10" stroke-linecap="square"/>
<path d="M13.8552 5.51526C14.3977 6.2462 14.7615 7.09395 14.9176 7.99069" stroke="#434343" stroke-miterlimit="10" stroke-linecap="square"/>
<path d="M10.0199 3.09296C10.9089 3.25336 11.7488 3.61695 12.4741 4.15537" stroke="#434343" stroke-miterlimit="10" stroke-linecap="square"/>
<path d="M7.9906 3.00797V1.02125L9.99857 1V3.01859" stroke="#434343" stroke-miterlimit="10" stroke-linecap="square"/>
<path d="M9.99857 14.992V16.9788L7.9906 17V14.9814" stroke="#434343" stroke-miterlimit="10" stroke-linecap="square"/>
<path d="M3.00797 9.99866H1.02125L1 7.99069H3.01859" stroke="#434343" stroke-miterlimit="10" stroke-linecap="square"/>
<path d="M14.9921 7.99069H16.9788L17 9.99866H14.9814" stroke="#434343" stroke-miterlimit="10" stroke-linecap="square"/>
<path d="M4.0385 5.46214L2.62549 4.05975L4.0385 2.62549L5.46214 4.04913" stroke="#434343" stroke-miterlimit="10" stroke-linecap="square"/>
<path d="M13.9295 12.5166L15.3319 13.919L13.9295 15.3639L12.4952 13.9296" stroke="#434343" stroke-miterlimit="10" stroke-linecap="square"/>
<path d="M5.45152 13.919L4.04913 15.332L2.61487 13.9296L4.03851 12.4954" stroke="#434343" stroke-miterlimit="10" stroke-linecap="square"/>
<path d="M12.506 4.0385L13.9084 2.62549L15.3533 4.02788L13.919 5.46214" stroke="#434343" stroke-miterlimit="10" stroke-linecap="square"/>
</svg>
