<svg width="15" height="18" viewBox="0 0 15 18" fill="none" xmlns="http://www.w3.org/2000/svg">
<path d="M6.40401 3.09088L6.82894 3.35437L6.28261 2.60584L6.40401 3.09088ZM12.318 13.8629L12.3179 14.3629L12.339 14.3624L12.318 13.8629ZM13.9566 13.5892L14.386 13.8452L13.8141 13.1099L13.9566 13.5892ZM1 9.97663L0.499986 9.97081L0.500001 9.97773L1 9.97663ZM5.97907 2.82739C5.27166 3.96825 4.88008 5.27899 4.84463 6.62352L5.84428 6.64988C5.87507 5.48209 6.21519 4.34419 6.82894 3.35437L5.97907 2.82739ZM4.84463 6.62352C4.80918 7.96805 5.13114 9.29787 5.77738 10.475L6.65396 9.9937C6.09317 8.97226 5.8135 7.81767 5.84428 6.64988L4.84463 6.62352ZM5.77738 10.475C6.42364 11.6521 7.37079 12.6338 8.52094 13.3177L9.03202 12.4581C8.036 11.8659 7.21473 11.0151 6.65396 9.9937L5.77738 10.475ZM8.52094 13.3177C9.67112 14.0016 10.9822 14.3626 12.3179 14.3629L12.3181 13.3629C11.1626 13.3626 10.028 13.0504 9.03202 12.4581L8.52094 13.3177ZM12.339 14.3624C12.9354 14.3374 13.5266 14.2387 14.0991 14.0684L13.8141 13.1099C13.3206 13.2567 12.8111 13.3418 12.2971 13.3633L12.339 14.3624ZM13.5271 13.3331C12.7973 14.5572 11.6908 15.5056 10.3775 16.0345L10.7511 16.9621C12.2684 16.3511 13.5449 15.2561 14.386 13.8452L13.5271 13.3331ZM10.3775 16.0345C9.06425 16.5634 7.61572 16.6439 6.25297 16.264L5.9844 17.2272C7.55941 17.6664 9.23366 17.5732 10.7511 16.9621L10.3775 16.0345ZM6.25297 16.264C4.89018 15.884 3.68733 15.0642 2.82874 13.9287L2.03111 14.5319C3.02114 15.8411 4.40944 16.7881 5.9844 17.2272L6.25297 16.264ZM2.82874 13.9287C1.97008 12.7932 1.50315 11.4048 1.5 9.97553L0.500001 9.97773C0.50363 11.6232 1.04114 13.2227 2.03111 14.5319L2.82874 13.9287ZM1.49997 9.98245C1.51718 8.50277 2.0205 7.07117 2.9303 5.91191L2.14363 5.29453C1.09759 6.6274 0.519799 8.27206 0.500034 9.97081L1.49997 9.98245ZM2.9303 5.91191C3.84004 4.75273 5.10461 3.93151 6.5254 3.57592L6.28261 2.60584C4.64525 3.01563 3.18974 3.96159 2.14363 5.29453L2.9303 5.91191Z" fill="#434343"/>
<path d="M9.18201 1H11.1136L9.18201 2.94859H11.1136" stroke="#434343" stroke-linejoin="bevel"/>
<path d="M12.0685 6.81293H14L12.0685 8.76152H14" stroke="#434343" stroke-linejoin="bevel"/>
</svg>
