<svg width="26" height="26" viewBox="0 0 26 26" fill="none" xmlns="http://www.w3.org/2000/svg">
<path d="M8.31082 17.4275C6.78007 17.2538 5.32869 16.6544 4.12141 15.6974C2.91413 14.7404 1.9993 13.4642 1.48077 12.0135C0.962245 10.5628 0.860783 8.99579 1.1879 7.49035C1.51503 5.98491 2.25763 4.60133 3.33142 3.49665C4.40521 2.39196 5.76718 1.61043 7.26274 1.24075C8.7583 0.871077 10.3275 0.928065 11.7923 1.40525C13.2571 1.88244 14.5588 2.7607 15.5497 3.94037C16.5405 5.12003 17.1808 6.55383 17.3978 8.07903" stroke="#434343" stroke-width="1.5" stroke-miterlimit="10" stroke-linecap="square"/>
<path d="M16.7287 25.0087C21.2968 25.0087 25.0001 21.3054 25.0001 16.7373C25.0001 12.1691 21.2968 8.46588 16.7287 8.46588C12.1605 8.46588 8.45728 12.1691 8.45728 16.7373C8.45728 21.3054 12.1605 25.0087 16.7287 25.0087Z" stroke="#434343" stroke-width="1.5" stroke-miterlimit="10" stroke-linecap="square"/>
<path d="M15 20.5554C15.5724 21.1043 16.3349 21.4109 17.128 21.4109C17.9211 21.4109 18.6835 21.1043 19.2559 20.5554" stroke="#434343" stroke-width="1.5" stroke-miterlimit="10" stroke-linecap="square"/>
<path d="M14.1 18.2C14.7075 18.2 15.2 17.7075 15.2 17.1C15.2 16.4925 14.7075 16 14.1 16C13.4925 16 13 16.4925 13 17.1C13 17.7075 13.4925 18.2 14.1 18.2Z" fill="#434343"/>
<path d="M20.6669 18.2C21.2744 18.2 21.7669 17.7075 21.7669 17.1C21.7669 16.4925 21.2744 16 20.6669 16C20.0594 16 19.5669 16.4925 19.5669 17.1C19.5669 17.7075 20.0594 18.2 20.6669 18.2Z" fill="#434343"/>
<path d="M9.75295 12.0422H9.408C9.01962 12.0358 8.634 12.1085 8.27459 12.2559C7.91519 12.4033 7.58952 12.6222 7.31738 12.8993" stroke="#434343" stroke-width="1.5" stroke-miterlimit="10" stroke-linecap="square"/>
<path d="M6.88027 9.2C7.48779 9.2 7.98027 8.70751 7.98027 8.1C7.98027 7.49249 7.48779 7 6.88027 7C6.27276 7 5.78027 7.49249 5.78027 8.1C5.78027 8.70751 6.27276 9.2 6.88027 9.2Z" fill="#434343"/>
<path d="M13.1 9.2C13.7075 9.2 14.2 8.70751 14.2 8.1C14.2 7.49249 13.7075 7 13.1 7C12.4925 7 12 7.49249 12 8.1C12 8.70751 12.4925 9.2 13.1 9.2Z" fill="#434343"/>
</svg>
