<svg width="18" height="26" viewBox="0 0 18 26" fill="none" xmlns="http://www.w3.org/2000/svg">
<path d="M4.96106 11.5V4.61433C5.01533 3.63861 5.46278 2.71981 6.21116 2.04735C6.95954 1.37488 7.9518 1 8.98337 1C10.015 1 11.0072 1.37488 11.7556 2.04735C12.504 2.71981 12.9514 3.63861 13.0057 4.61433V11.5" stroke="#434343" stroke-miterlimit="10" stroke-linecap="square"/>
<path d="M13.0057 11.9062C12.9514 12.882 12.504 13.8008 11.7556 14.4732C11.0072 15.1457 10.015 15.5206 8.98337 15.5206C7.9518 15.5206 6.95954 15.1457 6.21116 14.4732C5.46278 13.8008 5.01533 12.882 4.96106 11.9062" stroke="#434343" stroke-miterlimit="10" stroke-linecap="square"/>
<path d="M17 12C16.9226 14.1488 16.0459 16.1829 14.554 17.6747C13.0622 19.1665 11.0714 20 9 20C6.92858 20 4.93779 19.1665 3.44596 17.6747C1.95413 16.1829 1.0774 14.1488 1 12" stroke="#434343" stroke-miterlimit="10" stroke-linecap="square"/>
<path d="M1 24.9789L17 25" stroke="#434343" stroke-miterlimit="10" stroke-linecap="square"/>
<path d="M9 20L8.97766 25" stroke="#434343" stroke-miterlimit="10" stroke-linecap="square"/>
</svg>
