<svg width="26" height="26" viewBox="0 0 26 26" fill="none" xmlns="http://www.w3.org/2000/svg">
<path d="M12.9791 17.4375C15.4471 17.4375 17.4479 15.4368 17.4479 12.9688C17.4479 10.5007 15.4471 8.5 12.9791 8.5C10.5111 8.5 8.51038 10.5007 8.51038 12.9688C8.51038 15.4368 10.5111 17.4375 12.9791 17.4375Z" stroke="#434343" stroke-miterlimit="10" stroke-linecap="square"/>
<path d="M7.76038 5.67706C8.86447 4.89221 10.1325 4.3686 11.4687 4.14581" stroke="#434343" stroke-miterlimit="10" stroke-linecap="square"/>
<path d="M4.11462 11.4896C4.34268 10.1432 4.87728 8.86724 5.67712 7.76041" stroke="#434343" stroke-miterlimit="10" stroke-linecap="square"/>
<path d="M5.67712 18.1771C4.88849 17.0872 4.35453 15.8341 4.11462 14.5104" stroke="#434343" stroke-miterlimit="10" stroke-linecap="square"/>
<path d="M11.4791 21.8646C10.1395 21.6305 8.86898 21.1002 7.76038 20.3125" stroke="#434343" stroke-miterlimit="10" stroke-linecap="square"/>
<path d="M18.177 20.3229C17.0815 21.1094 15.8198 21.6333 14.4895 21.8542" stroke="#434343" stroke-miterlimit="10" stroke-linecap="square"/>
<path d="M21.8333 14.4896C21.6176 15.7834 21.1197 17.0139 20.375 18.0938" stroke="#434343" stroke-miterlimit="10" stroke-linecap="square"/>
<path d="M20.2604 7.76041C21.0485 8.86769 21.5755 10.1391 21.802 11.4792" stroke="#434343" stroke-miterlimit="10" stroke-linecap="square"/>
<path d="M14.4895 4.14581C15.8188 4.37022 17.0797 4.89383 18.177 5.67706" stroke="#434343" stroke-miterlimit="10" stroke-linecap="square"/>
<path d="M11.4999 4.01042L11.4895 1.03125L14.4999 1V4.03125" stroke="#434343" stroke-miterlimit="10" stroke-linecap="square"/>
<path d="M14.4999 21.9896V24.9688L11.4895 25V21.9688" stroke="#434343" stroke-miterlimit="10" stroke-linecap="square"/>
<path d="M4.01042 14.5H1.03125L1 11.4896H4.03125" stroke="#434343" stroke-miterlimit="10" stroke-linecap="square"/>
<path d="M21.9896 11.5L24.9688 11.4896L25 14.5H21.9688" stroke="#434343" stroke-miterlimit="10" stroke-linecap="square"/>
<path d="M5.56246 7.69792L3.44788 5.59375L5.55204 3.4375L7.69788 5.58333" stroke="#434343" stroke-miterlimit="10" stroke-linecap="square"/>
<path d="M20.3958 18.2812L22.5 20.3854L20.3958 22.5417L18.25 20.3958" stroke="#434343" stroke-miterlimit="10" stroke-linecap="square"/>
<path d="M7.68742 20.3854L5.58325 22.5L3.427 20.3958L5.56242 18.25" stroke="#434343" stroke-miterlimit="10" stroke-linecap="square"/>
<path d="M18.2708 5.5521L20.3749 3.44794L22.5312 5.5521L20.3853 7.69794" stroke="#434343" stroke-miterlimit="10" stroke-linecap="square"/>
</svg>
