<svg width="34" height="34" viewBox="0 0 34 34" fill="none" xmlns="http://www.w3.org/2000/svg">
<path d="M10.7597 22.9051C8.71729 22.6755 6.78027 21.8777 5.16868 20.6023C3.55708 19.3269 2.33554 17.625 1.64285 15.69C0.950152 13.755 0.814079 11.6645 1.25009 9.6561C1.6861 7.64765 2.67671 5.80177 4.10936 4.32818C5.54202 2.8546 7.35927 1.81239 9.35464 1.31999C11.35 0.82759 13.4435 0.904734 15.3972 1.54266C17.3509 2.18058 19.0865 3.35371 20.4068 4.92874C21.7272 6.50377 22.5792 8.41756 22.8662 10.4526" stroke="#434343" stroke-width="2" stroke-miterlimit="10" stroke-linecap="square"/>
<path d="M21.9832 33C28.0662 33 32.9975 28.0687 32.9975 21.9857C32.9975 15.9027 28.0662 10.9715 21.9832 10.9715C15.9002 10.9715 10.969 15.9027 10.969 21.9857C10.969 28.0687 15.9002 33 21.9832 33Z" stroke="#434343" stroke-width="2" stroke-miterlimit="10" stroke-linecap="square"/>
<path d="M19.0886 27.6385C19.8571 28.3625 20.8729 28.7656 21.9287 28.7656C22.9844 28.7656 24.0003 28.3625 24.7687 27.6385" stroke="#434343" stroke-width="2" stroke-miterlimit="10" stroke-linecap="square"/>
<path d="M17.5951 23.9052C17.8712 23.9052 18.0951 23.6813 18.0951 23.4052C18.0951 23.129 17.8712 22.9052 17.5951 22.9052C17.319 22.9052 17.0951 23.129 17.0951 23.4052C17.0951 23.6813 17.319 23.9052 17.5951 23.9052Z" fill="#434343" stroke="#434343" stroke-width="2" stroke-miterlimit="10" stroke-linecap="square"/>
<path d="M26.3337 23.9052C26.6099 23.9052 26.8337 23.6813 26.8337 23.4052C26.8337 23.129 26.6099 22.9052 26.3337 22.9052C26.0576 22.9052 25.8337 23.129 25.8337 23.4052C25.8337 23.6813 26.0576 23.9052 26.3337 23.9052Z" fill="#434343" stroke="#434343" stroke-width="2" stroke-miterlimit="10" stroke-linecap="square"/>
<path d="M12.6804 15.7231H12.2343C11.709 15.708 11.1862 15.8003 10.6978 15.9944C10.2095 16.1885 9.76589 16.4802 9.39429 16.8518" stroke="#434343" stroke-width="2" stroke-miterlimit="10" stroke-linecap="square"/>
<path d="M7.90076 11.9715C8.1769 11.9715 8.40076 11.7476 8.40076 11.4715C8.40076 11.1954 8.1769 10.9715 7.90076 10.9715C7.62461 10.9715 7.40076 11.1954 7.40076 11.4715C7.40076 11.7476 7.62461 11.9715 7.90076 11.9715Z" fill="#434343" stroke="#434343" stroke-width="2" stroke-miterlimit="10" stroke-linecap="square"/>
<path d="M16.6394 11.9715C16.9155 11.9715 17.1394 11.7476 17.1394 11.4715C17.1394 11.1954 16.9155 10.9715 16.6394 10.9715C16.3633 10.9715 16.1394 11.1954 16.1394 11.4715C16.1394 11.7476 16.3633 11.9715 16.6394 11.9715Z" fill="#434343" stroke="#434343" stroke-width="2" stroke-miterlimit="10" stroke-linecap="square"/>
</svg>
