<?xml version="1.0" encoding="UTF-8"?>
<svg width="244px" height="647px" viewBox="0 0 244 647" version="1.1" xmlns="http://www.w3.org/2000/svg" xmlns:xlink="http://www.w3.org/1999/xlink">

    <g id="Page-1" stroke="none" stroke-width="1" fill="none" fill-rule="evenodd">
        <rect id="Kopf-Rückseite" fill-opacity="0.02" fill="#FFFFFF" x="74" y="0" width="97" height="120"></rect>
        <rect id="linke-Schulter-hinten" fill-opacity="0.02" fill="#FFFFFF" x="41" y="120" width="82" height="53"></rect>
        <rect id="linker-Oberschenkel-hinten" fill-opacity="0.02" fill="#FFFFFF" x="67" y="338" width="56" height="136"></rect>
        <rect id="linker-Unterschenkel-hinten" fill-opacity="0.02" fill="#FFFFFF" x="77" y="474" width="46" height="136"></rect>
        <rect id="Fuß-links-hinten" fill-opacity="0.02" fill="#FFFFFF" transform="translate(100.000000, 628.000000) scale(1, -1) translate(-100.000000, -628.000000) " x="77" y="610" width="46" height="36"></rect>
        <rect id="rechter-Oberschenkel-hinten" fill-opacity="0.02" fill="#FFFFFF" x="126" y="338" width="56" height="136"></rect>
        <rect id="rechter-Unterschenkel-hinten" fill-opacity="0.02" fill="#FFFFFF" x="123" y="474" width="46" height="136"></rect>
        <rect id="Fuß-rechts-hinten" fill-opacity="0.02" fill="#FFFFFF" transform="translate(146.000000, 628.000000) scale(1, -1) translate(-146.000000, -628.000000) " x="123" y="610" width="46" height="36"></rect>
        <rect id="linke-Hand" fill-opacity="0.02" fill="#FFFFFF" transform="translate(29.195741, 335.805863) rotate(11.000000) translate(-29.195741, -335.805863) " x="6.1957409" y="303.805863" width="46" height="64"></rect>
        <rect id="rechte-Hand" fill-opacity="0.02" fill="#FFFFFF" transform="translate(215.000000, 336.000000) scale(-1, 1) rotate(11.000000) translate(-215.000000, -336.000000) " x="192" y="304" width="46" height="64"></rect>
        <rect id="rechte-Schulter-hinten" fill-opacity="0.02" fill="#FFFFFF" x="123" y="120" width="82" height="53"></rect>
        <rect id="Rücken" fill-opacity="0.02" fill="#FFFFFF" x="82" y="173" width="82" height="115"></rect>
        <rect id="Hintern" fill-opacity="0.02" fill="#FFFFFF" transform="translate(124.500000, 313.000000) scale(1, -1) translate(-124.500000, -313.000000) " x="67" y="288" width="115" height="50"></rect>
        <path d="M82,173 L82,250 L72.5561853,250 L60.1150561,308.534595 L27.8361853,301.673509 L44.8849439,221.465405 L48.9991853,222.34 L49,173 L82,173 Z" id="linker-Arm-Rückseite" fill-opacity="0.02" fill="#FFFFFF"></path>
        <path d="M220.163815,173 L220.163815,250 L210.72,250 L198.278871,308.534595 L166,301.673509 L183.048759,221.465405 L187.163,222.34 L187.163815,173 L220.163815,173 Z" id="rechter-Arm-Rückseite" fill-opacity="0.02" fill="#FFFFFF" transform="translate(193.081907, 240.767297) scale(-1, 1) translate(-193.081907, -240.767297) "></path>
        
        <g id="653-female-back">
            <g transform="translate(10.000000, 0.000000)" id="Path" stroke="#979797">
                <path d="M21.4639,341.3 C21.4639,341.3 15.7639,355.5 14.4639,359.9"></path>
                <path d="M28.4639,339.7 C28.4639,339.7 23.9639,352 23.2639,354.5"></path>
                <path d="M14.564,339.2 C14.564,339.2 8.96396,355.7 8.56396,357.8"></path>
                <path d="M109.864,336 C109.864,336 112.664,378.8 112.664,385.4 C112.664,392 107.464,488.3 107.464,497.9 C107.464,507.5 112.664,533.9 112.664,549.5 C112.664,565.1 109.764,611 110.264,615.6 C110.664,620.2 112.864,634.4 112.664,638.7 C112.564,640.3 108.764,646 101.764,646 C95.9639,646 76.2639,639 74.4639,636.7 C71.5639,632.7 75.8639,628.2 82.8639,624.4 C83.9639,623.8 87.7639,621 88.3639,618.6 C89.2639,615.3 89.5639,611 88.8639,605 C87.9639,598 85.7639,582.8 83.2639,572.7 C80.7639,562.6 72.5639,528.6 71.4639,516.5 C70.1639,504.4 71.8639,478 72.4639,470.4 C73.0639,462.8 71.6639,449.9 70.4639,440.3 C69.3639,430.7 63.9638,411.4 58.3638,376.5 C52.7638,341.6 53.2638,329.9 56.1638,305.7 C58.9638,281.5 72.1639,256.3 74.0639,252.8 C76.0639,249.3 76.3639,244.6 76.5639,239.7 C76.7639,234.8 74.8639,199.1 73.8639,195.3 C72.8639,191.5 67.2639,170.8 66.9639,166.7 C66.9639,166.7 69.9639,182.2 69.2639,191.9 C69.0639,195.2 65.3638,217.3 64.6638,225 C63.9638,232.7 62.3638,243 61.3638,248.9 C60.4638,254.9 55.8638,268.9 53.8638,275.1 C51.8638,281.4 43.3638,301.8 42.5638,304.9 C41.7638,308 41.8638,312 41.8638,312 C41.5638,318 39.0638,330.1 38.0638,333.5 C37.0638,336.9 29.9639,352.8 29.0639,354.6 C28.1639,356.4 27.0638,357.4 24.7638,357.2 C22.4638,357 23.1639,354.3 23.1639,354.3 C22.5639,357.2 21.0639,360.8 20.4639,361.6 C19.2638,363.1 17.1638,362.9 16.3638,362.6 C14.6638,362 14.5638,359.4 14.5638,359.4 C14.5638,359.4 14.3638,360.9 13.5638,361.4 C12.1638,362.3 10.3638,362 9.4638,361.2 C8.46385,360.3 8.56385,357.5 8.56385,357.5 C7.56385,358.5 6.06385,357.8 6.06385,357.8 C5.06385,357.3 4.86385,356.4 4.86385,355.1 C4.86385,353.8 4.96385,348.5 6.76385,341.3 C8.56385,334.1 13.0638,326.3 13.0638,326.3 C12.0638,327.9 9.9638,330.7 8.46385,333.1 C6.96385,335.5 3.66385,338.5 1.16385,336.4 C-1.336151,334.3 0.86385,330.6 1.56385,329.3 C2.26385,328 9.0638,314.9 11.0638,312.2 C12.9638,309.6 22.3638,302.7 22.3638,302.7 C22.9638,302.1 24.8638,299.7 24.8638,295.5 C24.8638,291.3 27.8639,275.9 30.1639,262.1 C32.4639,248.2 39.6638,228.9 40.5638,224.3 C41.4638,219.7 41.8638,212 43.7638,184.3 C45.6638,156.6 47.4638,145.9 54.3638,136.2 C61.2638,126.5 66.7639,125.7 77.0639,123.7 C87.3639,121.7 94.9638,115.9 95.6638,115.1 C96.3638,114.3 96.1638,111.8 96.1638,109 L95.9639,91.2"></path>
                <path d="M97.6639,475.5 C97.6639,475.5 93.3639,470.6 90.4639,470.5 C87.5639,470.4 84.7639,472.2 83.9639,473"></path>
                <path d="M82.1639,75.9999 C82.1639,75.9999 78.2639,77.6999 75.5639,69.8999 C74.1639,65.8999 72.6639,59.0999 74.6639,56.0999 C75.4639,54.9999 77.9639,54.2999 79.0639,55.2999"></path>
                <path d="M82.1639,122.4 C82.1639,122.4 86.4639,132.2 89.1639,141.2 C91.8639,150.1 93.6639,168 90.2639,174.5 C86.8639,181 82.5639,187 71.9639,188.2"></path>
                <path d="M45.3638,239.8 C45.3638,239.8 46.8638,242.4 50.2638,242.1 C53.6638,241.9 56.0638,239.8 56.0638,239.8"></path>
                <path d="M136.064,18.0999 C141.364,21.4999 146.364,28.0999 146.564,37.2999 C146.764,46.5999 147.864,53.1999 145.464,66.7999 C143.064,80.3999 140.064,82.9999 137.264,85.7999 C134.064,88.9999 128.264,92.9999 123.364,94.6999 C120.264,95.7999 115.564,96.2999 113.164,96.2999 L112.564,96.2999 C110.164,96.2999 105.364,95.7999 102.364,94.6999 C97.4638,92.8999 91.6638,88.8999 88.4638,85.7999 C85.6638,83.0999 82.7638,80.3999 80.2638,66.7999 C77.7638,53.1999 78.9638,46.5999 79.1638,37.2999 C79.3638,27.9999 84.4638,21.3999 89.7638,17.9999"></path>
                <path d="M204.264,341.4 C204.264,341.4 209.964,355.6 211.264,360"></path>
                <path d="M197.264,339.8 C197.264,339.8 201.764,352.1 202.464,354.6"></path>
                <path d="M211.164,339.2 C211.164,339.2 216.764,355.7 217.164,357.8"></path>
                <path d="M115.964,336 C115.964,336 113.164,378.8 113.164,385.4 C113.164,392 118.364,488.3 118.364,497.8 C118.364,507.4 113.164,533.8 113.164,549.4 C113.164,565 116.064,610.9 115.564,615.5 C115.164,620.1 112.964,634.3 113.164,638.6 C113.264,640.2 117.064,645.9 124.064,645.9 C129.864,645.9 149.564,638.9 151.364,636.6 C154.264,632.6 149.964,628.1 142.964,624.3 C141.864,623.7 138.064,620.9 137.464,618.5 C136.564,615.2 136.264,610.9 136.964,604.9 C137.864,597.9 140.064,582.7 142.564,572.6 C145.064,562.5 153.264,528.5 154.364,516.4 C155.464,504.3 153.764,477.9 153.264,470.3 C152.664,462.7 154.064,449.8 155.264,440.2 C156.364,430.6 161.764,411.3 167.364,376.4 C172.964,341.5 172.464,329.8 169.564,305.6 C166.764,281.4 153.564,256.2 151.664,252.7 C149.764,249.2 149.364,244.5 149.164,239.6 C148.964,234.7 150.864,199 151.864,195.2 C152.864,191.4 158.464,170.7 158.764,166.6 C158.764,166.6 155.764,182.1 156.464,191.8 C156.664,195.1 160.364,217.2 161.064,224.9 C161.764,232.6 163.364,242.9 164.364,248.8 C165.264,254.8 169.864,268.8 171.864,275 C173.864,281.3 182.364,301.7 183.164,304.8 C183.964,307.9 183.864,311.9 183.864,311.9 C184.164,317.9 186.664,330 187.664,333.4 C188.564,336.8 195.764,352.7 196.664,354.5 C197.564,356.3 198.664,357.3 200.964,357.1 C203.264,356.9 202.564,354.2 202.564,354.2 C203.164,357.1 204.664,360.7 205.264,361.5 C206.464,363 208.564,362.8 209.364,362.5 C211.064,361.9 211.164,359.3 211.164,359.3 C211.164,359.3 211.364,360.8 212.164,361.3 C213.564,362.2 215.364,361.9 216.264,361.1 C217.264,360.2 217.164,357.4 217.164,357.4 C218.164,358.4 219.664,357.7 219.664,357.7 C220.664,357.2 220.864,356.3 220.864,355 C220.864,353.7 220.764,348.4 218.964,341.2 C217.164,334 212.664,326.2 212.664,326.2 C213.664,327.8 215.764,330.6 217.264,333 C218.764,335.4 222.064,338.4 224.564,336.3 C227.064,334.2 224.864,330.5 224.164,329.2 C223.464,327.9 216.664,314.8 214.664,312.1 C212.764,309.5 203.364,302.6 203.364,302.6 C202.764,302 200.864,299.6 200.864,295.4 C200.864,291.2 197.864,275.8 195.564,262 C193.264,248.1 186.064,228.8 185.164,224.2 C184.264,219.6 183.864,211.9 181.964,184.2 C180.064,156.5 178.264,145.8 171.364,136.1 C164.464,126.4 158.964,125.6 148.664,123.6 C138.364,121.6 130.764,115.8 130.064,115 C129.364,114.2 129.564,111.7 129.564,108.9 L129.764,91.0999"></path>
                <path d="M128.164,475.6 C128.164,475.6 132.464,470.7 135.364,470.6 C138.264,470.5 141.064,472.3 141.864,473.1"></path>
                <path d="M113.164,0.899902 C118.164,0.899902 125.664,1.399902 131.064,5.7999 C135.564,9.4999 136.064,15.6999 136.064,18.0999 C136.064,20.4999 136.064,32.399902 128.864,36.6999 C120.664,41.6999 105.164,41.5999 96.9639,36.6999 C89.7639,32.2999 89.7639,20.399902 89.7639,18.0999 C89.7639,15.7999 90.1639,9.4999 94.7639,5.7999 C100.164,1.399902 107.664,0.899902 112.664,0.899902 L113.164,0.899902 Z"></path>
                <path d="M143.664,76.0999 C143.664,76.0999 147.564,77.7999 150.264,69.9999 C151.664,65.9999 153.164,59.1999 151.164,56.1999 C150.364,55.0999 147.864,54.3999 146.764,55.3999"></path>
                <path d="M151.064,207.2 C139.864,208.1 117.364,206.1 113.164,206.1 L112.564,206.1 C108.464,206.1 85.8638,208.1 74.6638,207.2"></path>
                <path d="M166.464,289.8 C159.864,288.8 150.764,288.8 144.164,288.8 C133.864,288.8 117.764,289.8 113.164,289.8 L112.564,289.8 C107.964,289.8 91.8639,288.8 81.5639,288.8 C74.9639,288.8 65.8639,288.8 59.2639,289.8"></path>
                <path d="M169.564,305.9 C166.364,312.2 154.864,324.2 146.164,328 C137.064,332 131.164,334.6 113.164,336.3 L112.564,336.3 C94.5638,334.6 88.6638,332 79.5638,328 C70.7638,324.2 59.2638,312.2 56.1638,305.9"></path>
                <path d="M136.664,119.5 C136.664,119.5 130.164,128.5 126.564,130.5 C122.964,132.5 117.064,133.4 113.264,133.4 L112.664,133.4 C108.864,133.4 102.964,132.5 99.364,130.5 C95.7639,128.5 89.2639,119.5 89.2639,119.5"></path>
                <path d="M143.664,122.5 C143.664,122.5 139.364,132.3 136.664,141.3 C133.964,150.2 132.164,168.1 135.564,174.6 C138.964,181.1 143.264,187.1 153.864,188.3"></path>
                <path d="M180.364,239.8 C180.364,239.8 178.864,242.4 175.464,242.1 C172.064,241.8 169.664,239.8 169.664,239.8"></path>
                <path d="M112.564,206 C112.564,206 112.564,233.2 112.564,244.5"></path>
            </g>
        </g>
    </g>
</svg>