<?xml version="1.0" encoding="UTF-8"?>
<svg width="244px" height="655px" viewBox="0 0 244 655" version="1.1" xmlns="http://www.w3.org/2000/svg" xmlns:xlink="http://www.w3.org/1999/xlink">
    <g id="Page-1" stroke="none" stroke-width="1" fill="none" fill-rule="evenodd">
        <rect id="Kopf" fill-opacity="0.02" fill="#FFFFFF" x="74" y="0" width="97" height="120"></rect>
        <rect id="rechte-Schulter" fill-opacity="0.02" fill="#FFFFFF" x="41" y="120" width="82" height="26"></rect>
        <rect id="rechter-Oberschenkel" fill-opacity="0.02" fill="#FFFFFF" x="67" y="338" width="56" height="136"></rect>
        <rect id="rechtes-Schienbein" fill-opacity="0.02" fill="#FFFFFF" x="77" y="474" width="46" height="136"></rect>
        <rect id="rechter-Fuß" fill-opacity="0.02" fill="#FFFFFF" transform="translate(100.000000, 628.000000) scale(1, -1) translate(-100.000000, -628.000000) " x="77" y="610" width="46" height="36"></rect>
        <rect id="linker-Oberschenkel" fill-opacity="0.02" fill="#FFFFFF" x="126" y="338" width="56" height="136"></rect>
        <rect id="linkes-Schienbein" fill-opacity="0.02" fill="#FFFFFF" x="123" y="474" width="46" height="136"></rect>
        <rect id="linker-Fuß" fill-opacity="0.02" fill="#FFFFFF" transform="translate(146.000000, 628.000000) scale(1, -1) translate(-146.000000, -628.000000) " x="123" y="610" width="46" height="36"></rect>
        <rect id="rechte-Hand" fill-opacity="0.02" fill="#FFFFFF" transform="translate(29.195741, 335.805863) rotate(11.000000) translate(-29.195741, -335.805863) " x="6.1957409" y="303.805863" width="46" height="64"></rect>
        <rect id="linke-Hand" fill-opacity="0.02" fill="#FFFFFF" transform="translate(215.000000, 336.000000) scale(-1, 1) rotate(11.000000) translate(-215.000000, -336.000000) " x="192" y="304" width="46" height="64"></rect>
        <rect id="linke-Schulter" fill-opacity="0.02" fill="#FFFFFF" x="123" y="120" width="82" height="26"></rect>
        <rect id="Bauch" fill-opacity="0.02" fill="#FFFFFF" x="82" y="209" width="82" height="79"></rect>
        <rect id="Brust" fill-opacity="0.02" fill="#FFFFFF" x="82" y="146" width="82" height="63"></rect>
        <rect id="Geschlechtsteile" fill-opacity="0.02" fill="#FFFFFF" transform="translate(124.500000, 313.000000) scale(1, -1) translate(-124.500000, -313.000000) " x="67" y="288" width="115" height="50"></rect>
        <path d="M82,145 L82,238 L72.6211853,238 L60.1150561,308.534595 L27.8361853,300.310118 L44.8849439,204.163579 L48.9991853,205.212 L49,145 L82,145 Z" id="rechter-Arm" fill-opacity="0.02" fill="#FFFFFF"></path>
        <path d="M220.163815,145 L220.163815,238 L210.744,238 L198.278871,308.534595 L166,300.283144 L183.048759,203.821271 L187.163,204.873 L187.163815,145 L220.163815,145 Z" id="linker-Arm" fill-opacity="0.02" fill="#FFFFFF" transform="translate(193.081907, 226.767297) scale(-1, 1) translate(-193.081907, -226.767297) "></path>
        
        <g id="653-female-front">
            <path d="M117.364,58.5999 C117.364,58.5999 118.164,64.0999 118.064,65.9999 C117.964,67.8999 117.364,70.7999 117.364,70.7999" id="Path" stroke="#979797"></path>
            <path d="M105.9641,98.3999 C105.9641,98.3999 105.9641,108 105.9641,110.8 C105.9641,113.6 106.1641,116.1 105.4641,116.9 C104.7641,117.7 97.1641,123.5 86.8641,125.5 C76.5641,127.5 70.9641,128.3 64.1641,138 C57.3641,147.7 55.4641,158.4 53.5641,186.1 C51.6641,213.8 51.2641,221.6 50.3641,226.1 C49.4641,230.6 42.1641,250 39.9641,263.9 C37.6641,277.8 34.6641,293.1 34.6641,297.3 C34.6641,301.5 32.6641,303.9 32.1641,304.5 C32.1641,304.5 22.7641,311.4 20.8641,314 C18.96412,316.6 12.16412,329.8 11.36412,331.1 C10.66412,332.4 8.364122,336.1 10.96412,338.2 C13.46412,340.3 16.76411,337.4 18.26411,334.9 C19.7641,332.5 21.8641,329.7 22.8641,328.1 C22.8641,328.1 18.36413,335.9 16.56413,343.1 C14.76413,350.3 14.66413,355.6 14.66413,356.9 C14.66413,358.2 14.96412,359.2 15.86412,359.6 C15.86412,359.6 17.36412,360.3 18.36412,359.3 C18.36412,359.3 18.16411,362.2 19.2641,363 C20.1641,363.8 22.0641,364.1 23.3641,363.2 C24.0641,362.7 24.3641,361.2 24.3641,361.2 C24.3641,361.2 24.4641,363.8 26.1641,364.4 C27.0641,364.7 29.1641,364.9 30.2641,363.4 C30.9641,362.6 32.3641,359 32.9641,356.1 C32.9641,356.1 32.1641,358.8 34.5641,359 C36.8641,359.2 37.9641,358.2 38.8641,356.4 C39.7641,354.6 46.9641,338.6 47.8641,335.3 C48.7641,331.9 51.3641,319.8 51.6641,313.8 C51.6641,313.8 51.5641,309.8 52.3641,306.7 C53.1641,303.6 61.6641,283.2 63.6641,276.9 C65.6641,270.6 70.2641,256.6 71.1641,250.7 C72.0641,244.7 73.7641,234.5 74.4641,226.8 C75.1641,219.1 78.8641,193.7 79.5641,190.5" id="Path" stroke="#979797"></path>
            <path d="M31.2642,343.1 C31.2642,343.1 25.5642,357.3 24.2642,361.7" id="Path" stroke="#979797"></path>
            <path d="M38.2639,341.4 C38.2639,341.4 33.764,353.7 33.064,356.2" id="Path" stroke="#979797"></path>
            <path d="M24.3643,340.9 C24.3643,340.9 18.76426,357.4 18.36426,359.5" id="Path" stroke="#979797"></path>
            <path d="M81.8643,127.8 C81.8643,127.8 80.9643,155.8 79.6643,161.4 C78.3643,167 75.9643,178 77.6643,184.5 C79.3643,191 81.4643,196.2 85.8643,198.8 C90.2643,201.5 101.5643,200.9 105.1643,200.1" id="Path" stroke="#979797"></path>
            <path d="M83.6643,197.1 C83.6643,197.1 86.5643,236.6 86.3643,241.5 C86.1643,246.4 85.8643,251.1 83.8643,254.6 C81.8643,258.1 68.7643,283.4 65.9643,307.5 C63.1643,331.6 62.5643,343.5 68.1643,378.3 C73.7643,413.1 79.1643,432.5 80.2643,442.1 C81.3643,451.7 82.7643,464.6 82.2643,472.2 C81.6643,479.8 80.0643,506.2 81.1643,518.3 C82.2643,530.4 90.4643,564.4 92.9643,574.5 C95.4643,584.6 98.8643,599.8 98.5643,606.8 C98.2643,613.8 97.1643,620 91.8643,629 C86.5643,638 81.7643,643.7 85.3643,646 C87.8643,647.5 90.1643,644.7 90.1643,644.7 C90.1643,644.7 88.8643,648.8 91.6643,649.5 C94.9643,650.3 95.8643,646.7 95.8643,646.7 C95.8643,646.7 94.4643,651.3 97.9643,651.4 C101.4643,651.5 102.2643,647.9 102.2643,647.9 C102.2643,647.9 101.0643,651.9 102.6643,653 C103.3643,653.5 106.0643,653.8 106.7643,653.1 C109.164,650.5 111.064,643.7 111.064,643.7 C111.064,643.7 108.2643,654.4 114.064,654.4 C121.064,654.4 122.164,650 122.164,646.3 C122.164,644.4 120.264,622 119.864,617.5 C119.464,612.9 122.264,567.1 122.264,551.4 C122.264,535.7 117.064,509.3 117.064,499.8 C117.064,490.3 122.264,394 122.264,387.4 C122.264,380.8 119.864,327.9 119.864,327.9" id="Path" stroke="#979797"></path>
            <path d="M93.6641,472.2 C93.6641,472.2 97.964,477.1 100.864,477.2 C103.764,477.3 106.564,475.5 107.364,474.7" id="Path" stroke="#979797"></path>
            <path d="M117.364,133.4 C113.764,132 105.1639,129.8 99.4639,130.1" id="Path" stroke="#979797"></path>
            <path d="M120.064,135.4 C120.064,135.4 121.564,135.6 122.364,136.5" id="Path" stroke="#979797"></path>
            <path d="M91.8641,77.6999 C91.8641,77.6999 87.9641,79.3999 85.2641,71.5999 C83.8641,67.5999 82.3641,60.7999 84.3641,57.7999 C85.1641,56.6999 87.6641,55.9999 88.7641,56.9999" id="Path" stroke="#979797"></path>
            <path d="M112.964,53.6998 C112.964,53.6998 109.164,50.6998 104.5642,50.6998 C99.9642,50.6998 96.7642,53.2998 96.7642,53.2998" id="Path" stroke="#979797"></path>
            <path d="M113.364,60.0999 C113.364,60.0999 111.264,56.5999 106.1639,56.5999 C101.0639,56.5999 98.9639,59.7999 98.9639,59.7999" id="Path" stroke="#979797"></path>
            <path d="M109.264,59.5999 C109.264,61.2567 107.921,62.5999 106.2642,62.5999 C104.6073,62.5999 103.2642,61.2567 103.2642,59.5999 C103.2642,57.943 104.6073,56.5999 106.2642,56.5999 C107.921,56.5999 109.264,57.943 109.264,59.5999 Z" id="Path" stroke="#979797" fill="#979797" fill-rule="nonzero"></path>
            <path d="M122.364,105.2 C124.764,105.2 127.464,105 129.764,104.5 C132.064,104 136.164,100.9999 138.764,98.3999 C141.464,95.7999 147.764,90.0999 149.664,86.6999 C151.564,83.2999 152.164,82.1999 154.564,68.4999 C157.064,54.8999 155.864,48.2999 155.664,38.9999 C155.464,29.6999 149.864,21.4999 139.964,16.2999 C131.764,11.99985 124.664,11.59985 122.364,11.59985 L122.264,11.59985 C119.964,11.59985 112.864,11.99985 104.564,16.2999 C94.664,21.4999 89.064,29.6999 88.864,38.9999 C88.664,48.2999 87.564,54.8999 89.964,68.4999 C92.464,82.0999 92.964,83.2999 94.864,86.6999 C96.764,90.0999 103.164,95.7999 105.764,98.3999 C108.364,100.9999 112.464,104 114.764,104.5 C117.264,105 119.964,105.2 122.364,105.2 Z" id="Path" stroke="#979797"></path>
            <path d="M129.264,78.2999 C129.264,78.2999 128.564,77.5999 127.564,77.7999 C126.564,77.9999 125.664,78.4999 124.964,79.4999 C124.264,80.4999 123.064,80.3999 122.464,80.3999 L122.364,80.3999 C121.764,80.3999 120.464,80.4999 119.764,79.4999 C119.064,78.4999 118.164,77.9999 117.164,77.7999 C116.164,77.5999 115.464,78.2999 115.464,78.2999" id="Path" stroke="#979797"></path>
            <path d="M131.764,87.2998 C131.364,86.9998 130.364,87.1998 129.264,87.2998 C128.164,87.3998 123.664,87.6998 122.764,87.6998 L122.364,87.6998 C121.464,87.6998 116.564,87.4998 115.464,87.2998 C114.364,87.0998 113.364,86.9998 112.964,87.2998" id="Path" stroke="#979797"></path>
            <path d="M126.964,91.3999 C126.264,91.5999 125.064,93.9999 122.464,93.8999 L122.364,93.8999 C119.664,94.0999 118.364,91.5999 117.764,91.3999" id="Path" stroke="#979797"></path>
            <path d="M138.764,98.3999 C138.764,98.3999 138.764,108 138.764,110.8 C138.764,113.6 138.564,116.1 139.264,116.9 C139.964,117.7 147.564,123.5 157.864,125.5 C168.164,127.5 173.764,128.3 180.564,138 C187.364,147.7 189.264,158.4 191.164,186.1 C193.064,213.8 193.464,221.6 194.364,226.1 C195.264,230.7 202.564,250 204.764,263.9 C207.064,277.8 210.064,293.1 210.064,297.3 C210.064,301.5 212.064,303.9 212.564,304.5 C212.564,304.5 221.964,311.4 223.864,314 C225.764,316.6 232.564,329.8 233.364,331.1 C234.064,332.4 236.364,336.1 233.764,338.2 C231.264,340.3 227.964,337.4 226.464,334.9 C224.964,332.5 222.864,329.7 221.864,328.1 C221.864,328.1 226.364,335.9 228.164,343.1 C229.964,350.3 230.064,355.6 230.064,356.9 C230.064,358.2 229.764,359.2 228.864,359.6 C228.864,359.6 227.364,360.3 226.364,359.3 C226.364,359.3 226.564,362.2 225.464,363 C224.564,363.8 222.664,364.1 221.364,363.2 C220.664,362.7 220.364,361.2 220.364,361.2 C220.364,361.2 220.264,363.8 218.564,364.4 C217.664,364.7 215.564,364.9 214.464,363.4 C213.764,362.6 212.364,359 211.764,356.1 C211.764,356.1 212.564,358.8 210.164,359 C207.864,359.2 206.764,358.2 205.864,356.4 C204.964,354.6 197.764,338.6 196.864,335.3 C195.964,331.9 193.364,319.8 193.064,313.8 C193.064,313.8 193.164,309.8 192.364,306.7 C191.564,303.6 183.064,283.2 181.064,276.9 C179.064,270.6 174.464,256.6 173.564,250.7 C172.664,244.7 170.964,234.5 170.264,226.8 C169.564,219.1 165.864,193.7 165.164,190.5" id="Path" stroke="#979797"></path>
            <path d="M213.464,343.1 C213.464,343.1 219.164,357.3 220.464,361.7" id="Path" stroke="#979797"></path>
            <path d="M206.464,341.4 C206.464,341.4 210.964,353.7 211.664,356.2" id="Path" stroke="#979797"></path>
            <path d="M220.464,340.9 C220.464,340.9 226.064,357.4 226.464,359.5" id="Path" stroke="#979797"></path>
            <path d="M162.864,127.8 C162.864,127.8 163.764,155.8 165.064,161.4 C166.364,167 168.764,178 167.064,184.5 C165.364,191 163.264,196.2 158.864,198.8 C154.464,201.5 143.164,200.9 139.564,200.1" id="Path" stroke="#979797"></path>
            <path d="M161.064,197.1 C161.064,197.1 158.164,236.6 158.364,241.5 C158.564,246.4 158.864,251.1 160.864,254.6 C162.864,258.1 175.964,283.4 178.764,307.5 C181.564,331.6 182.164,343.5 176.564,378.3 C170.964,413.1 165.564,432.5 164.464,442.1 C163.364,451.7 161.964,464.6 162.464,472.2 C163.064,479.8 164.664,506.2 163.564,518.3 C162.464,530.4 154.264,564.4 151.764,574.5 C149.264,584.6 145.864,599.8 146.164,606.8 C146.464,613.8 147.564,620 152.864,629 C158.164,638 162.964,643.7 159.364,646 C156.864,647.5 154.564,644.7 154.564,644.7 C154.564,644.7 155.864,648.8 153.064,649.5 C149.764,650.3 148.864,646.7 148.864,646.7 C148.864,646.7 150.264,651.3 146.764,651.4 C143.264,651.5 142.464,647.9 142.464,647.9 C142.464,647.9 143.664,651.9 142.064,653 C141.364,653.5 138.664,653.8 137.964,653.1 C135.564,650.5 133.664,643.7 133.664,643.7 C133.664,643.7 136.464,654.4 130.664,654.4 C123.664,654.4 122.564,650 122.564,646.3 C122.564,644.4 124.464,622 124.864,617.5 C125.264,612.9 122.464,567.1 122.464,551.4 C122.464,535.7 127.664,509.3 127.664,499.8 C127.664,490.2 122.464,394 122.464,387.4 C122.464,380.8 124.864,327.9 124.864,327.9" id="Path" stroke="#979797"></path>
            <path d="M151.064,472.2 C151.064,472.2 146.764,477.1 143.864,477.2 C140.964,477.3 138.164,475.5 137.364,474.7" id="Path" stroke="#979797"></path>
            <path d="M153.564,127.8 C153.564,127.8 155.464,150.1 145.064,159.6 C134.664,169 127.064,170.2 122.564,170.2 L122.264,170.2 C117.764,170.2 109.864,169 99.4642,159.6 C89.0642,150.2 90.9642,127.8 90.9642,127.8" id="Path" stroke="#979797"></path>
            <path d="M127.364,133.4 C130.964,132 139.564,129.8 145.264,130.1" id="Path" stroke="#979797"></path>
            <path d="M155.364,63.4999 C156.064,56.3999 152.464,41.3999 150.264,36.1999 C148.064,30.9999 143.064,27.4999 136.464,27.4999 C130.064,27.4999 124.364,28.4999 122.564,28.4999 L122.364,28.4999 C120.564,28.4999 114.664,27.4999 108.2643,27.4999 C101.6643,27.4999 96.7644,31.0999 94.4644,36.1999 C92.1644,41.2999 88.6643,56.3999 89.3643,63.4999" id="Path" stroke="#979797"></path>
            <path d="M143.764,18.6999 C145.964,16.4999 144.764,11.19985 140.264,7.49985 C134.764,3.099854 127.464,2.599854 122.464,2.599854 L122.364,2.599854 C117.364,2.599854 109.864,3.099854 104.4641,7.49985 C99.9641,11.19985 98.7641,16.5999 100.9641,18.6999" id="Path" stroke="#979797"></path>
            <path d="M152.764,77.6999 C152.764,77.6999 156.664,79.3999 159.364,71.5999 C160.764,67.5999 162.264,60.7999 160.264,57.7999 C159.464,56.6999 156.964,55.9999 155.864,56.9999" id="Path" stroke="#979797"></path>
            <path d="M131.764,53.6998 C131.764,53.6998 135.564,50.6998 140.164,50.6998 C144.764,50.6998 147.964,53.2998 147.964,53.2998" id="Path" stroke="#979797"></path>
            <path d="M131.364,60.0999 C131.364,60.0999 133.464,56.5999 138.564,56.5999 C143.664,56.5999 145.764,59.7999 145.764,59.7999" id="Path" stroke="#979797"></path>
            <path d="M141.464,59.5999 C141.464,61.2567 140.121,62.5999 138.464,62.5999 C136.807,62.5999 135.464,61.2567 135.464,59.5999 C135.464,57.943 136.807,56.5999 138.464,56.5999 C140.121,56.5999 141.464,57.943 141.464,59.5999 Z" id="Path" stroke="#979797" fill="#979797" fill-rule="nonzero"></path>
            <path d="M160.264,208.8 C149.064,209.7 126.664,207.7 122.464,207.7 L122.364,207.7 C118.264,207.7 95.6639,209.7 84.4639,208.8" id="Path" stroke="#979797"></path>
            <path d="M173.964,285.8 C168.064,285.8 153.964,288.1 148.564,289.5 C143.164,290.9 127.164,291.5 122.564,291.5 L122.364,291.5 C117.764,291.5 101.5642,290.9 96.1642,289.5 C90.7642,288.1 76.6642,285.8 70.7642,285.8" id="Path" stroke="#979797"></path>
            <path d="M178.764,307.5 C166.964,306.7 160.364,308 151.564,311.9 C142.464,315.9 130.964,324.3 127.564,326.2 C124.164,328.1 123.764,327.4 122.364,327.4 L122.264,327.4 C120.864,327.4 120.364,328 116.964,326.2 C113.564,324.4 102.0642,315.9 92.9642,311.9 C84.1642,308.1 77.5642,306.7 65.7642,307.5" id="Path" stroke="#979797"></path>
            <path d="M124.764,261 C124.764,261.341 124.564,261.704 124.131,262.002 C123.699,262.3 123.076,262.5 122.364,262.5 C121.651,262.5 121.028,262.3 120.597,262.002 C120.164,261.704 119.964,261.341 119.964,261 C119.964,260.659 120.164,260.296 120.597,259.997 C121.028,259.7 121.651,259.5 122.364,259.5 C123.076,259.5 123.699,259.7 124.131,259.997 C124.564,260.296 124.764,260.659 124.764,261 Z" id="Path" stroke="#979797" fill="#979797" fill-rule="nonzero"></path>
        </g>
    </g>
</svg>