<?xml version="1.0" encoding="UTF-8" standalone="no"?>
<!DOCTYPE svg PUBLIC "-//W3C//DTD SVG 1.1//EN" "http://www.w3.org/Graphics/SVG/1.1/DTD/svg11.dtd">
<svg width="100%" height="100%" viewBox="0 0 227 653" version="1.1" xmlns="http://www.w3.org/2000/svg" xmlns:xlink="http://www.w3.org/1999/xlink" xml:space="preserve" xmlns:serif="http://www.serif.com/" style="fill-rule:evenodd;clip-rule:evenodd;stroke-linejoin:round;stroke-miterlimit:2;">
    <path d="M91.102,16.437C83.67,21.684 79.537,28.937 79.364,36.989C79.236,42.952 78.741,47.808 79.028,54.098C78.683,54.021 78.309,54.001 77.926,54.035C76.744,54.139 75.508,54.752 74.96,55.506L74.954,55.514C74.099,56.796 73.819,58.709 73.914,60.824C74.051,63.862 74.938,67.325 75.792,69.764C77.216,73.878 78.999,75.456 80.383,76.036C81.192,76.375 81.892,76.391 82.374,76.33C83.462,81.296 84.118,82.601 85.428,84.944C87.344,88.373 93.788,94.131 96.41,96.753C96.428,96.771 96.446,96.789 96.464,96.807L96.464,108.8C96.464,110.465 96.537,112.022 96.444,113.173C96.393,113.81 96.318,114.308 96.088,114.571C95.399,115.358 87.906,121.041 77.769,123.009C67.32,125.038 61.652,125.873 54.754,135.713C47.918,145.465 45.975,156.216 44.065,184.066C42.168,211.721 41.772,219.509 40.874,224.002C39.973,228.504 32.672,247.913 30.47,261.82C28.165,275.753 25.164,291.09 25.164,295.3C25.164,299.208 23.355,301.486 22.82,302.132C22.077,302.681 13.298,309.19 11.46,311.705C9.556,314.31 2.74,327.535 1.938,328.838L1.924,328.863C1.485,329.678 0.458,331.4 0.282,333.117C0.154,334.372 0.457,335.623 1.646,336.586C2.801,337.554 4.101,337.611 5.359,337.133C7.088,336.475 8.736,334.749 9.69,333.162C9.821,332.951 9.958,332.738 10.097,332.522C8.963,335.082 7.804,338.079 7.079,340.979C5.263,348.242 5.164,353.589 5.164,354.9C5.164,356.437 5.597,357.584 6.661,358.057C6.652,358.053 7.779,358.561 8.857,358.192C8.875,358.719 8.935,359.39 9.103,359.984C9.271,360.578 9.552,361.093 9.955,361.393C10.992,362.298 13.161,362.641 14.649,361.611L14.652,361.609C14.873,361.45 15.068,361.217 15.23,360.953C15.264,361.042 15.3,361.131 15.34,361.22C15.657,361.924 16.18,362.583 16.997,362.871L17.002,362.873C18.028,363.215 20.399,363.403 21.656,361.711C22.19,361.081 23.115,358.932 23.813,356.658C23.863,356.724 23.919,356.788 23.979,356.848C24.31,357.181 24.797,357.438 25.522,357.498C26.81,357.61 27.76,357.37 28.516,356.866C29.257,356.372 29.817,355.612 30.311,354.624C31.215,352.816 38.442,336.746 39.346,333.432L39.347,333.43C40.252,330.012 42.862,317.854 43.163,311.825L43.164,311.788C43.164,311.788 43.064,307.865 43.848,304.825C44.647,301.728 53.142,281.346 55.14,275.051C57.146,268.733 61.756,254.692 62.658,248.775L62.658,248.775C63.559,242.767 65.261,232.555 65.962,224.845C66.59,217.934 69.639,196.739 70.755,190.21C71.685,192.215 72.792,193.948 74.18,195.337C74.402,198.367 77.056,234.79 76.864,239.48C76.668,244.293 76.394,248.914 74.43,252.352C72.423,255.864 59.277,281.256 56.467,305.442C53.662,329.589 53.059,341.512 58.67,376.379C64.268,411.167 69.667,430.56 70.767,440.157C71.864,449.727 73.263,462.587 72.765,470.164C72.164,477.783 70.564,504.225 71.666,516.345C72.767,528.461 80.975,562.507 83.478,572.62C85.968,582.676 89.363,597.809 89.064,604.779C88.767,611.705 87.678,617.84 82.433,626.746C79.234,632.179 76.222,636.42 75.101,639.441C74.255,641.721 74.454,643.373 76.095,644.421L76.101,644.425C77.546,645.293 78.929,644.936 79.951,644.345C80.109,644.254 80.258,644.157 80.397,644.059C80.351,644.537 80.344,645.075 80.434,645.593C80.619,646.664 81.191,647.647 82.543,647.985L82.544,647.986C84.221,648.392 85.357,647.808 86.102,647.035L86.103,647.05C86.165,647.879 86.437,648.705 87.076,649.252C87.507,649.622 88.108,649.876 88.95,649.9C90.516,649.945 91.599,649.326 92.334,648.57C92.332,648.623 92.332,648.676 92.332,648.73C92.332,649.832 92.617,650.885 93.377,651.41C93.851,651.744 95.116,652.03 96.228,652.011C97.047,651.997 97.772,651.799 98.117,651.454L98.124,651.446C99.18,650.303 100.139,648.383 100.893,646.557C100.878,647.278 100.907,648.011 101.007,648.705C101.342,651.018 102.452,652.9 105.064,652.9C108.025,652.9 109.981,652.132 111.271,650.988C112.415,649.973 113.042,648.649 113.364,647.249C113.686,648.649 114.313,649.973 115.457,650.988C116.747,652.132 118.703,652.9 121.664,652.9C124.276,652.9 125.385,651.018 125.72,648.705C125.821,648.01 125.85,647.277 125.834,646.556C126.588,648.382 127.547,650.302 128.597,651.439L128.603,651.446C128.956,651.799 129.681,651.997 130.5,652.011C131.611,652.03 132.877,651.744 133.35,651.41C134.11,650.885 134.396,649.832 134.396,648.73C134.396,648.676 134.395,648.623 134.394,648.57C135.129,649.326 136.212,649.945 137.778,649.9C138.62,649.876 139.221,649.622 139.652,649.252C140.291,648.705 140.563,647.879 140.625,647.05L140.626,647.036C141.371,647.808 142.507,648.392 144.182,647.986L144.184,647.986C145.536,647.647 146.109,646.664 146.294,645.593C146.384,645.075 146.377,644.537 146.33,644.059C146.469,644.157 146.618,644.254 146.776,644.345C147.799,644.936 149.181,645.293 150.621,644.429L150.627,644.425C152.274,643.373 152.472,641.721 151.626,639.441C150.506,636.42 147.494,632.179 144.295,626.746C139.05,617.84 137.96,611.705 137.664,604.779C137.365,597.809 140.76,582.676 143.249,572.62C145.753,562.507 153.96,528.461 155.062,516.345C156.164,504.225 154.564,477.783 153.963,470.164C153.465,462.587 154.864,449.727 155.961,440.157C157.06,430.56 162.46,411.167 168.058,376.379C173.668,341.512 173.066,329.589 170.261,305.442C167.451,281.256 154.305,255.864 152.298,252.352C150.333,248.914 150.06,244.293 149.864,239.48C149.672,234.79 152.326,198.367 152.548,195.337C153.935,193.948 155.043,192.215 155.972,190.21C157.089,196.739 160.138,217.934 160.766,224.845C161.467,232.555 163.168,242.767 164.07,248.774L164.07,248.775C164.972,254.692 169.582,268.733 171.587,275.051C173.586,281.346 182.081,301.728 182.88,304.825C183.664,307.865 183.564,311.788 183.564,311.788L183.565,311.825C183.866,317.854 186.476,330.012 187.381,333.428L187.381,333.43C188.285,336.746 195.513,352.816 196.417,354.624C196.911,355.612 197.471,356.372 198.212,356.866C198.968,357.37 199.918,357.61 201.206,357.498C201.931,357.438 202.418,357.181 202.749,356.848C202.809,356.788 202.864,356.724 202.915,356.658C203.613,358.933 204.539,361.082 205.073,361.712C206.325,363.404 208.699,363.215 209.722,362.874L209.726,362.873C210.548,362.583 211.071,361.924 211.388,361.22C211.428,361.131 211.464,361.042 211.498,360.953C211.66,361.217 211.853,361.45 212.073,361.607L212.076,361.609C213.567,362.641 215.738,362.298 216.78,361.388C217.178,361.089 217.458,360.575 217.625,359.984C217.793,359.39 217.853,358.718 217.871,358.192C218.949,358.561 220.075,358.053 220.075,358.053C221.131,357.584 221.564,356.437 221.564,354.9C221.564,353.589 221.465,348.242 219.649,340.979C218.924,338.079 217.765,335.083 216.635,332.529C216.771,332.739 216.907,332.952 217.038,333.162C217.991,334.749 219.64,336.475 221.369,337.133C222.627,337.611 223.927,337.554 225.082,336.586C226.271,335.623 226.574,334.372 226.445,333.117C226.27,331.4 225.243,329.678 224.804,328.863L224.79,328.838C223.988,327.535 217.172,314.31 215.268,311.705C213.428,309.188 204.639,302.672 203.908,302.133C203.377,301.491 201.564,299.212 201.564,295.3C201.564,291.09 198.563,275.753 196.258,261.82C194.056,247.913 186.755,228.606 185.855,224.004L185.854,224.003C184.956,219.509 184.56,211.721 182.663,184.066C180.753,156.216 178.81,145.465 171.973,135.713C165.075,125.873 159.408,125.038 148.959,123.009C138.822,121.041 131.329,115.358 130.64,114.571C130.41,114.308 130.335,113.81 130.284,113.173C130.191,112.022 130.264,110.465 130.264,108.8L130.264,96.613C133.067,93.926 139.218,88.312 141.1,84.944C142.414,82.593 143.118,81.334 144.21,76.324C144.692,76.392 145.411,76.386 146.245,76.036C147.629,75.456 149.412,73.878 150.836,69.764C151.69,67.325 152.577,63.862 152.714,60.824C152.809,58.709 152.529,56.796 151.68,55.523L151.674,55.514C151.12,54.752 149.883,54.139 148.702,54.035C148.298,53.999 147.904,54.023 147.544,54.111C147.829,47.815 147.292,42.956 147.164,36.989C146.992,28.982 142.904,21.766 135.554,16.527C136.211,15.568 136.461,14.267 136.274,12.809C135.959,10.352 134.397,7.428 131.582,5.114L131.579,5.112C125.978,0.631 118.553,0.1 113.464,0.1L113.464,0.1L113.364,0.1C108.274,0.1 100.645,0.633 95.148,5.112L95.147,5.113C92.332,7.428 90.769,10.388 90.454,12.852C90.274,14.26 90.5,15.512 91.102,16.437ZM169.315,305.971C157.877,305.237 151.386,306.537 142.766,310.357L142.765,310.358C133.681,314.351 122.202,322.74 118.808,324.636C117.492,325.372 116.606,325.736 115.937,325.903L116.363,325.923C116.363,325.923 113.964,378.803 113.964,385.4C113.964,392 119.164,488.2 119.164,497.8C119.164,507.3 113.964,533.7 113.964,549.4C113.964,565.11 116.762,610.94 116.362,615.544L116.362,615.544C115.963,620.037 114.064,642.403 114.064,644.3C114.064,646.385 114.403,648.717 116.121,650.24C117.27,651.26 119.025,651.9 121.664,651.9C123.693,651.9 124.471,650.358 124.731,648.562C125.164,645.568 124.18,641.827 124.18,641.827L125.146,641.565C125.146,641.565 126.981,648.204 129.33,650.758C129.417,650.837 129.554,650.882 129.712,650.921C129.947,650.979 130.225,651.006 130.516,651.011C131.393,651.026 132.404,650.857 132.777,650.591L132.781,650.588C133.299,650.232 133.396,649.48 133.396,648.73C133.396,647.687 133.139,646.614 133.031,646.211C132.993,646.083 132.976,646.008 132.976,646.008L133.943,645.756C133.943,645.756 133.97,645.846 134.01,646.002C134.23,646.712 135.137,648.975 137.75,648.9C138.308,648.884 138.715,648.738 139.001,648.493C139.437,648.119 139.585,647.541 139.628,646.975C139.699,646.033 139.457,645.099 139.398,644.889L139.379,644.821L140.342,644.554C140.342,644.554 140.355,644.596 140.375,644.67C140.527,645.181 141.398,647.631 143.944,647.015C144.832,646.792 145.187,646.127 145.309,645.423C145.52,644.203 145.087,642.851 145.087,642.851L144.303,640.377L145.95,642.383C145.95,642.383 146.473,643.015 147.277,643.48C148.028,643.913 149.043,644.206 150.106,643.572C151.334,642.779 151.326,641.506 150.689,639.788C149.582,636.804 146.594,632.621 143.433,627.254C138.078,618.16 136.968,611.895 136.664,604.821C136.363,597.791 139.768,582.524 142.279,572.38C144.775,562.293 152.968,528.339 154.066,516.255C155.164,504.177 153.564,477.825 152.965,470.236L152.965,470.233C152.464,462.61 153.864,449.672 154.967,440.043C156.068,430.44 161.468,411.033 167.07,376.221C172.66,341.488 172.062,329.611 169.267,305.558L169.315,305.971ZM110.816,325.902C110.108,325.754 109.167,325.403 107.73,324.642C104.335,322.844 92.852,314.353 83.764,310.358C75.195,306.658 68.729,305.256 57.414,305.959L57.46,305.558C54.666,329.611 54.068,341.488 59.657,376.221C65.259,411.033 70.66,430.44 71.761,440.043C72.864,449.672 74.264,462.61 73.763,470.236L73.762,470.239C73.163,477.825 71.564,504.177 72.662,516.255C73.76,528.339 81.952,562.293 84.449,572.38C86.96,582.524 90.365,597.791 90.063,604.821C89.76,611.895 88.65,618.16 83.295,627.254C80.134,632.621 77.146,636.804 76.039,639.788C75.401,641.509 75.393,642.783 76.631,643.577C77.688,644.206 78.701,643.913 79.451,643.48C80.255,643.015 80.777,642.383 80.777,642.383L82.425,640.377L81.64,642.851C81.64,642.851 81.208,644.203 81.419,645.423C81.541,646.127 81.896,646.792 82.783,647.015C85.33,647.631 86.201,645.181 86.353,644.67C86.373,644.596 86.385,644.554 86.385,644.554L87.349,644.821L87.33,644.889C87.271,645.099 87.029,646.033 87.1,646.975C87.142,647.541 87.291,648.119 87.727,648.493C88.013,648.738 88.419,648.884 88.978,648.9C91.591,648.975 92.498,646.712 92.718,646.002C92.758,645.846 92.785,645.756 92.785,645.756L93.752,646.008C93.752,646.008 93.735,646.083 93.696,646.211C93.589,646.614 93.332,647.687 93.332,648.73C93.332,649.48 93.429,650.232 93.951,650.591L93.954,650.593C94.324,650.857 95.334,651.026 96.211,651.011C96.503,651.006 96.78,650.979 97.016,650.921C97.178,650.881 97.318,650.835 97.407,650.75C99.748,648.2 101.582,641.565 101.582,641.565L102.548,641.827C102.548,641.827 101.564,645.568 101.997,648.562C102.257,650.358 103.035,651.9 105.064,651.9C107.703,651.9 109.458,651.26 110.607,650.24C112.325,648.717 112.664,646.385 112.664,644.3C112.664,642.403 110.765,620.037 110.366,615.544L110.366,615.543C109.966,610.94 112.764,565.11 112.764,549.4C112.764,533.7 107.564,507.3 107.564,497.8C107.564,488.3 112.764,392 112.764,385.4C112.764,378.803 110.365,325.923 110.365,325.923L110.816,325.902ZM113.364,564.88C112.605,584.659 111.058,611.961 111.362,615.457C111.663,618.845 112.812,632.355 113.364,639.668C113.916,632.355 115.065,618.845 115.366,615.457C115.67,611.961 114.123,584.659 113.364,564.88ZM113.764,385.4C113.764,392 108.564,488.3 108.564,497.8C108.564,507.3 113.764,533.7 113.764,549.4L112.964,549.4C112.964,533.7 118.164,507.3 118.164,497.8C118.164,489.833 114.583,422.222 113.364,395.678L113.764,385.4ZM141.688,469.87C141.688,469.87 140.172,471.597 138.347,473C137.193,473.886 135.923,474.663 134.847,474.7C132.113,474.795 129.472,473.101 128.718,472.346L128.01,473.054C128.856,473.899 131.815,475.805 134.881,475.7C135.828,475.667 136.918,475.182 137.971,474.495C140.283,472.985 142.44,470.53 142.44,470.53L141.688,469.87ZM84.288,470.53C84.288,470.53 86.445,472.985 88.756,474.495C89.81,475.182 90.9,475.667 91.847,475.7C94.913,475.805 97.872,473.899 98.717,473.054L98.01,472.346C97.256,473.101 94.615,474.795 91.881,474.7C90.805,474.663 89.534,473.886 88.381,473C86.555,471.597 85.04,469.87 85.04,469.87L84.288,470.53ZM115.359,326.009C114.592,326.091 114.116,325.9 113.364,325.9L113.264,325.9C112.562,325.9 112.076,326.043 111.368,325.984C111.456,327.918 112.705,355.552 113.364,372.665C114.02,355.622 115.262,328.137 115.359,326.009ZM129.264,97.572C126.616,100.012 122.991,102.528 120.87,102.989C118.537,103.496 115.798,103.7 113.364,103.7C110.933,103.7 108.198,103.497 105.662,102.989L105.658,102.989C103.59,102.539 100.093,100.137 97.464,97.754L97.464,108.8C97.464,110.495 97.535,112.082 97.441,113.254C97.367,114.166 97.17,114.852 96.84,115.229C96.129,116.042 88.421,121.959 77.959,123.991C67.808,125.962 62.275,126.727 55.573,136.287C48.81,145.935 46.952,156.584 45.063,184.134C43.16,211.879 42.756,219.691 41.854,224.198C40.955,228.696 33.657,248.085 31.457,261.98L31.457,261.982C29.163,275.848 26.164,291.11 26.164,295.3C26.164,299.688 24.07,302.193 23.548,302.82L23.509,302.867L23.46,302.903C23.46,302.903 14.148,309.722 12.268,312.295C10.378,314.881 3.632,327.98 2.8,329.344C2.461,329.974 1.736,331.173 1.411,332.471C1.119,333.639 1.153,334.902 2.282,335.814L2.285,335.817C3.357,336.717 4.601,336.508 5.736,335.843C6.992,335.109 8.125,333.827 8.837,332.639L8.84,332.635C10.34,330.235 12.44,327.435 13.44,325.835L14.297,326.35C14.297,326.35 9.834,334.083 8.049,341.221C6.265,348.358 6.164,353.611 6.164,354.9C6.164,355.964 6.33,356.816 7.067,357.143L7.077,357.148C7.131,357.171 7.418,357.29 7.789,357.327C8.15,357.364 8.603,357.324 8.971,356.984C9.823,353.681 14.89,338.739 14.89,338.739L15.837,339.061C15.837,339.061 10.254,355.501 9.855,357.594L9.852,357.593C9.843,357.947 9.848,358.614 9.964,359.264C10.06,359.8 10.207,360.34 10.558,360.596L10.596,360.626C11.36,361.305 12.972,361.553 14.079,360.789C14.29,360.635 14.44,360.352 14.561,360.079C14.776,359.59 14.874,359.102 14.874,359.102L15.701,354.963L15.765,356.622C17.844,350.772 21.8,340.914 21.8,340.914L22.728,341.286C22.728,341.286 17.399,354.56 15.881,359.391C15.914,359.69 16.005,360.262 16.252,360.809C16.462,361.275 16.786,361.735 17.326,361.927C18.104,362.185 19.916,362.393 20.861,361.104L20.888,361.071C21.536,360.329 22.783,357.093 23.397,354.355C23.43,354.159 23.467,354.022 23.479,353.979C23.482,353.967 23.484,353.959 23.484,353.959C23.484,353.959 23.964,354.6 23.964,354.6L24.081,354.205L23.583,354.065C24.284,351.559 28.794,339.228 28.794,339.228L29.733,339.572C29.733,339.572 25.244,351.841 24.545,354.335L24.432,354.303C24.418,354.37 24.403,354.437 24.388,354.505C24.362,354.657 24.336,354.86 24.336,355.063C24.336,355.421 24.393,355.847 24.688,356.143C24.883,356.339 25.179,356.466 25.606,356.502L25.607,356.502C26.618,356.59 27.368,356.43 27.962,356.034C28.57,355.628 29.011,354.988 29.417,354.176C30.313,352.384 37.483,336.459 38.381,333.17C39.276,329.787 41.861,317.768 42.164,311.799C42.158,311.54 42.092,307.629 42.88,304.575C43.68,301.472 52.186,281.054 54.187,274.749C56.182,268.467 60.772,254.508 61.67,248.625C62.569,242.632 64.267,232.445 64.966,224.755C65.657,217.15 69.271,192.308 70.044,188.54C69.337,186.735 68.735,184.75 68.18,182.627C66.463,176.06 68.863,164.945 70.177,159.287C71.473,153.703 72.364,125.784 72.364,125.784L73.364,125.816C73.364,125.816 72.455,153.897 71.151,159.513C69.864,165.055 67.465,175.94 69.148,182.373C70.809,188.725 72.819,193.829 77.122,196.372L77.125,196.374C78.833,197.422 81.615,197.94 84.558,198.156C89.052,198.485 93.922,198.086 96.055,197.612L96.272,198.588C94.085,199.074 89.092,199.491 84.485,199.153C81.363,198.924 78.419,198.339 76.606,197.229C76.13,196.947 75.679,196.636 75.252,196.296C75.385,198.124 75.651,201.825 75.966,206.337C87.303,207.147 109.324,205.2 113.364,205.2L113.464,205.201L113.464,205.2C117.602,205.2 139.431,207.147 150.762,206.337L150.781,206.07C151.006,202.842 151.235,199.614 151.469,196.386L151.476,196.296C151.048,196.636 150.598,196.947 150.122,197.229C148.309,198.339 145.365,198.924 142.243,199.153C137.636,199.491 132.642,199.074 130.456,198.588L130.672,197.612C132.806,198.086 137.676,198.485 142.17,198.156C145.113,197.94 147.895,197.422 149.606,196.372L149.61,196.37C153.909,193.829 155.919,188.725 157.58,182.373C159.263,175.94 156.864,165.055 155.577,159.513C154.273,153.897 153.364,125.816 153.364,125.816L154.364,125.784C154.364,125.784 155.255,153.703 156.551,159.287C157.864,164.945 160.265,176.06 158.548,182.627C157.992,184.75 157.391,186.735 156.684,188.54C157.456,192.302 161.071,217.149 161.762,224.755C162.461,232.445 164.159,242.632 165.058,248.625C165.956,254.508 170.546,268.467 172.541,274.749C174.542,281.054 183.047,301.472 183.848,304.575C184.63,307.605 184.571,311.478 184.565,311.804C184.87,317.784 187.452,329.789 188.347,333.17C189.245,336.459 196.415,352.384 197.311,354.176C197.717,354.988 198.157,355.628 198.766,356.034C199.36,356.43 200.11,356.59 201.122,356.502L201.122,356.502C201.549,356.466 201.845,356.339 202.04,356.143C202.335,355.847 202.392,355.421 202.392,355.063C202.392,354.86 202.366,354.657 202.34,354.505C202.325,354.437 202.31,354.37 202.296,354.303L202.183,354.335C201.484,351.841 196.994,339.572 196.994,339.572L197.934,339.228C197.934,339.228 202.246,351.018 203.093,353.884C203.154,353.826 203.21,353.837 203.249,353.979C203.261,354.022 203.298,354.159 203.331,354.355C203.945,357.093 205.191,360.329 205.84,361.071L205.867,361.104C206.812,362.393 208.624,362.185 209.402,361.927C209.942,361.735 210.266,361.275 210.476,360.809C210.723,360.262 210.814,359.69 210.847,359.391C209.329,354.56 204,341.286 204,341.286L204.928,340.914C204.928,340.914 208.884,350.772 210.963,356.622L211.027,354.963L211.854,359.102C211.854,359.102 211.952,359.59 212.167,360.079C212.288,360.353 212.439,360.637 212.652,360.791C213.756,361.553 215.368,361.305 216.132,360.626L216.17,360.596C216.521,360.34 216.668,359.8 216.764,359.264C216.933,358.316 216.865,357.334 216.865,357.334L216.847,357.066C215.921,353.578 210.991,339.061 210.991,339.061L211.937,338.739C211.937,338.739 217.115,354.004 217.883,357.087C218.225,357.332 218.618,357.36 218.939,357.327C219.31,357.29 219.651,357.148 219.651,357.148C219.651,357.148 219.864,358.1 219.864,358.1L219.661,357.143C220.397,356.816 220.564,355.964 220.564,354.9C220.564,353.611 220.463,348.358 218.679,341.221C216.894,334.083 212.431,326.35 212.431,326.35L213.288,325.835C214.288,327.435 216.388,330.235 217.89,332.639L217.893,332.643C218.603,333.827 219.736,335.109 220.991,335.843C222.127,336.508 223.371,336.717 224.446,335.814L224.45,335.811C225.575,334.902 225.608,333.639 225.316,332.471C224.993,331.177 224.271,329.98 223.933,329.353C223.11,328.007 216.352,314.884 214.46,312.295C212.58,309.722 203.268,302.903 203.268,302.903L203.219,302.867L203.18,302.82C202.658,302.193 200.564,299.688 200.564,295.3C200.564,291.11 197.565,275.848 195.27,261.98L195.27,261.978C193.071,248.085 185.773,228.794 184.874,224.198C183.972,219.691 183.568,211.879 181.665,184.134C179.775,156.584 177.918,145.935 171.155,136.287C164.453,126.727 158.92,125.962 148.769,123.991C138.306,121.959 130.599,116.042 129.888,115.229C129.558,114.852 129.361,114.166 129.287,113.254C129.193,112.082 129.264,110.495 129.264,108.8L129.264,97.572ZM202.946,354.121L202.647,354.205L202.764,354.6C202.764,354.6 202.846,354.336 202.946,354.121ZM62.148,284.303C60.107,290.895 58.394,297.965 57.533,304.95C68.934,304.26 75.488,305.696 84.164,309.442L84.165,309.442C93.277,313.447 104.794,321.956 108.198,323.758C111.447,325.478 111.926,324.9 113.264,324.9L113.364,324.9L113.364,324.9C114.698,324.9 115.081,325.574 118.32,323.764C121.726,321.86 133.247,313.449 142.362,309.443C151.088,305.576 157.668,304.24 169.196,304.962L169.191,304.924C169.107,304.242 169.015,303.561 168.915,302.881C168.518,300.165 168.004,297.467 167.4,294.79C166.605,291.264 165.653,287.774 164.585,284.321L164.58,284.303C158.502,284.397 144.949,286.62 139.689,287.984C134.348,289.369 118.685,289.981 113.789,290L113.364,290C108.742,290 92.464,289.391 87.038,287.984C81.779,286.62 68.226,284.397 62.148,284.303ZM150.692,207.344C139.295,208.128 117.593,206.2 113.464,206.2L113.364,206.2C109.333,206.2 87.44,208.128 76.036,207.344C76.872,219.395 77.99,236.412 77.863,239.52C77.66,244.507 77.333,249.286 75.298,252.848C73.305,256.336 60.25,281.544 57.46,305.558L62.459,283.309C68.735,283.471 82.065,285.661 87.289,287.016C92.66,288.408 108.763,288.999 113.359,289L113.564,289C118.142,289 134.065,288.409 139.439,287.016C144.663,285.661 157.993,283.471 164.269,283.309L169.267,305.558C166.477,281.544 153.423,256.336 151.43,252.848C149.394,249.286 149.068,244.507 148.864,239.52C148.738,236.412 149.856,219.395 150.692,207.344ZM116.264,259C116.264,258.526 116.017,258.001 115.415,257.586L115.415,257.585C114.912,257.24 114.191,257 113.364,257C112.536,257 111.814,257.24 111.313,257.585L111.313,257.585C110.711,258.001 110.464,258.526 110.464,259C110.464,259.474 110.711,259.999 111.313,260.414C111.814,260.76 112.536,261 113.364,261C114.191,261 114.913,260.76 115.415,260.414C116.017,259.999 116.264,259.475 116.264,259ZM113.048,168.699L113.78,168.699C118.37,168.661 126.014,167.358 136.399,157.971L136.4,157.97C140.637,154.1 142.886,148.153 144.039,142.401C145.753,133.854 145.062,125.758 145.062,125.758L144.066,125.842C144.066,125.842 144.743,133.802 143.059,142.204C141.946,147.75 139.811,153.499 135.728,157.23C125.478,166.494 117.999,167.7 113.564,167.7L113.264,167.7C108.828,167.7 101.051,166.495 90.799,157.229C86.716,153.538 84.581,147.798 83.469,142.247C81.785,133.838 82.462,125.842 82.462,125.842L81.466,125.758C81.466,125.758 80.775,133.89 82.489,142.444C83.643,148.202 85.892,154.142 90.129,157.971C100.512,167.356 108.449,168.661 113.048,168.699ZM110.998,133.896C110.998,133.896 112.299,134.055 112.99,134.832L113.738,134.168C112.828,133.145 111.13,132.904 111.13,132.904L110.998,133.896ZM118.545,131.866C122.104,130.482 130.604,128.303 136.238,128.599L136.29,127.601C130.524,127.297 121.824,129.518 118.183,130.934L118.545,131.866ZM108.545,130.934C104.904,129.518 96.203,127.297 90.438,127.601L90.49,128.599C96.124,128.303 104.624,130.482 108.183,131.866L108.545,130.934ZM145.868,61.451L145.866,61.451C146.56,54.414 142.984,39.549 140.804,34.395C138.678,29.371 133.841,26 127.464,26C121.164,26 115.542,26.969 113.651,26.999L113.277,26.999C111.38,26.969 105.564,26 99.264,26C92.883,26 88.143,29.475 85.92,34.405C83.641,39.458 80.168,54.417 80.861,61.451L80.692,61.468C80.894,63.013 81.146,64.653 81.456,66.411C83.934,79.892 84.417,81.085 86.3,84.456C88.184,87.827 94.54,93.469 97.118,96.046C99.649,98.578 103.625,101.521 105.866,102.011C108.333,102.503 110.996,102.7 113.364,102.7C115.73,102.7 118.391,102.504 120.658,102.011C122.898,101.524 126.878,98.579 129.414,96.043L129.417,96.04C132.092,93.464 138.345,87.825 140.228,84.456C142.111,81.086 142.693,79.992 145.072,66.412L145.072,66.41C147.564,52.856 146.363,46.279 146.164,37.011L145.868,61.451ZM113.483,91.402L113.327,91.401C111.625,91.527 110.556,90.432 109.873,89.72C109.471,89.301 109.145,89 108.922,88.926L108.606,89.874C108.601,89.873 108.59,89.868 108.59,89.868C108.59,89.868 108.696,89.949 108.762,90.013C108.964,90.206 109.212,90.485 109.516,90.782C110.359,91.604 111.598,92.526 113.385,92.4C113.381,92.4 113.456,92.4 113.456,92.4C115.176,92.462 116.35,91.554 117.175,90.754C117.422,90.513 117.635,90.286 117.822,90.108C117.935,90.001 118.017,89.905 118.101,89.881L117.827,88.919C117.565,88.994 117.223,89.286 116.819,89.696C116.135,90.39 115.127,91.463 113.483,91.4L113.483,91.402ZM113.267,86.199L113.859,86.199C114.95,86.181 119.236,85.895 120.309,85.798C120.953,85.739 121.562,85.644 122.03,85.641C122.216,85.64 122.371,85.63 122.464,85.7L123.064,84.9C122.881,84.762 122.621,84.675 122.293,84.65C121.772,84.611 121.021,84.729 120.219,84.802C119.126,84.901 114.658,85.2 113.764,85.2L113.364,85.202L113.364,85.2C112.476,85.2 107.639,85.005 106.553,84.808C105.854,84.681 105.192,84.595 104.683,84.613C104.237,84.629 103.887,84.733 103.664,84.9L104.264,85.7C104.361,85.627 104.523,85.619 104.717,85.612C105.168,85.597 105.754,85.679 106.375,85.792C107.454,85.988 112.146,86.187 113.267,86.199ZM113.464,77.9L113.364,77.9C113.088,77.9 112.651,77.927 112.202,77.835C111.829,77.759 111.441,77.596 111.174,77.213C110.39,76.093 109.382,75.534 108.262,75.31C106.996,75.056 106.11,75.946 106.11,75.946L106.818,76.653C106.818,76.653 107.332,76.143 108.066,76.29C108.946,76.466 109.738,76.906 110.354,77.787C111.171,78.953 112.664,78.9 113.364,78.9L113.464,78.9C114.167,78.9 115.553,78.959 116.374,77.787C116.99,76.906 117.782,76.466 118.662,76.29C119.396,76.143 119.91,76.653 119.91,76.653L120.618,75.946C120.618,75.946 119.732,75.056 118.466,75.31C117.346,75.534 116.338,76.093 115.554,77.213C114.975,78.041 113.961,77.9 113.464,77.9L113.464,77.9ZM79.083,55.154C78.773,55.024 78.397,54.997 78.014,55.031C77.132,55.109 76.189,55.524 75.769,56.094C75.027,57.221 74.829,58.916 74.913,60.779C75.045,63.721 75.909,67.074 76.736,69.436L76.736,69.436C78.012,73.122 79.529,74.594 80.77,75.114C81.334,75.35 81.823,75.376 82.162,75.346C81.703,73.163 81.162,70.345 80.472,66.589L80.472,66.587C79.687,62.143 79.275,58.443 79.083,55.154ZM144.419,75.341C144.76,75.378 145.268,75.361 145.858,75.114C147.099,74.594 148.616,73.122 149.892,69.436L149.892,69.435C150.718,67.074 151.583,63.721 151.715,60.779C151.799,58.912 151.6,57.213 150.848,56.079C150.431,55.521 149.493,55.108 148.614,55.031C148.207,54.995 147.808,55.027 147.488,55.179C147.295,58.463 146.871,62.155 146.056,66.588C145.398,70.344 144.873,73.161 144.419,75.341ZM107.869,56.672C107.869,56.672 108.663,62.099 108.565,63.974C108.466,65.844 107.874,68.699 107.874,68.699L108.854,68.901C108.854,68.901 109.462,65.956 109.563,64.026C109.665,62.101 108.859,56.528 108.859,56.528L107.869,56.672ZM97.228,54.1C97.207,54.1 97.186,54.1 97.164,54.1C91.757,54.1 89.546,57.526 89.546,57.526L90.382,58.074C90.382,58.074 91.624,56.216 94.512,55.437C94.043,56.033 93.764,56.784 93.764,57.6C93.764,59.533 95.331,61.1 97.264,61.1C99.197,61.1 100.764,59.533 100.764,57.6C100.764,56.84 100.522,56.137 100.111,55.564C102.781,56.463 103.935,58.357 103.935,58.357L104.793,57.843C104.793,57.843 102.638,54.203 97.388,54.102C97.347,54.101 97.305,54.1 97.264,54.1C97.252,54.1 97.24,54.1 97.228,54.1ZM129.5,54.1C129.488,54.1 129.476,54.1 129.464,54.1C129.422,54.1 129.381,54.101 129.34,54.102C124.09,54.203 121.935,57.843 121.935,57.843L122.793,58.357C122.793,58.357 123.947,56.463 126.617,55.564C126.206,56.137 125.964,56.84 125.964,57.6C125.964,59.533 127.531,61.1 129.464,61.1C131.397,61.1 132.964,59.533 132.964,57.6C132.964,56.784 132.685,56.033 132.216,55.437C135.104,56.216 136.346,58.074 136.346,58.074L137.182,57.526C137.182,57.526 134.971,54.1 129.564,54.1C129.542,54.1 129.521,54.1 129.5,54.1ZM80.077,54.656L80.058,54.677C80.059,54.71 80.061,54.744 80.063,54.778L80.071,54.708L80.077,54.656ZM146.55,53.952C146.825,47.729 146.291,42.916 146.164,37.011C145.968,27.882 140.45,19.847 130.732,14.743C122.639,10.499 115.634,10.1 113.364,10.1L113.264,10.1C110.994,10.1 103.987,10.499 95.795,14.743C86.078,19.848 80.56,27.882 80.364,37.011C80.233,43.116 79.71,48.054 80.053,54.588C80.063,54.596 80.072,54.605 80.081,54.613C80.918,47.117 83.292,37.799 85.008,33.994C87.385,28.725 92.444,25 99.264,25C105.664,25 111.564,26 113.364,26L113.364,26.006L113.564,26C115.364,26 121.064,25 127.464,25C134.287,25 139.45,28.629 141.724,34.005C143.315,37.766 145.628,46.607 146.55,53.952ZM104.274,51.307C104.274,51.307 100.333,48.2 95.564,48.2C90.777,48.2 87.449,50.912 87.449,50.912L88.079,51.688C88.079,51.688 91.151,49.2 95.564,49.2C99.995,49.2 103.654,52.092 103.654,52.092L104.274,51.307ZM123.074,52.092C123.074,52.092 126.733,49.2 131.164,49.2C135.577,49.2 138.649,51.688 138.649,51.688L139.279,50.912C139.279,50.912 135.951,48.2 131.164,48.2C126.395,48.2 122.454,51.307 122.454,51.307L123.074,52.092ZM134.732,15.959C135.264,15.185 135.434,14.12 135.282,12.936C134.993,10.681 133.532,8.013 130.949,5.888C125.548,1.569 118.374,1.1 113.464,1.1L113.364,1.1C108.454,1.1 101.083,1.567 95.781,5.887C93.196,8.012 91.735,10.716 91.445,12.979C91.3,14.113 91.447,15.131 91.925,15.872C92.997,15.159 94.134,14.486 95.333,13.857L95.334,13.856C103.741,9.5 110.934,9.1 113.264,9.1L113.264,9.108C113.283,9.103 113.305,9.1 113.329,9.1C113.341,9.1 113.353,9.1 113.364,9.102L113.364,9.1C115.694,9.1 122.889,9.501 131.196,13.857L131.197,13.857C132.443,14.512 133.622,15.213 134.732,15.959Z" style="fill:rgb(151,151,151);"/>
</svg>
