<svg width="228" height="653" viewBox="0 0 228 653" fill="none" xmlns="http://www.w3.org/2000/svg">
<path d="M22.4639 341.3C22.4639 341.3 16.7639 355.5 15.4639 359.9" stroke="#979797" stroke-miterlimit="10"/>
<path d="M29.4639 339.7C29.4639 339.7 24.9639 352 24.2639 354.5" stroke="#979797" stroke-miterlimit="10"/>
<path d="M15.564 339.2C15.564 339.2 9.96396 355.7 9.56396 357.8" stroke="#979797" stroke-miterlimit="10"/>
<path d="M110.864 336C110.864 336 113.664 378.8 113.664 385.4C113.664 392 108.464 488.3 108.464 497.9C108.464 507.5 113.664 533.9 113.664 549.5C113.664 565.1 110.764 611 111.264 615.6C111.664 620.2 113.864 634.4 113.664 638.7C113.564 640.3 109.764 646 102.764 646C96.9639 646 77.2639 639 75.4639 636.7C72.5639 632.7 76.8639 628.2 83.8639 624.4C84.9639 623.8 88.7639 621 89.3639 618.6C90.2639 615.3 90.5639 611 89.8639 605C88.9639 598 86.7639 582.8 84.2639 572.7C81.7639 562.6 73.5639 528.6 72.4639 516.5C71.1639 504.4 72.8639 478 73.4639 470.4C74.0639 462.8 72.6639 449.9 71.4639 440.3C70.3639 430.7 64.9638 411.4 59.3638 376.5C53.7638 341.6 54.2638 329.9 57.1638 305.7C59.9638 281.5 73.1639 256.3 75.0639 252.8C77.0639 249.3 77.3639 244.6 77.5639 239.7C77.7639 234.8 75.8639 199.1 74.8639 195.3C73.8639 191.5 68.2639 170.8 67.9639 166.7C67.9639 166.7 70.9639 182.2 70.2639 191.9C70.0639 195.2 66.3638 217.3 65.6638 225C64.9638 232.7 63.3638 243 62.3638 248.9C61.4638 254.9 56.8638 268.9 54.8638 275.1C52.8638 281.4 44.3638 301.8 43.5638 304.9C42.7638 308 42.8638 312 42.8638 312C42.5638 318 40.0638 330.1 39.0638 333.5C38.0638 336.9 30.9639 352.8 30.0639 354.6C29.1639 356.4 28.0638 357.4 25.7638 357.2C23.4638 357 24.1639 354.3 24.1639 354.3C23.5639 357.2 22.0639 360.8 21.4639 361.6C20.2638 363.1 18.1638 362.9 17.3638 362.6C15.6638 362 15.5638 359.4 15.5638 359.4C15.5638 359.4 15.3638 360.9 14.5638 361.4C13.1638 362.3 11.3638 362 10.4638 361.2C9.46385 360.3 9.56385 357.5 9.56385 357.5C8.56385 358.5 7.06385 357.8 7.06385 357.8C6.06385 357.3 5.86385 356.4 5.86385 355.1C5.86385 353.8 5.96385 348.5 7.76385 341.3C9.56385 334.1 14.0638 326.3 14.0638 326.3C13.0638 327.9 10.9638 330.7 9.46385 333.1C7.96385 335.5 4.66385 338.5 2.16385 336.4C-0.336151 334.3 1.86385 330.6 2.56385 329.3C3.26385 328 10.0638 314.9 12.0638 312.2C13.9638 309.6 23.3638 302.7 23.3638 302.7C23.9638 302.1 25.8638 299.7 25.8638 295.5C25.8638 291.3 28.8639 275.9 31.1639 262.1C33.4639 248.2 40.6638 228.9 41.5638 224.3C42.4638 219.7 42.8638 212 44.7638 184.3C46.6638 156.6 48.4638 145.9 55.3638 136.2C62.2638 126.5 67.7639 125.7 78.0639 123.7C88.3639 121.7 95.9638 115.9 96.6638 115.1C97.3638 114.3 97.1638 111.8 97.1638 109L96.9639 91.2" stroke="#979797" stroke-miterlimit="10"/>
<path d="M98.6639 475.5C98.6639 475.5 94.3639 470.6 91.4639 470.5C88.5639 470.4 85.7639 472.2 84.9639 473" stroke="#979797" stroke-miterlimit="10"/>
<path d="M83.1639 75.9999C83.1639 75.9999 79.2639 77.6999 76.5639 69.8999C75.1639 65.8999 73.6639 59.0999 75.6639 56.0999C76.4639 54.9999 78.9639 54.2999 80.0639 55.2999" stroke="#979797" stroke-miterlimit="10"/>
<path d="M83.1639 122.4C83.1639 122.4 87.4639 132.2 90.1639 141.2C92.8639 150.1 94.6639 168 91.2639 174.5C87.8639 181 83.5639 187 72.9639 188.2" stroke="#979797" stroke-miterlimit="10"/>
<path d="M46.3638 239.8C46.3638 239.8 47.8638 242.4 51.2638 242.1C54.6638 241.9 57.0638 239.8 57.0638 239.8" stroke="#979797" stroke-miterlimit="10"/>
<path d="M137.064 18.0999C142.364 21.4999 147.364 28.0999 147.564 37.2999C147.764 46.5999 148.864 53.1999 146.464 66.7999C144.064 80.3999 141.064 82.9999 138.264 85.7999C135.064 88.9999 129.264 92.9999 124.364 94.6999C121.264 95.7999 116.564 96.2999 114.164 96.2999H113.564C111.164 96.2999 106.364 95.7999 103.364 94.6999C98.4638 92.8999 92.6638 88.8999 89.4638 85.7999C86.6638 83.0999 83.7638 80.3999 81.2638 66.7999C78.7638 53.1999 79.9638 46.5999 80.1638 37.2999C80.3638 27.9999 85.4638 21.3999 90.7638 17.9999" stroke="#979797" stroke-miterlimit="10"/>
<path d="M205.264 341.4C205.264 341.4 210.964 355.6 212.264 360" stroke="#979797" stroke-miterlimit="10"/>
<path d="M198.264 339.8C198.264 339.8 202.764 352.1 203.464 354.6" stroke="#979797" stroke-miterlimit="10"/>
<path d="M212.164 339.2C212.164 339.2 217.764 355.7 218.164 357.8" stroke="#979797" stroke-miterlimit="10"/>
<path d="M116.964 336C116.964 336 114.164 378.8 114.164 385.4C114.164 392 119.364 488.3 119.364 497.8C119.364 507.4 114.164 533.8 114.164 549.4C114.164 565 117.064 610.9 116.564 615.5C116.164 620.1 113.964 634.3 114.164 638.6C114.264 640.2 118.064 645.9 125.064 645.9C130.864 645.9 150.564 638.9 152.364 636.6C155.264 632.6 150.964 628.1 143.964 624.3C142.864 623.7 139.064 620.9 138.464 618.5C137.564 615.2 137.264 610.9 137.964 604.9C138.864 597.9 141.064 582.7 143.564 572.6C146.064 562.5 154.264 528.5 155.364 516.4C156.464 504.3 154.764 477.9 154.264 470.3C153.664 462.7 155.064 449.8 156.264 440.2C157.364 430.6 162.764 411.3 168.364 376.4C173.964 341.5 173.464 329.8 170.564 305.6C167.764 281.4 154.564 256.2 152.664 252.7C150.764 249.2 150.364 244.5 150.164 239.6C149.964 234.7 151.864 199 152.864 195.2C153.864 191.4 159.464 170.7 159.764 166.6C159.764 166.6 156.764 182.1 157.464 191.8C157.664 195.1 161.364 217.2 162.064 224.9C162.764 232.6 164.364 242.9 165.364 248.8C166.264 254.8 170.864 268.8 172.864 275C174.864 281.3 183.364 301.7 184.164 304.8C184.964 307.9 184.864 311.9 184.864 311.9C185.164 317.9 187.664 330 188.664 333.4C189.564 336.8 196.764 352.7 197.664 354.5C198.564 356.3 199.664 357.3 201.964 357.1C204.264 356.9 203.564 354.2 203.564 354.2C204.164 357.1 205.664 360.7 206.264 361.5C207.464 363 209.564 362.8 210.364 362.5C212.064 361.9 212.164 359.3 212.164 359.3C212.164 359.3 212.364 360.8 213.164 361.3C214.564 362.2 216.364 361.9 217.264 361.1C218.264 360.2 218.164 357.4 218.164 357.4C219.164 358.4 220.664 357.7 220.664 357.7C221.664 357.2 221.864 356.3 221.864 355C221.864 353.7 221.764 348.4 219.964 341.2C218.164 334 213.664 326.2 213.664 326.2C214.664 327.8 216.764 330.6 218.264 333C219.764 335.4 223.064 338.4 225.564 336.3C228.064 334.2 225.864 330.5 225.164 329.2C224.464 327.9 217.664 314.8 215.664 312.1C213.764 309.5 204.364 302.6 204.364 302.6C203.764 302 201.864 299.6 201.864 295.4C201.864 291.2 198.864 275.8 196.564 262C194.264 248.1 187.064 228.8 186.164 224.2C185.264 219.6 184.864 211.9 182.964 184.2C181.064 156.5 179.264 145.8 172.364 136.1C165.464 126.4 159.964 125.6 149.664 123.6C139.364 121.6 131.764 115.8 131.064 115C130.364 114.2 130.564 111.7 130.564 108.9L130.764 91.0999" stroke="#979797" stroke-miterlimit="10"/>
<path d="M129.164 475.6C129.164 475.6 133.464 470.7 136.364 470.6C139.264 470.5 142.064 472.3 142.864 473.1" stroke="#979797" stroke-miterlimit="10"/>
<path d="M114.164 0.899902C119.164 0.899902 126.664 1.3999 132.064 5.7999C136.564 9.4999 137.064 15.6999 137.064 18.0999C137.064 20.4999 137.064 32.3999 129.864 36.6999C121.664 41.6999 106.164 41.5999 97.9639 36.6999C90.7639 32.2999 90.7639 20.3999 90.7639 18.0999C90.7639 15.7999 91.1639 9.4999 95.7639 5.7999C101.164 1.3999 108.664 0.899902 113.664 0.899902H114.164Z" stroke="#979797" stroke-miterlimit="10"/>
<path d="M144.664 76.0999C144.664 76.0999 148.564 77.7999 151.264 69.9999C152.664 65.9999 154.164 59.1999 152.164 56.1999C151.364 55.0999 148.864 54.3999 147.764 55.3999" stroke="#979797" stroke-miterlimit="10"/>
<path d="M152.064 207.2C140.864 208.1 118.364 206.1 114.164 206.1H113.564C109.464 206.1 86.8638 208.1 75.6638 207.2" stroke="#979797" stroke-miterlimit="10"/>
<path d="M167.464 289.8C160.864 288.8 151.764 288.8 145.164 288.8C134.864 288.8 118.764 289.8 114.164 289.8H113.564C108.964 289.8 92.8639 288.8 82.5639 288.8C75.9639 288.8 66.8639 288.8 60.2639 289.8" stroke="#979797" stroke-miterlimit="10"/>
<path d="M170.564 305.9C167.364 312.2 155.864 324.2 147.164 328C138.064 332 132.164 334.6 114.164 336.3H113.564C95.5638 334.6 89.6638 332 80.5638 328C71.7638 324.2 60.2638 312.2 57.1638 305.9" stroke="#979797" stroke-miterlimit="10"/>
<path d="M137.664 119.5C137.664 119.5 131.164 128.5 127.564 130.5C123.964 132.5 118.064 133.4 114.264 133.4H113.664C109.864 133.4 103.964 132.5 100.364 130.5C96.7639 128.5 90.2639 119.5 90.2639 119.5" stroke="#979797" stroke-miterlimit="10"/>
<path d="M144.664 122.5C144.664 122.5 140.364 132.3 137.664 141.3C134.964 150.2 133.164 168.1 136.564 174.6C139.964 181.1 144.264 187.1 154.864 188.3" stroke="#979797" stroke-miterlimit="10"/>
<path d="M181.364 239.8C181.364 239.8 179.864 242.4 176.464 242.1C173.064 241.8 170.664 239.8 170.664 239.8" stroke="#979797" stroke-miterlimit="10"/>
<path d="M113.564 206C113.564 206 113.564 233.2 113.564 244.5" stroke="#979797" stroke-miterlimit="10"/>
</svg>
