<?xml version="1.0" encoding="UTF-8"?>
<svg width="302px" height="664px" viewBox="0 0 302 664" version="1.1" xmlns="http://www.w3.org/2000/svg" xmlns:xlink="http://www.w3.org/1999/xlink">
    <g id="Page-1" stroke="none" stroke-width="1" fill="none" fill-rule="evenodd">
        <rect id="Kopf-Rückseite" fill-opacity="0.02" fill="#FFFFFF" x="105" y="0" width="97" height="120"></rect>
        <rect id="linke-Schulter-hinten" fill-opacity="0.02" fill="#FFFFFF" x="47" y="120" width="107" height="53"></rect>
        <rect id="linker-Oberschenkel-hinten" fill-opacity="0.02" fill="#FFFFFF" x="86" y="376" width="68" height="98"></rect>
        <rect id="linker-Unterschenkel-hinten" fill-opacity="0.02" fill="#FFFFFF" x="95" y="474" width="59" height="154"></rect>
        <rect id="Fuß-links-hinten" fill-opacity="0.02" fill="#FFFFFF" transform="translate(123.500000, 646.000000) scale(1, -1) translate(-123.500000, -646.000000) " x="93" y="628" width="61" height="36"></rect>
        <rect id="rechter-Oberschenkel-hinten" fill-opacity="0.02" fill="#FFFFFF" x="157" y="376" width="66" height="97"></rect>
        <rect id="rechter-Unterschenkel-hinten" fill-opacity="0.02" fill="#FFFFFF" x="154" y="474" width="56" height="154"></rect>
        <rect id="Fuß-rechts-hinten" fill-opacity="0.02" fill="#FFFFFF" transform="translate(182.000000, 646.000000) scale(1, -1) translate(-182.000000, -646.000000) " x="154" y="628" width="56" height="36"></rect>
        <rect id="linke-Hand" fill-opacity="0.02" fill="#FFFFFF" transform="translate(35.286259, 361.297876) rotate(11.000000) translate(-35.286259, -361.297876) " x="7.28625946" y="320.797876" width="56" height="81"></rect>
        <rect id="rechte-Hand" fill-opacity="0.02" fill="#FFFFFF" transform="translate(267.000000, 367.000000) scale(-1, 1) rotate(11.000000) translate(-267.000000, -367.000000) " x="239" y="328" width="56" height="78"></rect>
        <rect id="rechte-Schulter-hinten" fill-opacity="0.02" fill="#FFFFFF" x="154" y="120" width="105" height="53"></rect>
        <rect id="Rücken" fill-opacity="0.02" fill="#FFFFFF" x="95" y="173" width="120" height="132"></rect>
        <rect id="Hintern" fill-opacity="0.02" fill="#FFFFFF" transform="translate(153.500000, 340.000000) scale(1, -1) translate(-153.500000, -340.000000) " x="90" y="305" width="127" height="70"></rect>
        <path d="M91,176 L91,261 L81.762,261 L69.2788708,326 L37,318.406641 L54.0487586,229.638046 L58,230.568 L58,176 L91,176 Z" id="linker-Arm-Rückseite" fill-opacity="0.02" fill="#FFFFFF"></path>
        <path d="M271.163815,172 L271.163815,262 L261.677,262 L249.278871,330 L217,322.001662 L234.048759,228.498742 L238.163,229.518 L238.163815,172 L271.163815,172 Z" id="rechter-Arm-Rückseite" fill-opacity="0.02" fill="#FFFFFF" transform="translate(244.081907, 251.000000) scale(-1, 1) translate(-244.081907, -251.000000) "></path>
        <g id="653-male-back">
            <path d="M138.664,131.2 C138.664,131.2 114.164,124.8 99.1641,127" id="Path" stroke="#979797"></path>
            <path d="M138.664,219.9 C138.664,219.9 125.964,228.7 121.664,243.1" id="Path" stroke="#979797"></path>
            <path d="M150.164,370.4 C150.164,370.4 148.264,451.4 146.864,458.6 C145.464,465.8 145.764,486.4 145.764,491.1 C145.764,495.8 148.264,511.9 149.264,522.3 C150.164,532.7 146.764,561.9 146.264,568.6 C146.064,572.1 145.464,588.2 146.164,602 C146.764,614.8 148.464,625.3 148.464,627.8 C148.464,632.9 153.164,638.6 152.764,653.8 C152.664,655.7 147.964,660.8 142.764,661.6 C137.064,662.5 128.064,659.1 121.864,657.8 C110.964,655.5 103.364,652.9 104.764,648 C106.964,639.9 120.864,635.7 122.064,632.6 C123.464,628.9 122.264,612.9 120.364,607.4 C118.564,601.9 109.364,563.8 106.164,540 C102.964,516.2 109.864,489.1 109.864,483.2 C109.864,477.2 102.064,463 96.064,431.9 C90.064,400.7 93.164,371.9 94.164,346.9 C95.064,321.9 101.864,298.1 102.364,293.1 C102.864,288.1 102.064,248.5 102.064,243.7 C102.064,239 101.764,238.7 98.164,229.3 C94.464,219.8 91.564,200.9 91.364,207.8 C91.064,214.6 85.364,235.4 84.264,240.9 C83.164,246.4 83.964,269 82.664,274.8 C81.364,280.6 62.764,328.9 61.964,332.5 C61.164,336.1 61.664,349 60.964,352.6 C60.264,356.2 56.564,369.5 55.064,374.2 C53.564,378.9 49.064,385.3 46.664,385.5 C44.264,385.7 42.864,385.9 42.864,385.9 C42.864,385.9 40.164,390 37.364,390.1 C34.564,390.2 34.864,388 34.864,388 C34.864,388 32.764,390.1 29.564,390.1 C26.364,390.1 26.164,385.4 26.164,385.4 C26.164,385.4 25.864,386.2 23.064,385.9 C20.26397,385.6 20.66397,378.4 22.56397,370.2 C24.464,362 28.364,353.3 28.364,353.3 C28.364,353.3 26.164,355.5 25.764,356.2 C25.364,356.9 24.764,359.3 22.86402,362.1 C20.96402,364.9 16.76402,365.2 15.86402,364.7 C14.96402,364.3 12.763996,361.8 14.964,358.7 C17.164,355.6 21.56397,343.2 24.064,340.4 C26.664,337.6 39.464,329.1 39.664,328.1 C39.964,327.1 40.664,319.1 40.964,314.8 C41.264,310.4 43.264,276.9 44.764,267.7 C46.264,258.5 52.664,248.5 53.964,245.4 C55.264,242.3 54.264,219.5 53.964,209.3 C53.664,199.1 58.764,183.9 59.364,177.5 C59.864,171.1 58.664,165.4 59.364,155.3 C60.064,145.2 69.264,137.9 76.564,132.8 C83.864,127.7 99.264,127.3 99.264,127.3 C99.364,126.1 99.964,124.4 104.264,122.4 C108.664,120.4 129.764,112.1 129.764,112.1 L129.764,88.9999" id="Path" stroke="#979797"></path>
            <path d="M32.1641,362.7 C32.1641,362.7 27.0641,382 26.1641,385.1" id="Path" stroke="#979797"></path>
            <path d="M39.7642,366.5 C39.7642,366.5 35.7642,385.2 34.7642,387.7" id="Path" stroke="#979797"></path>
            <path d="M47.3642,366.5 C47.3642,366.5 43.6642,382.1 42.7642,385.6" id="Path" stroke="#979797"></path>
            <path d="M134.764,488.2 C132.364,486 127.464,479.7 120.864,486" id="Path" stroke="#979797"></path>
            <path d="M63.564,263.7 C63.564,263.7 65.464,265.5 69.064,265.5 C72.664,265.5 74.064,263.7 74.064,263.7" id="Path" stroke="#979797"></path>
            <path d="M85.8643,180.5 C85.8643,180.5 88.6643,183.6 89.3643,189.5 C89.8643,193.6 91.0642,201.1 93.6642,204.4 C96.2642,207.6 105.9642,210.9 115.664,210.9 C125.364,210.9 134.464,208.1 136.764,206.8 C139.064,205.5 142.064,203 142.964,199 C143.864,195 144.364,178.1 143.964,169.8" id="Path" stroke="#979797"></path>
            <line x1="153.464" y1="289.1" x2="153.464" y2="251.4" id="Path" stroke="#979797"></line>
            <path d="M91.6639,206.3 C91.6639,206.3 90.6639,197.6 89.9639,193.3" id="Path" stroke="#979797"></path>
            <path d="M185.364,74.6999 C185.364,74.6999 188.964,75.8999 189.964,72.6999 C190.964,69.4999 192.464,64.8999 192.664,60.5999 C192.864,56.2999 191.464,52.5999 187.864,53.9999 C187.864,53.9999 187.864,37.9999 187.864,34.9999 C187.864,31.9999 185.864,24.7999 180.264,20.0999 C174.664,15.39985 169.064,9.29985 153.764,9.09985 L151.764,9.09985 C136.464,9.29985 131.864,15.19985 126.264,19.9999 C120.664,24.7999 118.664,31.8999 118.664,34.8999 C118.664,37.8999 118.664,53.8999 118.664,53.8999 C115.064,52.4999 113.764,56.2999 113.864,60.4999 C113.964,64.6999 115.564,69.2998 116.564,72.5998 C117.564,75.7998 121.164,74.5999 121.164,74.5999" id="Path" stroke="#979797"></path>
            <path d="M167.864,131.2 C167.864,131.2 192.364,124.8 207.364,127" id="Path" stroke="#979797"></path>
            <path d="M207.864,307.7 C201.164,309.6 194.064,311.4 186.064,312.4 C176.864,313.5 162.564,313.2 154.264,313.1 L151.364,313.1 C143.064,313.2 129.664,313.5 120.464,312.4 C112.4641,311.5 105.3641,309.6 98.6641,307.7" id="Path" stroke="#979797"></path>
            <path d="M156.464,370.4 C156.464,370.4 158.364,451.4 159.764,458.6 C161.164,465.8 160.864,486.4 160.864,491.1 C160.864,495.8 158.364,511.9 157.364,522.3 C156.464,532.7 159.864,561.9 160.364,568.6 C160.564,572.1 161.164,588.2 160.464,602 C159.864,614.8 158.164,625.3 158.164,627.8 C158.164,632.9 153.464,638.6 153.864,653.8 C153.964,655.7 158.664,660.8 163.864,661.6 C169.564,662.5 178.564,659.1 184.764,657.8 C195.664,655.5 203.264,652.9 201.864,648 C199.664,639.9 185.764,635.7 184.564,632.6 C183.164,628.9 184.364,612.9 186.264,607.4 C188.064,601.9 197.264,563.8 200.464,540 C203.664,516.2 196.764,489.1 196.764,483.2 C196.764,477.2 204.564,463 210.564,431.9 C216.564,400.8 213.464,371.9 212.464,346.9 C211.564,321.9 204.764,298.1 204.264,293.1 C203.764,288.1 204.564,248.5 204.564,243.7 C204.564,239 204.864,238.7 208.464,229.3 C212.164,219.8 215.064,200.9 215.264,207.8 C215.564,214.6 221.264,235.4 222.364,240.9 C223.464,246.4 222.664,269 223.964,274.8 C225.264,280.6 243.864,328.9 244.664,332.5 C245.464,336.1 244.964,349 245.664,352.6 C246.364,356.2 250.064,369.5 251.564,374.2 C253.064,378.9 257.564,385.3 259.964,385.5 C262.364,385.7 263.764,385.9 263.764,385.9 C263.764,385.9 266.464,390 269.264,390.1 C272.064,390.2 271.764,388 271.764,388 C271.764,388 273.864,390.1 277.064,390.1 C280.264,390.1 280.464,385.4 280.464,385.4 C280.464,385.4 280.764,386.2 283.564,385.9 C286.364,385.6 285.964,378.4 284.064,370.2 C282.164,362 278.264,353.3 278.264,353.3 C278.264,353.3 280.464,355.5 280.864,356.2 C281.264,356.9 281.864,359.3 283.764,362.1 C285.664,364.9 289.864,365.2 290.764,364.7 C291.664,364.3 293.864,361.8 291.664,358.7 C289.464,355.6 285.064,343.2 282.564,340.4 C279.964,337.6 267.164,329.1 266.964,328.1 C266.664,327.1 265.964,319.1 265.664,314.8 C265.364,310.4 263.364,276.9 261.864,267.7 C260.364,258.5 253.964,248.5 252.664,245.4 C251.364,242.3 252.364,219.5 252.664,209.3 C252.964,199.1 247.864,183.9 247.264,177.5 C246.764,171.1 247.964,165.4 247.264,155.3 C246.564,145.2 237.364,137.9 230.064,132.8 C222.764,127.7 207.364,127.3 207.364,127.3 C207.264,126.1 206.664,124.4 202.364,122.4 C197.964,120.4 176.864,112.1 176.864,112.1 L176.864,88.9999" id="Path" stroke="#979797"></path>
            <path d="M213.464,365.1 C208.764,368.1 201.864,375.3 185.964,375.9 C162.664,376.8 156.464,370.3 156.464,370.3 C156.464,370.3 155.864,369 154.264,369 L152.264,369 C150.664,369 150.064,370.3 150.064,370.3 C150.064,370.3 143.864,376.7 120.564,375.9 C104.664,375.3 97.764,368.1 93.064,365.1" id="Path" stroke="#979797"></path>
            <path d="M274.464,362.7 C274.464,362.7 279.564,382 280.464,385.1" id="Path" stroke="#979797"></path>
            <path d="M266.864,366.5 C266.864,366.5 270.864,385.2 271.864,387.7" id="Path" stroke="#979797"></path>
            <path d="M259.264,366.5 C259.264,366.5 262.964,382.1 263.864,385.6" id="Path" stroke="#979797"></path>
            <path d="M171.764,488.2 C174.164,486 179.064,479.7 185.664,486" id="Path" stroke="#979797"></path>
            <path d="M187.964,53.9999 C187.664,62.0999 186.764,68.9999 185.464,74.6999 C185.464,74.6999 181.564,96.1999 155.764,95.9999 L150.964,95.9999 C125.164,96.1999 121.264,74.6999 121.264,74.6999 C119.864,68.9999 119.064,61.9999 118.764,53.9999" id="Path" stroke="#979797"></path>
            <path d="M242.964,263.7 C242.964,263.7 241.064,265.5 237.464,265.5 C233.864,265.5 232.464,263.7 232.464,263.7" id="Path" stroke="#979797"></path>
            <path d="M169.864,206.7 C167.564,205.4 164.564,202.9 163.664,198.9 C162.764,194.9 162.264,178 162.664,169.7" id="Path" stroke="#979797"></path>
            <path d="M214.964,206.3 C214.964,206.3 215.964,197.6 216.664,193.3 L217.264,189.5 C218.064,183.5 220.764,180.5 220.764,180.5" id="Path" stroke="#979797"></path>
        </g>
    </g>
</svg>