<?xml version="1.0" encoding="UTF-8"?>
<svg width="307px" height="667px" viewBox="0 0 307 667" version="1.1" xmlns="http://www.w3.org/2000/svg" xmlns:xlink="http://www.w3.org/1999/xlink">
    <g id="653-male-front" stroke="none" stroke-width="1" fill="none" fill-rule="evenodd">
        <rect id="Kopf" fill-opacity="0.02" fill="#FFFFFF" x="105" y="0" width="97" height="120"></rect>
        <rect id="rechte-Schulter" fill-opacity="0.02" fill="#FFFFFF" x="57" y="120" width="97" height="38"></rect>
        <rect id="rechter-Oberschenkel" fill-opacity="0.02" fill="#FFFFFF" x="91" y="368" width="63" height="106"></rect>
        <rect id="rechtes-Schienbein" fill-opacity="0.02" fill="#FFFFFF" x="108" y="474" width="46" height="156"></rect>
        <rect id="rechter-Fuß" fill-opacity="0.02" fill="#FFFFFF" transform="translate(125.500000, 648.000000) scale(1, -1) translate(-125.500000, -648.000000) " x="98" y="630" width="55" height="36"></rect>
        <rect id="linker-Oberschenkel" fill-opacity="0.02" fill="#FFFFFF" x="157" y="367" width="62" height="107"></rect>
        <rect id="linkes-Schienbein" fill-opacity="0.02" fill="#FFFFFF" x="154" y="474" width="46" height="156"></rect>
        <rect id="linker-Fuß" fill-opacity="0.02" fill="#FFFFFF" transform="translate(181.500000, 648.000000) scale(1, -1) translate(-181.500000, -648.000000) " x="153" y="630" width="57" height="36"></rect>
        <rect id="rechte-Hand" fill-opacity="0.02" fill="#FFFFFF" transform="translate(36.426532, 364.148394) rotate(11.000000) translate(-36.426532, -364.148394) " x="6.92653172" y="327.148394" width="59" height="74"></rect>
        <rect id="linke-Hand" fill-opacity="0.02" fill="#FFFFFF" transform="translate(267.654040, 365.985168) scale(-1, 1) rotate(11.000000) translate(-267.654040, -365.985168) " x="235.15404" y="327.985168" width="65" height="76"></rect>
        <rect id="linke-Schulter" fill-opacity="0.02" fill="#FFFFFF" x="154" y="120" width="103" height="38"></rect>
        <rect id="Bauch" fill-opacity="0.02" fill="#FFFFFF" x="95" y="221" width="117" height="95"></rect>
        <rect id="Brust" fill-opacity="0.02" fill="#FFFFFF" x="91" y="158" width="122" height="63"></rect>
        <rect id="Geschlechtsteile" fill-opacity="0.02" fill="#FFFFFF" transform="translate(153.500000, 341.000000) scale(1, -1) translate(-153.500000, -341.000000) " x="96" y="316" width="115" height="50"></rect>
        <path d="M88,159 L88,257 L78.772,257 L66.2788708,331.534595 L34,322.834084 L51.0487586,221.12257 L55,222.187 L55,159 L88,159 Z" id="rechter-Arm" fill-opacity="0.02" fill="#FFFFFF"></path>
        <path d="M270,158 L270,257 L260.523,257 L247.777195,333 L215,324.170041 L232.311959,220.945229 L237,222.208 L237,158 L270,158 Z" id="linker-Arm" fill-opacity="0.02" fill="#FFFFFF" transform="translate(242.500000, 245.500000) scale(-1, 1) translate(-242.500000, -245.500000) "></path>
        <g id="653-male-front">
            <path d="M151.064,103.9 C151.064,103.9 147.964,103.9 145.764,103.9 C143.564,103.9 141.364,102.5 139.464,101.2 C137.564,99.8 124.364,88 123.364,86.9 C122.364,85.8 121.164,84 120.864,74.5 C120.864,74.5 117.264,75.7 116.264,72.5 C115.264,69.3 113.764,64.7 113.564,60.4 C113.364,56.2 114.764,52.4 118.364,53.8 C118.364,53.8 118.364,37.8 118.364,34.8 C118.364,31.8 120.364,24.6 125.964,19.9 C131.564,15.2 136.164,9.2 151.464,9 L152.864,9 C168.164,9.2 172.564,15.1 178.164,19.9 C183.764,24.7 185.764,31.8 185.764,34.8 C185.764,37.8 185.764,53.8 185.764,53.8 C189.364,52.4 190.664,56.2 190.564,60.4 C190.364,64.6 188.864,69.2 187.864,72.5 C186.864,75.7 183.264,74.5 183.264,74.5 C182.964,84 181.764,85.9 180.764,86.9 C179.764,87.9 166.464,99.8 164.664,101.2 C162.764,102.6 160.564,103.9 158.364,103.9 C156.164,103.9 153.064,103.9 153.064,103.9 L151.064,103.9 Z" id="Path" stroke="#979797"></path>
            <path d="M152.064,29.6 C144.064,29.6 136.764,28.9 134.264,28.8 C131.764,28.6 129.364,29.3 127.264,31.9 C127.264,31.9 120.264,50 120.264,53.4 C120.264,56.8 120.764,74.5 120.764,74.5" id="Path" stroke="#979797"></path>
            <path d="M142.364,59.5 C142.364,59.5 138.564,56.5 135.164,56.4 C131.764,56.3 128.664,59.5 128.664,59.5" id="Path" stroke="#979797"></path>
            <path d="M144.164,52.7 C144.164,52.7 140.764,50.4 139.364,50.2 C137.964,49.9 133.064,50.2 131.364,50.2 C129.664,50.2 127.464,51.6 127.464,51.6" id="Path" stroke="#979797"></path>
            <path d="M146.364,56.4 C146.364,56.4 148.364,58.1 148.364,59.5 C148.364,60.9 148.364,67.6 148.364,67.6" id="Path" stroke="#979797"></path>
            <path d="M138.364,130.9 C138.364,130.9 113.864,124.5 98.8638,126.7" id="Path" stroke="#979797"></path>
            <path d="M136.464,206.5 C133.064,208.2 125.064,210.6 115.364,210.6 C105.6635,210.6 95.9635,207.4 93.3635,204.1 C90.7635,200.9 89.0635,193.3 89.0635,189.2" id="Path" stroke="#979797"></path>
            <path d="M138.364,219.6 C138.364,219.6 125.664,228.4 121.364,242.8" id="Path" stroke="#979797"></path>
            <path d="M149.764,356.9 C149.764,356.9 147.864,451.2 146.464,458.3 C145.064,465.5 145.364,486.1 145.364,490.8 C145.364,495.5 147.864,511.6 148.864,522 C149.764,532.4 146.364,561.6 145.864,568.3 C145.364,575 145.664,625.7 145.664,630.8 C145.664,635.9 150.164,638.6 149.764,653.7 C149.564,661.3 150.864,665.9 143.564,665.9 C137.364,665.8 139.564,656 139.564,656 C139.564,656 138.464,663.6 136.064,665.2 C134.764,666 131.364,665.5 130.264,664.9 C128.264,663.8 129.364,658.8 129.364,658.8 C129.364,658.8 129.164,664 125.964,664.6 C124.964,664.8 122.664,664.2 122.064,663.7 C120.064,662 121.264,657.9 121.264,657.9 C121.264,657.9 119.964,662.6 118.364,663.3 C117.164,663.8 115.164,663.3 114.764,663.1 C112.6637,662.2 113.664,656.9 113.664,656.9 C113.664,659.2 112.5637,661.6 110.7637,661.7 C109.6637,661.8 107.0637,661.3 106.8637,658.2 C106.7637,657.4 107.1636,651.6 107.5636,650.3 C109.9636,642.2 120.164,626.3 121.364,623.2 C122.764,619.5 121.864,612.7 119.964,607.2 C118.164,601.7 108.9637,563.6 105.7637,539.8 C102.5637,516 109.4636,488.9 109.4636,483 C109.4636,477.1 101.6636,462.8 95.6636,431.7 C89.6636,400.6 92.7637,371.7 93.7637,346.7 C94.6637,321.7 101.4636,297.9 101.9636,292.9 C102.4636,287.9 101.6636,248.3 101.6636,243.5 C101.6636,238.7 101.3637,238.5 97.7637,229.1 C94.0637,219.6 91.1636,200.7 90.9636,207.6 C90.6636,214.4 84.9637,235.2 83.8637,240.7 C82.7637,246.2 83.5637,268.8 82.2637,274.6 C80.9637,280.4 62.3636,328.7 61.5636,332.3 C60.7636,335.9 61.2636,348.8 60.5636,352.4 C59.8636,356 56.1636,369.3 54.6636,374 C53.1636,378.7 48.6637,385.1 46.2637,385.3 C43.8637,385.5 42.4636,385.7 42.4636,385.7 C42.4636,385.7 39.7636,389.8 36.9636,389.9 C34.1636,390 34.4636,387.8 34.4636,387.8 C34.4636,387.8 32.3636,389.9 29.1636,389.9 C25.9636,389.9 25.7637,385.2 25.7637,385.2 C25.7637,385.2 25.4636,386 22.66358,385.7 C19.86358,385.4 20.26358,378.2 22.16358,370 C24.0636,361.8 27.9636,353.1 27.9636,353.1 C27.9636,353.1 25.7637,355.3 25.3637,356 C24.9637,356.7 24.3636,359.1 22.46363,361.9 C20.56363,364.7 16.36363,365 15.46363,364.5 C14.56363,364.1 12.363606,361.6 14.56361,358.5 C16.76361,355.4 21.16358,343 23.6636,340.2 C26.1636,337.4 39.0637,328.9 39.2637,327.9 C39.5637,326.9 40.2636,318.9 40.5636,314.6 C40.8636,310.2 42.8637,276.7 44.3637,267.5 C45.8637,258.3 52.2636,248.3 53.5636,245.2 C54.8636,242.1 53.8636,219.3 53.5636,209.1 C53.2636,198.9 58.3636,183.7 58.9636,177.3 C59.5636,170.9 58.2636,165.2 58.9636,155.1 C59.6636,145 68.8636,137.7 76.1636,132.6 C83.4636,127.5 98.8637,127.1 98.8637,127.1 C98.9637,125.9 99.5637,124.2 103.8637,122.2 C108.2637,120.2 129.364,111.9 129.364,111.9 L129.364,92.2" id="Path" stroke="#979797"></path>
            <path d="M92.2637,376 C97.0637,378.4 104.0636,380.4 119.964,381.2 C135.364,381.9 149.264,380.3 149.264,380.3" id="Path" stroke="#979797"></path>
            <path d="M31.7637,362.5 C31.7637,362.5 26.6637,381.8 25.7637,384.9" id="Path" stroke="#979797"></path>
            <path d="M39.4639,366.3 C39.4639,366.3 35.4639,385 34.4639,387.5" id="Path" stroke="#979797"></path>
            <path d="M47.0638,366.3 C47.0638,366.3 43.3639,381.9 42.4639,385.4" id="Path" stroke="#979797"></path>
            <path d="M34.4639,349 C36.5639,348.7 41.7639,345.9 43.9639,342.9" id="Path" stroke="#979797"></path>
            <path d="M120.563,483 C122.963,485.2 127.864,491.5 134.464,485.2" id="Path" stroke="#979797"></path>
            <path d="M152.063,29.6 C160.063,29.6 167.364,28.9 169.864,28.8 C172.364,28.6 174.764,29.3 176.864,31.9 C176.864,31.9 183.864,50 183.864,53.4 C183.864,56.8 183.364,74.5 183.364,74.5" id="Path" stroke="#979797"></path>
            <path d="M161.764,59.5 C161.764,59.5 165.564,56.5 168.964,56.4 C172.364,56.3 175.464,59.5 175.464,59.5" id="Path" stroke="#979797"></path>
            <path d="M159.964,52.7 C159.964,52.7 163.364,50.4 164.764,50.2 C166.164,49.9 171.064,50.2 172.764,50.2 C174.464,50.2 176.664,51.6 176.664,51.6" id="Path" stroke="#979797"></path>
            <path d="M159.964,77.2 C159.964,77.2 158.764,76.3 157.764,77.2 C156.864,78.1 155.164,79.7 153.464,79.7 L150.664,79.7 C148.964,79.7 147.264,78.2 146.364,77.2 C145.464,76.3 144.164,77.2 144.164,77.2" id="Path" stroke="#979797"></path>
            <path d="M165.764,130.9 C165.764,130.9 190.264,124.5 205.264,126.7" id="Path" stroke="#979797"></path>
            <path d="M167.664,206.5 C171.064,208.2 179.064,210.6 188.764,210.6 C198.464,210.6 208.164,207.4 210.764,204.1 C213.364,200.9 215.064,193.3 215.064,189.2" id="Path" stroke="#979797"></path>
            <path d="M165.764,219.6 C165.764,219.6 178.464,228.4 182.764,242.8" id="Path" stroke="#979797"></path>
            <path d="M205.764,309.8 C199.064,311.7 191.964,313.5 183.964,314.5 C174.764,315.6 153.364,316.3 153.364,316.3 L150.964,316.3 C150.964,316.3 129.364,315.6 120.264,314.5 C112.2639,313.6 105.1639,311.7 98.4639,309.8" id="Path" stroke="#979797"></path>
            <path d="M154.364,356.9 C154.364,356.9 156.263,451.1 157.663,458.3 C159.063,465.5 158.764,486.1 158.764,490.8 C158.764,495.5 156.264,511.6 155.264,522 C154.364,532.4 157.764,561.6 158.264,568.3 C158.764,575 158.464,625.7 158.464,630.8 C158.464,635.9 153.964,638.6 154.364,653.7 C154.564,661.3 153.263,665.9 160.563,665.9 C166.763,665.8 164.564,656 164.564,656 C164.564,656 165.664,663.6 168.064,665.2 C169.364,666 172.764,665.5 173.864,664.9 C175.864,663.8 174.764,658.8 174.764,658.8 C174.764,658.8 174.963,664 178.163,664.6 C179.163,664.8 181.463,664.2 182.063,663.7 C184.063,662 182.864,657.9 182.864,657.9 C182.864,657.9 184.164,662.6 185.764,663.3 C186.964,663.8 188.964,663.3 189.364,663.1 C191.464,662.2 190.464,656.9 190.464,656.9 C190.464,659.2 191.564,661.6 193.364,661.7 C194.464,661.8 197.064,661.3 197.264,658.2 C197.364,657.4 196.963,651.6 196.563,650.3 C194.163,642.2 183.964,626.3 182.764,623.2 C181.364,619.5 182.263,612.7 184.163,607.2 C185.963,601.7 195.164,563.6 198.364,539.8 C201.564,516 194.663,488.9 194.663,483 C194.663,477.1 202.464,462.8 208.464,431.7 C214.464,400.6 211.364,371.7 210.364,346.7 C209.464,321.7 202.663,297.9 202.163,292.9 C201.663,287.9 202.464,248.3 202.464,243.5 C202.464,238.7 202.764,238.5 206.364,229.1 C210.064,219.6 212.963,200.7 213.163,207.6 C213.463,214.4 219.164,235.2 220.264,240.7 C221.364,246.2 220.564,268.8 221.864,274.6 C223.164,280.4 241.763,328.7 242.563,332.3 C243.363,335.9 242.863,348.8 243.563,352.4 C244.263,356 247.964,369.3 249.464,374 C250.964,378.7 255.464,385.1 257.864,385.3 C260.264,385.5 261.663,385.7 261.663,385.7 C261.663,385.7 264.363,389.8 267.163,389.9 C269.963,390 269.663,387.8 269.663,387.8 C269.663,387.8 271.764,389.9 274.964,389.9 C278.164,389.9 278.364,385.2 278.364,385.2 C278.364,385.2 278.664,386 281.464,385.7 C284.264,385.4 283.864,378.2 281.964,370 C280.064,361.8 276.163,353.1 276.163,353.1 C276.163,353.1 278.364,355.3 278.764,356 C279.164,356.7 279.763,359.1 281.663,361.9 C283.563,364.7 287.763,365 288.663,364.5 C289.563,364.1 291.764,361.6 289.564,358.5 C287.364,355.4 282.964,343 280.464,340.2 C277.964,337.4 265.064,328.9 264.864,327.9 C264.664,326.9 263.863,318.9 263.563,314.6 C263.263,310.3 261.264,276.7 259.764,267.5 C258.264,258.3 251.863,248.3 250.563,245.2 C249.263,242.1 250.263,219.3 250.563,209.1 C250.863,198.9 245.763,183.7 245.163,177.3 C244.563,170.9 245.863,165.2 245.163,155.1 C244.463,145 235.264,137.7 227.964,132.6 C220.664,127.5 205.264,127.1 205.264,127.1 C205.164,125.9 204.564,124.2 200.264,122.2 C195.864,120.2 174.764,111.9 174.764,111.9 L174.764,92.2" id="Path" stroke="#979797"></path>
            <path d="M165.564,349.3 C165.564,349.3 165.864,357.1 152.464,357 L151.764,357 C138.364,357.2 138.563832,349.3 138.563832,349.3" id="Path" stroke="#979797"></path>
            <path d="M211.864,376 C207.064,378.4 200.064,380.4 184.164,381.2 C168.764,381.9 154.864,380.3 154.864,380.3" id="Path" stroke="#979797"></path>
            <path d="M272.364,362.5 C272.364,362.5 277.464,381.8 278.364,384.9" id="Path" stroke="#979797"></path>
            <path d="M264.764,366.3 C264.764,366.3 268.764,385 269.764,387.5" id="Path" stroke="#979797"></path>
            <path d="M257.063,366.3 C257.063,366.3 260.763,381.9 261.663,385.4" id="Path" stroke="#979797"></path>
            <path d="M269.664,349 C267.564,348.7 262.364,345.9 260.164,342.9" id="Path" stroke="#979797"></path>
            <path d="M183.664,483 C181.264,485.2 176.364,491.5 169.764,485.2" id="Path" stroke="#979797"></path>
            <path d="M137.964,58.7 C137.964,59.8598 137.023,60.8 135.864,60.8 C134.704,60.8 133.764,59.8598 133.764,58.7 C133.764,57.5402 134.704,56.6 135.864,56.6 C137.023,56.6 137.964,57.5402 137.964,58.7 Z" id="Path" stroke="#979797" fill="#979797" fill-rule="nonzero"></path>
            <path d="M170.664,58.7 C170.664,59.8598 169.724,60.8 168.564,60.8 C167.404,60.8 166.464,59.8598 166.464,58.7 C166.464,57.5402 167.404,56.6 168.564,56.6 C169.724,56.6 170.664,57.5402 170.664,58.7 Z" id="Path" stroke="#979797" fill="#979797" fill-rule="nonzero"></path>
            <path d="M106.5636,199.2 C106.5636,199.541 106.3637,199.904 105.9303,200.203 C105.4991,200.5 104.876,200.7 104.1636,200.7 C103.4512,200.7 102.8281,200.5 102.3969,200.203 C101.9636,199.904 101.7637,199.541 101.7637,199.2 C101.7637,198.859 101.9636,198.496 102.3969,198.197 C102.8281,197.9 103.4512,197.7 104.1636,197.7 C104.876,197.7 105.4991,197.9 105.9303,198.197 C106.3637,198.496 106.5636,198.859 106.5636,199.2 Z" id="Path" stroke="#979797" fill="#979797" fill-rule="nonzero"></path>
            <path d="M202.864,199.2 C202.864,199.541 202.664,199.904 202.23,200.203 C201.799,200.5 201.176,200.7 200.464,200.7 C199.751,200.7 199.128,200.5 198.697,200.203 C198.263,199.904 198.063,199.541 198.063,199.2 C198.063,198.859 198.263,198.496 198.697,198.197 C199.128,197.9 199.751,197.7 200.464,197.7 C201.176,197.7 201.799,197.9 202.23,198.197 C202.664,198.496 202.864,198.859 202.864,199.2 Z" id="Path" stroke="#979797" fill="#979797" fill-rule="nonzero"></path>
            <path d="M154.564,288.1 C154.564,288.441 154.364,288.804 153.93,289.103 C153.499,289.4 152.876,289.6 152.164,289.6 C151.451,289.6 150.828,289.4 150.397,289.103 C149.964,288.804 149.764,288.441 149.764,288.1 C149.764,287.759 149.964,287.396 150.397,287.097 C150.828,286.8 151.451,286.6 152.164,286.6 C152.876,286.6 153.499,286.8 153.93,287.097 C154.364,287.396 154.564,287.759 154.564,288.1 Z" id="Path" stroke="#979797" fill="#979797" fill-rule="nonzero"></path>
            <path d="M142.664,87.2 C142.664,87.2 149.264,87.8999 152.664,87.8999 C156.264,87.8999 161.664,87.2 161.664,87.2" id="Path" stroke="#979797"></path>
            <path d="M149.563,92.6 C149.563,92.6 150.463,93.5 152.063,93.5 C153.963,93.5 154.563,92.6 154.563,92.6" id="Path" stroke="#979797"></path>
            <line x1="152.063" y1="275.2" x2="152.063" y2="237.5" id="Path" stroke="#979797"></line>
            <line x1="152.063" y1="189.3" x2="152.063" y2="161.5" id="Path" stroke="#979797"></line>
            <path d="M152.664,135.8 C152.664,135.8 149.964,134.7 148.364,134.3" id="Path" stroke="#979797"></path>
        </g>
    </g>
</svg>